<svg xmlns="http://www.w3.org/2000/svg" xmlns:xlink="http://www.w3.org/1999/xlink" width="925.051" height="401" viewBox="0 0 925.051 401">
  <defs>
    <linearGradient id="linear-gradient" x1="-0.065" y1="-0.077" x2="0.977" y2="0.978" gradientUnits="objectBoundingBox">
      <stop offset="0" stop-color="#fc8775"/>
      <stop offset="1" stop-color="#ffd884"/>
    </linearGradient>
    <linearGradient id="linear-gradient-2" x1="0.5" x2="0.5" y2="1" gradientUnits="objectBoundingBox">
      <stop offset="0" stop-color="#fcb071"/>
      <stop offset="1" stop-color="#ffd884"/>
    </linearGradient>
    <linearGradient id="linear-gradient-3" y1="-0.38" xlink:href="#linear-gradient-2"/>
    <linearGradient id="linear-gradient-4" x1="0.956" y1="0.303" x2="0" y2="0.369" xlink:href="#linear-gradient-2"/>
  </defs>
  <g id="Grupo_1103054" data-name="Grupo 1103054" transform="translate(-495 -2655)">
    <rect id="Rectángulo_402959" data-name="Rectángulo 402959" width="925" height="401" rx="30" transform="translate(495.051 2655)" fill="url(#linear-gradient)"/>
    <g id="Grupo_1101498" data-name="Grupo 1101498" transform="translate(359 -8499.867)">
      <path id="Trazado_911336" data-name="Trazado 911336" d="M12.426,369.692H251.074a119.324,119.324,0,0,0-238.648,0" transform="translate(724.926 11186.176)" fill="url(#linear-gradient-2)"/>
      <path id="Trazado_911337" data-name="Trazado 911337" d="M148.043,0a72.8,72.8,0,0,0,72.8,72.8A72.8,72.8,0,0,0,293.646,0Z" transform="translate(139.286 11155.42)" fill="url(#linear-gradient-3)"/>
      <path id="Trazado_911338" data-name="Trazado 911338" d="M158.353,146.4c-8.839,13.276-13.231,18.688-21.166,18.688s-12.319-5.412-21.157-18.688c-9.152-13.741-21.676-32.563-47.065-32.563S31.052,132.662,21.909,146.4C13.07,159.679,8.678,165.092.751,165.092c-.25,0-.5-.009-.751-.018V196.2c.25.009.5.009.751.009,25.389,0,37.913-18.822,47.056-32.563,8.839-13.276,13.222-18.688,21.157-18.688s12.319,5.412,21.157,18.688c9.152,13.741,21.676,32.563,47.065,32.563s37.922-18.822,47.065-32.563c8.839-13.276,13.231-18.688,21.166-18.688a15.557,15.557,0,1,0,0-31.114c-25.4,0-37.922,18.822-47.065,32.563" transform="translate(136 11162.112)" fill="url(#linear-gradient-4)"/>
      <path id="Trazado_911360" data-name="Trazado 911360" d="M8.729.186A20.552,20.552,0,0,1,1.245,3.141C.182,3.291-.385,4.208.3,4.907A7.791,7.791,0,0,1,1.9,8.529a.865.865,0,0,0,.9.58,1.251,1.251,0,0,0,.215-.021c.015-.007.03-.011.045-.017.389-.146.784-.427.771-.822a8.373,8.373,0,0,0-.76-3.3C5.136,5.594,7.745,5.5,9.9,5.995a34.387,34.387,0,0,1,8.9,3.6A45.723,45.723,0,0,1,32.782,22.184c6.8,8.918,11.682,20.491,9.689,31.81-.034.185.335.217.378.032C45.7,42.15,41.043,30.04,33.982,20.615A48.17,48.17,0,0,0,19.93,8.022a37.369,37.369,0,0,0-8.565-3.608,34.551,34.551,0,0,0-4.023-.959A20.317,20.317,0,0,0,10.2,1.845c1.2-.815-.223-2.383-1.47-1.659" transform="translate(471.707 11160.586) rotate(89)" fill="#ffd884"/>
      <g id="Grupo_1100989" data-name="Grupo 1100989" transform="translate(259.597 11458.52)">
        <path id="Trazado_911284" data-name="Trazado 911284" d="M241.509,233.311c-.517-1.215-1.043-2.444-1.491-3.694.217-.177.437-.352.647-.537a1.1,1.1,0,0,0-1-1.86c-.121.021-.236.045-.354.065a16.3,16.3,0,0,1-.4-2.28c-.108-1.123-1.734-1.569-2.081-.323-.3,1.069-.521,2.177-.794,3.241-.843.159-1.7.3-2.549.4a1.1,1.1,0,0,0-.6,2.015c.5.33,1,.661,1.505,1a3.062,3.062,0,0,0-1.342,1.582c-.082.057-.163.121-.249.174a.449.449,0,0,0,.319.827c.06-.014.119-.039.181-.06a.763.763,0,0,0,.7.216,5.737,5.737,0,0,0,2.321-1.45,33.028,33.028,0,0,0,3.666,2.126,1.094,1.094,0,0,0,1.532-1.437" transform="translate(-208.071 -171.729)" fill="#ffd884"/>
        <path id="Trazado_911285" data-name="Trazado 911285" d="M270.462,218.932c-1.326-1.333-5.5.979-6.947,1.517-1.333.5-2.652,1.028-3.967,1.566-.585.234-1.175.459-1.749.717-.317.142-.551.526-.81.64a.352.352,0,0,0,.064.647c2.141.427,4.359-.767,6.422-1.477,1.462-.513,2.913-1.043,4.383-1.5,1.029-.317,2.307-.264,2.78-1.358a.767.767,0,0,0-.176-.751" transform="translate(-213.585 -170.508)" fill="#ffd884"/>
        <path id="Trazado_911286" data-name="Trazado 911286" d="M293.851,211.8a26.851,26.851,0,0,1-2.218-3.5,14.239,14.239,0,0,1,2.431-1.542,1.1,1.1,0,0,0-.773-2.022,29.532,29.532,0,0,0-2.913.949c-.319-.793-.609-1.594-.861-2.414-.451-1.251-2.437-.842-2.054.5a6,6,0,0,1,.194,2.979c-.979.4-1.967.8-2.964,1.158a1.1,1.1,0,0,0-.323,1.974c.623.372,1.24.733,1.867,1.083-.833,1.206-1.544,2.649-.71,3.776a.579.579,0,0,0,.307.187c.021.068.027.139.047.208a.283.283,0,0,0,.335.2c.012,0,.02,0,.026,0,.239-.041.236-.3.1-.444.008,0,.02,0,.025-.006a.663.663,0,0,1,.066-.047c.365.022.623-.325.925-.914.061-.113.1-.231.16-.338.274-.5.507-1.052.765-1.554a19.886,19.886,0,0,0,4.46,1.553,1.1,1.1,0,0,0,1.1-1.782" transform="translate(-219.692 -166.897)" fill="#ffd884"/>
        <path id="Trazado_911287" data-name="Trazado 911287" d="M314.771,214.553c-1.623-.528-3.263-.994-4.876-1.57-1.733-.619-3.21-1.623-4.861-2.389-.5-.228-1.243.232-.873.817,1.906,3.026,6.77,4.287,10,5.181a1.065,1.065,0,0,0,.611-2.039" transform="translate(-224.25 -168.705)" fill="#ffd884"/>
        <path id="Trazado_911288" data-name="Trazado 911288" d="M338.084,218.3a9.139,9.139,0,0,1-1.735-2.771,18.748,18.748,0,0,0,3.248-1.492,1.1,1.1,0,0,0-.2-2.011,22.641,22.641,0,0,0-3.721-.616,12.993,12.993,0,0,1,.331-2.32c.308-1.3-1.633-1.9-2-.6-.267.949-.56,1.858-.9,2.735-1.358-.085-2.723-.173-4.078-.384-.922-.15-2.044.985-1.115,1.793.862.746,1.711,1.5,2.558,2.263a3.267,3.267,0,0,0-1.372.874.829.829,0,0,0,.347,1.39,16.14,16.14,0,0,1-1.258,1.15.577.577,0,0,0,.523.979,7.154,7.154,0,0,0,3.63-2.484c.073-.024.147-.044.225-.065a45.9,45.9,0,0,0,4.142,3.217c1.036.708,2.185-.76,1.37-1.659" transform="translate(-229.555 -168.08)" fill="#ffd884"/>
        <path id="Trazado_911289" data-name="Trazado 911289" d="M360.758,212.146a16.128,16.128,0,0,0-4.814,1.077,13.319,13.319,0,0,0-4.426,2.094c-.8.66.153,1.885,1.026,1.431a23.594,23.594,0,0,1,8.172-2.469c1.327-.132,1.461-2.15.042-2.133" transform="translate(-234.892 -169.068)" fill="#ffd884"/>
        <path id="Trazado_911290" data-name="Trazado 911290" d="M381.093,212a25.968,25.968,0,0,1-1.247-4.891q1-.677,1.979-1.388c.843-.618.127-1.827-.719-1.895-.532-.039-1.059-.084-1.591-.125a37.128,37.128,0,0,1,.106-4.478,1.043,1.043,0,0,0-1.913-.574c-.894,1.522-1.843,3.015-2.784,4.505a30.581,30.581,0,0,1-3.433-.715,1.1,1.1,0,0,0-.891,1.972c.814.623,1.6,1.262,2.349,1.924-.359.593-.989,1.506-1.467,2.465-.193.138-.361.245-.5.327a1.135,1.135,0,0,0-.091,1.863,1.431,1.431,0,0,0,.23.767.357.357,0,0,0,.65-.063,6.211,6.211,0,0,1,.286-.65,25.158,25.158,0,0,0,4-1.669c1.1,1.162,2.164,2.366,3.174,3.629.67.833,2.245.022,1.866-1.007m-5.43-6.515c.586.081,1.174.146,1.766.2.013.132.022.264.037.386-.089.061-.182.121-.278.184a.89.89,0,0,0-.38-.149.332.332,0,0,0-.408-.235c-.223.057-.41.041-.564.185-.119-.105-.237-.214-.345-.32.056-.084.115-.167.173-.255" transform="translate(-239.159 -165.918)" fill="#ffd884"/>
        <path id="Trazado_911291" data-name="Trazado 911291" d="M397.462,223.108a26.222,26.222,0,0,1-2.845-3.015,39.632,39.632,0,0,0-2.366-3.2.722.722,0,0,0-1.223.656c.652,2.727,2.958,5.47,5.084,7.193.944.756,2.228-.819,1.349-1.631" transform="translate(-243.871 -170.089)" fill="#ffd884"/>
        <path id="Trazado_911292" data-name="Trazado 911292" d="M411.545,241.9a13.659,13.659,0,0,1-.228-4.838,12.676,12.676,0,0,0,1.789-.964,1.1,1.1,0,0,0-.5-2.049l-.792-.073c.239-1.237.49-2.482.654-3.766.138-1.051-1.164-1.278-1.821-.808-1.686,1.21-3.267,2.551-4.866,3.852-1.052-.191-2.095-.409-3.136-.7-1.144-.324-2.037,1.43-.89,1.965a11,11,0,0,1,1.371.785,25.33,25.33,0,0,1-4.582,2.726c-.8.357-.273,1.546.526,1.385a11.716,11.716,0,0,0,1.275-.336.822.822,0,0,0,.6.173c.1-.012.184-.045.283-.06a.116.116,0,0,1,0,.031c1.745-.289,3.515-.475,5.24-.777,1.117,1.364,2.109,2.848,3.062,4.222a1.1,1.1,0,0,0,2.021-.773m-2.858-8.226c.4-.33.8-.659,1.191-.981-.067.363-.135.736-.2,1.1-.329-.036-.653-.077-.986-.12" transform="translate(-245.481 -172.911)" fill="#ffd884"/>
        <path id="Trazado_911293" data-name="Trazado 911293" d="M438.085,229.125l-.183-.183a1.08,1.08,0,0,0-1.051-.315,51.811,51.811,0,0,0-10.88,4.617.8.8,0,0,0,.568,1.48,38.871,38.871,0,0,0,6.044-2.291c1.224-.508,2.458-.993,3.715-1.394.909-.3,1.627-.3,1.926-1.3a.649.649,0,0,0-.139-.611" transform="translate(-251.67 -172.78)" fill="#ffd884"/>
        <path id="Trazado_911294" data-name="Trazado 911294" d="M460.881,222.5a22.661,22.661,0,0,1-3.259-3.384c.54-.642,1.062-1.285,1.558-1.956.626-.856-.331-1.767-1.186-1.647s-1.728.259-2.589.4c-.523-.843-1.015-1.707-1.5-2.59-.5-.9-2.12-.633-2.041.488a11.459,11.459,0,0,1-.179,2.641,24.621,24.621,0,0,1-3.69.16c-1.034-.046-1.594,1.52-.6,2.016,1.151.568,2.293,1.158,3.436,1.744a11.282,11.282,0,0,0-.242,4.284.825.825,0,0,0,.171.366s0,0,0,.015c-.383,1.151,1.458,2.032,1.972.9a18.734,18.734,0,0,1,2.207-3.554,43.086,43.086,0,0,0,4.838,1.909c.969.314,1.971-1.075,1.11-1.789" transform="translate(-256.479 -169.213)" fill="#ffd884"/>
        <path id="Trazado_911295" data-name="Trazado 911295" d="M463.666,200.99c.183-2.723.427-5.419.811-8.12.231-1.659.517-3.323.9-4.956a3.308,3.308,0,0,0,.131-2.335.479.479,0,0,0-.536-.238c-.032,0-.062,0-.094-.008a.922.922,0,0,0-.8.427c-1.107,2.133-1.371,4.722-1.735,7.067a44.738,44.738,0,0,0-.838,8.113,1.093,1.093,0,0,0,.769,1.056.853.853,0,0,0,.646.007.31.31,0,0,0,.107-.087,1.084,1.084,0,0,0,.636-.925" transform="translate(-259.779 -163.017)" fill="#ffd884"/>
        <path id="Trazado_911296" data-name="Trazado 911296" d="M470.287,173.571c-.269-2.225-.613-4.439-.949-6.648q1.211-1.05,2.419-2.093a1.1,1.1,0,0,0-.433-1.848c-.861-.144-1.723-.276-2.6-.4-.2-1.666-.372-3.338-.453-5.022-.064-1.343-2.1-1.426-2.113-.046a14.833,14.833,0,0,1-.919,4.622c-1.249-.169-2.5-.326-3.752-.524-.98-.157-1.405,1.206-.822,1.831a25.916,25.916,0,0,1,2.713,3.572c-.411,1.108-.851,2.2-1.3,3.3-.312.269-.626.545-.937.812a5.931,5.931,0,0,0-1.677,1.449.34.34,0,0,0-.039.034h0c-.059.081-.128.14-.186.219-.78,1.027.775,2.166,1.673,1.386.073-.072.144-.126.221-.194.463.216,1.075-.479,1.647-1.425q1.317-1.149,2.643-2.281a32.631,32.631,0,0,0,3,4.255c.79.908,1.978-.013,1.853-1m-3.96-6.928c.2-.571.367-1.163.539-1.745.053.377.1.759.156,1.138Z" transform="translate(-259.222 -156.514)" fill="#ffd884"/>
        <path id="Trazado_911298" data-name="Trazado 911298" d="M425.612,186.544c-2.83-1.535-6.349-2.19-7.828-5.341-.431-.913-1.75-.242-1.553.655a4.654,4.654,0,0,0,.253.686c-.894,3.925-3.1,6-6.282,8.469-.859.666.067,2.144,1.049,1.8,4.1-1.434,8.929-1.9,10.108,3.284.266,1.157,1.933.783,1.94-.266h.022c-.006-.054-.022-.1-.029-.156-.006-.038,0-.07-.006-.109-.067-.255-.121-.524-.171-.8-.01-.042-.016-.086-.026-.124-.444-2.45-.244-5.43,2.311-6.476a.9.9,0,0,0,.212-1.626m-4.247,5.11c-1.686-1.61-4.212-2.05-6.818-1.783a11.425,11.425,0,0,0,2.853-5.78c1.446,1.611,3.841,2.45,5.9,3.331a5.72,5.72,0,0,0-1.933,4.232" transform="translate(-248.126 -161.987)" fill="#ffd884"/>
        <path id="Trazado_911300" data-name="Trazado 911300" d="M216.74,249.835c-2.83-1.535-6.349-2.19-7.828-5.341-.431-.913-1.75-.242-1.553.654a4.635,4.635,0,0,0,.253.687c-.894,3.925-3.1,6-6.282,8.469-.859.666.067,2.144,1.049,1.8,4.1-1.434,8.929-1.9,10.108,3.284.266,1.157,1.934.783,1.94-.266h.022c-.007-.054-.022-.1-.029-.156-.007-.038,0-.07-.007-.109-.066-.255-.12-.524-.171-.8-.009-.042-.016-.086-.025-.124-.444-2.45-.245-5.43,2.311-6.476a.9.9,0,0,0,.212-1.626m-4.247,5.11c-1.686-1.61-4.212-2.05-6.818-1.783a11.425,11.425,0,0,0,2.853-5.78c1.446,1.611,3.841,2.45,5.9,3.331a5.717,5.717,0,0,0-1.934,4.232" transform="translate(-200.989 -176.27)" fill="#ffd884"/>
        <path id="Trazado_911303" data-name="Trazado 911303" d="M457.451,263.781c-1.729-2.717-4.486-5-4.249-8.471.067-1.007-1.412-1.062-1.676-.183a4.5,4.5,0,0,0-.112.723c-2.688,3-5.623,3.735-9.6,4.35-1.075.165-.984,1.907.041,2.084,4.282.739,8.728,2.675,7.241,7.78-.329,1.141,1.309,1.624,1.824.709l.019.011c.02-.05.03-.1.05-.149s.036-.06.047-.1c.066-.256.15-.517.238-.78.012-.041.028-.083.037-.121.8-2.357,2.424-4.864,5.166-4.538.706.085,1.429-.6.976-1.318m-6.195,2.4c-.691-2.227-2.686-3.839-5.094-4.871a11.429,11.429,0,0,0,5.3-3.666c.481,2.11,2.168,4.008,3.537,5.778a5.716,5.716,0,0,0-3.745,2.759" transform="translate(-255.162 -178.629)" fill="#ffd884"/>
      </g>
      <g id="Grupo_1100985" data-name="Grupo 1100985" transform="translate(1005.818 11170.752)">
        <path id="Trazado_911230" data-name="Trazado 911230" d="M358.045,293.768a7.467,7.467,0,0,0,.8-.783c2.925-2.818,5.646-5.859,8.507-8.741a1.8,1.8,0,0,0,2.154-.729,3.927,3.927,0,0,0,.619-1.371,1.472,1.472,0,0,0,0-.612,41.352,41.352,0,0,1,4.837-3.963,10.239,10.239,0,0,1,2.419-1.254c.317-.109,1.879-.714,1.148-.567a.893.893,0,0,0,.429-1.484c-.009.048-.021.1-.03.15a1.522,1.522,0,0,0-1.391-1.132c-3.818-.084-7.52,3.566-10.247,6.171-.41-.406-.821-.818-1.215-1.235-.621-.664-1.156-1.388-1.705-2.1a67.225,67.225,0,0,1,8.141-4.944c1.607-.819.5-2.928-1.06-2.74-3.743.441-7.645,3.837-10.594,5.942-1.776,1.264-7.511,4.38-6.782,7.166a1.531,1.531,0,0,0,1.784,1.1c.974-.107,1.662-1.08,2.333-1.7a43.3,43.3,0,0,1,3.451-2.833,19.077,19.077,0,0,0,3.1,3.8c-3.09,3.076-5.978,6.362-9.184,9.318-1.69,1.559.753,4.021,2.479,2.542" transform="translate(-354.015 -268.422)" fill="#ffd884"/>
        <path id="Trazado_911231" data-name="Trazado 911231" d="M368.721,305.539a6.233,6.233,0,0,0-.659-.976,5.889,5.889,0,0,0,3.895-3.516c.42-1.215.016-3.656-1.5-3.979a2.679,2.679,0,0,0-3.074,1.579c-.083.252.19.407.4.323.657-.277,2.013-1.3,2.4-.1a2.272,2.272,0,0,1-.994,2.667c-1.179.743-3.388,1.117-4.593.246-1.795-1.293-3.708,1.795-1.782,2.982a7.576,7.576,0,0,1,2.818,2.479,1.765,1.765,0,0,0,3.091-1.7" transform="translate(-355.818 -274.873)" fill="#ffd884"/>
        <path id="Trazado_911232" data-name="Trazado 911232" d="M392.906,312.832c2.406-3.1,4.347-7.879,3.936-11.86-.139-1.361-.72-3.117-2.225-3.522a2.752,2.752,0,0,0-1.237-.007c-4.211-1.6-10.893,3.03-12.9,7.3a9.037,9.037,0,0,0,2.892,11.284c3.5,2.636,7.4-.442,9.537-3.2m-9.8-3.21c-.962-4.037,5-9.672,9.136-10,.561.952,1.137.992,1.12,2.446a15.484,15.484,0,0,1-2.017,6.616,10.256,10.256,0,0,1-3.993,4.563c-2.155,1.139-3.858-1.978-4.245-3.626" transform="translate(-359.784 -274.898)" fill="#ffd884"/>
      </g>
    </g>
  </g>
</svg>
