<svg xmlns="http://www.w3.org/2000/svg" xmlns:xlink="http://www.w3.org/1999/xlink" width="295" height="260" viewBox="0 0 295 260">
  <defs>
    <clipPath id="clip-path">
      <rect id="Rectángulo_403032" data-name="Rectángulo 403032" width="287.55" height="260" fill="none"/>
    </clipPath>
    <clipPath id="clip-path-3">
      <rect id="Rectángulo_403026" data-name="Rectángulo 403026" width="113.427" height="24.643" fill="none"/>
    </clipPath>
    <clipPath id="clip-path-4">
      <rect id="Rectángulo_403027" data-name="Rectángulo 403027" width="8.916" height="11.551" fill="none"/>
    </clipPath>
    <clipPath id="clip-path-5">
      <rect id="Rectángulo_403028" data-name="Rectángulo 403028" width="4.229" height="5.822" fill="none"/>
    </clipPath>
  </defs>
  <g id="Grupo_1103693" data-name="Grupo 1103693" transform="translate(-600 -4940.394)">
    <g id="Grupo_1103056" data-name="Grupo 1103056" transform="translate(-105 2387.394)">
      <rect id="Rectángulo_402941" data-name="Rectángulo 402941" width="295" height="163" rx="10" transform="translate(705 2650)" fill="#ffd884" opacity="0.5"/>
    </g>
    <g id="Grupo_1103082" data-name="Grupo 1103082" transform="translate(603.725 4940.394)">
      <g id="Grupo_1103098" data-name="Grupo 1103098" clip-path="url(#clip-path)">
        <g id="Grupo_1103097" data-name="Grupo 1103097">
          <g id="Grupo_1103096" data-name="Grupo 1103096" clip-path="url(#clip-path)">
            <path id="Trazado_912930" data-name="Trazado 912930" d="M57.646,418.25a.314.314,0,0,1-.174-.053c-.784-.525-1.56-1.089-2.307-1.676a.314.314,0,0,1,.389-.494c.734.578,1.5,1.132,2.268,1.648a.314.314,0,0,1-.175.575" transform="translate(-36.792 -278.028)" fill="#3a67b3"/>
            <path id="Trazado_912931" data-name="Trazado 912931" d="M19.047,158.522a.314.314,0,0,1-.229-.1,40.168,40.168,0,0,1-3.588-4.429.314.314,0,1,1,.515-.36,39.538,39.538,0,0,0,3.532,4.36.314.314,0,0,1-.229.529m-6.483-9.237a.314.314,0,0,1-.279-.17A46.013,46.013,0,0,1,9.991,143.9a.314.314,0,0,1,.59-.217,45.385,45.385,0,0,0,2.263,5.141.314.314,0,0,1-.279.459M8.647,138.692a.314.314,0,0,1-.305-.241,50.525,50.525,0,0,1-1.011-5.6.314.314,0,1,1,.623-.077,49.937,49.937,0,0,0,1,5.533.314.314,0,0,1-.232.379.331.331,0,0,1-.074.009m-1.38-11.213a.314.314,0,0,1-.314-.311c0-.183,0-.366,0-.549a50.972,50.972,0,0,1,.26-5.138.314.314,0,1,1,.625.064,50.3,50.3,0,0,0-.257,5.074q0,.272,0,.543a.315.315,0,0,1-.311.318Zm1.151-11.24a.32.32,0,0,1-.068-.007.314.314,0,0,1-.239-.374,47.214,47.214,0,0,1,1.483-5.264l.075-.215a.314.314,0,1,1,.592.209l-.074.212a46.674,46.674,0,0,0-1.463,5.194.315.315,0,0,1-.307.247m3.7-10.676a.314.314,0,0,1-.284-.449c.8-1.694,1.707-3.38,2.69-5.013a.314.314,0,0,1,.538.324c-.973,1.615-1.868,3.283-2.661,4.958a.314.314,0,0,1-.284.18m5.824-9.686a.314.314,0,0,1-.252-.5c1.112-1.5,2.318-2.988,3.584-4.413a.314.314,0,1,1,.47.417c-1.254,1.412-2.448,2.882-3.549,4.369a.313.313,0,0,1-.253.127m243.372-7.951h0c-1.207,0-2.524-.038-4.026-.1q-.823-.035-1.646-.076a.314.314,0,0,1,.031-.628q.821.04,1.642.076c1.494.065,2.8.1,4,.1a.314.314,0,0,1,0,.628m5.655-.237a.314.314,0,0,1-.03-.627,33.241,33.241,0,0,0,5.517-.975.314.314,0,1,1,.165.606,33.82,33.82,0,0,1-5.621.994l-.031,0M25.44,87.418a.314.314,0,0,1-.217-.542c1.353-1.288,2.79-2.55,4.27-3.75a.314.314,0,0,1,.4.488C28.422,84.8,27,86.055,25.656,87.331a.313.313,0,0,1-.217.087M250,87.405h-.023c-1.845-.131-3.745-.286-5.646-.461a.314.314,0,0,1,.057-.626c1.9.174,3.793.328,5.634.46a.314.314,0,0,1-.022.627m-11.271-1.029-.035,0c-1.843-.2-3.736-.429-5.626-.669a.314.314,0,0,1,.08-.623c1.886.24,3.776.465,5.616.668a.314.314,0,0,1-.034.626M227.5,84.949a.288.288,0,0,1-.044,0c-1.808-.258-3.693-.54-5.6-.839a.314.314,0,0,1,.1-.621c1.907.3,3.79.58,5.6.838a.314.314,0,0,1-.044.625m50.27-.352a.314.314,0,0,1-.155-.588,19,19,0,0,0,2.213-1.456,16.594,16.594,0,0,0,2.144-1.962.314.314,0,1,1,.463.425,17.206,17.206,0,0,1-2.226,2.036,19.511,19.511,0,0,1-2.286,1.5.31.31,0,0,1-.154.04m-61.458-1.4a.352.352,0,0,1-.053,0c-1.813-.306-3.691-.632-5.582-.971a.314.314,0,0,1,.111-.618c1.889.338,3.765.664,5.576.969a.314.314,0,0,1-.052.624m-11.148-1.991a.3.3,0,0,1-.058-.006q-2.782-.522-5.563-1.064a.314.314,0,0,1,.12-.617q2.779.54,5.56,1.063a.314.314,0,0,1-.058.623M34.219,80.289a.314.314,0,0,1-.179-.572c1.541-1.068,3.151-2.1,4.786-3.066a.314.314,0,0,1,.32.541c-1.622.958-3.219,1.981-4.747,3.041a.313.313,0,0,1-.179.056M194.05,79.051a.305.305,0,0,1-.062-.006q-2.776-.555-5.551-1.12a.314.314,0,1,1,.125-.616q2.775.564,5.549,1.12a.314.314,0,0,1-.061.622m-11.1-2.254a.32.32,0,0,1-.063-.006l-5.546-1.139a.314.314,0,0,1,.126-.615l5.546,1.139a.314.314,0,0,1-.063.622M285.3,76.406a.314.314,0,0,1-.286-.444,20.609,20.609,0,0,0,1.578-5.33.314.314,0,1,1,.62.1,21.257,21.257,0,0,1-1.626,5.493.314.314,0,0,1-.286.184M43.958,74.529a.314.314,0,0,1-.141-.6c1.688-.843,3.427-1.638,5.17-2.362a.314.314,0,0,1,.241.58c-1.73.719-3.456,1.507-5.13,2.344a.318.318,0,0,1-.14.033m127.9-.007a.312.312,0,0,1-.063-.006q-2.773-.565-5.548-1.122a.314.314,0,1,1,.123-.616q2.775.556,5.55,1.123a.314.314,0,0,1-.062.622M160.76,72.3a.319.319,0,0,1-.061-.006q-2.777-.544-5.556-1.069a.314.314,0,0,1,.116-.617q2.782.525,5.561,1.069a.314.314,0,0,1-.06.623m-11.124-2.1a.3.3,0,0,1-.056,0c-1.9-.343-3.774-.672-5.572-.978a.314.314,0,1,1,.105-.619c1.8.306,3.676.636,5.578.979a.314.314,0,0,1-.055.623M54.4,70.181a.314.314,0,0,1-.1-.611c1.764-.6,3.589-1.165,5.426-1.673a.314.314,0,0,1,.168.606c-1.825.505-3.639,1.065-5.391,1.662a.3.3,0,0,1-.1.017M138.476,68.3a.285.285,0,0,1-.05,0c-1.884-.3-3.765-.585-5.592-.85a.314.314,0,0,1,.091-.622c1.829.266,3.713.552,5.6.852a.314.314,0,0,1-.049.624M65.308,67.155a.314.314,0,0,1-.067-.621c1.817-.4,3.692-.758,5.574-1.071a.314.314,0,0,1,.1.62c-1.872.311-3.736.669-5.543,1.065a.317.317,0,0,1-.068.007m61.965-.475-.041,0c-1.891-.246-3.78-.477-5.614-.684a.314.314,0,0,1,.071-.624c1.837.208,3.729.439,5.624.686a.314.314,0,0,1-.04.625m-11.249-1.273-.03,0c-1.9-.18-3.794-.342-5.635-.481a.314.314,0,1,1,.047-.626c1.845.139,3.745.3,5.647.482a.314.314,0,0,1-.029.627M287.1,65.35a.314.314,0,0,1-.313-.288,24.609,24.609,0,0,0-1.079-5.472.314.314,0,1,1,.6-.191,25.244,25.244,0,0,1,1.107,5.612.314.314,0,0,1-.288.339H287.1M76.47,65.288a.314.314,0,0,1-.037-.626c1.839-.219,3.739-.405,5.647-.552a.314.314,0,1,1,.048.626c-1.9.147-3.79.332-5.62.55l-.038,0m28.263-.723h-.017c-1.913-.1-3.813-.173-5.648-.219a.314.314,0,0,1-.306-.322.321.321,0,0,1,.322-.306c1.841.046,3.747.12,5.665.22a.314.314,0,0,1-.016.628m-16.977-.155a.314.314,0,0,1-.012-.628c1.846-.072,3.754-.114,5.67-.123h0a.314.314,0,0,1,0,.628c-1.909.009-3.81.051-5.649.123h-.012m195.918-9.744a.314.314,0,0,1-.268-.15,21.063,21.063,0,0,0-2.383-3.186c-.348-.381-.721-.768-1.111-1.149a.314.314,0,1,1,.439-.449c.4.39.781.785,1.136,1.176a21.647,21.647,0,0,1,2.455,3.281.314.314,0,0,1-.268.478m-7.9-8a.313.313,0,0,1-.182-.058,51.068,51.068,0,0,0-4.761-3,.314.314,0,1,1,.306-.548,51.632,51.632,0,0,1,4.82,3.032.314.314,0,0,1-.183.57m-9.858-5.538a.31.31,0,0,1-.127-.027c-1.7-.753-3.46-1.45-5.241-2.07a.314.314,0,1,1,.207-.593c1.8.626,3.577,1.329,5.289,2.089a.314.314,0,0,1-.128.6M255.233,37.4a.3.3,0,0,1-.079-.01c-1.845-.478-3.7-.873-5.509-1.176a.314.314,0,1,1,.1-.62c1.829.305,3.7.7,5.563,1.187a.314.314,0,0,1-.079.618" transform="translate(-4.645 -23.789)" fill="#3a67b3"/>
            <path id="Trazado_912932" data-name="Trazado 912932" d="M715.631,34.079h-.02c-.947-.058-1.892-.088-2.807-.088a.314.314,0,1,1,0-.628c.927,0,1.885.03,2.845.089a.314.314,0,0,1-.019.628" transform="translate(-476.229 -22.299)" fill="#3a67b3"/>
            <rect id="Rectángulo_403016" data-name="Rectángulo 403016" width="259.124" height="8.509" transform="translate(15.366 237.477)" fill="#cbfaf4"/>
            <rect id="Rectángulo_403017" data-name="Rectángulo 403017" width="285.246" height="14.014" transform="translate(2.305 245.986)" fill="#06aebe"/>
            <rect id="Rectángulo_403018" data-name="Rectángulo 403018" width="259.124" height="13.152" transform="translate(15.366 92.413)" fill="#02d8e6"/>
            <rect id="Rectángulo_403019" data-name="Rectángulo 403019" width="259.124" height="10.713" transform="translate(15.366 81.701)" fill="#cbfaf4"/>
            <rect id="Rectángulo_403020" data-name="Rectángulo 403020" width="24.614" height="105.415" transform="translate(173.312 118.813)" fill="#02d8e6"/>
            <path id="Trazado_912933" data-name="Trazado 912933" d="M524.062,318.352H506.4l5.324,13.248H536.4l5.324-13.248Z" transform="translate(-338.476 -212.787)" fill="#06aebe"/>
            <path id="Trazado_912934" data-name="Trazado 912934" d="M524.165,689.453H541.83l-5.324-13.248H511.824L506.5,689.453Z" transform="translate(-338.545 -451.977)" fill="#06aebe"/>
            <rect id="Rectángulo_403021" data-name="Rectángulo 403021" width="24.614" height="105.415" transform="translate(238.398 118.813)" fill="#02d8e6"/>
            <path id="Trazado_912935" data-name="Trazado 912935" d="M720.342,318.352H702.677L708,331.6h24.682l5.324-13.248Z" transform="translate(-469.67 -212.787)" fill="#06aebe"/>
            <path id="Trazado_912936" data-name="Trazado 912936" d="M720.445,689.453H738.11l-5.324-13.248H708.1l-5.324,13.248Z" transform="translate(-469.739 -451.977)" fill="#06aebe"/>
            <rect id="Rectángulo_403022" data-name="Rectángulo 403022" width="24.614" height="105.415" transform="translate(98.435 118.813)" fill="#02d8e6"/>
            <path id="Trazado_912937" data-name="Trazado 912937" d="M298.254,318.352H280.59l5.324,13.248H310.6l5.324-13.248Z" transform="translate(-187.546 -212.787)" fill="#06aebe"/>
            <path id="Trazado_912938" data-name="Trazado 912938" d="M298.357,689.453h17.665L310.7,676.205H286.016l-5.324,13.248Z" transform="translate(-187.615 -451.977)" fill="#cecee0"/>
            <rect id="Rectángulo_403023" data-name="Rectángulo 403023" width="24.614" height="105.415" transform="translate(31.245 118.813)" fill="#02d8e6"/>
            <path id="Trazado_912939" data-name="Trazado 912939" d="M95.628,318.352H77.963L83.287,331.6h24.682l5.324-13.248Z" transform="translate(-52.111 -212.787)" fill="#06aebe"/>
            <path id="Trazado_912940" data-name="Trazado 912940" d="M95.731,689.453H113.4l-5.324-13.248H83.39l-5.324,13.248Z" transform="translate(-52.18 -451.977)" fill="#cecee0"/>
            <path id="Trazado_912941" data-name="Trazado 912941" d="M224.584,2.955,332.558,83.676H117.25Z" transform="translate(-78.37 -1.975)" fill="#02d8e6"/>
            <path id="Trazado_912942" data-name="Trazado 912942" d="M285.533,48.48l77.5,56.959H207.744Z" transform="translate(-138.857 -32.404)" fill="#06aebe"/>
            <path id="Trazado_912943" data-name="Trazado 912943" d="M425.4,123.35c0,6.98-7.273,12.638-16.246,12.638s-16.246-5.658-16.246-12.638,7.274-12.638,16.246-12.638S425.4,116.37,425.4,123.35" transform="translate(-262.621 -74)" fill="#cbfaf4"/>
            <path id="Trazado_912944" data-name="Trazado 912944" d="M65.483,720.287v17.664h51.344a8.832,8.832,0,1,0,0-17.664Z" transform="translate(-43.769 -481.441)" fill="#fff4e3"/>
            <path id="Trazado_912945" data-name="Trazado 912945" d="M214.457,712.509v19.152a2.746,2.746,0,0,1-2.744,2.747H65.486v-3.49H121.03c8.944-7.739,3.508-17.663-4.2-17.663H65.486v-3.49H211.713a2.746,2.746,0,0,1,2.744,2.744" transform="translate(-43.771 -474.408)" fill="#ff9400"/>
            <rect id="Rectángulo_403024" data-name="Rectángulo 403024" width="3.306" height="24.642" transform="translate(92.915 235.357)" fill="#ffd852"/>
            <path id="Trazado_913003" data-name="Trazado 913003" d="M0,0H3.306V24.642H0Z" transform="translate(101.181 235.357)" fill="#ffd852"/>
            <g id="Grupo_1103083" data-name="Grupo 1103083" transform="translate(57.259 235.357)" style="mix-blend-mode: multiply;isolation: isolate">
              <g id="Grupo_1103082-2" data-name="Grupo 1103082">
                <g id="Grupo_1103081" data-name="Grupo 1103081" clip-path="url(#clip-path-3)">
                  <path id="Trazado_912946" data-name="Trazado 912946" d="M286.1,730.923v.738a2.746,2.746,0,0,1-2.744,2.747H175.047l-.886-3.49h14.315a8.831,8.831,0,1,0,0-17.663h-15.8l2.976-3.49H201.9c2.2,1.858,3.588,9,1.582,14.954-2.811,8.35,1.694,5.833,12.152,6.2,9.73.343,63.059.048,70.472,0" transform="translate(-172.677 -709.765)" fill="#ff5e2f"/>
                </g>
              </g>
            </g>
            <path id="Trazado_912947" data-name="Trazado 912947" d="M119.224,714.948a8.819,8.819,0,0,0-6.751-3.145H65.483v2.814h51.344a8.814,8.814,0,0,1,2.4.331" transform="translate(-43.769 -475.77)" fill="#ffb32e"/>
            <path id="Trazado_912948" data-name="Trazado 912948" d="M129.154,722.089a12.336,12.336,0,0,1-12.324,12.319H65.487v-3.49H116.83a8.831,8.831,0,1,0,0-17.663H65.487v-3.49H116.83a12.336,12.336,0,0,1,12.324,12.324" transform="translate(-43.772 -474.408)" fill="#ffd894"/>
            <path id="Trazado_912949" data-name="Trazado 912949" d="M101.4,727.807H71.161a.664.664,0,0,1,0-1.327H101.4a.664.664,0,0,1,0,1.327" transform="translate(-47.121 -485.58)" fill="#f5dac2"/>
            <path id="Trazado_912950" data-name="Trazado 912950" d="M158.437,765.786h-34.3a.664.664,0,0,1,0-1.327h34.3a.664.664,0,0,1,0,1.327" transform="translate(-82.532 -510.966)" fill="#f5dac2"/>
            <path id="Trazado_912951" data-name="Trazado 912951" d="M124.291,747.207H105.4a.663.663,0,1,1,0-1.327h18.888a.663.663,0,1,1,0,1.327" transform="translate(-70.008 -498.547)" fill="#f5dac2"/>
            <path id="Trazado_912952" data-name="Trazado 912952" d="M78.3,747.207H70.141a.663.663,0,1,1,0-1.327H78.3a.663.663,0,1,1,0,1.327" transform="translate(-46.439 -498.547)" fill="#f5dac2"/>
            <path id="Trazado_912953" data-name="Trazado 912953" d="M201.322,747.207h-8.162a.663.663,0,1,1,0-1.327h8.162a.663.663,0,0,1,0,1.327" transform="translate(-128.665 -498.547)" fill="#f5dac2"/>
            <path id="Trazado_912954" data-name="Trazado 912954" d="M198.043,727.807h-2.69a.664.664,0,0,1,0-1.327h2.69a.664.664,0,0,1,0,1.327" transform="translate(-130.131 -485.58)" fill="#f5dac2"/>
            <path id="Trazado_912955" data-name="Trazado 912955" d="M107.408,765.786h-2.69a.664.664,0,0,1,0-1.327h2.69a.664.664,0,0,1,0,1.327" transform="translate(-69.551 -510.966)" fill="#f5dac2"/>
            <path id="Trazado_912956" data-name="Trazado 912956" d="M234.261,747.207h-2.69a.663.663,0,1,1,0-1.327h2.69a.663.663,0,1,1,0,1.327" transform="translate(-154.339 -498.547)" fill="#f5dac2"/>
            <path id="Trazado_912957" data-name="Trazado 912957" d="M176.4,735.279V743l-3.456-2.729L169.484,743v-7.722Z" transform="translate(-113.283 -491.461)" fill="#ff5e2f"/>
            <path id="Trazado_912958" data-name="Trazado 912958" d="M202.589,646.359c-.762-.273-127.454.518-128-.269a16.537,16.537,0,0,1-7.353-6.813h-.021v-16.19h.012a16.561,16.561,0,0,1,7.926-7.078H202.36c-3,9.833-1.836,20.44.229,30.351" transform="translate(-44.927 -411.741)" fill="#fff4e3"/>
            <path id="Trazado_912959" data-name="Trazado 912959" d="M195.626,639.529a2.453,2.453,0,0,1-1.735,4.19H70.351a16.383,16.383,0,0,1-6.379-1.281q-.306-.129-.6-.27c-.2-.094-.4-.192-.605-.3-.164-.086-.327-.172-.491-.266s-.344-.2-.511-.3c-.144-.086-.286-.176-.426-.266s-.294-.2-.438-.3c-.127-.091-.254-.18-.376-.27s-.258-.2-.385-.3-.225-.18-.331-.27-.233-.2-.348-.3c-.1-.086-.2-.176-.29-.266-.111-.1-.217-.2-.323-.3l-.135-.135c-.045-.045-.086-.086-.127-.131-.1-.1-.192-.2-.282-.3-.086-.086-.168-.176-.249-.27s-.176-.2-.258-.3c-.078-.086-.152-.176-.221-.266s-.164-.2-.242-.3c-.069-.086-.135-.176-.2-.266s-.147-.2-.217-.3-.131-.18-.188-.27-.135-.2-.2-.3-.115-.176-.168-.266-.123-.2-.184-.3-.106-.18-.155-.27a.159.159,0,0,1-.021-.037,16.484,16.484,0,0,1,0-16.129l.012-.025c.049-.09.1-.18.156-.266.057-.1.119-.2.184-.3s.11-.176.168-.266.127-.2.2-.3.123-.18.188-.27.143-.2.217-.3.131-.18.2-.266c.078-.1.16-.2.237-.3s.147-.18.221-.266c.086-.1.172-.2.262-.3s.16-.184.246-.27c.09-.1.184-.2.282-.3s.176-.18.266-.27.209-.2.315-.3.192-.18.294-.266c.115-.1.233-.2.352-.3s.213-.18.323-.266c.127-.1.253-.2.385-.3s.245-.18.372-.27c.143-.1.291-.2.438-.3s.279-.18.422-.266c.167-.106.339-.2.511-.3s.327-.184.495-.27c.2-.1.393-.2.594-.294s.4-.184.6-.27a16.425,16.425,0,0,1,6.415-1.3h123.54a2.455,2.455,0,1,1,0,4.91H70.78a12,12,0,0,0-1.223.062,12.2,12.2,0,0,0-1.747.3c-.311.078-.622.167-.925.27-.274.09-.544.188-.81.3-.2.082-.4.172-.589.266s-.4.192-.593.3c-.156.082-.307.168-.459.266s-.319.192-.475.3c-.131.086-.262.176-.389.27s-.262.2-.393.3c-.11.086-.217.176-.323.266s-.229.2-.34.3c-.094.086-.188.176-.283.266s-.2.2-.294.3-.168.18-.245.27-.176.2-.254.3a3.335,3.335,0,0,0-.217.266c-.082.1-.156.2-.229.3s-.135.18-.2.27-.131.2-.192.295-.119.18-.168.27c-.066.1-.123.2-.18.3a2.828,2.828,0,0,0-.143.266c-.057.1-.106.2-.156.3s-.09.18-.127.27-.094.2-.135.3-.074.176-.106.266a3.02,3.02,0,0,0-.115.3c-.037.086-.065.176-.094.266a2.516,2.516,0,0,0-.094.3c-.033.09-.057.18-.082.27s-.053.2-.078.3-.045.176-.061.266-.045.2-.061.3c-.02.086-.037.176-.049.266s-.033.2-.045.3-.029.18-.037.27-.021.2-.029.3-.016.18-.021.27-.012.2-.012.3a1.9,1.9,0,0,0-.008.266c0,.049,0,.094,0,.144s0,.106,0,.16c0,.09,0,.18.008.266,0,.1,0,.2.012.3s.012.18.025.27a2.327,2.327,0,0,0,.029.3c.008.09.021.18.037.266a2.453,2.453,0,0,0,.045.3c.013.09.029.18.049.27s.037.2.061.295.037.18.061.27.049.2.078.3.053.18.082.266a2.5,2.5,0,0,0,.1.3,1.973,1.973,0,0,0,.09.266c.033.1.074.2.114.3s.07.176.11.266.086.2.135.3.082.18.127.27.1.2.155.3.094.176.144.266.114.2.18.3.107.18.168.266c.061.1.127.2.2.3s.127.18.2.27.147.2.225.3.139.18.217.266c.082.1.167.2.262.3.078.094.16.18.246.27s.192.2.29.294.192.184.286.27c.11.106.225.2.343.3s.213.18.324.266c.131.1.262.2.4.3s.258.184.389.27c.156.106.311.2.475.3s.307.184.467.266c.192.11.393.209.593.3s.393.184.593.266c.27.111.544.209.822.3a9.4,9.4,0,0,0,.949.27,11.517,11.517,0,0,0,1.894.3c.332.033.663.045,1,.045H193.891a2.433,2.433,0,0,1,1.735.72" transform="translate(-36.02 -408.253)" fill="#4d4d73"/>
            <path id="Trazado_912960" data-name="Trazado 912960" d="M162.234,641.7H98.808a.664.664,0,0,1,0-1.327h63.426a.664.664,0,0,1,0,1.327" transform="translate(-65.6 -428.026)" fill="#f5dac2"/>
            <path id="Trazado_912961" data-name="Trazado 912961" d="M279.217,679.679H207.475a.663.663,0,1,1,0-1.327h71.743a.663.663,0,0,1,0,1.327" transform="translate(-138.233 -453.412)" fill="#f5dac2"/>
            <path id="Trazado_912962" data-name="Trazado 912962" d="M209.179,661.1H169.043a.663.663,0,0,1,0-1.327h40.136a.663.663,0,1,1,0,1.327" transform="translate(-112.545 -440.992)" fill="#f5dac2"/>
            <path id="Trazado_912963" data-name="Trazado 912963" d="M114.85,661.1H96.714a.664.664,0,0,1,0-1.327H114.85a.664.664,0,1,1,0,1.327" transform="translate(-64.201 -440.991)" fill="#f5dac2"/>
            <path id="Trazado_912964" data-name="Trazado 912964" d="M367.18,661.1H349.045a.664.664,0,1,1,0-1.327H367.18a.664.664,0,1,1,0,1.327" transform="translate(-232.858 -440.991)" fill="#f5dac2"/>
            <path id="Trazado_912965" data-name="Trazado 912965" d="M355.957,643.7h-6.912a.663.663,0,1,1,0-1.327h6.912a.663.663,0,1,1,0,1.327" transform="translate(-232.858 -429.363)" fill="#f5dac2"/>
            <path id="Trazado_912966" data-name="Trazado 912966" d="M174.55,679.679h-6.912a.663.663,0,1,1,0-1.327h6.912a.663.663,0,1,1,0,1.327" transform="translate(-111.606 -453.412)" fill="#f5dac2"/>
            <path id="Trazado_912967" data-name="Trazado 912967" d="M434.743,661.1h-6.912a.664.664,0,1,1,0-1.327h6.912a.664.664,0,1,1,0,1.327" transform="translate(-285.519 -440.991)" fill="#f5dac2"/>
            <path id="Trazado_912968" data-name="Trazado 912968" d="M312.729,650.407l-4.14-2.353-4.14,2.353V640.372h8.279Z" transform="translate(-203.494 -428.025)" fill="#ff5e2f"/>
            <path id="Trazado_912969" data-name="Trazado 912969" d="M617.159,627.19H597.825a3.934,3.934,0,0,0-3.958,3.91v8.133a3.934,3.934,0,0,0,3.958,3.909h19.333a3.934,3.934,0,0,0,3.958-3.909V631.1a3.934,3.934,0,0,0-3.958-3.91m1.169,12.042a1.163,1.163,0,0,1-1.169,1.155H597.825a1.163,1.163,0,0,1-1.17-1.155V631.1a1.164,1.164,0,0,1,1.17-1.155h19.333a1.164,1.164,0,0,1,1.169,1.155Z" transform="translate(-396.942 -419.215)" fill="#ffbc47"/>
            <path id="Trazado_912970" data-name="Trazado 912970" d="M625.369,629.787h-13.24a1.866,1.866,0,1,1,0-3.732h13.24a1.866,1.866,0,1,1,0,3.732" transform="translate(-407.885 -418.456)" fill="#753d2e"/>
            <path id="Trazado_912971" data-name="Trazado 912971" d="M605.386,652.992V691.94a2.554,2.554,0,0,1-2.572,2.539H546.236a2.554,2.554,0,0,1-2.572-2.539V652.992a2.556,2.556,0,0,1,2.572-2.539h56.578a2.556,2.556,0,0,1,2.572,2.539" transform="translate(-363.386 -434.764)" fill="#8f5343"/>
            <path id="Trazado_912972" data-name="Trazado 912972" d="M606.541,689.576v24.315a2.554,2.554,0,0,1-2.572,2.539h-6.36c7.878-.714,8.806-17.158,4.454-19.029-10.539-4.531-50.328-.885-54.671-4.388l-2-5.244s24.971-2.938,26.573-3.072,21.3-1.4,21.3-1.4,9.166,4.026,13.276,6.281" transform="translate(-364.541 -456.715)" fill="#753d2e"/>
            <path id="Trazado_912973" data-name="Trazado 912973" d="M605.385,652.993v15.528a2.556,2.556,0,0,1-2.571,2.54H546.235a2.556,2.556,0,0,1-2.571-2.54V652.993a2.556,2.556,0,0,1,2.571-2.539h56.579a2.555,2.555,0,0,1,2.571,2.539" transform="translate(-363.386 -434.764)" fill="#a3695a"/>
            <path id="Trazado_912974" data-name="Trazado 912974" d="M577.078,678.116h-2.129a1.317,1.317,0,0,1-1.317-1.317V649.62a.3.3,0,0,1,.3-.3h4.16a.3.3,0,0,1,.3.3V676.8a1.317,1.317,0,0,1-1.316,1.317" transform="translate(-383.417 -434.005)" fill="#753d2e"/>
            <path id="Trazado_912975" data-name="Trazado 912975" d="M573.989,706.756a3.344,3.344,0,1,0,3.386,3.344,3.365,3.365,0,0,0-3.386-3.344m0,5.912a2.566,2.566,0,0,1-.31-5.117v3.008a.31.31,0,0,0,.619,0V707.55a2.566,2.566,0,0,1-.31,5.117" transform="translate(-381.392 -472.397)" fill="#ffbc47"/>
            <path id="Trazado_912976" data-name="Trazado 912976" d="M687.847,678.116h0a2.367,2.367,0,0,1-2.381-2.352v-25.9a.545.545,0,0,1,.545-.546h3.672a.545.545,0,0,1,.545.546v25.9a2.367,2.367,0,0,1-2.381,2.352" transform="translate(-458.167 -434.005)" fill="#753d2e"/>
            <path id="Trazado_912977" data-name="Trazado 912977" d="M685.823,706.756a3.344,3.344,0,1,0,3.386,3.344,3.365,3.365,0,0,0-3.386-3.344m0,5.912a2.566,2.566,0,0,1-.31-5.117v3.008a.31.31,0,0,0,.619,0V707.55a2.566,2.566,0,0,1-.31,5.117" transform="translate(-456.142 -472.397)" fill="#ffbc47"/>
            <path id="Trazado_912978" data-name="Trazado 912978" d="M268.29,293.634v98.9h-6v-98.9c0-1.488.3-2.75,1.709-2.939l2.59-.037c1.511.208,1.705,1.328,1.705,2.976" transform="translate(-175.312 -194.276)" fill="#8f5343"/>
            <path id="Trazado_912979" data-name="Trazado 912979" d="M238.062,335.469c-9.6-3.062-20.641-3.708-30.715-3.5-10.074-.205-21.118.441-30.715,3.5-1.351.426-.771,2.555.588,2.122,9.362-2.989,20.09-3.547,29.878-3.422h.5c9.788-.125,20.516.433,29.878,3.422,1.358.433,1.938-1.7.587-2.122" transform="translate(-117.548 -221.863)" fill="#8f5343"/>
            <path id="Trazado_912980" data-name="Trazado 912980" d="M181.883,372.843h1.255l-.243-29.6h-.561Z" transform="translate(-121.571 -229.422)" fill="#8f5343"/>
            <path id="Trazado_912981" data-name="Trazado 912981" d="M192.945,373.706l1.062-.52-10.483-29.562-.426.177Z" transform="translate(-122.382 -229.679)" fill="#8f5343"/>
            <path id="Trazado_912982" data-name="Trazado 912982" d="M152.045,373.936l-1.061-.52,10.766-29.474.474.2Z" transform="translate(-100.918 -229.891)" fill="#8f5343"/>
            <path id="Trazado_912983" data-name="Trazado 912983" d="M264.938,585.858v-.887a4.041,4.041,0,0,0-4.251-3.783h-4.107a4.036,4.036,0,0,0-4.246,3.783v.887Z" transform="translate(-168.661 -388.467)" fill="#8f5343"/>
            <path id="Trazado_912984" data-name="Trazado 912984" d="M261.77,597.218v-1.279c0-3.009-2.85-5.454-6.355-5.454h-6.14c-3.506,0-6.348,2.446-6.348,5.454v1.279Z" transform="translate(-162.373 -394.68)" fill="#8f5343"/>
            <path id="Trazado_912985" data-name="Trazado 912985" d="M265.908,321.153a5.347,5.347,0,1,1-5.347-5.347,5.347,5.347,0,0,1,5.347,5.347" transform="translate(-170.585 -211.085)" fill="#ffbc47"/>
            <path id="Trazado_912986" data-name="Trazado 912986" d="M147.9,432.513a11.912,11.912,0,0,0,8.916,11.551s0,.007.007,0a11.905,11.905,0,0,0,14.869-11.524l-20.664-.02Z" transform="translate(-98.857 -289.092)" fill="#ffbc47"/>
            <g id="Grupo_1103086" data-name="Grupo 1103086" transform="translate(63.919 143.421)" style="mix-blend-mode: multiply;isolation: isolate">
              <g id="Grupo_1103085" data-name="Grupo 1103085">
                <g id="Grupo_1103084" data-name="Grupo 1103084" clip-path="url(#clip-path-4)">
                  <path id="Trazado_912987" data-name="Trazado 912987" d="M201.676,432.513a11.912,11.912,0,0,1-8.916,11.551,14.718,14.718,0,0,0,3.266-3.279,14.435,14.435,0,0,0,2.523-8.265Z" transform="translate(-192.76 -432.513)" fill="#e6e6e6"/>
                </g>
              </g>
            </g>
            <g id="Grupo_1103089" data-name="Grupo 1103089" transform="translate(51.314 145.607)" style="mix-blend-mode: overlay;isolation: isolate">
              <g id="Grupo_1103088" data-name="Grupo 1103088">
                <g id="Grupo_1103087" data-name="Grupo 1103087" clip-path="url(#clip-path-5)">
                  <path id="Trazado_912988" data-name="Trazado 912988" d="M157.933,441.328c1.007,1.562,1.344,3.136.752,3.518s-1.887-.575-2.894-2.137-1.344-3.136-.752-3.518,1.887.575,2.894,2.137" transform="translate(-154.748 -439.107)" fill="#999"/>
                </g>
              </g>
            </g>
            <path id="Trazado_912989" data-name="Trazado 912989" d="M357.011,372.843h1.255l-.243-29.6h-.561Z" transform="translate(-238.626 -229.422)" fill="#8f5343"/>
            <path id="Trazado_912990" data-name="Trazado 912990" d="M368.073,373.706l1.062-.52-10.483-29.562-.426.177Z" transform="translate(-239.438 -229.679)" fill="#8f5343"/>
            <path id="Trazado_912991" data-name="Trazado 912991" d="M327.173,373.936l-1.061-.52,10.766-29.474.474.2Z" transform="translate(-217.974 -229.891)" fill="#8f5343"/>
            <path id="Trazado_912992" data-name="Trazado 912992" d="M323.029,432.513a11.912,11.912,0,0,0,8.916,11.551s0,.007.007,0a11.905,11.905,0,0,0,14.869-11.524l-20.664-.02Z" transform="translate(-215.913 -289.092)" fill="#ffbc47"/>
            <g id="Grupo_1103092" data-name="Grupo 1103092" transform="translate(121.991 143.421)" style="mix-blend-mode: multiply;isolation: isolate">
              <g id="Grupo_1103091" data-name="Grupo 1103091">
                <g id="Grupo_1103090" data-name="Grupo 1103090" clip-path="url(#clip-path-4)">
                  <path id="Trazado_912993" data-name="Trazado 912993" d="M376.8,432.513a11.912,11.912,0,0,1-8.916,11.551,14.719,14.719,0,0,0,3.266-3.279,14.435,14.435,0,0,0,2.523-8.265Z" transform="translate(-367.888 -432.513)" fill="#e6e6e6"/>
                </g>
              </g>
            </g>
            <g id="Grupo_1103095" data-name="Grupo 1103095" transform="translate(109.387 145.607)" style="mix-blend-mode: overlay;isolation: isolate">
              <g id="Grupo_1103094" data-name="Grupo 1103094">
                <g id="Grupo_1103093" data-name="Grupo 1103093" clip-path="url(#clip-path-5)">
                  <path id="Trazado_912994" data-name="Trazado 912994" d="M333.062,441.328c1.006,1.562,1.343,3.136.752,3.518s-1.887-.575-2.894-2.137-1.344-3.136-.753-3.518,1.887.575,2.894,2.137" transform="translate(-329.877 -439.107)" fill="#999"/>
                </g>
              </g>
            </g>
            <path id="Trazado_912995" data-name="Trazado 912995" d="M669.939,28.189l-11.72.747,3.505-5.955Z" transform="translate(-439.955 -15.361)" fill="#244885"/>
            <path id="Trazado_912996" data-name="Trazado 912996" d="M630.191,35.775,614.908,31.33l18.926-.92Z" transform="translate(-411.005 -20.327)" fill="#3a67b3"/>
            <path id="Trazado_912997" data-name="Trazado 912997" d="M614.908,11,638.382,0l-3.338,5.449Z" transform="translate(-411.005 0.001)" fill="#3a67b3"/>
            <path id="Trazado_912998" data-name="Trazado 912998" d="M614.908,21.813l18.966-.869,7.116,2.694-5.946-7.466Z" transform="translate(-411.005 -10.809)" fill="#295399"/>
            <path id="Trazado_912999" data-name="Trazado 912999" d="M726.544,137.6a1.136,1.136,0,0,1-.651,1.683l-3.8,1.109a1.135,1.135,0,0,1-1.42-1.359l.941-3.847a1.135,1.135,0,0,1,1.886-.55l2.861,2.738a1.172,1.172,0,0,1,.184.226m-4.976,1.827a.257.257,0,0,0,.039.049.236.236,0,0,0,.233.057l3.8-1.109a.24.24,0,0,0,.1-.4l-2.861-2.738a.24.24,0,0,0-.4.116l-.94,3.847a.231.231,0,0,0,.028.181" transform="translate(-481.676 -89.777)" fill="#d45151"/>
            <path id="Trazado_913000" data-name="Trazado 913000" d="M135.274,71.528l1.4-1.4a.813.813,0,0,0-1.149-1.15l-1.4,1.4-1.4-1.4a.813.813,0,0,0-1.149,1.15l1.4,1.4-1.4,1.4a.813.813,0,0,0,1.15,1.149l1.4-1.4,1.4,1.4a.813.813,0,1,0,1.15-1.149Z" transform="translate(-87.787 -45.947)" fill="#ffb86b"/>
            <path id="Trazado_913001" data-name="Trazado 913001" d="M838.984,385.739a3.194,3.194,0,1,1,3.194-3.194,3.2,3.2,0,0,1-3.194,3.194m0-5.388a2.195,2.195,0,1,0,2.195,2.194,2.2,2.2,0,0,0-2.195-2.194" transform="translate(-558.643 -253.559)" fill="#3a67b3"/>
            <path id="Trazado_913002" data-name="Trazado 913002" d="M3.194,209.514a3.194,3.194,0,1,1,3.194-3.194,3.2,3.2,0,0,1-3.194,3.194m0-5.388a2.195,2.195,0,1,0,2.195,2.195,2.2,2.2,0,0,0-2.195-2.195" transform="translate(0 -135.77)" fill="#3a67b3"/>
          </g>
        </g>
      </g>
    </g>
  </g>
</svg>
