<svg xmlns="http://www.w3.org/2000/svg" xmlns:xlink="http://www.w3.org/1999/xlink" width="85.082" height="85.233" viewBox="0 0 85.082 85.233">
  <defs>
    <linearGradient id="linear-gradient" x1="0.727" y1="0.552" x2="0" gradientUnits="objectBoundingBox">
      <stop offset="0" stop-color="#fc8775"/>
      <stop offset="1" stop-color="#ffd884"/>
    </linearGradient>
  </defs>
  <g id="Grupo_1103692" data-name="Grupo 1103692" transform="translate(-238.694 -974.767)">
    <path id="Trazado_911369" data-name="Trazado 911369" d="M298.4,99.851a42.5,42.5,0,1,0,42.5-42.5,42.5,42.5,0,0,0-42.5,42.5" transform="translate(-59.705 917.416)" fill="url(#linear-gradient)"/>
    <path id="Trazado_911407" data-name="Trazado 911407" d="M286.55,226.938c-.894,1.343-1.338,1.89-2.141,1.89s-1.247-.547-2.141-1.89c-.926-1.39-2.192-3.293-4.761-3.293s-3.835,1.9-4.76,3.293c-.894,1.343-1.338,1.89-2.14,1.89s-1.246-.547-2.14-1.89c-.925-1.39-2.193-3.293-4.76-3.293s-3.835,1.9-4.761,3.294c-.894,1.343-1.338,1.89-2.14,1.89s-1.246-.547-2.14-1.89c-.925-1.39-2.192-3.294-4.76-3.294a1.574,1.574,0,1,0,0,3.147c.8,0,1.246.547,2.14,1.89.925,1.39,2.192,3.293,4.76,3.293s3.835-1.9,4.76-3.293c.894-1.343,1.337-1.89,2.14-1.89s1.246.547,2.14,1.89c.925,1.39,2.192,3.294,4.76,3.294s3.835-1.9,4.76-3.294c.894-1.343,1.338-1.89,2.14-1.89s1.247.547,2.141,1.89c.926,1.39,2.193,3.293,4.761,3.293s3.835-1.9,4.761-3.293c.894-1.343,1.338-1.89,2.141-1.89a1.574,1.574,0,1,0,0-3.147c-2.568,0-3.835,1.9-4.761,3.293" transform="translate(-9.64 757.529)" fill="#92e8db"/>
    <g id="educacion" transform="translate(259.533 995.761)">
      <path id="Trazado_912009" data-name="Trazado 912009" d="M62.235,58.4V49a3,3,0,0,0-1-5.838h-5.2a2.975,2.975,0,0,0,.185-1,3.006,3.006,0,0,0-2.008-2.826V37.137H57.4L55.642,26.606a3.491,3.491,0,0,0-1.437-5.867V16.369l-2.614-1,8.328-3.331L32.122.923,4.324,12.042l11.737,4.695v12.37H12.046A8.022,8.022,0,0,0,7.366,43.65,10.539,10.539,0,0,0,10.54,64.24H61.232a3,3,0,0,0,1-5.838ZM60.228,51.19H42.16V53.2H60.228v5.019H10.362a4.517,4.517,0,1,1,0-9.034H60.228ZM52.2,39.145H12.046a2.008,2.008,0,1,1,0-4.015H24.067a30.23,30.23,0,0,0,8.055,1,30.229,30.229,0,0,0,8.055-1h9.163L49,37.137H52.2Zm-4.568-8.03h2.38l-.335,2.008H45.032a12.194,12.194,0,0,0,2.6-2.008Zm7.4,4.015H51.375l1.264-7.585a2.811,2.811,0,0,0,1.124,0Zm-.32-11.042A1.506,1.506,0,1,1,53.2,22.582a1.506,1.506,0,0,1,1.506,1.506ZM52.2,17.754v2.985a3.491,3.491,0,0,0-1.437,5.867l-.417,2.5H48.182V16.737l.657-.263ZM32.122,3.085l22.392,8.957-5.692,2.277L32.479,8.093l-.715,1.876,14.307,5.451L32.122,21,9.729,12.042Zm0,20.076L46.175,17.54V29.73c-.9.932-4.863,4.4-14.053,4.4s-13.162-3.471-14.053-4.395V17.54ZM6.023,37.137a6.029,6.029,0,0,1,6.023-6.023h4.568a12.194,12.194,0,0,0,2.6,2.008H12.046a4.015,4.015,0,1,0,0,8.03H53.2a1,1,0,1,1,0,2.008H12.046a6.029,6.029,0,0,1-6.023-6.023ZM61.232,62.232H10.54a8.532,8.532,0,0,1,0-17.065H61.232a1,1,0,1,1,0,2.008H10.362a6.525,6.525,0,0,0,0,13.049h50.87a1,1,0,1,1,0,2.008Z" transform="translate(0)" fill="#12263f"/>
      <rect id="Rectángulo_402979" data-name="Rectángulo 402979" width="28.106" height="2.008" transform="translate(10.038 54.202)" fill="#12263f"/>
    </g>
  </g>
</svg>
