<svg xmlns="http://www.w3.org/2000/svg" xmlns:xlink="http://www.w3.org/1999/xlink" width="85.051" height="85.001" viewBox="0 0 85.051 85.001">
  <defs>
    <linearGradient id="linear-gradient" x1="0.5" y1="0.852" x2="0.5" gradientUnits="objectBoundingBox">
      <stop offset="0" stop-color="#fcb071"/>
      <stop offset="1" stop-color="#ffd884"/>
    </linearGradient>
  </defs>
  <g id="Grupo_1103763" data-name="Grupo 1103763" transform="translate(-705.433 -7071.613)">
    <path id="Trazado_911369" data-name="Trazado 911369" d="M298.4,99.851a42.5,42.5,0,1,0,42.5-42.5,42.5,42.5,0,0,0-42.5,42.5" transform="translate(407.033 7014.262)" fill="url(#linear-gradient)"/>
    <path id="Trazado_911407" data-name="Trazado 911407" d="M286.55,226.938c-.894,1.343-1.338,1.89-2.141,1.89s-1.247-.547-2.141-1.89c-.926-1.39-2.192-3.293-4.761-3.293s-3.835,1.9-4.76,3.293c-.894,1.343-1.338,1.89-2.14,1.89s-1.246-.547-2.14-1.89c-.925-1.39-2.193-3.293-4.76-3.293s-3.835,1.9-4.761,3.294c-.894,1.343-1.338,1.89-2.14,1.89s-1.246-.547-2.14-1.89c-.925-1.39-2.192-3.294-4.76-3.294a1.574,1.574,0,1,0,0,3.147c.8,0,1.246.547,2.14,1.89.925,1.39,2.192,3.293,4.76,3.293s3.835-1.9,4.76-3.293c.894-1.343,1.337-1.89,2.14-1.89s1.246.547,2.14,1.89c.925,1.39,2.192,3.294,4.76,3.294s3.835-1.9,4.76-3.294c.894-1.343,1.338-1.89,2.14-1.89s1.247.547,2.141,1.89c.926,1.39,2.193,3.293,4.761,3.293s3.835-1.9,4.761-3.293c.894-1.343,1.338-1.89,2.141-1.89a1.574,1.574,0,1,0,0-3.147c-2.568,0-3.835,1.9-4.761,3.293" transform="translate(457.099 6854.375)" fill="#92e8db"/>
    <g id="resolucion-de-problemas" transform="translate(704.164 7091.358)">
      <path id="Trazado_913749" data-name="Trazado 913749" d="M342.823,132h-6.15A10.446,10.446,0,0,1,332,136.066v6.758a.773.773,0,0,0,.773.773h10.052a.773.773,0,0,0,.773-.773V132.772A.773.773,0,0,0,342.823,132Z" transform="translate(-265.017 -115.175)" fill="#92e8db"/>
      <g id="Grupo_1103750" data-name="Grupo 1103750" transform="translate(66.981 17.687)">
        <path id="Trazado_913750" data-name="Trazado 913750" d="M336.077,148.734v-9.962a10.437,10.437,0,0,1-4.078,3.2v6.758a.773.773,0,0,0,.773.773h4.078A.773.773,0,0,1,336.077,148.734Z" transform="translate(-331.999 -138.772)" fill="#60d6c4"/>
      </g>
      <g id="Grupo_1103761" data-name="Grupo 1103761" transform="translate(29.226 0.956)">
        <path id="Trazado_913751" data-name="Trazado 913751" d="M109.06,273.958l2.185-5.944a14.927,14.927,0,0,1-14.187,0l2.185,5.944Z" transform="translate(-89.246 -234.811)" fill="#fff0ad"/>
        <path id="Trazado_913752" data-name="Trazado 913752" d="M104.611,273.958l-1.54-4.19a14.813,14.813,0,0,1-6.013-1.754l2.185,5.944Z" transform="translate(-89.247 -234.811)" fill="#ffe177"/>
        <path id="Trazado_913753" data-name="Trazado 913753" d="M126,393.588v1.989a1.912,1.912,0,0,0,1.912,1.912H130.9a1.912,1.912,0,0,0,1.912-1.912v-1.989Z" transform="translate(-114.5 -344.38)" fill="#02c7dd"/>
        <path id="Trazado_913754" data-name="Trazado 913754" d="M129.186,395.577v-1.989H126v1.989a1.912,1.912,0,0,0,1.912,1.912H130.9c.034,0,.067,0,.1-.005A1.91,1.91,0,0,1,129.186,395.577Z" transform="translate(-114.5 -344.38)" fill="#07b2cd"/>
        <path id="Trazado_913755" data-name="Trazado 913755" d="M113.43,362.995v3.389a.637.637,0,0,0,.637.637h8.739a.637.637,0,0,0,.637-.637v-3.389Z" transform="translate(-103.532 -317.686)" fill="#a6e7f0"/>
        <path id="Trazado_913756" data-name="Trazado 913756" d="M116.616,366.384V363H113.43v3.389a.637.637,0,0,0,.637.637h3.186A.637.637,0,0,1,116.616,366.384Z" transform="translate(-103.532 -317.686)" fill="#6bd9e7"/>
        <path id="Trazado_913757" data-name="Trazado 913757" d="M58.936,53.413a10.426,10.426,0,0,1,.307-2.511A14.905,14.905,0,1,0,65.58,63.114a10.407,10.407,0,0,1-6.643-9.7Z" transform="translate(-35.77 -43.007)" fill="#ffe177"/>
        <g id="Grupo_1103751" data-name="Grupo 1103751" transform="translate(0 5.187)">
          <path id="Trazado_913758" data-name="Trazado 913758" d="M42.185,63.1a14.91,14.91,0,0,1,11.7-14.558,14.9,14.9,0,1,0,0,29.115A14.909,14.909,0,0,1,42.185,63.1Z" transform="translate(-35.769 -48.194)" fill="#ffd15b"/>
        </g>
        <g id="Grupo_1103752" data-name="Grupo 1103752" transform="translate(7.986 39.147)">
          <path id="Trazado_913759" data-name="Trazado 913759" d="M110.992,320.94H99.7a1.274,1.274,0,0,1-1.275-1.275v-3.74a1.275,1.275,0,0,1,1.275-1.275h11.288a1.275,1.275,0,0,1,1.275,1.275v3.74A1.275,1.275,0,0,1,110.992,320.94Z" transform="translate(-98.429 -314.651)" fill="#eaf9fa"/>
        </g>
        <path id="Trazado_913760" data-name="Trazado 913760" d="M102.709,319.666v-3.74a1.275,1.275,0,0,1,1.275-1.275H99.7a1.275,1.275,0,0,0-1.275,1.275v3.74A1.274,1.274,0,0,0,99.7,320.94h4.279A1.275,1.275,0,0,1,102.709,319.666Z" transform="translate(-90.444 -275.504)" fill="#d4f2f6"/>
        <g id="Grupo_1103753" data-name="Grupo 1103753" transform="translate(26.937 34.143)">
          <path id="Trazado_913761" data-name="Trazado 913761" d="M272.14,290.65a4.475,4.475,0,0,1-2.852-.776.383.383,0,0,0-.605.31v6.129a.637.637,0,0,1-.637.637h-6.129a.383.383,0,0,0-.31.605,4.492,4.492,0,1,1-7.4-.011.381.381,0,0,0-.318-.594h-6.129a.637.637,0,0,1-.637-.637V291.5a.633.633,0,0,1,.686-.635,4.59,4.59,0,0,0,.715.013,4.493,4.493,0,0,0-.278-8.976q-.212,0-.419.019a.639.639,0,0,1-.7-.633v-5.263a.637.637,0,0,1,.637-.637h5.018a.635.635,0,0,1,.636.652c0,.045,0,.09,0,.135a4.492,4.492,0,0,0,8.985,0q0-.067,0-.135a.635.635,0,0,1,.636-.652h5.018a.637.637,0,0,1,.637.637v6.129a.381.381,0,0,0,.594.318,4.493,4.493,0,1,1,2.863,8.18Z" transform="translate(-247.12 -275.386)" fill="#fe9738"/>
        </g>
        <g id="Grupo_1103754" data-name="Grupo 1103754" transform="translate(26.937 34.143)">
          <path id="Trazado_913762" data-name="Trazado 913762" d="M272.14,290.65a4.475,4.475,0,0,1-2.852-.776.383.383,0,0,0-.605.31v6.129a.637.637,0,0,1-.637.637h-6.129a.383.383,0,0,0-.31.605,4.492,4.492,0,1,1-7.4-.011.381.381,0,0,0-.318-.594h-6.129a.637.637,0,0,1-.637-.637V291.5a.633.633,0,0,1,.686-.635,4.59,4.59,0,0,0,.715.013,4.493,4.493,0,0,0-.278-8.976q-.212,0-.419.019a.639.639,0,0,1-.7-.633v-5.263a.637.637,0,0,1,.637-.637h5.018a.635.635,0,0,1,.636.652c0,.045,0,.09,0,.135a4.492,4.492,0,0,0,8.985,0q0-.067,0-.135a.635.635,0,0,1,.636-.652h5.018a.637.637,0,0,1,.637.637v6.129a.381.381,0,0,0,.594.318,4.493,4.493,0,1,1,2.863,8.18Z" transform="translate(-247.12 -275.386)" fill="#fc8775"/>
        </g>
        <g id="Grupo_1103757" data-name="Grupo 1103757" transform="translate(26.937 34.143)">
          <g id="Grupo_1103755" data-name="Grupo 1103755" transform="translate(0)">
            <path id="Trazado_913763" data-name="Trazado 913763" d="M247.822,281.921q.207-.019.419-.019a4.482,4.482,0,0,1,3.436,1.6v-7.475a.637.637,0,0,1,.637-.637h-4.559a.637.637,0,0,0-.637.637v5.263a.639.639,0,0,0,.7.633Z" transform="translate(-247.118 -275.388)" fill="#e65b45"/>
          </g>
          <g id="Grupo_1103756" data-name="Grupo 1103756" transform="translate(0 13.894)">
            <path id="Trazado_913764" data-name="Trazado 913764" d="M251.677,391.431V384.4a4.489,4.489,0,0,1-3.157,1.6,4.575,4.575,0,0,1-.715-.013.633.633,0,0,0-.686.635v4.813a.637.637,0,0,0,.637.637h4.559A.637.637,0,0,1,251.677,391.431Z" transform="translate(-247.118 -384.398)" fill="#e65b45"/>
          </g>
        </g>
        <g id="Grupo_1103760" data-name="Grupo 1103760" transform="translate(23.167)">
          <g id="Grupo_1103758" data-name="Grupo 1103758">
            <circle id="Elipse_11558" data-name="Elipse 11558" cx="10.406" cy="10.406" r="10.406" fill="#cbfaf4"/>
          </g>
          <g id="Grupo_1103759" data-name="Grupo 1103759" transform="translate(0 0)">
            <path id="Trazado_913765" data-name="Trazado 913765" d="M222.911,17.906a10.409,10.409,0,0,1,7.719-10.054,10.406,10.406,0,1,0,0,20.107A10.409,10.409,0,0,1,222.911,17.906Z" transform="translate(-217.536 -7.5)" fill="#92e8db"/>
          </g>
        </g>
      </g>
      <g id="Grupo_1103762" data-name="Grupo 1103762" transform="translate(28.27 0)">
        <path id="Trazado_913766" data-name="Trazado 913766" d="M269.266,275.908a5.452,5.452,0,0,0-6.172-1.273V269.48a1.6,1.6,0,0,0-1.593-1.593h-5.018a1.6,1.6,0,0,0-1.145.484,1.573,1.573,0,0,0-.447,1.152c0,.035,0,.07,0,.105a3.537,3.537,0,1,1-7.073,0c0-.035,0-.07,0-.105a1.573,1.573,0,0,0-.447-1.152,1.6,1.6,0,0,0-1.145-.484h-5.018a1.6,1.6,0,0,0-1.593,1.593v5.263a1.592,1.592,0,0,0,.518,1.174,1.609,1.609,0,0,0,1.23.411c.109-.01.22-.015.331-.015a3.537,3.537,0,0,1,.221,7.066,3.644,3.644,0,0,1-.566-.01,1.578,1.578,0,0,0-1.21.4,1.6,1.6,0,0,0-.524,1.184v4.813a1.6,1.6,0,0,0,1.593,1.593h5.154A5.45,5.45,0,0,0,251.351,299c.129,0,.259,0,.389-.013a5.452,5.452,0,0,0,4.608-7.624H261.5a1.6,1.6,0,0,0,1.593-1.593v-5.153a5.449,5.449,0,0,0,6.172-8.709Zm-.455,3.97a3.539,3.539,0,0,1-3.28,3.276h0a3.507,3.507,0,0,1-2.246-.611,1.339,1.339,0,0,0-2.1,1.1v5.81h-5.81a1.339,1.339,0,0,0-1.1,2.1,3.536,3.536,0,1,1-5.829-.009,1.337,1.337,0,0,0-1.1-2.094h-5.81v-4.156c.167.005.336,0,.5-.008a5.448,5.448,0,0,0-.5-10.884v-4.6h4.38a5.448,5.448,0,0,0,10.891,0h4.38v5.81a1.337,1.337,0,0,0,2.094,1.1,3.536,3.536,0,0,1,5.535,3.164Z" transform="translate(-212.682 -233.744)"/>
        <path id="Trazado_913767" data-name="Trazado 913767" d="M50.378,39.232,52,34.825a15.905,15.905,0,0,0,4.515-3.867.956.956,0,0,0-1.492-1.2,13.9,13.9,0,0,1-7.67,4.86v-7.9h1.874a3.786,3.786,0,1,0-3.786-3.786v1.874H42.822V22.934a3.786,3.786,0,1,0-3.786,3.786h1.874v7.9A13.948,13.948,0,1,1,51.626,9.289a11.364,11.364,0,0,0,6.438,12.4,13.853,13.853,0,0,1-.945,4.452.956.956,0,1,0,1.78.7,15.736,15.736,0,0,0,1.037-4.481,11.376,11.376,0,0,0,6.088-.1v5.392a1.731,1.731,0,0,0,1.729,1.729H77.806a1.731,1.731,0,0,0,1.729-1.729V24.6a.956.956,0,1,0-1.912,0v2.868H67.937V21.493a11.443,11.443,0,0,0,4.232-3.713h5.454v2.358a.956.956,0,0,0,1.912,0V17.6a1.731,1.731,0,0,0-1.729-1.729H73.227A11.361,11.361,0,1,0,52.159,7.375a15.856,15.856,0,1,0-15.9,27.438l1.624,4.419a2.233,2.233,0,0,0-1.627,2.145v3.74a2.232,2.232,0,0,0,1.912,2.2v2.331a1.6,1.6,0,0,0,1.593,1.593h.009v.906a2.871,2.871,0,0,0,2.868,2.868h2.986a2.871,2.871,0,0,0,2.868-2.868v-.906H48.5a1.6,1.6,0,0,0,1.593-1.593V47.322a2.232,2.232,0,0,0,1.912-2.2v-3.74a2.233,2.233,0,0,0-1.627-2.145Zm-3.027-16.3a1.874,1.874,0,1,1,1.874,1.874H47.351ZM62.8,1.912a9.45,9.45,0,1,1-9.45,9.45A9.461,9.461,0,0,1,62.8,1.912ZM47.351,36.581a15.772,15.772,0,0,0,2.193-.619l-1.171,3.186H47.351ZM42.822,26.72h2.616v8.215c-.432.04-.869.062-1.308.062s-.877-.022-1.308-.062V26.72Zm0,10.134c.432.035.868.054,1.308.054s.875-.018,1.308-.054v2.293H42.822ZM39.037,24.808a1.874,1.874,0,1,1,1.874-1.874v1.874Zm1.874,11.771v2.568H39.889l-1.173-3.191A15.722,15.722,0,0,0,40.911,36.579ZM46.58,52.153a.957.957,0,0,1-.956.956H42.638a.957.957,0,0,1-.956-.956v-.906h4.9Zm3.514-7.035a.319.319,0,0,1-.319.319H46.843a.956.956,0,1,0,0,1.912h1.338v1.987h-8.1V47.348h2.3a.956.956,0,1,0,0-1.912h-3.9a.319.319,0,0,1-.319-.319v-3.74a.319.319,0,0,1,.319-.319H49.775a.319.319,0,0,1,.319.319Z" transform="translate(-28.27 0)"/>
        <path id="Trazado_913768" data-name="Trazado 913768" d="M254.838,67.512a.956.956,0,0,0,.719.34h.012a.956.956,0,0,0,.715-.322l6.262-7.064a.956.956,0,0,0-1.431-1.268l-5.528,6.237L252.024,61.2a.956.956,0,0,0-1.462,1.231Z" transform="translate(-222.034 -51.372)"/>
      </g>
    </g>
  </g>
</svg>
