<svg xmlns="http://www.w3.org/2000/svg" xmlns:xlink="http://www.w3.org/1999/xlink" width="85.082" height="85.233" viewBox="0 0 85.082 85.233">
  <defs>
    <linearGradient id="linear-gradient" x1="0.727" y1="0.552" x2="0" gradientUnits="objectBoundingBox">
      <stop offset="0" stop-color="#fc8775"/>
      <stop offset="1" stop-color="#ffd884"/>
    </linearGradient>
  </defs>
  <g id="Grupo_1103693" data-name="Grupo 1103693" transform="translate(-852.776 -974.767)">
    <path id="Trazado_911369" data-name="Trazado 911369" d="M298.4,99.851a42.5,42.5,0,1,0,42.5-42.5,42.5,42.5,0,0,0-42.5,42.5" transform="translate(554.377 917.416)" fill="url(#linear-gradient)"/>
    <path id="Trazado_911407" data-name="Trazado 911407" d="M286.55,226.938c-.894,1.343-1.338,1.89-2.141,1.89s-1.247-.547-2.141-1.89c-.926-1.39-2.192-3.293-4.761-3.293s-3.835,1.9-4.76,3.293c-.894,1.343-1.338,1.89-2.14,1.89s-1.246-.547-2.14-1.89c-.925-1.39-2.193-3.293-4.76-3.293s-3.835,1.9-4.761,3.294c-.894,1.343-1.338,1.89-2.14,1.89s-1.246-.547-2.14-1.89c-.925-1.39-2.192-3.294-4.76-3.294a1.574,1.574,0,1,0,0,3.147c.8,0,1.246.547,2.14,1.89.925,1.39,2.192,3.293,4.76,3.293s3.835-1.9,4.76-3.293c.894-1.343,1.337-1.89,2.14-1.89s1.246.547,2.14,1.89c.925,1.39,2.192,3.294,4.76,3.294s3.835-1.9,4.76-3.294c.894-1.343,1.338-1.89,2.14-1.89s1.247.547,2.141,1.89c.926,1.39,2.193,3.293,4.761,3.293s3.835-1.9,4.761-3.293c.894-1.343,1.338-1.89,2.141-1.89a1.574,1.574,0,1,0,0-3.147c-2.568,0-3.835,1.9-4.761,3.293" transform="translate(604.442 757.529)" fill="#92e8db"/>
    <path id="pedagogia" d="M20.082,28.6a.765.765,0,0,1,.765-.765h7.417a.765.765,0,0,1,0,1.53H20.847A.765.765,0,0,1,20.082,28.6Zm.765,4.73h8.639a.765.765,0,1,0,0-1.53H20.847a.765.765,0,1,0,0,1.53Zm0-7.934h7.417a.765.765,0,1,0,0-1.53H20.847a.765.765,0,1,0,0,1.53Zm0,11.9H32.211a.765.765,0,1,0,0-1.53H20.847a.765.765,0,1,0,0,1.53Zm25.235,6.407H40.112a.765.765,0,0,0,0,1.53h5.969a.765.765,0,0,0,0-1.53Zm5.4-7.938H40.112a.765.765,0,1,0,0,1.53H51.48a.765.765,0,1,0,0-1.53ZM68.326,62.257V68.5a.765.765,0,0,1-.765.765H42.753a.765.765,0,0,1-.765-.765V62.257c0-4.049,3.072-7.2,8.138-8.485a7.767,7.767,0,0,1-1.32-1.469H23.517A7.764,7.764,0,0,1,22.2,53.771c5.068,1.29,8.141,4.436,8.141,8.486V68.5a.765.765,0,0,1-.765.765H4.765A.765.765,0,0,1,4,68.5V62.257c0-4.049,3.072-7.2,8.14-8.486a7.695,7.695,0,0,1,.909-12.339V23a.765.765,0,0,1,.765-.765h2.317V19.916a.765.765,0,0,1,.765-.765H28.474a7.344,7.344,0,0,1-.231-1.869,7.918,7.918,0,1,1,15.835,0,7.357,7.357,0,0,1-.23,1.869H55.43a.765.765,0,0,1,.765.765v2.317h2.317a.765.765,0,0,1,.765.765V41.433a7.693,7.693,0,0,1,.907,12.338c5.068,1.29,8.141,4.436,8.141,8.485ZM55.434,41.77H55.42c-.088,0-.176-.007-.265-.007a6.185,6.185,0,0,0-6.177,6.177c0,.144.007.286.016.427,0,.011,0,.023,0,.034a6.177,6.177,0,1,0,6.437-6.631ZM56.2,23.764V40.3a7.636,7.636,0,0,1,1.552.378V23.764ZM43.254,20.682a16.413,16.413,0,0,1-.995,1.613,8.119,8.119,0,0,0-1.71,4.153c0,.008,0,.015,0,.022l.007,2.4a1.965,1.965,0,0,1-1.082,1.754v.857a1.988,1.988,0,0,1-1.988,1.984h-.555v15a3.828,3.828,0,0,1,2.317-.778h8.21a7.716,7.716,0,0,1,7.211-7.439V20.681H43.254Zm-6.671-.756q-.2.011-.412.014h-.02q-.206,0-.408-.014V25.62h.839ZM33.3,27.153v1.721a.435.435,0,0,0,.436.432h4.852a.438.438,0,0,0,.432-.432l0-1.727-5.715.006Zm1.085,4.33a.455.455,0,0,0,.454.454h2.641a.462.462,0,0,0,.458-.454v-.646H34.387Zm-4.613-14.2a5.567,5.567,0,0,0,.469,2.308c.005.011.011.022.016.034a12.076,12.076,0,0,0,1.075,1.815,10.049,10.049,0,0,1,1.876,4.184h1V19.709a4.715,4.715,0,0,1-2.41-1.263,2.406,2.406,0,0,1-.641-1.858,2.518,2.518,0,0,1,1.657-2.271,1.654,1.654,0,0,1,1.465.217c.766.535,1.219,1.767,1.409,3.856.153.011.31.018.468.02s.317-.009.472-.02c.19-2.088.642-3.321,1.407-3.855a1.658,1.658,0,0,1,1.47-.217,2.52,2.52,0,0,1,1.651,2.272,2.406,2.406,0,0,1-.641,1.858,4.711,4.711,0,0,1-2.406,1.262v5.909h1a10.069,10.069,0,0,1,1.875-4.176,12.113,12.113,0,0,0,1.073-1.81c.007-.017.015-.034.023-.051a5.573,5.573,0,0,0,.463-2.3,6.387,6.387,0,0,0-12.775,0Zm9.611.137a.877.877,0,0,0,.25-.7,1.028,1.028,0,0,0-.562-.934.334.334,0,0,0-.092-.017.1.1,0,0,0-.064.022c-.09.063-.495.445-.714,2.308a2.766,2.766,0,0,0,1.183-.677Zm-5.977-1.631a.1.1,0,0,0-.064-.022.326.326,0,0,0-.09.017,1.025,1.025,0,0,0-.567.933.878.878,0,0,0,.25.7,2.772,2.772,0,0,0,1.187.679c-.22-1.863-.626-2.246-.716-2.309ZM17.661,40.25a7.716,7.716,0,0,1,7.208,7.439h8.21a3.827,3.827,0,0,1,2.317.778v-15h-.555a1.987,1.987,0,0,1-1.984-1.984v-.856a1.963,1.963,0,0,1-1.085-1.752V26.422a8.118,8.118,0,0,0-1.707-4.128,16.381,16.381,0,0,1-.995-1.612H17.661Zm-3.082.431a7.636,7.636,0,0,1,1.552-.377V23.764H14.579Zm2.589,13.433a6.176,6.176,0,1,0,0-12.351c-.086,0-.172,0-.258.007h-.018a6.175,6.175,0,0,0,.276,12.344Zm3.2.834a7.679,7.679,0,0,1-6.389,0C9.85,55.64,5.53,57.906,5.53,62.257v5.479H28.808V62.257c0-4.351-4.321-6.617-8.445-7.308Zm3.971-4.177h10.93a2.319,2.319,0,0,0-2.185-1.552H24.767A7.627,7.627,0,0,1,24.334,50.772Zm23.655,0a7.627,7.627,0,0,1-.433-1.552H39.244a2.319,2.319,0,0,0-2.185,1.552ZM66.8,62.256c0-4.351-4.321-6.616-8.446-7.307a7.682,7.682,0,0,1-6.389,0c-4.123.691-8.442,2.956-8.442,7.307v5.479H66.8V62.256ZM32.211,39.74H25.083a.765.765,0,1,0,0,1.53h7.127a.765.765,0,0,0,0-1.53Zm0,3.969H26.245a.765.765,0,1,0,0,1.53h5.966a.765.765,0,0,0,0-1.53ZM36.161,8.547a.765.765,0,0,0,.765-.765V6.027a.765.765,0,1,0-1.53,0V7.782A.765.765,0,0,0,36.161,8.547Zm-5.413.89a.765.765,0,1,0,1.326-.764L31.2,7.154a.765.765,0,1,0-1.326.764l.875,1.519ZM26.033,12.32l1.519.876a.765.765,0,0,0,.764-1.326L26.8,10.994a.765.765,0,1,0-.764,1.326Zm-1.127,5.728h1.755a.765.765,0,0,0,0-1.53H24.906a.765.765,0,1,0,0,1.53Zm15.622-8.33a.765.765,0,0,0,1.045-.279l.879-1.519a.765.765,0,1,0-1.325-.766l-.879,1.519a.765.765,0,0,0,.279,1.045Zm3.861,3.58a.76.76,0,0,0,.381-.1l1.519-.876a.765.765,0,0,0-.764-1.326l-1.519.876a.765.765,0,0,0,.383,1.428Zm.508,3.985a.765.765,0,0,0,.765.765h1.755a.765.765,0,0,0,0-1.53H45.662A.765.765,0,0,0,44.9,17.282Zm2.343,22.458H40.112a.765.765,0,0,0,0,1.53h7.127a.765.765,0,0,0,0-1.53ZM44.063,29.368H51.48a.765.765,0,0,0,0-1.53H44.063a.765.765,0,0,0,0,1.53Zm-1.226,3.965H51.48a.765.765,0,0,0,0-1.53H42.836a.765.765,0,0,0,0,1.53ZM44.063,25.4H51.48a.765.765,0,0,0,0-1.53H44.063a.765.765,0,0,0,0,1.53Z" transform="translate(869.532 990.733)" fill="#12263f"/>
  </g>
</svg>
