<svg xmlns="http://www.w3.org/2000/svg" xmlns:xlink="http://www.w3.org/1999/xlink" width="85" height="84.999" viewBox="0 0 85 84.999">
  <defs>
    <linearGradient id="linear-gradient" x1="0.5" y1="0.852" x2="0.5" gradientUnits="objectBoundingBox">
      <stop offset="0" stop-color="#fcb071"/>
      <stop offset="1" stop-color="#ffd884"/>
    </linearGradient>
  </defs>
  <g id="Grupo_1103692" data-name="Grupo 1103692" transform="translate(-715 -1762.999)">
    <path id="Trazado_911369" data-name="Trazado 911369" d="M298.4,99.851a42.5,42.5,0,1,0,42.5-42.5,42.5,42.5,0,0,0-42.5,42.5" transform="translate(416.601 1705.648)" fill="url(#linear-gradient)"/>
    <path id="Trazado_911407" data-name="Trazado 911407" d="M286.55,226.938c-.894,1.343-1.338,1.89-2.141,1.89s-1.247-.547-2.141-1.89c-.926-1.39-2.192-3.293-4.761-3.293s-3.835,1.9-4.76,3.293c-.894,1.343-1.338,1.89-2.14,1.89s-1.246-.547-2.14-1.89c-.925-1.39-2.193-3.293-4.76-3.293s-3.835,1.9-4.761,3.294c-.894,1.343-1.338,1.89-2.14,1.89s-1.246-.547-2.14-1.89c-.925-1.39-2.192-3.294-4.76-3.294a1.574,1.574,0,1,0,0,3.147c.8,0,1.246.547,2.14,1.89.925,1.39,2.192,3.293,4.76,3.293s3.835-1.9,4.76-3.293c.894-1.343,1.337-1.89,2.14-1.89s1.246.547,2.14,1.89c.925,1.39,2.192,3.294,4.76,3.294s3.835-1.9,4.76-3.294c.894-1.343,1.338-1.89,2.14-1.89s1.247.547,2.141,1.89c.926,1.39,2.193,3.293,4.761,3.293s3.835-1.9,4.761-3.293c.894-1.343,1.338-1.89,2.141-1.89a1.574,1.574,0,1,0,0-3.147c-2.568,0-3.835,1.9-4.761,3.293" transform="translate(466.666 1545.762)" fill="#92e8db"/>
    <g id="filledoutline" transform="translate(734.102 1782)">
      <path id="Trazado_912011" data-name="Trazado 912011" d="M3,3H64.768V45.6H3Z" transform="translate(0.065 0.065)" fill="#468261"/>
      <path id="Trazado_912012" data-name="Trazado 912012" d="M8,53H26.1v5.325H8Z" transform="translate(0.39 3.314)" fill="#727997"/>
      <path id="Trazado_912013" data-name="Trazado 912013" d="M17.65,54.17H7V39.26A4.26,4.26,0,0,1,11.26,35h2.13a4.26,4.26,0,0,1,4.26,4.26Z" transform="translate(0.325 2.144)" fill="#e8e8e8"/>
      <path id="Trazado_912014" data-name="Trazado 912014" d="M16.52,27v4.26a4.26,4.26,0,1,1-8.52,0h2.13a2.13,2.13,0,0,0,2.13-2.13V27Z" transform="translate(0.39 1.624)" fill="#fec9a3"/>
      <path id="Trazado_912015" data-name="Trazado 912015" d="M45,43V63.235h5.325V48.325h2.13v14.91H57.78V43Z" transform="translate(2.794 2.664)" fill="#727997"/>
      <path id="Trazado_912016" data-name="Trazado 912016" d="M12.26,23A4.26,4.26,0,0,0,8,27.26v4.26h3.195a1.065,1.065,0,0,0,1.065-1.065V29.39a1.065,1.065,0,0,1,1.065-1.065H16.52V23Z" transform="translate(0.39 1.364)" fill="#ffd884"/>
      <path id="Trazado_912017" data-name="Trazado 912017" d="M58.754,44.1H45.975v-6.39a2.136,2.136,0,0,1-2.13,2.13H32.13a2.13,2.13,0,0,1,0-4.26h9.585V30.26A4.255,4.255,0,0,1,45.975,26h12.78a4.26,4.26,0,0,1,4.26,4.26V46.235a2.13,2.13,0,1,1-4.26,0" transform="translate(1.819 1.559)" fill="#92e8db"/>
      <path id="Trazado_912018" data-name="Trazado 912018" d="M56.739,12v7.135a4.579,4.579,0,0,1-4.579,4.579H49.285A3.2,3.2,0,0,1,46.09,20.52h-.407a1.065,1.065,0,0,1-.952-1.541L46.09,16.26V12Z" transform="translate(2.769 0.65)" fill="#fec9a3"/>
      <path id="Trazado_912019" data-name="Trazado 912019" d="M44.869,12.523l7.716.958,1.318,3.2a3.239,3.239,0,0,0,2.941,2V12.27a4.26,4.26,0,0,0-4.271-4.26l-7.2.017A2.382,2.382,0,0,0,43,10.409a2.13,2.13,0,0,0,1.869,2.114Z" transform="translate(2.664 0.39)" fill="#fcb071"/>
      <path id="Trazado_912020" data-name="Trazado 912020" d="M13.65,53.91H3V44.325a5.325,5.325,0,0,1,10.65,0Z" transform="translate(0.065 2.404)" fill="#dd7b58"/>
      <path id="Trazado_912021" data-name="Trazado 912021" d="M3,57H21.1v5.325H3Z" transform="translate(0.065 3.574)" fill="#bc6549"/>
      <path id="Trazado_912022" data-name="Trazado 912022" d="M34.65,54.17H24V40.325a5.325,5.325,0,0,1,10.65,0Z" transform="translate(1.429 2.144)" fill="#e8e8e8"/>
      <path id="Trazado_912023" data-name="Trazado 912023" d="M37.78,62.585v-4.26H25V53H38.845a3.2,3.2,0,0,1,3.195,3.195v6.39Z" transform="translate(1.494 3.314)" fill="#727997"/>
      <path id="Trazado_912024" data-name="Trazado 912024" d="M34.52,27v5.325a3.2,3.2,0,0,1-3.195,3.195h-4.26A1.065,1.065,0,0,1,26,34.455V31.26h4.26V29.13A2.13,2.13,0,0,1,32.39,27Z" transform="translate(1.559 1.624)" fill="#fec9a3"/>
      <path id="Trazado_912025" data-name="Trazado 912025" d="M30.39,23H28.26A4.26,4.26,0,0,0,24,27.26V42.17h6.435L30.4,30.462a2.13,2.13,0,0,1,2.13-2.137H34.65V27.26A4.26,4.26,0,0,0,30.39,23Z" transform="translate(1.429 1.364)" fill="#ffd884"/>
      <path id="Trazado_912026" data-name="Trazado 912026" d="M20,57H38.1v5.325H20Z" transform="translate(1.17 3.574)" fill="#bc6549"/>
      <path id="Trazado_912027" data-name="Trazado 912027" d="M49,21v5.325l2.13,3.195,2.13-3.195V21Z" transform="translate(3.054 1.235)" fill="#fec9a3"/>
      <path id="Trazado_912028" data-name="Trazado 912028" d="M55,32h2.13V43.715H55Z" transform="translate(3.444 1.949)" fill="#339dcc"/>
      <path id="Trazado_912029" data-name="Trazado 912029" d="M45,37.325V32h2.13Z" transform="translate(2.794 1.949)" fill="#339dcc"/>
      <path id="Trazado_912030" data-name="Trazado 912030" d="M31.65,53.91H21V44.325a5.325,5.325,0,0,1,10.65,0Z" transform="translate(1.235 2.404)" fill="#dd7b58"/>
      <path id="Trazado_912031" data-name="Trazado 912031" d="M65.9,2H2V38.209H4.13V4.13H63.768v21.3H65.9Z" transform="translate(0)"/>
      <path id="Trazado_912032" data-name="Trazado 912032" d="M50,48h2.13V62.91H50Z" transform="translate(3.119 2.989)"/>
      <path id="Trazado_912033" data-name="Trazado 912033" d="M60.574,26.169H57.379V24.539a5.663,5.663,0,0,0,.659-.371l.022-.015a5.631,5.631,0,0,0,2.513-4.694V12.335A5.325,5.325,0,0,0,55.249,7.01h-.015l-7.2.017A3.453,3.453,0,0,0,44.6,10.475a3.2,3.2,0,0,0,2.8,3.169l.391.049v2.639l-1.247,2.494a2.13,2.13,0,0,0,1.364,3.014,4.267,4.267,0,0,0,3.078,3.113v1.215H47.794a5.32,5.32,0,0,0-5.325,5.325v4.26H36.051a5.27,5.27,0,0,0,1.093-3.195V28.3a5.331,5.331,0,0,0-5.325-5.325h-2.13A5.331,5.331,0,0,0,24.364,28.3V40.465a5.325,5.325,0,0,0-3.195,4.873v9.585H19.04V40.014a4.26,4.26,0,0,0-2.487-3.862,5.288,5.288,0,0,0,1.422-3.593v-8.52a1.065,1.065,0,0,0-1.065-1.065H12.65A5.331,5.331,0,0,0,7.325,28.3v5.325a4.219,4.219,0,0,0,1.028,2.742A4.247,4.247,0,0,0,6.26,40.014v.106A5.334,5.334,0,0,0,2,45.338v10.65a1.065,1.065,0,0,0,1.065,1.065h4.26v2.13H3.065A1.065,1.065,0,0,0,2,60.248v4.26a1.065,1.065,0,0,0,1.065,1.065H39.274a1.065,1.065,0,0,0,1.065-1.065v-4.26a1.065,1.065,0,0,0-1.065-1.065H28.624v-2.13H41.4a1.065,1.065,0,0,1,1.065,1.065v7.455H44.6V58.118A3.2,3.2,0,0,0,41.4,54.923h-4.26V42.143h8.52a3.159,3.159,0,0,0,1.065-.2V65.573h2.13V46.4h10.65v19.17h2.13V50.467a3.159,3.159,0,0,0,1.065.2A3.2,3.2,0,0,0,65.9,47.468V31.494a5.331,5.331,0,0,0-5.325-5.325ZM26.494,57.053v2.13H9.455v-2.13ZM9.455,28.3A3.2,3.2,0,0,1,12.65,25.1h3.195v2.13H14.78a3.2,3.2,0,0,0-3.195,3.195v1.065H9.455Zm2.13,5.325a2.13,2.13,0,0,0,2.13-2.13V30.429a1.065,1.065,0,0,1,1.065-1.065h1.065v3.195a3.2,3.2,0,0,1-3.195,3.195H11.585a2.13,2.13,0,0,1-2.13-2.13Zm-1.065,4.26h4.26a2.13,2.13,0,0,1,2.13,2.13v14.91H14.78V45.338a5.331,5.331,0,0,0-5.325-5.325H8.39A2.13,2.13,0,0,1,10.52,37.884ZM4.13,54.923V45.338a3.2,3.2,0,0,1,3.195-3.195h2.13a3.2,3.2,0,0,1,3.195,3.195v9.585ZM20.1,63.443H4.13v-2.13H20.1Zm18.1-2.13v2.13H22.235v-2.13Zm-7.455-6.39H23.3V45.338a3.2,3.2,0,0,1,3.195-3.195h1.065a3.2,3.2,0,0,1,3.195,3.195Zm.007-24.487-.007,10.671a5.275,5.275,0,0,0-3.195-1.094H26.494V28.3A3.2,3.2,0,0,1,29.689,25.1h2.13a3.2,3.2,0,0,1,3.013,2.13h-.875a3.195,3.195,0,0,0-3.195,3.2Zm4.252,24.487h-2.13V38.081a3.2,3.2,0,0,1,2.13,3Zm0-22.364a3.2,3.2,0,0,1-2.13,3V30.432a1.065,1.065,0,0,1,1.065-1.065h1.065ZM47.663,11.532a1.065,1.065,0,0,1-.934-1.056,1.321,1.321,0,0,1,1.314-1.318l7.2-.017h.007a3.2,3.2,0,0,1,3.195,3.195v5.039a2.166,2.166,0,0,1-.891-1.035l-1.318-3.2a1.065,1.065,0,0,0-.852-.652Zm2.261,9.312a1.065,1.065,0,0,0-1.065-1.065h-.407l1.365-2.719a1.065,1.065,0,0,0,.106-.476V13.957l4.579.564,1.081,2.628a4.286,4.286,0,0,0,2.838,2.5A3.492,3.492,0,0,1,56.9,22.371l-.02.013a3.489,3.489,0,0,1-1.948.59H52.054A2.13,2.13,0,0,1,49.924,20.844Zm5.325,4.236v1.834l-1.065,1.6-1.065-1.6V25.1h1.81C55.036,25.1,55.142,25.087,55.249,25.08Zm8.52,22.388a1.065,1.065,0,0,1-2.13,0V33.624h-2.13v10.65H48.859V33.624h-2.13v5.325a1.065,1.065,0,0,1-1.065,1.065H37.038a5.276,5.276,0,0,0-.985-2.13h7.481A1.065,1.065,0,0,0,44.6,36.819V31.494A3.189,3.189,0,0,1,47.794,28.3h3.69l1.635,2.449v11.4h2.13v-11.4L56.883,28.3h3.69a3.2,3.2,0,0,1,3.195,3.195Z" transform="translate(0 0.326)"/>
      <path id="Trazado_912034" data-name="Trazado 912034" d="M9,6h2.13V8.13H9Z" transform="translate(0.455 0.26)"/>
      <path id="Trazado_912035" data-name="Trazado 912035" d="M13,6h2.13V8.13H13Z" transform="translate(0.715 0.26)"/>
      <path id="Trazado_912036" data-name="Trazado 912036" d="M17,6h2.13V8.13H17Z" transform="translate(0.975 0.26)"/>
      <path id="Trazado_912037" data-name="Trazado 912037" d="M21,6H34.845V8.13H21Z" transform="translate(1.235 0.26)"/>
      <path id="Trazado_912038" data-name="Trazado 912038" d="M9,10H31.364v2.13H9Z" transform="translate(0.455 0.52)"/>
      <path id="Trazado_912039" data-name="Trazado 912039" d="M32,10h2.13v2.13H32Z" transform="translate(1.949 0.52)"/>
      <path id="Trazado_912040" data-name="Trazado 912040" d="M9,14h6.39v2.13H9Z" transform="translate(0.455 0.78)"/>
      <path id="Trazado_912041" data-name="Trazado 912041" d="M17,14h9.585v2.13H17Z" transform="translate(0.975 0.78)"/>
      <path id="Trazado_912042" data-name="Trazado 912042" d="M28,14h6.39v2.13H28Z" transform="translate(1.689 0.78)"/>
      <path id="Trazado_912043" data-name="Trazado 912043" d="M9,18H35.624v2.13H9Z" transform="translate(0.455 1.04)"/>
    </g>
  </g>
</svg>
