<svg xmlns="http://www.w3.org/2000/svg" xmlns:xlink="http://www.w3.org/1999/xlink" width="63.069" height="11.794" viewBox="0 0 63.069 11.794">
  <defs>
    <linearGradient id="linear-gradient" x1="0.5" x2="0.5" y2="1" gradientUnits="objectBoundingBox">
      <stop offset="0" stop-color="#fcb071"/>
      <stop offset="1" stop-color="#ffd884"/>
    </linearGradient>
  </defs>
  <path id="Trazado_912010" data-name="Trazado 912010" d="M302.436,228.307c-1.265,1.9-1.894,2.676-3.03,2.676s-1.765-.775-3.03-2.676c-1.31-1.968-3.1-4.662-6.74-4.662s-5.429,2.695-6.738,4.662c-1.266,1.9-1.894,2.676-3.03,2.676s-1.764-.775-3.03-2.676c-1.31-1.968-3.1-4.662-6.739-4.662s-5.43,2.7-6.74,4.663c-1.265,1.9-1.894,2.676-3.029,2.676s-1.764-.775-3.029-2.676c-1.31-1.968-3.1-4.663-6.739-4.663a2.228,2.228,0,1,0,0,4.455c1.136,0,1.764.774,3.029,2.676,1.31,1.968,3.1,4.662,6.739,4.662s5.429-2.695,6.739-4.662c1.265-1.9,1.893-2.676,3.03-2.676s1.764.774,3.03,2.676c1.309,1.968,3.1,4.663,6.739,4.663s5.429-2.695,6.738-4.663c1.266-1.9,1.894-2.676,3.03-2.676s1.765.775,3.03,2.676c1.31,1.968,3.1,4.662,6.74,4.662s5.43-2.695,6.739-4.662c1.266-1.9,1.894-2.676,3.03-2.676a2.228,2.228,0,1,0,0-4.455c-3.636,0-5.429,2.695-6.74,4.662" transform="translate(-248.334 -223.645)" fill="url(#linear-gradient)"/>
</svg>
