<svg xmlns="http://www.w3.org/2000/svg" xmlns:xlink="http://www.w3.org/1999/xlink" width="85" height="85" viewBox="0 0 85 85">
  <defs>
    <linearGradient id="linear-gradient" x1="0.5" y1="0.852" x2="0.5" gradientUnits="objectBoundingBox">
      <stop offset="0" stop-color="#fcb071"/>
      <stop offset="1" stop-color="#ffd884"/>
    </linearGradient>
  </defs>
  <g id="Grupo_1103986" data-name="Grupo 1103986" transform="translate(-704.949 -11007.548)">
    <g id="Grupo_1103890" data-name="Grupo 1103890" transform="translate(0 29)">
      <path id="Trazado_911369" data-name="Trazado 911369" d="M298.4,99.851a42.5,42.5,0,1,0,42.5-42.5,42.5,42.5,0,0,0-42.5,42.5" transform="translate(406.55 10921.197)" fill="url(#linear-gradient)"/>
      <g id="licencias" transform="translate(730.005 11003.588)">
        <path id="Trazado_913905" data-name="Trazado 913905" d="M96.016,40.008V93.964h39.968V40.008Zm0,0" transform="translate(-84.032 -35.004)" fill="#92e8db"/>
        <path id="Trazado_913906" data-name="Trazado 913906" d="M133.985,47l-6.994-6.994H96.016V91.966h37.969Zm0,0" transform="translate(-84.032 -35.004)" fill="#11937f"/>
        <path id="Trazado_913907" data-name="Trazado 913907" d="M64.016,61.964h39.968V17L94.991,8.008H64.016Zm0,0" transform="translate(-56.029 -7.001)" fill="#cbfaf4"/>
        <path id="Trazado_913908" data-name="Trazado 913908" d="M321.008,17h-8.993V8.008Zm0,0" transform="translate(-273.054 -7.001)" fill="#cbfaf4"/>
        <path id="Trazado_913909" data-name="Trazado 913909" d="M152.989,176.008l-32.973,32.973h32.973Zm0,0" transform="translate(-105.035 -154.018)" fill="#5ac6d4"/>
        <path id="Trazado_913910" data-name="Trazado 913910" d="M205,338H185.015a1,1,0,0,1-1-1v-7.994a1,1,0,0,1,1-1H205a1,1,0,0,1,1,1V337A1,1,0,0,1,205,338Zm-18.985-2H204v-6H186.014Zm0,0" transform="translate(-161.041 -287.033)" fill="#11937f"/>
        <path id="Trazado_913911" data-name="Trazado 913911" d="M216.016,360.008h4v2h-4Zm0,0" transform="translate(-189.044 -315.036)" fill="#348fd9"/>
        <path id="Trazado_913912" data-name="Trazado 913912" d="M264.016,360.008h7.994v2h-7.994Zm0,0" transform="translate(-231.049 -315.036)" fill="#11937f"/>
        <path id="Trazado_913913" data-name="Trazado 913913" d="M248.016,222.006l5.995-5.995L268,230,262,236Zm0,0" transform="translate(-217.048 -189.025)" fill="#e0e0de"/>
        <path id="Trazado_913914" data-name="Trazado 913914" d="M319,144.008a6,6,0,0,0-6,6v.5l-8.993,9.492,5,5L318.5,156h.5a6,6,0,1,0,0-11.99Zm0,0" transform="translate(-266.053 -126.015)" fill="#95573a"/>
        <path id="Trazado_913915" data-name="Trazado 913915" d="M224.02,267l3-3,13.989,13.989-3,3Zm0,0" transform="translate(-196.049 -231.023)" fill="#ebebe9"/>
        <path id="Trazado_913916" data-name="Trazado 913916" d="M339.04,148.246c-4.14,10.469-10.608,15.467-14.935,17.967l2.487,2.487,9.492-8.993h.5a6,6,0,0,0,2.456-11.461Zm0,0" transform="translate(-283.634 -129.723)" fill="#8f4d2e"/>
        <path id="Trazado_913917" data-name="Trazado 913917" d="M192.857,59.384a1.7,1.7,0,0,0-2.267-2.267,1.7,1.7,0,0,0-3.2,0,1.7,1.7,0,0,0-2.261,2.267,1.7,1.7,0,0,0,0,3.2,1.7,1.7,0,0,0,2.267,2.261,1.7,1.7,0,0,0,3.2,0,1.7,1.7,0,0,0,2.261-2.267,1.7,1.7,0,0,0,0-3.2Zm0,0" transform="translate(-161.021 -48.985)" fill="#fc8775"/>
        <path id="Trazado_913918" data-name="Trazado 913918" d="M81,67a10.983,10.983,0,0,0-16.986-9.205V76.2A10.983,10.983,0,0,0,81,67Zm0,0" transform="translate(-56.029 -49.005)" fill="#5ac6d4"/>
        <path id="Trazado_913919" data-name="Trazado 913919" d="M328.016,80.008h6.994v2h-6.994Zm0,0" transform="translate(-287.056 -70.008)" fill="#92e8db"/>
        <g id="Grupo_1103889" data-name="Grupo 1103889" transform="translate(12.983 19.992)">
          <path id="Trazado_913920" data-name="Trazado 913920" d="M152.016,232.008h9.992v2h-9.992Zm0,0" transform="translate(-146.02 -223.015)" fill="#3fb7c7"/>
          <path id="Trazado_913921" data-name="Trazado 913921" d="M104.016,264.008h11.99v2h-11.99Zm0,0" transform="translate(-104.016 -251.018)" fill="#3fb7c7"/>
          <path id="Trazado_913922" data-name="Trazado 913922" d="M104.016,200.008H125v2H104.016Zm0,0" transform="translate(-104.016 -195.012)" fill="#3fb7c7"/>
          <path id="Trazado_913923" data-name="Trazado 913923" d="M104.016,296.008h6v2h-6Zm0,0" transform="translate(-104.016 -279.022)" fill="#3fb7c7"/>
          <path id="Trazado_913924" data-name="Trazado 913924" d="M104.016,328.008h7.994v2h-7.994Zm0,0" transform="translate(-104.016 -307.025)" fill="#3fb7c7"/>
          <path id="Trazado_913925" data-name="Trazado 913925" d="M104.016,360.008h7.994v2h-7.994Zm0,0" transform="translate(-104.016 -335.028)" fill="#3fb7c7"/>
          <path id="Trazado_913926" data-name="Trazado 913926" d="M104.016,392.008h7.994v2h-7.994Zm0,0" transform="translate(-104.016 -363.031)" fill="#3fb7c7"/>
          <path id="Trazado_913927" data-name="Trazado 913927" d="M104.016,232.008h4v2h-4Zm0,0" transform="translate(-104.016 -223.015)" fill="#3fb7c7"/>
          <path id="Trazado_913928" data-name="Trazado 913928" d="M168.016,296.008h4v2h-4Zm0,0" transform="translate(-160.022 -279.022)" fill="#3fb7c7"/>
          <path id="Trazado_913929" data-name="Trazado 913929" d="M168.016,160.008h4v2h-4Zm0,0" transform="translate(-160.022 -160.008)" fill="#3fb7c7"/>
          <path id="Trazado_913930" data-name="Trazado 913930" d="M216.016,160.008h7.994v2h-7.994Zm0,0" transform="translate(-202.027 -160.008)" fill="#3fb7c7"/>
        </g>
        <path id="Trazado_913931" data-name="Trazado 913931" d="M30,51A10.991,10.991,0,1,1,19.007,40.008,10.991,10.991,0,0,1,30,51Zm0,0" transform="translate(-7.023 -35.004)" fill="#92e8db"/>
        <path id="Trazado_913932" data-name="Trazado 913932" d="M38.063,94.049a1,1,0,0,1-.706-.293l-3-3,1.413-1.413,2.291,2.291,9.285-9.285,1.413,1.413L38.77,93.756A1,1,0,0,1,38.063,94.049Zm0,0" transform="translate(-30.077 -72.059)" fill="#ffb531"/>
        <path id="Trazado_913933" data-name="Trazado 913933" d="M192.585,111.434a10.862,10.862,0,0,0-.66-2.1A1.673,1.673,0,0,0,192.585,111.434Zm0,0" transform="translate(-167.84 -95.673)" fill="#f98500"/>
        <path id="Trazado_913934" data-name="Trazado 913934" d="M185.175,95.736a11.035,11.035,0,0,0-1.023-1.826A1.663,1.663,0,0,0,185.175,95.736Zm0,0" transform="translate(-161.139 -82.174)" fill="#f98500"/>
        <path id="Trazado_913935" data-name="Trazado 913935" d="M389.012,43V33.007a1,1,0,0,0-1-1h-4v2h3V43Zm0,0" transform="translate(-336.061 -28.003)"/>
        <path id="Trazado_913936" data-name="Trazado 913936" d="M56.016,240.008v24.98a1,1,0,0,0,1,1H96.983a1,1,0,0,0,1-1v-6.994h-2v6H58.014V240.008Zm0,0" transform="translate(-49.028 -210.024)"/>
        <path id="Trazado_913937" data-name="Trazado 913937" d="M88.4.108c-.031-.014-.061-.022-.093-.033a.993.993,0,0,0-.259-.052A.381.381,0,0,0,87.99.008H57.015a1,1,0,0,0-1,1v2h2v-1H86.991V10a1,1,0,0,0,1,1h7.994v5h2V10c0-.021-.011-.04-.012-.062a.974.974,0,0,0-.052-.259c-.011-.032-.019-.062-.033-.093a.992.992,0,0,0-.2-.293L88.692.3A1,1,0,0,0,88.4.108ZM94.57,9H88.989V3.419Zm0,0" transform="translate(-49.028)"/>
        <path id="Trazado_913938" data-name="Trazado 913938" d="M184.016,329.007V337a1,1,0,0,0,1,1H198v-2h-11.99v-6h5v-2h-6A1,1,0,0,0,184.016,329.007Zm0,0" transform="translate(-161.041 -287.033)"/>
        <path id="Trazado_913939" data-name="Trazado 913939" d="M216.016,360.008h6v2h-6Zm0,0" transform="translate(-189.044 -315.036)"/>
        <path id="Trazado_913940" data-name="Trazado 913940" d="M136.983,136.008A7,7,0,0,0,129.988,143v.1l-5.1,5.379-3.19-3.19a1,1,0,0,0-1.413,0l-8.993,8.993a1,1,0,0,0,0,1.413l13.989,13.989a1,1,0,0,0,1.413,0l3-3,5.289-5.287v15.573H96.016v2h39.968a1,1,0,0,0,1-1V153.993h-2v4.582l-3.483-3.483,5.381-5.1h.1a6.994,6.994,0,1,0,0-13.989Zm-10.991,31.561-12.576-12.576L115,153.408l12.576,12.576Zm7.58-7.58-4.582,4.582-12.576-12.576L121,147.413l2.522,2.522-2.248,2.372a1,1,0,0,0,.019,1.4l5,5a1,1,0,0,0,1.393.019l2.373-2.248ZM136.983,148h-.5a1,1,0,0,0-.687.274l-8.786,8.319-3.616-3.616,8.323-8.786a1,1,0,0,0,.27-.687V143a5,5,0,1,1,5,5Zm0,0" transform="translate(-84.032 -119.014)"/>
        <path id="Trazado_913941" data-name="Trazado 913941" d="M152.016,232.008h9.992v2h-9.992Zm0,0" transform="translate(-133.038 -203.023)"/>
        <path id="Trazado_913942" data-name="Trazado 913942" d="M104.016,264.008h11.99v2h-11.99Zm0,0" transform="translate(-91.033 -231.027)"/>
        <path id="Trazado_913943" data-name="Trazado 913943" d="M176.016,200.008h11.99v2h-11.99Zm0,0" transform="translate(-154.04 -175.02)"/>
        <path id="Trazado_913944" data-name="Trazado 913944" d="M104.016,296.008h6v2h-6Zm0,0" transform="translate(-91.033 -259.03)"/>
        <path id="Trazado_913945" data-name="Trazado 913945" d="M104.016,328.008h7.994v2h-7.994Zm0,0" transform="translate(-91.033 -287.033)"/>
        <path id="Trazado_913946" data-name="Trazado 913946" d="M104.016,360.008h7.994v2h-7.994Zm0,0" transform="translate(-91.033 -315.036)"/>
        <path id="Trazado_913947" data-name="Trazado 913947" d="M104.016,392.008h7.994v2h-7.994Zm0,0" transform="translate(-91.033 -343.039)"/>
        <path id="Trazado_913948" data-name="Trazado 913948" d="M104.016,232.008h4v2h-4Zm0,0" transform="translate(-91.033 -203.023)"/>
        <path id="Trazado_913949" data-name="Trazado 913949" d="M168.016,296.008h4v2h-4Zm0,0" transform="translate(-147.039 -259.03)"/>
        <path id="Trazado_913950" data-name="Trazado 913950" d="M200.016,160.008h9.992v2h-9.992Zm0,0" transform="translate(-175.043 -140.016)"/>
        <path id="Trazado_913951" data-name="Trazado 913951" d="M11.983,55.976A11.991,11.991,0,0,0,23.953,44.406a2.641,2.641,0,0,0,1.937.605,2.71,2.71,0,0,0,4.161,0,2.71,2.71,0,0,0,2.941-2.941,2.71,2.71,0,0,0,0-4.161,2.71,2.71,0,0,0-2.941-2.941,2.71,2.71,0,0,0-4.161,0,2.71,2.71,0,0,0-2.941,2.941,2.594,2.594,0,0,0-.4.412A11.99,11.99,0,1,0,11.983,55.976ZM24.439,39.33a1,1,0,0,0,.568-1.369.7.7,0,0,1,.934-.934,1,1,0,0,0,1.37-.568.7.7,0,0,1,1.319,0,1,1,0,0,0,1.37.568.7.7,0,0,1,.934.934A1,1,0,0,0,31.5,39.33a.7.7,0,0,1,0,1.319,1,1,0,0,0-.568,1.37.672.672,0,0,1-.138.8.68.68,0,0,1-.8.138,1,1,0,0,0-1.37.567.7.7,0,0,1-1.319,0,1,1,0,0,0-.56-.588,1.019,1.019,0,0,0-.383-.076.978.978,0,0,0-.428.1A.7.7,0,0,1,25,42.025a1,1,0,0,0-.568-1.37.7.7,0,0,1,0-1.319ZM11.983,33.994a9.992,9.992,0,1,1-9.992,9.992A9.992,9.992,0,0,1,11.983,33.994Zm0,0" transform="translate(0 -27.991)"/>
        <path id="Trazado_913952" data-name="Trazado 913952" d="M37.357,93.756a1,1,0,0,0,1.413,0l9.992-9.992-1.413-1.413-9.285,9.285-2.291-2.291-1.413,1.413Zm0,0" transform="translate(-30.077 -72.059)"/>
      </g>
      <path id="Trazado_913904" data-name="Trazado 913904" d="M286.55,226.938c-.894,1.343-1.338,1.89-2.141,1.89s-1.247-.547-2.141-1.89c-.926-1.39-2.192-3.293-4.761-3.293s-3.835,1.9-4.76,3.293c-.894,1.343-1.338,1.89-2.14,1.89s-1.246-.547-2.14-1.89c-.925-1.39-2.193-3.293-4.76-3.293s-3.835,1.9-4.761,3.294c-.894,1.343-1.338,1.89-2.14,1.89s-1.246-.547-2.14-1.89c-.925-1.39-2.192-3.294-4.76-3.294a1.574,1.574,0,1,0,0,3.147c.8,0,1.246.547,2.14,1.89.925,1.39,2.192,3.293,4.76,3.293s3.835-1.9,4.76-3.293c.894-1.343,1.337-1.89,2.14-1.89s1.246.547,2.14,1.89c.925,1.39,2.192,3.294,4.76,3.294s3.835-1.9,4.76-3.294c.894-1.343,1.338-1.89,2.14-1.89s1.247.547,2.141,1.89c.926,1.39,2.193,3.293,4.761,3.293s3.835-1.9,4.761-3.293c.894-1.343,1.338-1.89,2.141-1.89a1.574,1.574,0,1,0,0-3.147c-2.568,0-3.835,1.9-4.761,3.293" transform="translate(456.615 10761.311)" fill="#92e8db"/>
    </g>
  </g>
</svg>
