<svg xmlns="http://www.w3.org/2000/svg" xmlns:xlink="http://www.w3.org/1999/xlink" width="85.051" height="85" viewBox="0 0 85.051 85">
  <defs>
    <linearGradient id="linear-gradient" x1="0.5" y1="0.852" x2="0.5" gradientUnits="objectBoundingBox">
      <stop offset="0" stop-color="#fcb071"/>
      <stop offset="1" stop-color="#ffd884"/>
    </linearGradient>
  </defs>
  <g id="Grupo_1103694" data-name="Grupo 1103694" transform="translate(-705.27 -4496.292)">
    <g id="Grupo_1103249" data-name="Grupo 1103249" transform="translate(210.27 1808.292)">
      <path id="Trazado_911369" data-name="Trazado 911369" d="M298.4,99.851a42.5,42.5,0,1,0,42.5-42.5,42.5,42.5,0,0,0-42.5,42.5" transform="translate(196.601 2630.648)" fill="url(#linear-gradient)"/>
      <g id="profesor" transform="translate(516.051 2709)">
        <path id="Trazado_911370" data-name="Trazado 911370" d="M28,15v3a8.262,8.262,0,0,1-.06,1,8,8,0,0,1-15.88,0A8.262,8.262,0,0,1,12,18V12.96a9.707,9.707,0,0,0,6.59-2.92,1.863,1.863,0,0,1,2.92.23L22,11a1.861,1.861,0,0,1,3.05.63L26,14h2Z" fill="#e8cdbf"/>
        <path id="Trazado_911371" data-name="Trazado 911371" d="M27.94,19A8.262,8.262,0,0,0,28,18V14H26l-.95-2.37A1.861,1.861,0,0,0,22,11l-.513-.764a1.846,1.846,0,0,0-2.893-.2A9.413,9.413,0,0,1,12,12.96V18a8.262,8.262,0,0,0,.06,1A8.021,8.021,0,0,0,14,23.258V16.467a1.559,1.559,0,0,1,1.411-1.549C16.969,14.763,19.344,14.311,20,13c1-2,2,1,3,1s3,2,3,4c0,1.2-.714,4.175-.434,5.74A8,8,0,0,0,27.94,19Z" fill="#d99c9c"/>
        <ellipse id="Elipse_11530" data-name="Elipse 11530" cx="1.5" cy="1" rx="1.5" ry="1" transform="translate(15 19)" fill="#efb4ae"/>
        <ellipse id="Elipse_11531" data-name="Elipse 11531" cx="1.5" cy="1" rx="1.5" ry="1" transform="translate(22 19)" fill="#efb4ae"/>
        <path id="Trazado_911372" data-name="Trazado 911372" d="M63,5V25H51.43l-.37-6.02a1.046,1.046,0,0,0-2.09.04L48.8,25H39V5Z" fill="#468261"/>
        <path id="Trazado_911373" data-name="Trazado 911373" d="M39,25h9.8l.142-5.011C44.237,16.914,42.566,10.8,42.156,5H39Z" fill="#114e0e"/>
        <path id="Trazado_911374" data-name="Trazado 911374" d="M57,22a14.924,14.924,0,0,1-5.809-.882L51.43,25H63V21.9C61.168,21.9,59.177,21.931,57,22Z" fill="#114e0e"/>
        <path id="Trazado_911375" data-name="Trazado 911375" d="M38.07,41.95,45,37l4,7-9.87,8.23a2.638,2.638,0,0,1-3.79-.44l-2.01-2.67L35,63H26V43l-2.23-8.96,2.95-3.69,5.7,2.08a3.99,3.99,0,0,1,2.28,2.1Z" fill="#a48678"/>
        <path id="Trazado_911376" data-name="Trazado 911376" d="M33.33,49.12l2.01,2.67a2.638,2.638,0,0,0,3.79.44L49,44a1.992,1.992,0,0,0-2.988-.555L38.222,49.8a1,1,0,0,1-1.339-.067L35.6,48.447a1.008,1.008,0,0,1-.281-.55l-1.3-8.18A2.038,2.038,0,0,0,32,38Z" fill="#594246"/>
        <path id="Trazado_911377" data-name="Trazado 911377" d="M16,50v5a1,1,0,0,1-1,1H10V49h5A1,1,0,0,1,16,50Z" fill="#e8cdbf"/>
        <path id="Trazado_911378" data-name="Trazado 911378" d="M16,51V50a1,1,0,0,0-1-1H10v7a2,2,0,0,0,2-2V53a2,2,0,0,1,2-2Z" fill="#bf787e"/>
        <path id="Trazado_911379" data-name="Trazado 911379" d="M10,49v7H3a2.006,2.006,0,0,1-2-2V44.43a1.956,1.956,0,0,1,.18-.82L5.3,34.53a3.99,3.99,0,0,1,2.28-2.1l5.7-2.08,2.95,3.69L14,43v6Z" fill="#a48678"/>
        <path id="Trazado_911380" data-name="Trazado 911380" d="M6.73,48.59,8,38l-.544.047a2,2,0,0,0-1.807,1.7l-.4,2.7a.854.854,0,0,1-.692.714A.855.855,0,0,0,4,44.472Z" fill="#594246"/>
        <path id="Trazado_911381" data-name="Trazado 911381" d="M23,25.42V29a3,3,0,0,1-6,0V25.42a8.049,8.049,0,0,0,6,0Z" fill="#e8cdbf"/>
        <path id="Trazado_911382" data-name="Trazado 911382" d="M23,25.42a8.049,8.049,0,0,1-6,0V29a2.975,2.975,0,0,0,.184,1,2.983,2.983,0,0,1,5.633,0A2.992,2.992,0,0,0,23,29Z" fill="#bf787e"/>
        <path id="Trazado_911383" data-name="Trazado 911383" d="M30,10.09V12a2.006,2.006,0,0,1-2,2H26l-.95-2.37A1.861,1.861,0,0,0,22,11l-.49-.73a1.863,1.863,0,0,0-2.92-.23A9.707,9.707,0,0,1,12,12.96c-.32.03-.65.04-1,.04H9V10.21A9.206,9.206,0,0,1,18.21,1H20l2,1a5.759,5.759,0,0,1,1.42-.18,5.858,5.858,0,0,1,4.87,2.61A10.256,10.256,0,0,1,30,10.09Z" fill="#a48678"/>
        <path id="Trazado_911384" data-name="Trazado 911384" d="M9,13h2c.35,0,.68-.01,1-.04a9.707,9.707,0,0,0,6.589-2.919,1.855,1.855,0,0,1,2.9.2L22,11a1.861,1.861,0,0,1,3.05.63L26,14h2a2.006,2.006,0,0,0,2-2V10.09a10.128,10.128,0,0,0-.352-2.571C28.91,8.582,27.956,9.478,27,9a2.053,2.053,0,0,1-1.183-2.453.414.414,0,0,0-.5-.491C24.221,6.28,24.72,7.14,23,8c-1.461.731-1.321-1.208-1.139-2.306a.653.653,0,0,0-.915-.707A5.548,5.548,0,0,0,19,7c-1.562,2.342-2.514.417-2.856-.539a.25.25,0,0,0-.449-.052C14.974,7.64,14.774,10,13,10c-1.2,0-.959-.723-.574-1.3a.248.248,0,0,0-.31-.363,17.465,17.465,0,0,0-3.046,1.74L9,10.21Z" fill="#594246"/>
        <path id="Trazado_911385" data-name="Trazado 911385" d="M63,25v4H51.67l-.24-4Z" fill="#edf4fa"/>
        <path id="Trazado_911386" data-name="Trazado 911386" d="M63,1V5H39V25h9.8l-.11,4H36a1,1,0,0,1-1-1V2a1,1,0,0,1,1-1Z" fill="#edf4fa"/>
        <path id="Trazado_911387" data-name="Trazado 911387" d="M48.71,35.31l.64-.66A2.084,2.084,0,0,1,52,34.4a1.974,1.974,0,0,1,.45.42l1.22,1.52a2.372,2.372,0,0,1-.17,3.16L49,44l-4-7,1.3-1.3a2.061,2.061,0,0,1,2.22-.47,1.539,1.539,0,0,1,.19.08Z" fill="#e8cdbf"/>
        <path id="Trazado_911388" data-name="Trazado 911388" d="M48.8,25l.17-5.98a1.046,1.046,0,0,1,2.09-.04L51.43,25l.24,4L52,34.4a2.084,2.084,0,0,0-2.65.25l-.64.66a1.539,1.539,0,0,0-.19-.08L48.69,29Z" fill="#a48678"/>
        <path id="Trazado_911389" data-name="Trazado 911389" d="M29,15a2,2,0,1,1,0,4H28l-.06-.01A8.1,8.1,0,0,0,28,18V15Z" fill="#e8cdbf"/>
        <path id="Trazado_911390" data-name="Trazado 911390" d="M26.72,30.35l-2.95,3.69L23,35l-1-1-2-2a3,3,0,0,0,3-3Z" fill="#edf4fa"/>
        <path id="Trazado_911391" data-name="Trazado 911391" d="M14,59H26v4H14Z" fill="#505a9a"/>
        <path id="Trazado_911392" data-name="Trazado 911392" d="M24,60a1,1,0,0,1-1,1H15a1,1,0,0,0-1,1v1H26V59H25A1,1,0,0,0,24,60Z" fill="#454f8a"/>
        <path id="Trazado_911393" data-name="Trazado 911393" d="M26,43V59H14V56h1a1,1,0,0,0,1-1V50a1,1,0,0,0-1-1H14V43l2.23-8.96L17,35l1-1L17,44l3,6,3-6L22,34l1,1,.77-.96Z" fill="#cdd8e3"/>
        <path id="Trazado_911394" data-name="Trazado 911394" d="M22,34l1,10-3,6-3-6,1-10,2-2Z" fill="#505a9a"/>
        <path id="Trazado_911395" data-name="Trazado 911395" d="M23,44,22,34l-2-2-.886.886.343.343,1,10-1.921,3.842L20,50Z" fill="#454f8a"/>
        <path id="Trazado_911396" data-name="Trazado 911396" d="M20,32l-2,2-1,1-.77-.96-2.95-3.69L17,29A3,3,0,0,0,20,32Z" fill="#edf4fa"/>
        <path id="Trazado_911397" data-name="Trazado 911397" d="M14,59v4H5l.84-7H14Z" fill="#a48678"/>
        <path id="Trazado_911398" data-name="Trazado 911398" d="M14,57V56H5.84L5,63a2.525,2.525,0,0,0,2.507-2.224l.066-.552A2.525,2.525,0,0,1,10.08,58H13a1,1,0,0,0,1-1Z" fill="#594246"/>
        <path id="Trazado_911399" data-name="Trazado 911399" d="M12.06,18.99,12,19H11a2,2,0,1,1,0-4h1v3a8.1,8.1,0,0,0,.06.99Z" fill="#e8cdbf"/>
        <path id="Trazado_911400" data-name="Trazado 911400" d="M14.17,6h.618a.893.893,0,0,0,.4-.1l1.231-.615a.9.9,0,0,1,1.037.168L18,6l1.068-1.6A.9.9,0,0,0,18.321,3H15.372a.9.9,0,0,0-.635.263l-1.2,1.2A.9.9,0,0,0,14.17,6Z" fill="#dbbead"/>
        <g id="Grupo_1100993" data-name="Grupo 1100993">
          <ellipse id="Elipse_11532" data-name="Elipse 11532" cx="1" cy="1.5" rx="1" ry="1.5" transform="translate(15 15)" fill="#1a1a23"/>
          <ellipse id="Elipse_11533" data-name="Elipse 11533" cx="1" cy="1.5" rx="1" ry="1.5" transform="translate(23 15)" fill="#1a1a23"/>
          <path id="Trazado_911401" data-name="Trazado 911401" d="M22,8a1,1,0,0,0,.707-.293l1-1a1,1,0,1,0-1.414-1.414l-1,1A1,1,0,0,0,22,8Z" fill="#1a1a23"/>
          <path id="Trazado_911402" data-name="Trazado 911402" d="M63,0H36a2,2,0,0,0-2,2V28a2,2,0,0,0,2,2H47.667l-.113,4.112a3.047,3.047,0,0,0-1.959.879l-1.243,1.243-5.876,4.2L35.6,34.116a5.022,5.022,0,0,0-2.842-2.63L24,28.3V26.05A9.021,9.021,0,0,0,28.768,20H29a2.993,2.993,0,0,0,1.031-5.806A2.982,2.982,0,0,0,31,12V10.088a11.156,11.156,0,0,0-1.881-6.212A6.864,6.864,0,0,0,22.131.947L20.447.105A1,1,0,0,0,20,0H18.206A10.218,10.218,0,0,0,8,10.207V13a1,1,0,0,0,1,1h2a3,3,0,1,0,0,6h.232A9.021,9.021,0,0,0,16,26.05V28.3L7.237,31.486A5.022,5.022,0,0,0,4.4,34.116L.27,43.192A2.976,2.976,0,0,0,0,44.433V54a3,3,0,0,0,3,3H4.712l-.7,5.881A1,1,0,0,0,5,64H35a1,1,0,0,0,.993-1.119l-1.23-10.253a3.575,3.575,0,0,0,2.258,1.185,3.706,3.706,0,0,0,.432.025A3.6,3.6,0,0,0,39.767,53l9.874-8.229c.013-.011.019-.027.032-.038s.024-.013.034-.023l4.5-4.5a3.369,3.369,0,0,0,.249-4.488L53.235,34.2a2.869,2.869,0,0,0-.263-.266L52.733,30H63a1,1,0,0,0,0-2H52.611l-.553-9.079a2.045,2.045,0,0,0-4.086.067L47.723,28H36V2H63a1,1,0,0,0,0-2ZM25,58H18a1,1,0,0,0,0,2h7v2H15V57a2,2,0,0,0,2-2V50a2,2,0,0,0-2-2V43.123l1.782-7.169.017.005L16,43.9a1,1,0,0,0,.1.547l3,6a1,1,0,0,0,1.79,0l3-6A1,1,0,0,0,24,43.9l-.8-7.941.017-.005L25,43.123ZM11,50h4v5H11Zm7.092-17.506L17.083,33.5l-2.15-2.687,1.314-.478A4,4,0,0,0,18.092,32.494Zm3.885,11.318L20,47.764l-1.977-3.952.937-9.358L20,33.414l1.04,1.04Zm.94-10.309-1.009-1.009a4,4,0,0,0,1.845-2.156l1.314.478ZM29,18V16a1,1,0,0,1,0,2ZM10,12V10.207A8.217,8.217,0,0,1,18.206,2h1.558l1.789.9a1.008,1.008,0,0,0,.689.075A4.863,4.863,0,0,1,27.455,4.99,9.169,9.169,0,0,1,29,10.088V12a1,1,0,0,1-1,1H26.677l-.7-1.746A2.867,2.867,0,0,0,22.3,9.642a2.832,2.832,0,0,0-2.079-1.187,2.877,2.877,0,0,0-2.349.9A9.057,9.057,0,0,1,11,12Zm0,5a1,1,0,0,1,1-1v2A1,1,0,0,1,10,17Zm3,1V13.847a10.565,10.565,0,0,0,6.319-3.118.876.876,0,0,1,.728-.282.84.84,0,0,1,.635.377l.486.73a1,1,0,0,0,1.539.154A.864.864,0,0,1,24.122,12l.949,2.374A1,1,0,0,0,26,15h1v3a7,7,0,1,1-14,0Zm7,9a8.971,8.971,0,0,0,2-.232V29a2,2,0,0,1-4,0V26.768A8.971,8.971,0,0,0,20,27ZM2,54V44.433a1.009,1.009,0,0,1,.09-.414l4.125-9.076a3.012,3.012,0,0,1,1.706-1.577l5.028-1.829,2.189,2.737-2.109,8.485A1.025,1.025,0,0,0,13,43v5H7.807l1.186-9.881a1,1,0,1,0-1.986-.238l-.949,7.9-.226-.34a1,1,0,1,0-1.664,1.11l2,3A1,1,0,0,0,7,50H9v5H3a1,1,0,0,1-1-1Zm4.727,3H13v5H6.127Zm31.759-5.54a1.592,1.592,0,0,1-1.233.367,1.615,1.615,0,0,1-1.113-.641L34.3,48.727,33,37.881a1,1,0,0,0-1.986.238L33.873,62H27V43a1.025,1.025,0,0,0-.029-.241l-2.109-8.485,2.189-2.737,5.028,1.829a3.012,3.012,0,0,1,1.706,1.577l4.305,9.471a1,1,0,1,0,1.82-.828l-.591-1.3,5.362-3.83,3.035,5.312ZM52.793,38.793l-3.574,3.574-2.972-5.2.762-.762a1.041,1.041,0,0,1,.843-.314,1.068,1.068,0,0,1,.79.43l1.038,1.385-.387.387a1,1,0,1,0,1.414,1.414l1-1A1,1,0,0,0,51.8,37.4l-1.559-2.079c-.015-.02-.035-.035-.051-.055a.991.991,0,0,1,.7-.229,1.066,1.066,0,0,1,.785.405L52.9,36.968a1.37,1.37,0,0,1-.1,1.825ZM50.062,19.042l.853,14a3.037,3.037,0,0,0-1.327.266Z" fill="#1a1a23"/>
          <path id="Trazado_911403" data-name="Trazado 911403" d="M63,4H39a1,1,0,0,0-1,1V25a1,1,0,0,0,1,1h5.807a1,1,0,0,0,0-2H40V6H63a1,1,0,0,0,0-2Z" fill="#1a1a23"/>
          <path id="Trazado_911404" data-name="Trazado 911404" d="M55.427,26H63a1,1,0,0,0,0-2H55.427a1,1,0,0,0,0,2Z" fill="#1a1a23"/>
          <path id="Trazado_911405" data-name="Trazado 911405" d="M43,10H59a1,1,0,0,0,0-2H43a1,1,0,0,0,0,2Z" fill="#1a1a23"/>
          <path id="Trazado_911406" data-name="Trazado 911406" d="M43,14H59a1,1,0,0,0,0-2H43a1,1,0,0,0,0,2Z" fill="#1a1a23"/>
        </g>
      </g>
      <path id="Trazado_911407" data-name="Trazado 911407" d="M286.55,226.938c-.894,1.343-1.338,1.89-2.141,1.89s-1.247-.547-2.141-1.89c-.926-1.39-2.192-3.293-4.761-3.293s-3.835,1.9-4.76,3.293c-.894,1.343-1.338,1.89-2.14,1.89s-1.246-.547-2.14-1.89c-.925-1.39-2.193-3.293-4.76-3.293s-3.835,1.9-4.761,3.294c-.894,1.343-1.338,1.89-2.14,1.89s-1.246-.547-2.14-1.89c-.925-1.39-2.192-3.294-4.76-3.294a1.574,1.574,0,1,0,0,3.147c.8,0,1.246.547,2.14,1.89.925,1.39,2.192,3.293,4.76,3.293s3.835-1.9,4.76-3.293c.894-1.343,1.337-1.89,2.14-1.89s1.246.547,2.14,1.89c.925,1.39,2.192,3.294,4.76,3.294s3.835-1.9,4.76-3.294c.894-1.343,1.338-1.89,2.14-1.89s1.247.547,2.141,1.89c.926,1.39,2.193,3.293,4.761,3.293s3.835-1.9,4.761-3.293c.894-1.343,1.338-1.89,2.141-1.89a1.574,1.574,0,1,0,0-3.147c-2.568,0-3.835,1.9-4.761,3.293" transform="translate(246.666 2470.762)" fill="#92e8db"/>
    </g>
  </g>
</svg>
