<svg xmlns="http://www.w3.org/2000/svg" xmlns:xlink="http://www.w3.org/1999/xlink" width="85" height="84.999" viewBox="0 0 85 84.999">
  <defs>
    <linearGradient id="linear-gradient" x1="0.5" y1="0.852" x2="0.5" gradientUnits="objectBoundingBox">
      <stop offset="0" stop-color="#fcb071"/>
      <stop offset="1" stop-color="#ffd884"/>
    </linearGradient>
  </defs>
  <g id="Grupo_1103692" data-name="Grupo 1103692" transform="translate(-705.949 -478.699)">
    <g id="Grupo_1103251" data-name="Grupo 1103251">
      <g id="Grupo_1103230" data-name="Grupo 1103230">
        <path id="Trazado_911369" data-name="Trazado 911369" d="M298.4,99.851a42.5,42.5,0,1,0,42.5-42.5,42.5,42.5,0,0,0-42.5,42.5" transform="translate(407.55 421.348)" fill="url(#linear-gradient)"/>
        <g id="Female_teacher" data-name="Female teacher" transform="translate(727.011 499.699)">
          <path id="Trazado_913493" data-name="Trazado 913493" d="M29.27,1H72.939V3.657H29.27Z" transform="translate(-9.81 -0.336)" fill="#f4a261"/>
          <path id="Trazado_913494" data-name="Trazado 913494" d="M66.426,1H46.389a1.329,1.329,0,1,0,0,2.657H66.426a1.329,1.329,0,1,0,0-2.657Z" transform="translate(-15.11 -0.336)" fill="#f4d49d"/>
          <path id="Trazado_913495" data-name="Trazado 913495" d="M37.17,5H75.591V36.511H37.17Z" transform="translate(-12.462 -1.678)" fill="#264653"/>
          <path id="Trazado_913496" data-name="Trazado 913496" d="M43.711,10a1.408,1.408,0,0,0-1.541,1.216v5.979a1.329,1.329,0,0,0,2.305.957l5.853-5.853a1.329,1.329,0,0,0-.963-2.3Z" transform="translate(-14.139 -3.352)" fill="#265a67"/>
          <path id="Trazado_913497" data-name="Trazado 913497" d="M54.786,12.445,44.615,22.623a8.311,8.311,0,0,0-2.445,5.893v5.136a1.408,1.408,0,0,0,1.541,1.222H61.988a8.325,8.325,0,0,0,5.893-2.445l6.943-6.949a8.325,8.325,0,0,0,2.445-5.893V10H60.66a8.311,8.311,0,0,0-5.873,2.445Z" transform="translate(-14.14 -3.356)" fill="#265a67"/>
          <path id="Trazado_913498" data-name="Trazado 913498" d="M90.721,39.563l-3.588,3.588A.9.9,0,0,0,87.8,44.7h3.594a.9.9,0,0,0,.877-.9V40.2a.9.9,0,0,0-1.548-.638Z" transform="translate(-29.14 -13.188)" fill="#265a67"/>
          <path id="Trazado_913499" data-name="Trazado 913499" d="M77.155,52.43H41.83v2.538H77.155Z" transform="translate(-14.026 -17.597)" fill="#f4a261"/>
          <path id="Trazado_913500" data-name="Trazado 913500" d="M73.754,53.7a1.269,1.269,0,0,0-1.269-1.269h-12.8a1.269,1.269,0,0,0,0,2.538h12.8A1.276,1.276,0,0,0,73.754,53.7Z" transform="translate(-19.594 -17.597)" fill="#f4d49d"/>
          <path id="Trazado_913501" data-name="Trazado 913501" d="M77.155,56.25H41.83v3.488H77.155Z" transform="translate(-14.026 -18.879)" fill="#f4a261"/>
          <path id="Trazado_913502" data-name="Trazado 913502" d="M70.454,56.25H36.85v3.488h33.6Z" transform="translate(-12.355 -18.879)" fill="#f47543"/>
          <path id="Trazado_913503" data-name="Trazado 913503" d="M9.757,51.991c-2.817-2.3-1.661-6.132-1.329-7.7l.538-2.611h4.578V51.991Z" transform="translate(-2.642 -13.989)" fill="#353c60"/>
          <path id="Trazado_913504" data-name="Trazado 913504" d="M36.291,19.938v1.269a29.751,29.751,0,0,1-2.5,11.959l-1.442,3.608L12.414,36.6A27.651,27.651,0,0,1,7.929,21.207V19.944c0-2.7,0-16.151,14.178-16.144C35.78,3.793,36.291,17.22,36.291,19.938Z" transform="translate(-2.647 -1.275)" fill="#353c60"/>
          <path id="Trazado_913505" data-name="Trazado 913505" d="M31.423,8.831a14.191,14.191,0,0,0-10.7,0A1.129,1.129,0,0,0,21.171,11h9.786a1.136,1.136,0,0,0,.465-2.166Z" transform="translate(-6.714 -2.613)" fill="#355fa1"/>
          <path id="Trazado_913506" data-name="Trazado 913506" d="M33.672,31.794a27.525,27.525,0,0,1-1.621,10.225l-14.457-.159A25.5,25.5,0,0,1,16,31.794c0-2.06,0-12.291,8.849-12.284C33.353,19.477,33.672,29.7,33.672,31.794Z" transform="translate(-5.357 -6.548)" fill="#352d51"/>
          <path id="Trazado_913507" data-name="Trazado 913507" d="M45.348,61.239l-7.84,13.115A4.146,4.146,0,0,1,31.855,75.8l.379,3.933h-15C5.9,73.789,8.941,75.443,4.33,72.792a6.6,6.6,0,0,1-2.491-8.9C3.167,61.438,6.283,55.778,8.2,53.751a15.088,15.088,0,0,1,2.877-2.584,10.072,10.072,0,0,1,5.494-1.641c5.979,0,6.6-.06,7.74.146,4.219.7,7.74,4.265,9.168,8.311A61.275,61.275,0,0,1,35.409,65.5l4.651-8.026Z" transform="translate(-0.33 -16.619)" fill="#f4d493"/>
          <path id="Trazado_913508" data-name="Trazado 913508" d="M47.483,59.3l-6.072,9.966a1.4,1.4,0,0,1-2.545-.332l-2.7-9.016c-1.6-5.315-6.916-8.451-12.191-8.451a15.348,15.348,0,0,0-4.75.372l-1.07.306a2.657,2.657,0,0,1-2.657-.664,10.032,10.032,0,0,1,5.906-1.927c5.979,0,6.6-.06,7.74.146,4.219.7,7.74,4.265,9.168,8.311a61.275,61.275,0,0,1,1.927,7.514L44.892,57.5Z" transform="translate(-5.189 -16.63)" fill="#f4f7bb"/>
          <path id="Trazado_913509" data-name="Trazado 913509" d="M32.234,81.874h-15C5.9,75.928,8.941,77.582,4.33,74.931a6.6,6.6,0,0,1-2.491-8.9C3.167,63.577,6.283,57.916,8.2,55.89l3.627,4.4a4.378,4.378,0,0,0,2.392,1.488l8.132,1.927a1.807,1.807,0,0,1,1.369,2.066l-1.508,8.936a3.322,3.322,0,0,0,3.242,3.84h1.774A1.415,1.415,0,0,0,28.606,76.8l-.957-3.986A1.282,1.282,0,0,1,28.8,71.244l1.993,6.644h1.07Z" transform="translate(-0.33 -18.758)" fill="#f4b675"/>
          <path id="Trazado_913510" data-name="Trazado 913510" d="M9.22,83.231l10.763,2.425H21.4c.538-2.4,2.983-13.248,3.548-15.766l-12.1-2.731c-1.548,6.856-2.093,9.295-3.621,16.071Z" transform="translate(-3.081 -22.541)" fill="#ff4b6e"/>
          <path id="Trazado_913511" data-name="Trazado 913511" d="M21.061,85.986a13.953,13.953,0,0,1-1.561,0L8.736,83.548a.664.664,0,0,1-.5-.8L8.9,79.834,11.859,66.68a.664.664,0,0,1,.8-.5l12.1,2.724a.664.664,0,0,1,.5.8L21.705,85.468a.664.664,0,0,1-.644.518Zm-.531-1.329,3.289-14.616L13,67.623,9.68,82.392C21.187,84.99,19.366,84.658,20.529,84.658Z" transform="translate(-2.744 -22.206)" fill="#302d3d"/>
          <path id="Trazado_913512" data-name="Trazado 913512" d="M9.22,83.231l10.763,2.425H21.4c.538-2.4,2.983-13.248,3.548-15.766l-12.1-2.731c-1.548,6.856-2.093,9.295-3.621,16.071Z" transform="translate(-3.081 -22.541)" fill="#fc8775"/>
          <rect id="Rectángulo_403077" data-name="Rectángulo 403077" width="11.155" height="7.096" rx="1.24" transform="translate(9.342 58.689) rotate(-77.297)" fill="#ffb4a8"/>
          <path id="Trazado_913513" data-name="Trazado 913513" d="M9.874,86.6,9.21,89.517l10.77,2.4h1.415c.571-2.558.246-1.1,1.369-6.106" transform="translate(-3.078 -28.8)" fill="#fc8775"/>
          <path id="Trazado_913514" data-name="Trazado 913514" d="M21.061,92.255a13.953,13.953,0,0,1-1.561,0L8.736,89.816a.664.664,0,0,1-.5-.8L8.9,86.1a.664.664,0,0,1,1.3.292L9.68,88.66c11.507,2.6,9.687,2.266,10.849,2.266l1.256-5.587a.664.664,0,0,1,1.3.292l-1.375,6.106a.664.664,0,0,1-.644.518Z" transform="translate(-2.744 -28.475)" fill="#302d3d"/>
          <path id="Trazado_913515" data-name="Trazado 913515" d="M31.324,49.686c0,4.332-1.754,6.258-3.408,8.378a1.641,1.641,0,0,1-2.591,0c-1.781-2.239-3.415-4.1-3.415-8.378a9.494,9.494,0,0,1,1.761-.146v.438a1.581,1.581,0,0,0,.7,1.329l1.415.963a1.568,1.568,0,0,0,1.787,0l1.382-.957a1.581,1.581,0,0,0,.664-1.329V49.54a9.3,9.3,0,0,1,1.707.146Z" transform="translate(-7.34 -16.627)" fill="#92e8db"/>
          <path id="Trazado_913516" data-name="Trazado 913516" d="M20.2,82.473c.877.233,1.721.452,1.654.445A1.548,1.548,0,0,0,23.3,82.2l.106-.166a1.521,1.521,0,0,1,1.1-.718.432.432,0,0,1,.5.465l-.073.791a.618.618,0,0,0,.565.664l3.169.3a.95.95,0,0,1,.864,1.036l-.066.777a3.322,3.322,0,0,1-1.176,2.232,2.737,2.737,0,0,1-2.192.9l-2.551-.239c-1.023-.093-1.482-.664-2.305-1.5l-1.9-.664Z" transform="translate(-6.474 -27.29)" fill="#ffaaa0"/>
          <path id="Trazado_913517" data-name="Trazado 913517" d="M30.361,43.193v4.591A1.468,1.468,0,0,1,29.7,49l-1.282.884a1.468,1.468,0,0,1-1.668,0l-1.282-.85a1.482,1.482,0,0,1-.664-1.222V43.16a8.9,8.9,0,0,0,5.561.033Z" transform="translate(-8.31 -14.486)" fill="#ff7d82"/>
          <path id="Trazado_913518" data-name="Trazado 913518" d="M15.54,16.39v9.255a8.989,8.989,0,0,0,17.978,0V16.39" transform="translate(-5.202 -5.501)" fill="#ffaaa0"/>
          <path id="Trazado_913519" data-name="Trazado 913519" d="M21.446,16.39c0,3.4-2.511,4.817-5.906,5.182V16.39" transform="translate(-5.202 -5.501)" fill="#353c60"/>
          <path id="Trazado_913520" data-name="Trazado 913520" d="M35.62,16.39c0,2.657,1.993,3.787,4.651,4.073V16.39" transform="translate(-11.942 -5.501)" fill="#353c60"/>
          <path id="Trazado_913521" data-name="Trazado 913521" d="M12.254,29.689h1.634V26.42H12.254a1.634,1.634,0,0,0,0,3.269Z" transform="translate(-3.551 -8.867)" fill="#ffaaa0"/>
          <path id="Trazado_913522" data-name="Trazado 913522" d="M44.234,26.42H42.6v3.269h1.634a1.634,1.634,0,0,0,0-3.269Z" transform="translate(-14.284 -8.867)" fill="#ffaaa0"/>
          <path id="Trazado_913523" data-name="Trazado 913523" d="M6.01,81.617l8.331,4.8,1.674-7L9.485,75.81Z" transform="translate(-2.004 -25.444)" fill="#f4d493"/>
          <path id="Trazado_913524" data-name="Trazado 913524" d="M0,0H2.169V21.44H0Z" transform="translate(48.136 17.267) rotate(12.653)" fill="#f4a261"/>
          <path id="Trazado_913528" data-name="Trazado 913528" d="M61.75,58.636a11.637,11.637,0,0,1,1.329-4.318l1.867-3.023a1.674,1.674,0,0,1,3.01.319l.246.718a6.338,6.338,0,0,1-2.266,7.235L64.5,60.6Z" transform="translate(-20.712 -16.946)" fill="#ffaaa0"/>
          <path id="Trazado_913529" data-name="Trazado 913529" d="M10.405,91.66l-.345,2.219h10.2Z" transform="translate(-3.363 -30.763)" fill="#f4d493"/>
          <g id="Grupo_1103229" data-name="Grupo 1103229" transform="translate(0.04 0)">
            <path id="Trazado_913530" data-name="Trazado 913530" d="M63.793,3.322a.664.664,0,0,0-.664-.664H24.735a15.772,15.772,0,0,0-4.611-.784V1.329h43a.664.664,0,0,0,0-1.329H19.46A.664.664,0,0,0,18.8.664v1.2c-9.76.286-14.178,7.022-14.178,16.8a31.385,31.385,0,0,0,1.01,9.082c-.711,3.441-.438,2.153-.591,2.817-.372,1.727-1.149,5.156,1.2,7.527A92.157,92.157,0,0,0,.917,46.958a7.308,7.308,0,0,0,2.757,9.786l2.365,1.329-.551,2.438a.664.664,0,0,0,.5.83l.3.066-.246,1.608a.664.664,0,0,0,.664.764H31.9a.664.664,0,0,0,.664-.731L32.3,60.225A4.8,4.8,0,0,0,37.75,58.08l7.84-13.121a.664.664,0,0,0-.186-.877l-.538-.385a8.265,8.265,0,0,0,2.359-2.173H63.129a.664.664,0,1,0,0-1.329H47.961a6.644,6.644,0,0,0,.551-2.159H63.129a.664.664,0,1,0,0-1.329H48.466A6.3,6.3,0,0,0,48.22,35.5H63.129a.664.664,0,1,0,0-1.329H47.749a2.378,2.378,0,0,0-.6-.757l3.521-15.593a.664.664,0,0,0-.5-.8l-2.106-.472a.664.664,0,0,0-.8.5L43.4,34.169H30.933c2.558-6.4,3.375-8.584,3.375-15.506,0-5.727-1.933-11.627-6.757-14.676H63.129a.664.664,0,0,0,.664-.664ZM6.332,30.88c.06-.252.086-.365.133-.6a31.7,31.7,0,0,0,2.425,4.877,24.158,24.158,0,0,0-1.827,1.874c-1.688-1.867-1.07-4.617-.731-6.152ZM14.211,56a10.718,10.718,0,0,0,1.1.286,2.186,2.186,0,0,0,2.066-1.016,1.163,1.163,0,0,1,.445-.492l-.04.438a1.289,1.289,0,0,0,1.169,1.408c.558.053.372,0,3.169.292a.3.3,0,0,1,.266.319,3.157,3.157,0,0,1-1.01,2.558l-.438.359a1.707,1.707,0,0,1-1.262.392c-.146,0,.066,0-1.435-.133-1.016-.093-1.6-.047-2.166-.585-1.2-1.176-.664-.837-2.438-1.442Zm4.9-.664c.073-.817.2-1.249-.266-1.688-.711-.664-1.96-.086-2.478.737l-.106.166a.857.857,0,0,1-.771.412l-.963-.259.14-.585a.664.664,0,0,0-.326-.737l-5.229-2.89,1.149-5.1,10.816,2.438L19.38,55.362ZM6.929,60.186,7.242,58.8,11.4,61.2Zm.545,2.266.113-.751,3.322.751Zm5.268-.957c.246-.193.213-.259.585-1.814l1.07.365c1.4,1.362,1.4,1.475,3.554,1.674l-.166.731c-1.063,0-.113.153-5.043-.957Zm23.864-4.1a3.475,3.475,0,0,1-6.331-.857l-1.767-6.385a.65.65,0,1,0-1.256.339l1.767,6.385a4.764,4.764,0,0,0,1.9,2.658c0,.086,0,0,.279,2.9H19.147l.133-.611h.272a3.069,3.069,0,0,0,2.239-.664l.438-.359a3.926,3.926,0,0,0,1.408-2.657l.073-.784a1.628,1.628,0,0,0-1.462-1.761l-1.535-.126,1.8-7.972a.664.664,0,0,0-.5-.8l-12.1-2.724a.664.664,0,0,0-.8.5L7.9,49.828l-.1-.053a.67.67,0,1,0-.664,1.163c2.571,1.422-.458-.246,6.086,3.362-2.179,9.075-.957,4.059-1.329,5.634L4.338,55.595a5.979,5.979,0,0,1-2.252-7.972,86.959,86.959,0,0,1,5.362-8.956,15.547,15.547,0,0,1,1.136-1.329A10.662,10.662,0,0,1,13.9,33.87,11.905,11.905,0,0,0,14.2,36a14.009,14.009,0,0,0,3.242,5.846,2.305,2.305,0,0,0,3.641,0c2.06-2.624,3.289-4.179,3.541-7.972,3.508.85,6.723,4.252,7.879,7.713a59.721,59.721,0,0,1,1.847,7.2L33.637,50a.664.664,0,0,0,1.149.664c1.1-1.9.186-.326,5.156-8.843l4.172,2.983ZM21.386,29.578V33.3a.837.837,0,0,1-.345.664l-1.282.884a.811.811,0,0,1-.917,0c-1.907-1.269-1.674-.9-1.674-2.6,0-3,0-2.657.047-2.657a9.3,9.3,0,0,0,2.113.239,10.2,10.2,0,0,0,2.06-.246Zm-3.322,6.591a2.252,2.252,0,0,0,2.545,0c.219-.159,0,0,1.382-.957a2.246,2.246,0,0,0,.95-1.608h.379a10.138,10.138,0,0,1-2.146,5.979l-1.123,1.428a1.016,1.016,0,0,1-1.548,0C17.174,39.3,16.191,38.228,15.586,36a9.966,9.966,0,0,1-.345-2.378h.438c.133,1.276,1.229,1.794,2.385,2.551Zm22.589,4.026H33.4a14.118,14.118,0,0,0-1.169-2.159h9.049a9.2,9.2,0,0,0-.618,2.159Zm-5.315,6.863A56.59,56.59,0,0,0,33.9,41.523h4.69ZM46.832,35.6a5.747,5.747,0,0,1-.312,4.591,7.359,7.359,0,0,1-2.7,2.657L41.822,41.41c.664-3.249.438-2.471,3.023-6.7a1,1,0,0,1,1.814.2c.086.345.206.691.206.7Zm1.555-17.613.811.179L45.875,32.9a2.345,2.345,0,0,0-.864.066ZM42.739,35.5,42,36.707H31.239a13.021,13.021,0,0,0-.923-.99L30.4,35.5ZM32.98,18.662c0,7.089-.99,9.255-3.475,15.506H28.422a10.079,10.079,0,0,0-1.129-.664c.239-.558.419-.943.724-1.754a.664.664,0,0,0-1.242-.472c-.179.465-.432,1.1-.7,1.681a10.929,10.929,0,0,0-3.362-.664V29.179a9.58,9.58,0,0,0,6.165-7.693h1.07a2.3,2.3,0,1,0,0-4.6h-.97V10.909a.664.664,0,0,0-1.329,0v3.322c-2.511-.465-3.322-1.721-3.322-3.322a.664.664,0,0,0-1.329,0c0,2.77,1.86,4.205,4.651,4.651v4.6a8.318,8.318,0,0,1-16.636-.013V16.663c3.468-.518,5.906-2.246,5.906-5.773a.664.664,0,1,0-1.329,0c0,2.465-1.5,3.913-4.578,4.418V10.889a.664.664,0,1,0-1.329,0v5.979H8.7a2.3,2.3,0,1,0,0,4.6H9.766a9.627,9.627,0,0,0,6.072,7.66v3.109a10.9,10.9,0,0,0-2.91.525,29.591,29.591,0,0,1-1.4-3.74.671.671,0,1,0-1.329.193,25.167,25.167,0,0,0,1.329,3.74l.126.279a10.809,10.809,0,0,0-1.754,1.043c-3.348-5.707-3.96-9.693-3.96-15.613C5.946,9.64,9.806,3.468,18.8,3.2a15.805,15.805,0,0,1,5.249.611v.173H24.6l.8.312C32.335,7.341,32.98,15.719,32.98,18.662Zm-3.986-.445h.97a.97.97,0,1,1,0,1.94H28.98Zm-19.32,1.94H8.7a.97.97,0,1,1,0-1.94h.97Z" transform="translate(-0.04 0)" fill="#12263f"/>
            <path id="Trazado_913531" data-name="Trazado 913531" d="M24.094,28.47a.664.664,0,0,0-.664.664v.438a.664.664,0,0,0,1.329,0v-.438A.664.664,0,0,0,24.094,28.47Z" transform="translate(-7.89 -9.555)" fill="#12263f"/>
            <path id="Trazado_913532" data-name="Trazado 913532" d="M24.322,25.544a.664.664,0,0,0-.664-.664H21.664a.664.664,0,1,0,0,1.329h1.993A.664.664,0,0,0,24.322,25.544Z" transform="translate(-7.075 -8.35)" fill="#12263f"/>
            <path id="Trazado_913533" data-name="Trazado 913533" d="M33.944,28.47a.664.664,0,0,0-.664.664v.438a.664.664,0,1,0,1.329,0v-.438A.664.664,0,0,0,33.944,28.47Z" transform="translate(-11.196 -9.555)" fill="#12263f"/>
            <path id="Trazado_913534" data-name="Trazado 913534" d="M33,25.544a.664.664,0,0,0,.664.664h1.993a.664.664,0,1,0,0-1.329H33.664A.664.664,0,0,0,33,25.544Z" transform="translate(-11.102 -8.35)" fill="#12263f"/>
            <path id="Trazado_913535" data-name="Trazado 913535" d="M29.436,37.375a2.983,2.983,0,0,1-2.77.093.664.664,0,1,0-.591,1.189,4.232,4.232,0,0,0,4.026-.133.664.664,0,1,0-.664-1.149Z" transform="translate(-8.648 -12.514)" fill="#12263f"/>
            <path id="Trazado_913536" data-name="Trazado 913536" d="M31.357,18.961a2.87,2.87,0,0,1-1.92-2.9.664.664,0,1,0-1.329,0,4.225,4.225,0,0,0,2.724,4.119.665.665,0,1,0,.525-1.222Z" transform="translate(-9.459 -5.169)" fill="#12263f"/>
          </g>
        </g>
      </g>
      <path id="Trazado_911407" data-name="Trazado 911407" d="M286.55,226.938c-.894,1.343-1.338,1.89-2.141,1.89s-1.247-.547-2.141-1.89c-.926-1.39-2.192-3.293-4.761-3.293s-3.835,1.9-4.76,3.293c-.894,1.343-1.338,1.89-2.14,1.89s-1.246-.547-2.14-1.89c-.925-1.39-2.193-3.293-4.76-3.293s-3.835,1.9-4.761,3.294c-.894,1.343-1.338,1.89-2.14,1.89s-1.246-.547-2.14-1.89c-.925-1.39-2.192-3.294-4.76-3.294a1.574,1.574,0,1,0,0,3.147c.8,0,1.246.547,2.14,1.89.925,1.39,2.192,3.293,4.76,3.293s3.835-1.9,4.76-3.293c.894-1.343,1.337-1.89,2.14-1.89s1.246.547,2.14,1.89c.925,1.39,2.192,3.294,4.76,3.294s3.835-1.9,4.76-3.294c.894-1.343,1.338-1.89,2.14-1.89s1.247.547,2.141,1.89c.926,1.39,2.193,3.293,4.761,3.293s3.835-1.9,4.761-3.293c.894-1.343,1.338-1.89,2.141-1.89a1.574,1.574,0,1,0,0-3.147c-2.568,0-3.835,1.9-4.761,3.293" transform="translate(457.615 261.461)" fill="#92e8db"/>
    </g>
  </g>
</svg>
