<svg xmlns="http://www.w3.org/2000/svg" xmlns:xlink="http://www.w3.org/1999/xlink" width="103.331" height="103.33" viewBox="0 0 103.331 103.33">
  <defs>
    <linearGradient id="linear-gradient" x1="0.5" y1="0.852" x2="0.5" gradientUnits="objectBoundingBox">
      <stop offset="0" stop-color="#fcb071"/>
      <stop offset="1" stop-color="#ffd884"/>
    </linearGradient>
  </defs>
  <g id="Grupo_1103994" data-name="Grupo 1103994" transform="translate(-590.678 -22569.084)">
    <path id="Trazado_911369" data-name="Trazado 911369" d="M298.4,109.016a51.666,51.666,0,1,0,51.665-51.665A51.666,51.666,0,0,0,298.4,109.016" transform="translate(292.278 22511.732)" fill="url(#linear-gradient)"/>
    <g id="sello" transform="translate(612.035 22594.674)">
      <path id="Trazado_913998" data-name="Trazado 913998" d="M37.2,0A37.2,37.2,0,1,1,0,37.2,37.2,37.2,0,0,1,37.2,0Z" transform="translate(1.669 3.341)" fill="#ffd884"/>
      <g id="Grupo_1103961" data-name="Grupo 1103961" transform="translate(-0.001 0)">
        <g id="Grupo_1103949" data-name="Grupo 1103949" transform="translate(0)">
          <path id="Trazado_913981" data-name="Trazado 913981" d="M70.6,59.967C58.325,79.983,29.76,83.6,12.916,67.193Q6.5,41.854.089,16.516A3.363,3.363,0,0,1,2.7,12.556L51.836.12a3.363,3.363,0,0,1,4.185,2.24q7.288,28.8,14.579,57.607Z" transform="translate(0.001 -0.002)" fill="#eaf2ff"/>
        </g>
        <g id="Grupo_1103960" data-name="Grupo 1103960" transform="translate(11.773 12.329)">
          <g id="Grupo_1103950" data-name="Grupo 1103950">
            <path id="Trazado_913982" data-name="Trazado 913982" d="M113.5,83.442,78.955,92.185a1.139,1.139,0,0,1-.559-2.208l34.542-8.742a1.139,1.139,0,0,1,.559,2.208Z" transform="translate(-77.536 -81.199)" fill="#92e8db"/>
          </g>
          <g id="Grupo_1103951" data-name="Grupo 1103951" transform="translate(2.124 8.39)">
            <path id="Trazado_913983" data-name="Trazado 913983" d="M127.482,138.7l-34.542,8.742a1.139,1.139,0,0,1-.559-2.208l34.542-8.742a1.139,1.139,0,0,1,.559,2.208Z" transform="translate(-91.522 -136.457)" fill="#92e8db"/>
          </g>
          <g id="Grupo_1103952" data-name="Grupo 1103952" transform="translate(4.35 17.185)">
            <path id="Trazado_913984" data-name="Trazado 913984" d="M142.142,196.624,107.6,205.367a1.139,1.139,0,0,1-.559-2.208l34.542-8.742a1.139,1.139,0,0,1,.559,2.208Z" transform="translate(-106.182 -194.381)" fill="#92e8db"/>
          </g>
          <g id="Grupo_1103953" data-name="Grupo 1103953" transform="translate(6.203 24.508)">
            <path id="Trazado_913985" data-name="Trazado 913985" d="M154.348,244.853,119.807,253.6a1.139,1.139,0,1,1-.559-2.208l34.542-8.742a1.139,1.139,0,1,1,.559,2.208Z" transform="translate(-118.388 -242.61)" fill="#92e8db"/>
          </g>
          <g id="Grupo_1103957" data-name="Grupo 1103957" transform="translate(4.656 40.908)">
            <g id="Grupo_1103955" data-name="Grupo 1103955">
              <g id="Grupo_1103954" data-name="Grupo 1103954">
                <path id="Trazado_913986" data-name="Trazado 913986" d="M128.688,358.469a10.4,10.4,0,1,1-12.635-7.531A10.413,10.413,0,0,1,128.688,358.469Z" transform="translate(-108.203 -350.619)" fill="#43bcaa"/>
              </g>
            </g>
            <g id="Grupo_1103956" data-name="Grupo 1103956" transform="translate(3.191 3.762)">
              <path id="Trazado_913987" data-name="Trazado 913987" d="M135.8,387.6a1.135,1.135,0,0,1-.862-.126l-5.165-3.078a1.139,1.139,0,1,1,1.166-1.956l4.186,2.5,5.354-8.982a1.139,1.139,0,0,1,1.956,1.166l-5.937,9.96A1.136,1.136,0,0,1,135.8,387.6Z" transform="translate(-129.218 -375.393)" fill="#fff"/>
            </g>
          </g>
          <g id="Grupo_1103958" data-name="Grupo 1103958" transform="translate(27.994 36.357)">
            <path id="Trazado_913988" data-name="Trazado 913988" d="M279.072,322.892l-15.75,3.986a1.139,1.139,0,0,1-.559-2.208l15.75-3.986a1.139,1.139,0,0,1,.559,2.208Z" transform="translate(-261.904 -320.649)" fill="#92e8db"/>
          </g>
          <g id="Grupo_1103959" data-name="Grupo 1103959" transform="translate(29.757 43.325)">
            <path id="Trazado_913989" data-name="Trazado 913989" d="M290.686,368.778l-15.75,3.986a1.139,1.139,0,0,1-.559-2.208l15.75-3.986a1.139,1.139,0,0,1,.559,2.208Z" transform="translate(-273.518 -366.535)" fill="#92e8db"/>
          </g>
        </g>
      </g>
      <g id="Grupo_1103962" data-name="Grupo 1103962" transform="translate(45.811 0)">
        <path id="Trazado_913990" data-name="Trazado 913990" d="M409.322,12.672a7.412,7.412,0,0,1-3.819,2.039,16.234,16.234,0,0,0-6.932,3.245l-5.062-5.062q.333-.424.637-.866a16.4,16.4,0,0,0,2.623-6.1,7.4,7.4,0,0,1,2.062-3.812,7.446,7.446,0,0,1,11.853,1.9,7.442,7.442,0,0,1-1.362,8.653Z" transform="translate(-379.572 0)" fill="#a54b0e"/>
        <path id="Trazado_913991" data-name="Trazado 913991" d="M412.153,10.51c-1.882,1.882-4.344,1.944-6.681,2.9-1.93.786-3.97,2.486-5.871.586l-1.9-1.9A16.447,16.447,0,0,0,400.325,6,7.44,7.44,0,0,1,404.271.841a7.548,7.548,0,0,1,9.969,3.244,7.432,7.432,0,0,1-2.087,6.425Z" transform="translate(-383.128 -0.065)" fill="#bf6015"/>
        <path id="Trazado_913992" data-name="Trazado 913992" d="M375.158,86.156l-.011.011L365.055,76.075l.011-.011a2.545,2.545,0,0,1,3.6,0l6.5,6.5a2.542,2.542,0,0,1,0,3.6Z" transform="translate(-355.438 -63.884)" fill="#6d2929"/>
        <path id="Trazado_913993" data-name="Trazado 913993" d="M381.068,85.217l-9.748-9.748a2.544,2.544,0,0,1,2.656.595l6.5,6.5A2.542,2.542,0,0,1,381.068,85.217Z" transform="translate(-360.752 -63.884)" fill="#844242"/>
        <path id="Trazado_913994" data-name="Trazado 913994" d="M323.172,111.091l-.832.832a2.1,2.1,0,0,1-.6.421,2.125,2.125,0,0,1-2.407-.421L307.2,99.791a2.125,2.125,0,0,1-.421-2.407,2.1,2.1,0,0,1,.421-.6l.832-.832Z" transform="translate(-305.841 -81.384)" fill="#4d5961"/>
        <path id="Trazado_913995" data-name="Trazado 913995" d="M324.3,111.091l-.832.832a2.1,2.1,0,0,1-.6.421l-14.96-14.96a2.1,2.1,0,0,1,.421-.6l.832-.832Z" transform="translate(-306.967 -81.384)" fill="#454545"/>
        <path id="Trazado_913996" data-name="Trazado 913996" d="M322.1,85.972a1.286,1.286,0,0,1-1.819,0L302.134,67.821a1.209,1.209,0,0,1,.032-1.847,6.217,6.217,0,0,1,2.4-1.455A6.082,6.082,0,0,1,310.659,66L322.1,77.447a6.026,6.026,0,0,1,0,8.525Z" transform="translate(-301.719 -54.487)" fill="#d88521"/>
        <path id="Trazado_913997" data-name="Trazado 913997" d="M323.988,83.476a1.286,1.286,0,0,1-1.819,0l-17.5-17.5a6.217,6.217,0,0,1,2.4-1.455A6.082,6.082,0,0,1,313.161,66l11.445,11.445a5.993,5.993,0,0,1,1.146,1.6A6.01,6.01,0,0,1,323.988,83.476Z" transform="translate(-304.22 -54.487)" fill="#fea832"/>
      </g>
    </g>
  </g>
</svg>
