<svg xmlns="http://www.w3.org/2000/svg" xmlns:xlink="http://www.w3.org/1999/xlink" width="85" height="84.999" viewBox="0 0 85 84.999">
  <defs>
    <linearGradient id="linear-gradient" x1="0.727" y1="0.552" x2="0" gradientUnits="objectBoundingBox">
      <stop offset="0" stop-color="#fc8775"/>
      <stop offset="1" stop-color="#ffd884"/>
    </linearGradient>
  </defs>
  <g id="Grupo_1103265" data-name="Grupo 1103265" transform="translate(-238.211 -4022.767)">
    <path id="Trazado_911369" data-name="Trazado 911369" d="M298.4,99.851a42.5,42.5,0,1,0,42.5-42.5,42.5,42.5,0,0,0-42.5,42.5" transform="translate(-60.188 3965.416)" fill="url(#linear-gradient)"/>
    <path id="Trazado_911407" data-name="Trazado 911407" d="M286.55,226.938c-.894,1.343-1.338,1.89-2.141,1.89s-1.247-.547-2.141-1.89c-.926-1.39-2.192-3.293-4.761-3.293s-3.835,1.9-4.76,3.293c-.894,1.343-1.338,1.89-2.14,1.89s-1.246-.547-2.14-1.89c-.925-1.39-2.193-3.293-4.76-3.293s-3.835,1.9-4.761,3.294c-.894,1.343-1.338,1.89-2.14,1.89s-1.246-.547-2.14-1.89c-.925-1.39-2.192-3.294-4.76-3.294a1.574,1.574,0,1,0,0,3.147c.8,0,1.246.547,2.14,1.89.925,1.39,2.192,3.293,4.76,3.293s3.835-1.9,4.76-3.293c.894-1.343,1.337-1.89,2.14-1.89s1.246.547,2.14,1.89c.925,1.39,2.192,3.294,4.76,3.294s3.835-1.9,4.76-3.294c.894-1.343,1.338-1.89,2.14-1.89s1.247.547,2.141,1.89c.926,1.39,2.193,3.293,4.761,3.293s3.835-1.9,4.761-3.293c.894-1.343,1.338-1.89,2.141-1.89a1.574,1.574,0,1,0,0-3.147c-2.568,0-3.835,1.9-4.761,3.293" transform="translate(-10.123 3805.529)" fill="#92e8db"/>
    <g id="sistema-nervioso" transform="translate(256.948 4044.68)">
      <path id="Trazado_913537" data-name="Trazado 913537" d="M64.488,21.782a1.232,1.232,0,0,0-1.692-.416l-.165.1a8.643,8.643,0,0,1-5.966,1.119,8.643,8.643,0,0,1,3.758-4.766l.165-.1a1.232,1.232,0,1,0-1.275-2.108l-.166.1a11.109,11.109,0,0,0-5.072,7.008c-.035.017-.069.035-.1.055l-3.935,2.381a15.916,15.916,0,0,1-7.88-10.133l1.9-4.364c.016-.036.029-.073.041-.11a11.109,11.109,0,0,0,6.266-5.965l.077-.177a1.232,1.232,0,1,0-2.26-.981L48.1,3.6a8.644,8.644,0,0,1-4.22,4.363,8.645,8.645,0,0,1,.31-6.062l.077-.177a1.232,1.232,0,0,0-2.26-.982l-.077.177a11.109,11.109,0,0,0-.086,8.65c-.019.034-.036.069-.052.1l-1.882,4.329a15.919,15.919,0,0,1-13.057,0L24.973,9.677c-.016-.036-.033-.071-.052-.1A11.109,11.109,0,0,0,24.835.922L24.758.744a1.232,1.232,0,1,0-2.26.982l.077.177a8.643,8.643,0,0,1,.311,6.062A8.643,8.643,0,0,1,18.666,3.6l-.077-.177a1.232,1.232,0,1,0-2.26.981l.077.178a11.108,11.108,0,0,0,6.266,5.964c.012.037.026.073.041.11l1.9,4.363a15.915,15.915,0,0,1-7.88,10.133l-3.935-2.381c-.034-.02-.068-.039-.1-.055a11.109,11.109,0,0,0-5.073-7.008l-.165-.1A1.232,1.232,0,1,0,6.178,17.72l.165.1A8.644,8.644,0,0,1,10.1,22.585a8.645,8.645,0,0,1-5.966-1.119l-.165-.1a1.232,1.232,0,1,0-1.276,2.108l.165.1a11.09,11.09,0,0,0,8.559,1.242c.032.024.064.046.1.067l4.053,2.453c.013.018.024.036.038.054a15.927,15.927,0,0,1,3.148,13.282l-3.172,3.645c-.026.03-.05.061-.072.092a11.107,11.107,0,0,0-7.772,3.8l-.127.146A1.232,1.232,0,0,0,9.473,49.97l.127-.146a8.643,8.643,0,0,1,5.338-2.888,8.644,8.644,0,0,1-2.123,5.686l-.127.146a1.232,1.232,0,1,0,1.859,1.618l.127-.146a11.108,11.108,0,0,0,2.689-8.223c.028-.027.056-.054.081-.084l3.029-3.481a15.917,15.917,0,0,1,11.678,5.69h0v5.433c0,.039,0,.078.006.117a11.109,11.109,0,0,0-3.369,7.968v.193a1.232,1.232,0,1,0,2.464,0v-.193a8.644,8.644,0,0,1,2.131-5.683,8.644,8.644,0,0,1,2.131,5.683v.193a1.232,1.232,0,0,0,2.464,0v-.193a11.108,11.108,0,0,0-3.369-7.968c0-.038.006-.077.006-.117V48.143h0a15.917,15.917,0,0,1,11.678-5.69l3.029,3.481c.026.03.053.057.081.084a11.108,11.108,0,0,0,2.689,8.223l.127.146a1.232,1.232,0,1,0,1.859-1.618l-.127-.146a8.643,8.643,0,0,1-2.123-5.686,8.645,8.645,0,0,1,5.339,2.889l.127.146a1.232,1.232,0,1,0,1.858-1.618l-.126-.145a11.108,11.108,0,0,0-7.772-3.8c-.023-.031-.046-.062-.072-.092l-3.172-3.645a15.927,15.927,0,0,1,3.148-13.282c.014-.017.025-.036.038-.054l4.053-2.453c.034-.021.067-.043.1-.067a11.089,11.089,0,0,0,8.559-1.242l.165-.1a1.232,1.232,0,0,0,.416-1.692Zm-19.1,18.252a18.35,18.35,0,0,0-12.009,5.783,18.35,18.35,0,0,0-12.009-5.783A18.35,18.35,0,0,0,18.409,27.04a18.351,18.351,0,0,0,8.31-10.421,18.35,18.35,0,0,0,13.329,0,18.35,18.35,0,0,0,8.31,10.421,18.35,18.35,0,0,0-2.966,12.994Z" transform="translate(0 0)" fill="#12263f"/>
      <path id="Trazado_913538" data-name="Trazado 913538" d="M193.226,180.29a1.232,1.232,0,0,0-1.724.254,7.439,7.439,0,1,1,0-8.86,1.232,1.232,0,1,0,1.978-1.469,9.9,9.9,0,1,0,0,11.8A1.232,1.232,0,0,0,193.226,180.29Z" transform="translate(-152.143 -145.729)" fill="#12263f"/>
      <path id="Trazado_913539" data-name="Trazado 913539" d="M222.041,216.811a4.184,4.184,0,1,0,4.184-4.184,4.189,4.189,0,0,0-4.184,4.184Zm5.9,0a1.72,1.72,0,1,1-1.72-1.72,1.722,1.722,0,0,1,1.72,1.72Z" transform="translate(-192.842 -186.427)" fill="#12263f"/>
      <circle id="Elipse_11549" data-name="Elipse 11549" cx="1.232" cy="1.232" r="1.232" transform="translate(40.822 29.153)" fill="#12263f"/>
    </g>
  </g>
</svg>
