<svg xmlns="http://www.w3.org/2000/svg" xmlns:xlink="http://www.w3.org/1999/xlink" width="85" height="84.999" viewBox="0 0 85 84.999">
  <defs>
    <linearGradient id="linear-gradient" x1="0.727" y1="0.552" x2="0" gradientUnits="objectBoundingBox">
      <stop offset="0" stop-color="#fc8775"/>
      <stop offset="1" stop-color="#ffd884"/>
    </linearGradient>
  </defs>
  <g id="Grupo_1103264" data-name="Grupo 1103264" transform="translate(-852.293 -4022.767)">
    <path id="Trazado_911369" data-name="Trazado 911369" d="M298.4,99.851a42.5,42.5,0,1,0,42.5-42.5,42.5,42.5,0,0,0-42.5,42.5" transform="translate(553.894 3965.416)" fill="url(#linear-gradient)"/>
    <path id="Trazado_911407" data-name="Trazado 911407" d="M286.55,226.938c-.894,1.343-1.338,1.89-2.141,1.89s-1.247-.547-2.141-1.89c-.926-1.39-2.192-3.293-4.761-3.293s-3.835,1.9-4.76,3.293c-.894,1.343-1.338,1.89-2.14,1.89s-1.246-.547-2.14-1.89c-.925-1.39-2.193-3.293-4.76-3.293s-3.835,1.9-4.761,3.294c-.894,1.343-1.338,1.89-2.14,1.89s-1.246-.547-2.14-1.89c-.925-1.39-2.192-3.294-4.76-3.294a1.574,1.574,0,1,0,0,3.147c.8,0,1.246.547,2.14,1.89.925,1.39,2.192,3.293,4.76,3.293s3.835-1.9,4.76-3.293c.894-1.343,1.337-1.89,2.14-1.89s1.246.547,2.14,1.89c.925,1.39,2.192,3.294,4.76,3.294s3.835-1.9,4.76-3.294c.894-1.343,1.338-1.89,2.14-1.89s1.247.547,2.141,1.89c.926,1.39,2.193,3.293,4.761,3.293s3.835-1.9,4.761-3.293c.894-1.343,1.338-1.89,2.141-1.89a1.574,1.574,0,1,0,0-3.147c-2.568,0-3.835,1.9-4.761,3.293" transform="translate(603.959 3805.529)" fill="#92e8db"/>
    <g id="trastorno-mental" transform="translate(871.023 4042.987)">
      <path id="Trazado_913540" data-name="Trazado 913540" d="M64.156,32.891a7.075,7.075,0,0,0-2.722-5.541,6.9,6.9,0,0,0-.21-5.877A7.426,7.426,0,0,0,56.5,17.719,6.994,6.994,0,0,0,54.491,11.4a7.714,7.714,0,0,0-6.54-2.087A7.173,7.173,0,0,0,43.085,1.44,7.685,7.685,0,0,0,34.078,4.5,7.685,7.685,0,0,0,25.071,1.44,7.173,7.173,0,0,0,20.2,9.316,7.707,7.707,0,0,0,13.661,11.4a6.987,6.987,0,0,0-2,6.32,7.426,7.426,0,0,0-4.726,3.754,6.9,6.9,0,0,0-.21,5.877,7,7,0,0,0,0,11.082,6.987,6.987,0,0,0,1.628,7.781h0a7.558,7.558,0,0,0,3.306,1.852,7.021,7.021,0,0,0,2.064,6.378h0A7.737,7.737,0,0,0,20.2,56.466a7.173,7.173,0,0,0,4.866,7.881,7.684,7.684,0,0,0,9.009-3.062,7.685,7.685,0,0,0,9.008,3.058,7.173,7.173,0,0,0,4.865-7.878,7.737,7.737,0,0,0,6.482-2.023h0A7.021,7.021,0,0,0,56.5,48.063,7.558,7.558,0,0,0,59.8,46.211h0a6.987,6.987,0,0,0,1.629-7.781,7.075,7.075,0,0,0,2.724-5.539ZM33,21.575a5.494,5.494,0,0,0-3.223-1.029,1.03,1.03,0,1,0,0,2.058A3.157,3.157,0,0,1,33,25.69V57.581a5.376,5.376,0,0,1-10.742,0,4.868,4.868,0,0,1,.391-1.912,7.533,7.533,0,0,0,1.7-1.226,1,1,0,0,0,0-1.455,1.108,1.108,0,0,0-1.519,0,5.54,5.54,0,0,1-7.6,0l-.012-.011a5.007,5.007,0,0,1-1.435-4.654,7.666,7.666,0,0,0,4.453-1.488,5.5,5.5,0,0,0,3.017.887,1.03,1.03,0,1,0,0-2.058,3.157,3.157,0,0,1-3.223-3.086,1.075,1.075,0,0,0-2.148,0,4.954,4.954,0,0,0,.842,2.768,5.55,5.55,0,0,1-6.865-.587h0A4.99,4.99,0,0,1,8.59,39.523a7.766,7.766,0,0,0,2.929.569,1.03,1.03,0,1,0,0-2.057,5.149,5.149,0,1,1,0-10.288,1.03,1.03,0,1,0,0-2.058,7.766,7.766,0,0,0-2.929.569,5.006,5.006,0,0,1,1.881-5.723,5.549,5.549,0,0,1,6.264-.1,4.954,4.954,0,0,0-.842,2.768,1.075,1.075,0,0,0,2.148,0,3.157,3.157,0,0,1,3.223-3.086,1.03,1.03,0,1,0,0-2.058,5.5,5.5,0,0,0-3.017.887,7.666,7.666,0,0,0-4.453-1.489A5.063,5.063,0,0,1,16.5,11.9a5.538,5.538,0,0,1,6.337.894,1.108,1.108,0,0,0,1.519,0,1,1,0,0,0,0-1.455,7.533,7.533,0,0,0-1.7-1.226A4.868,4.868,0,0,1,22.262,8.2,5.376,5.376,0,0,1,33,8.2Zm23.633,16.46a1.03,1.03,0,1,0,0,2.058,7.766,7.766,0,0,0,2.929-.569,4.99,4.99,0,0,1-1.279,5.235h0a5.55,5.55,0,0,1-6.865.587,4.954,4.954,0,0,0,.842-2.768,1.075,1.075,0,0,0-2.148,0,3.157,3.157,0,0,1-3.223,3.086,1.03,1.03,0,1,0,0,2.058,5.5,5.5,0,0,0,3.017-.887,7.667,7.667,0,0,0,4.453,1.488,5.007,5.007,0,0,1-1.435,4.655l-.012.011a5.54,5.54,0,0,1-7.6,0,1.108,1.108,0,0,0-1.519,0,1,1,0,0,0,0,1.455,7.533,7.533,0,0,0,1.7,1.226,4.868,4.868,0,0,1,.391,1.911,5.376,5.376,0,0,1-10.742,0V44.207a5.494,5.494,0,0,0,3.223,1.029,1.03,1.03,0,1,0,0-2.058,3.157,3.157,0,0,1-3.223-3.086V8.2a5.376,5.376,0,0,1,10.742,0,4.868,4.868,0,0,1-.391,1.912,7.533,7.533,0,0,0-1.7,1.226,1,1,0,0,0,0,1.455,1.108,1.108,0,0,0,1.519,0,5.536,5.536,0,0,1,6.339-.9,5.061,5.061,0,0,1,2.7,5.563,7.667,7.667,0,0,0-4.453,1.488,5.5,5.5,0,0,0-3.017-.887,1.03,1.03,0,1,0,0,2.058A3.157,3.157,0,0,1,50.115,23.2a1.075,1.075,0,0,0,2.148,0,4.954,4.954,0,0,0-.842-2.768,5.544,5.544,0,0,1,6.269.092,5,5,0,0,1,1.875,5.73,7.766,7.766,0,0,0-2.929-.568,1.03,1.03,0,1,0,0,2.058,5.149,5.149,0,1,1,0,10.288Z" transform="translate(0.057 0)" fill="#12263f"/>
      <path id="Trazado_913541" data-name="Trazado 913541" d="M22.029,34a1.029,1.029,0,0,0,0,2.058,1.029,1.029,0,0,1,1.029,1.029,1.029,1.029,0,1,0,2.058,0A3.086,3.086,0,0,0,22.029,34Z" transform="translate(1.408 0.949)" fill="#12263f"/>
      <path id="Trazado_913542" data-name="Trazado 913542" d="M42.086,28.058a1.029,1.029,0,0,1-1.029-1.029,1.029,1.029,0,0,0-2.058,0,3.086,3.086,0,0,0,3.086,3.086,1.029,1.029,0,0,0,0-2.058Z" transform="translate(2.745 0.719)" fill="#12263f"/>
      <path id="Trazado_913543" data-name="Trazado 913543" d="M9.2,7.144v-2.6l3.733,1.493A1.029,1.029,0,0,0,13.7,4.132L8.554,2.074a1.029,1.029,0,0,0-1.411.955v2.6L3.41,4.132a1.029,1.029,0,0,0-.764,1.909L7.789,8.1A1.029,1.029,0,0,0,9.2,7.144Z" transform="translate(0 0.029)" fill="#12263f"/>
      <path id="Trazado_913544" data-name="Trazado 913544" d="M62.27,4.7a1.029,1.029,0,0,0-1.337-.572L57.2,5.624v-2.6a1.029,1.029,0,0,0-1.41-.955L50.646,4.132a1.029,1.029,0,0,0,.764,1.909l3.732-1.493v2.6a1.029,1.029,0,0,0,1.41.955L61.7,6.041A1.029,1.029,0,0,0,62.27,4.7Z" transform="translate(3.926 0.029)" fill="#12263f"/>
    </g>
  </g>
</svg>
