<svg xmlns="http://www.w3.org/2000/svg" xmlns:xlink="http://www.w3.org/1999/xlink" width="609.919" height="650.464" viewBox="0 0 609.919 650.464">
  <defs>
    <clipPath id="clip-path">
      <rect id="Rect치ngulo_403111" data-name="Rect치ngulo 403111" width="609.919" height="650.464" fill="none"/>
    </clipPath>
    <clipPath id="clip-path-2">
      <rect id="Rect치ngulo_403110" data-name="Rect치ngulo 403110" width="455.637" height="399.392" fill="none"/>
    </clipPath>
  </defs>
  <g id="Grupo_1103696" data-name="Grupo 1103696" transform="translate(-495 -4753.361)">
    <g id="Grupo_1103277" data-name="Grupo 1103277" transform="translate(495 4753.361)" opacity="0.221">
      <g id="Grupo_1103276" data-name="Grupo 1103276" clip-path="url(#clip-path)">
        <path id="Trazado_913692" data-name="Trazado 913692" d="M609.667,421.234c-5.884-25.768-23.809-50.368-39.976-77.39-7.44-12.437-19.906-22.286-22.55-35.265-5.423-26.622,14.954-92.674-19.475-161.637C480.754,52.978,375.31-.232,273.461,0c-14.822.034-156.6,2.7-233.7,117.554-57.223,85.243-49.869,188.255,4.1,287.026,22.626,41.407,7.562,199.188,6.2,245.883h278.76c1.031-12.6,6.5-19.6,9.225-22.531,13.418-14.448,40.91-11.569,67.652-3.918,65.512,18.74,94.094,9.641,100.451,4.9,16.892-12.6,28.428-46.737,18.45-67.592-2.3-4.807-6.883-11.3-4.1-16.654,3.4-6.538,13.663-3.5,23.576-11.755,1.375-1.145,11.5-9.578,9.225-19.592-2.235-9.82-14.658-13.513-15.376-13.716.534.165,12.192,3.586,18.852-2.768,4.366-4.167,4.311-10.368,4.277-14.311-.057-6.649-2.35-7.766-3.209-14.31-.239-1.829-2.016-15.365,5.348-21.467,3.882-3.215,6.524-1.236,20.857-3.577,10.9-1.782,16.717-2.807,20.857-7.156,4.46-4.684,5.6-11.12,4.769-14.779" transform="translate(-0.001 0)" fill="#f99595"/>
        <path id="Trazado_913693" data-name="Trazado 913693" d="M91.438,113.9C161.961,8.849,298.631,10.843,312.188,10.811c93.156-.212,191.367,38.476,234.275,124.421,19.01,38.072,22.139,85.635,16.678,113.93-.539,2.795-1.981,5.473-3.168,8.358-4.654,11.317-7.583,14.861-9.243,19.908-3.437,10.449-1.479,27.494,23.461,56.167a26.093,26.093,0,0,0-6.4,9.243c-2.732,6.84-.5,10.437-3.554,14.22-3.538,4.384-8.5,1.992-12.8,5.687-6.414,5.516-3.912,18.2-3.556,19.908,3.98,19,23.232,22.713,22.753,36.971-.173,5.094-2.635,4.771-4.978,12.086-4.612,14.407,2.486,23.339,5.134,33.966a27.364,27.364,0,0,1,.554,11.536,21.982,21.982,0,0,1-3.18,8.366c-1.336,6.707-7.464,11.824-8.472,12.662-3.316,2.763-7.085,3.272-9.754,5.069-3.375,2.272-4.8,7.059-6.322,12.3-1,3.431-2.011,6.524-1.463,9.242,4.146,20.563-1.865,49.8-17.149,61.2-5.815,4.339-31.958,12.661-91.88-4.479-19.662-5.626-39.754-8.413-53.259-2.43-17.381-5-27.78-12.885-34.376-20.4-5.89-6.714-5.97-9.962-19.907-28.439-16.907-22.414-25.593-33.7-36.971-37.445-18.568-6.117-37.728,3.1-44.081,6.161-21.223,10.214-22.407,23.18-35.549,23.7-14.274.563-17.221-14.561-37.919-25.122-15.448-7.882-30.122-7.367-57.841-5.53,1.041-46.345-.659-92.187-11.048-111.2C52.815,290.523,39.1,191.871,91.438,113.9" transform="translate(-37.504 2.81)" fill="#fcb9b9"/>
      </g>
    </g>
    <g id="Grupo_1103275" data-name="Grupo 1103275" transform="translate(534.992 4792.628)">
      <g id="Grupo_1103274" data-name="Grupo 1103274" transform="translate(0)" clip-path="url(#clip-path-2)">
        <path id="Trazado_913684" data-name="Trazado 913684" d="M851.871,1181.224c.606,1.99,5.1,5.316,5.452,7.365,8.984,52.648,129.148-7.927,95.581,46.656a21,21,0,0,0-3.246,11.506c.514,19.014,21.8-15.185,29.592-24.654.437-.529.833-1.079,1.23-1.637,4.776-6.7,26.048-23.916,30.961-41.994,7.306-26.882-28.251-16.246-49.891-17.461-.936-.055-116.159-1.138-109.679,20.218" transform="translate(-782.102 -853.02)" fill="#d2e1f1"/>
        <g id="Grupo_1103280" data-name="Grupo 1103280" transform="translate(0 69.415)">
          <path id="Trazado_913685" data-name="Trazado 913685" d="M917.268,842.935c.059,7.872.613,11.055,2.607,14.884,2.907,5.562,6.043,7.365,8.048,4.618,1.072-1.472,1.461-.213,1.92,6.161.3,4.409,1.226,9.252,2.038,10.761l1.472,2.742,1.355-2.709c1.237-2.464,7.541-5.324,8.852-4.017.294.294-.426,1.611-1.616,2.922-7.824,8.646,4.714,21,22.4,22.058,8.719.529,21.753-2.486,22.671-5.232.25-.767-1.659-2.475-4.251-3.8-5.067-2.592-8.4-6.443-8.4-9.707,0-1.744,1.226-1.461,8.544,2,14.975,7.082,30.414,7.636,42.478,1.535,5.775-2.922,6.352-4.7,3.157-9.851-1.424-2.313-2.39-4.42-2.129-4.681.162-.165,1.8.731,4.134,2.217,1.78-5.327,6.282-15.768,6.491-17.523.367-3.157.048-4.134-1.34-4.134-1-.011-3.69-1.189-5.951-2.618l-4.123-2.614,10.015-.826c13.8-1.142,24.625-5.162,42.5-15.791,20.281-12.064,22.153-12.667,32.191-10.368,10.76,2.453,13.257,1.637,16.1-5.232,1.259-3.062,2.8-6.458,3.44-7.541,1.035-1.814.14-1.979-9.722-1.887-8.756.1-11.984-.385-16.65-2.438-9.178-4.064-13.022-4.182-27.466-.848l-13.221,3.051-7.082-2.449c-3.9-1.355-7.684-2.085-8.4-1.637-3.686,2.283,3.668,16.33,9.167,17.531,2.853.613,10.346-.779,18.618-3.462,1.637-.532,1.178.294-1.52,2.684-6.01,5.364-18.229,7.978-23.673,5.07-2.331-1.263-25.167,2.214-35.076,5.324-16.521,5.2-22.8,19.925-14.587,34.232a43.676,43.676,0,0,0,7.941,9.839c3.851,3.249,4.064,3.664,1.52,2.955-4.442-1.237-11.385-6.032-14.175-9.814L993.049,861l-3.466,3.242c-4.149,3.866-10.394,5.136-19.891,4.042-6.576-.767-7.023-.65-8.929,2.261-1.487,2.251-1.818,4.325-1.252,7.846.463,2.911.331,4.516-.352,4.09-1.285-.789-3.12-6.351-4.171-12.618-.565-3.337-2.192-5.562-7.236-9.865a84.527,84.527,0,0,1-12.288-14.139c-6.8-10.074-11.055-13.775-15.247-13.29-2.97.352-3.007.481-2.948,10.368" transform="translate(-917.256 -656.759)" fill="#fc8775"/>
          <path id="Trazado_913686" data-name="Trazado 913686" d="M724.884,424.961l-1.755,6.48,4.641,9.45c5.056,10.287,12.8,19.091,19.668,22.355,7,3.323,19.337,4.806,23.449,2.838,4.453-2.144,8.8-8.694,8.837-13.313a27.531,27.531,0,0,1,2.4-8.885c2.144-4.714,2.192-5.338.5-6.282-6.649-3.712-14.366-13.5-16.485-20.89-.661-2.265-.037-1.839,2.684,1.861,4.49,6.1,11.5,11.91,16.319,13.5,3.231,1.061,4.325.822,8.154-1.77,5.492-3.723,13.188-6.069,27.62-8.4,6.153-1,11.312-1.946,11.466-2.111a11.518,11.518,0,0,0-.72-3.851,87.587,87.587,0,0,1-1.861-10.816c-1.061-9.124-3.723-13.14-14.021-21.081-10.427-8.059-12.314-8.037-16.356.2-3.286,6.708-12.619,15.321-18.074,16.687-3.407.859-3.8,5.29-1.05,11.877.98,2.346,1.579,4.468,1.333,4.725-1.226,1.215-7.578-5.951-8.955-10.085-1.109-3.392-2.368-4.912-4.512-5.445-3.925-.991-12.42-6.891-15.46-10.757l-2.416-3.077-1.2,3.147c-3.04,7.989-.374,19.37,8.345,35.657,4.971,9.3,8.742,21.551,6.634,21.551-.356,0-2-2.346-3.69-5.195-4.171-7.13-8.826-12.479-10.853-12.479-.954,0-2.015,1.59-2.427,3.616-.65,3.29-.9,3.455-2.555,1.792-2.111-2.107-2.239-8.709-.272-13.467,1.046-2.522.94-4.325-.484-8.356a43.093,43.093,0,0,1-1.307-25.193c2.449-10.485,2.4-10.992-1.19-14.587l-3.066-3.066,3.947.789c2.922.58,6.565,3.513,13.966,11.231,10.486,10.934,14.091,12.868,21.151,11.312,3.818-.837,10.662-5.856,14.3-10.475,1.274-1.637,3.3-6.788,4.49-11.466l2.155-8.5-3.418-7.519c-6.23-13.76-8.481-25.909-8.565-46.307-.059-16.672-.294-18.651-2.687-22.682-2.992-5.066-2.64-5.386,2.159-1.968,6.443,4.582,7.5,8.26,7.174,24.9-.341,17.873,1.568,28.5,7.247,40.356,6.73,14.058,13.892,22.105,32.874,37.011,4.373,3.44,7.956,6.693,7.956,7.236s1.792,2.074,3.969,3.429c5.033,3.11,11.609,3.146,21.764.117a171.772,171.772,0,0,1,19.491-4.031c7.115-1.024,12.362-2.4,13.5-3.547,1.7-1.7,1.435-2.309-2.97-6.88-4.171-4.325-8.624-11.135-8.624-13.2,0-.352,2.25,1.557,5.008,4.241,7.963,7.78,16.048,10.974,27.7,10.926l9.733-.048-3.44,2.192c-1.909,1.2-6.682,2.779-10.629,3.51-10.779,2-15.541,7.791-8.635,10.5,5.584,2.192,17.5-.341,25.039-5.338a57.907,57.907,0,0,1,29.2-9.946l9.744-.778-17.545-7.4c-11.146-4.7-21.482-10.063-28.372-14.73-20.74-14.036-22.554-14.99-28.4-14.99-9.593,0-17.369,3.1-22.8,9.076-15.9,17.5-15.967,17.531-25.759,13.7a40.2,40.2,0,0,1-23.1-22.032c-1.248-2.911-.6-2.548,4.618,2.555,7.306,7.152,18.148,13.2,23.7,13.2a10.229,10.229,0,0,0,6.6-2.394c2.5-2.331,6.682-9.318,5.914-9.9a59.177,59.177,0,0,0-5.984-1.814c-6.234-1.7-14.59-8.356-18.574-14.8-1.388-2.25-4.369-9.791-6.634-16.745-6.539-20.2-11.275-24.18-19.818-16.683-5.066,4.464-5.312,7.846-1.083,15.2q8.569,14.864-.129,5.3c-8.015-8.837-10.452-13.974-8.874-18.757,1.45-4.373,4.747-7.765,10.287-10.559,3.323-1.685,6.337-2.251,9.12-1.648-1.674-3.337-2.875-5.856-2.875-5.856-13.092,1.542-17.806-.863-24.569-3.146-8.224-2.783-15.978-10.148-17.781-16.889-.943-3.51-1.968-5.008-3.44-5.008-3.04,0-11.514,7.662-17.571,15.861l-5.232,7.119,6.106.764c8.517,1.076,11.818,4.351,11.818,11.774,0,7.717-4.406,12.666-15.049,16.885a87.987,87.987,0,0,0-10.864,5.056l-2.944,1.883,1.9-2.864c1.035-1.579,5.265-4.769,9.377-7.115,7.732-4.383,10.346-7.956,10.452-14.223.106-5.94-8.426-5.882-17.9.143-9.285,5.878-19.807,21.221-21.529,31.354-.422,2.555-.988,5.445-1.237,6.421a5.185,5.185,0,0,0,.65,3.535c.918,1.45,1.755,1,4.7-2.57,7.721-9.318,17.112-8.6,28.424,2.192,4.171,3.973,7.6,6.318,8.885,6.069,3.311-.635,4.442-7.824,2.46-15.589-1.435-5.643-1.435-6.388-.011-5.21,5.162,4.292,7.045,16.709,3.947,26.056-1.307,3.958-1.19,5.067.991,9.707a38.208,38.208,0,0,1,2.486,6.139c.011.5,1.711,1.685,3.77,2.665,5.364,2.533,5.349,4.277-.033,3.756-3.561-.342-5.305.239-8.261,2.724-4.042,3.4-4.96,2.166-2.464-3.312,1.05-2.3.8-3.807-1.307-8-8.7-17.3-26.467-31.181-32.029-25.017-4.3,4.762-11.653,33.193-13.349,51.645-.635,6.906-.352,9.109,1.674,13.551,2.886,6.3,3.088,12.395.694,21.21" transform="translate(-707.278 -262.351)" fill="#fc8775"/>
        </g>
        <path id="Trazado_913687" data-name="Trazado 913687" d="M347.439,801.621c.811-6.105,5.254-7.541,15.258-10.687,7.754-2.442,10.346-3.76,30.953-15.732,12.549-7.3,15.306-7.835,24.933-4.912,7.908,2.39,10.831,4.512,13.518,9.792a38.264,38.264,0,0,0,7.093,8.826c7.174,6.48,13.951,6.01,25.626-1.8,2.713-1.8,6.425-3.3,8.25-3.312a11.466,11.466,0,0,0,5.092-1.157c1.494-.966,1.435-1.142-.389-1.153-3.231-.037-9.039-6.421-9.039-9.946,0-1.674-.47-3.04-1.05-3.04-1.494,0-2.486,3.062-2.486,7.67s-3.5,7.673-11.44,10.041c-4.314,1.3-5.349,1.226-8.047-.543-7.6-4.986-9.935-20.325-4.692-30.777,7.578-15.071,22.564-23.614,39.886-22.741,10.629.54,14.532,3.088,20.185,13.206,4.527,8.11,8.015,11.822,12.292,13.118l2.8.859-2.981-3.958c-1.638-2.181-4.677-8.084-6.763-13.14s-4.571-9.946-5.514-10.9c-1.4-1.392-1.425-1.836-.165-2.3.848-.331,5.54-1.968,10.394-3.653a73.272,73.272,0,0,1,19.572-3.686c11.514-.683,13.375.07,11.04,4.431-1.285,2.4-1.237,2.416,2.24.609,7.8-4.028,17.722-1.094,22.6,6.693,3.628,5.775,2.779,16.745-1.744,22.685-3.348,4.384-3.348,4.395-.554,3.58,3.227-.929,7.8-5.643,10.709-11.04,2.464-4.549,3.547-4.63,7.354-.518,7.978,8.613,8.7,26.559,1.685,42.845l-2.416,5.606-6.282-.646c-7.02-.731-12.795,1.861-16.389,7.339-2.309,3.525-2.346,3.513,3.44.565,6.377-3.253,10.676-3.062,13.07.591,5.867,8.954-8.591,24.91-32.995,36.409-8.7,4.1-21.481,7.776-27.055,7.776-6.469,0-13.988-2.72-17.663-6.4-5.775-5.775-10.629-23.721-7.824-28.953,1.355-2.544,1.862-2.629,11.1-1.872,8.745.7,9.993.54,12.846-1.711,4.1-3.227,4.016-4.747-.191-3.536-2.1.6-6.715.283-12.347-.837-7.365-1.457-9.627-1.52-12.549-.3-1.968.815-3.572,1.968-3.572,2.581s-.529.779-1.178.378c-2.475-1.535-1.164-7.589,2.533-11.807,5.445-6.2,11.936-9.1,21.849-9.748,7.611-.492,9.024-.22,13.845,2.6,5.951,3.488,6.458,3.073,3.051-2.5-2.6-4.288-10.1-8.576-15.012-8.613-4.373-.022-5.36-.885-7.306-6.458-4.347-12.49-10.144-17.072-21.573-17.1-3.418,0-7.743-.8-9.615-1.766-3.37-1.77-3.381-1.77-1.652.885,1.061,1.637,4.964,3.8,10.1,5.606,4.6,1.616,9.369,3.877,10.607,5.034,2.294,2.118,4.96,9.344,4.96,13.434,0,4.038-7.343,9.568-21.224,15.978-7.446,3.44-16.518,7.963-20.16,10.06s-7.563,3.807-8.7,3.807c-2.684,0-9.105-3.984-13.467-8.352-2.122-2.111-4.677-3.429-6.656-3.429-3.1,0-3.135.081-1.179,2.251,4.71,5.206-.815,13.243-7.883,11.477-1.7-.437-6.553-3.429-10.772-6.671-8.213-6.278-10.2-7.093-9.38-3.818.356,1.428-1.553,3.712-6.139,7.365-10.287,8.2-13.1,9.417-21.7,9.439-4.219.011-8.448.543-9.425,1.167-1.4.907-1.156,1.142,1.178,1.178a50.124,50.124,0,0,1,10.049,2.262c9.039,2.827,12.266,2.155,19.15-3.995,8.885-7.956,10.1-8.33,16.543-5.125,6.55,3.238,8.154,7.871,3.51,10.107-2.614,1.263-2.625,1.311-.235,1.381,1.366.048,4.171-1.109,6.223-2.57s6.586-4.652,10.049-7.115l6.293-4.453,5.632,2.981c3.087,1.648,6.517,2.992,7.614,2.992s6.315-2.181,11.616-4.832c6.869-3.451,10.464-4.63,12.538-4.112,4.538,1.142,10.757,8.176,13.29,15.06,5.845,15.883,3.844,21.915-6.785,20.5-5.727-.753-20.02-5.232-24.675-7.717-3.205-1.722-4.865-5.867-3.44-8.591,1.391-2.651,1.483-2.673-7.446,1.381-15.956,7.233-30.355,8.943-41.879,4.971-5.28-1.825-6.219-1.884-6.8-.4-.529,1.4-2.923,1.615-13.3,1.142-15.273-.694-24.547-3.84-37.155-12.607-.507-.352-1-.694-1.483-1.013,2.923-2.122,6.55-7.141,7.8-16.613m172.526-61.878c2.621,8.7,6.909,14.142,13.548,17.186,4.13,1.894,6.473,3.866,7.724,6.509,2.757,5.815,3.363,20.626,1.3,31.989-2.511,13.882-5.239,17.6-21.955,29.952-2.912,2.151-5.492,4.931-5.735,6.179-.371,1.931-.165,2.038,1.417.727,1.017-.845,6.061-2.977,11.212-4.744,7.927-2.717,9.689-2.974,11.473-1.67a10.968,10.968,0,0,0,5.5,1.542h3.4l-2.442-3.1c-3.025-3.848-3.091-7.49-.235-13.148a81.645,81.645,0,0,0,4.233-11.4c4.519-15.71,9.289-20.318,19.73-19.08,6.495.767,6.575-.7.154-2.816-3.367-1.113-5.617-1.091-10.6.1-3.473.834-6.638,1.193-7.031.8-1.142-1.142-1.138-18.5.007-25.586l1.047-6.484-3.036,3.227c-2.53,2.684-3.693,3.1-6.939,2.5-6.854-1.278-15.295-6.641-19.667-12.5a60.27,60.27,0,0,0-4.461-5.6,28.554,28.554,0,0,0,1.347,5.419" transform="translate(-223.099 -530.58)" fill="#feb7ac"/>
        <g id="Grupo_1103279" data-name="Grupo 1103279" transform="translate(80.846 0)">
          <path id="Trazado_913688" data-name="Trazado 913688" d="M784.437,147.417c4.086-7.9,23.317-22.686,35.385-27.2,6.315-2.368,20.619-4.017,24.826-2.875,7.152,1.946,6.965,6.138-.484,10.922-4.876,3.135-7.174,5.621-7.174,7.754,0,.235,1.461-.33,3.238-1.259a15.8,15.8,0,0,1,5.6-1.744,13.364,13.364,0,0,0,5.147-1.6c2.372-1.307,4.762-1.2,15.321.672,13.738,2.442,23.508,6.48,27.3,11.312,2.709,3.44,2.676,3.5-4.571,7.508-8.8,4.876-8.672,12.384.283,15.669,2.651.98,10.662,2.57,17.792,3.547s14.707,2.276,16.826,2.9c10.111,2.955,17.439,11.1,21,23.343,1.626,5.537,1.612,7.152-.059,16.073a89.219,89.219,0,0,0-1.652,15.269c.235,6.2-2.331,10.923-6.869,12.655-6.469,2.452-9.9-1.648-11.524-13.764-.907-6.763-3.995-12.619-7.717-14.6-2.4-1.3-2.438-1.237-.812,1.979.918,1.828,1.99,7.7,2.39,13.033s1.531,11.286,2.533,13.232c3.572,6.895,13.188,9.131,20.373,4.747a34.2,34.2,0,0,1,4.244-2.357c.213,0,1.366,2.181,2.581,4.857l2.177,4.864-3.238,2.794c-7.354,6.315-13.764,4.949-27.466-5.9-9.3-7.365-19.62-13.68-22.355-13.68-.8,0-.353-1.968,1.167-5.008,3.547-7.108,4.016-22.047.907-28.574l-2.25-4.714.587,8.837c1.285,19.161-5.808,28.6-24.4,32.473-18.713,3.9-29.342-4.171-37.261-28.35a74.238,74.238,0,0,0-6.8-15.68c-.881-9.946-3.58-25.678-11.723-23.321-7.446,2.17-16.837,2.438-21.635.635-10.284-3.888-16.059-15.978-11.686-24.448m21.455,9.894c3.22.6,6.091.04,11.807-2.306,11.51-4.729,16.1-4.259,25.88,2.636,9.678,6.821,29.584,27.077,30.451,30.983,1.939,8.745,2.967,17.457,2.291,19.389-.43,1.219-3.146,4.677-6.036,7.684-4.244,4.413-5.1,5.984-4.409,8.147.811,2.555.907,2.577,2.045.426.657-1.241,4.365-5.246,8.242-8.9l7.049-6.649-.815-9.259c-.749-8.518-.587-9.593,1.972-13.386,4.02-5.951,7.394-7.236,15.523-5.915,6.825,1.109,11.5.261,13.132-2.386.595-.966.1-1.142-1.648-.584-1.377.437-6.689-.062-11.811-1.105-10.4-2.122-13.973-1.66-18.328,2.376l-2.977,2.761-6.792-7.7c-12.438-14.113-28.864-26.779-37.228-28.7-5.239-1.208-8.239-.353-19.514,5.559-5.437,2.853-10.606,4.912-11.488,4.574s-1.6-.125-1.6.474,1.916,1.446,4.255,1.887" transform="translate(-782.962 -86.025)" fill="#ffd884"/>
          <path id="Trazado_913689" data-name="Trazado 913689" d="M575.379,13.979c10.181-2.827,20.292,4.509,23.963,17.391,1.068,3.752,2.339,7.247,2.82,7.769,1.318,1.428,20.857,4.347,29.129,4.351,4.009,0,8.646-.514,10.309-1.145,4.564-1.733,3.756.441-2.28,6.117-2.915,2.746-5.3,5.577-5.3,6.289,0,2.177,5.415,6.535,10.148,8.162,5.6,1.924,8.529.9,12.06-4.215,2.434-3.532,2.7-5.019,2.24-12.531-.386-6.23-1.384-10.177-3.723-14.682-2.9-5.6-2.963-5.951-.643-3.851,5.8,5.25,8.323,11.723,9.494,24.363.62,6.664,1.417,13.063,1.773,14.219.841,2.72,6.451,7.915,8.551,7.915,2.126,0,15.071-9.307,19.6-14.094,5.019-5.3,4.6-11.638-1.6-24.15-8.793-17.751-16.393-22.495-34.581-21.592-12.05.6-21.445,3.4-30.682,9.131-6.653,4.13-7.545,2.339-1.99-3.987,3.091-3.521,3.415-4.472,2.258-6.634-1.245-2.324-1.035-5.228.7-9.751,1.314-3.422-10.445-4.068-25.681-1.414C589.8,3.758,565.382,11.7,564.754,13.74c-.562,1.828,4.5,1.939,10.625.239" transform="translate(-471.586 -0.002)" fill="#ffd884"/>
          <path id="Trazado_913690" data-name="Trazado 913690" d="M526.481,65.625l4.072.874c7.262,1.568,10.372,3.855,11.822,8.694l1.362,4.553,11.58,2.034c14.348,2.518,23.691,6.832,30.576,14.106,5.65,5.966,12.427,10.092,16.58,10.092,2.129,0,2.306.29,1.079,1.77-1.043,1.259-3.807,1.766-9.615,1.766-5.852,0-9.468.672-12.82,2.383-7.952,4.057-7.064,4.483,18.313,8.771,13.287,2.247,17.369,3.418,22.135,6.37,5.812,3.6,9.769,8.294,13.72,16.271,1.982,4.006,4.619,7.607,5.859,8,3.286,1.043,12.6-1.6,15.009-4.266,1.744-1.928,1.861-2.867.731-5.86-1.234-3.267-1.179-3.433.65-2,3.084,2.416,3.719,3.649,3.741,7.273.022,4.167-5.544,9.689-10.915,10.823-8.984,1.9-13.206,11.246-12.417,27.484.415,8.543,1.035,11.1,3.859,15.9l3.363,5.72-3.2,6.311c-4.108,8.117-3.216,9.861,7.214,14.05q14.214,5.716,32.143,1.333a80.022,80.022,0,0,1,15.611-1.891c5.25-.011,7.956-.484,7.956-1.388,0-2.7-6.032-11.591-7.861-11.591-1.028,0-3.972,1.9-6.539,4.215s-4.894,3.983-5.177,3.7.488-2.857,1.718-5.724a65.087,65.087,0,0,0,4.879-23.166c-.03-11.55-5.973-26.159-10.647-26.159-2.57,0-4.725,6.33-6.337,18.6-.955,7.258-2.621,15.068-3.7,17.351-2.328,4.9-4.806,7.005-3.282,2.787.555-1.538.859-8.826.672-16.194-.32-12.758-.136-13.948,3.829-25.094,4.406-12.395,6.161-22.322,4.861-27.506-.936-3.719-10.453-14.219-15.042-16.595-1.777-.918-7.361-2.239-12.409-2.933-9.74-1.34-17.593-4.186-20.171-7.306a36.389,36.389,0,0,1-3.7-7.556c-2.735-7.255-6.182-9.259-18.9-10.974-11.374-1.538-13.632-3-15.346-9.9-3.378-13.591-9.513-19.524-17.751-17.16-6.759,1.938-13.76,1.421-16.393-1.212-1.3-1.3-2.357-2.886-2.357-3.532,0-1.648-6.557-1.447-13.547.419a64.4,64.4,0,0,0-10.552,3.965Z" transform="translate(-469.399 -42.455)" fill="#ffd884"/>
        </g>
        <path id="Trazado_913691" data-name="Trazado 913691" d="M3.136,2.671C5.434,1.173,9.322.512,17.568.23c10.7-.374,11.62-.213,17.193,3.04A59.994,59.994,0,0,0,43.3,7.536c2.262.709,2.6.437,2.357-1.9-.272-2.46.235-2.768,5.008-3.04C56.573,2.256,62,4.5,61.6,7.1c-.14.932,9.626,2.948,14.81,2.57,6.99-.5,9.615,0,22.472,4.3,15.236,5.1,25.476,10.5,31.156,16.437,2.731,2.875,4.064,3.415,7.067,2.934,2.97-.485,5.209.4,11.315,4.476,8.154,5.444,22.234,18.089,21.254,19.091s-17.509-7.119-23.919-11.727c-8.954-6.432-13.1-7.835-20.149-6.832l-6.01.859,5.386,1.413a41.875,41.875,0,0,1,7.236,2.463c4.571,2.64,18.463,14.164,18.533,15.38.037.742-2.038,2.592-4.619,4.123l-4.7,2.768h15.6c14.586,0,15.967.2,21.5,3.124,11.183,5.9,22.469,21.1,21.551,29.033-.257,2.273-1.131,3.3-3.014,3.569-5.338.756-1.12,4.927,4.982,4.927,2.416,0,3.124,1.057,4.809,4.112,9.5,17.241,4.688,37.573.312,46.792.059.382.11.764.158,1.142,3.653,29.1-11.925,54.994-38.025,63.229-18.394,5.8-21.892,6.6-28.714,6.553-12.717-.073-13.955-4.42-2.346-8.213a93.318,93.318,0,0,0,10.239-4.079,15.961,15.961,0,0,1,9.648-1.461,40.484,40.484,0,0,0,9.994-.246l4.49-.885-5.669-1.685c-6.965-2.063-7.046-4.736-.224-7.071,22.564-7.739,27.822-11.286,30.627-20.751,2.721-9.142,2.166-10.049-2.3-3.771s-9.263,10.478-14.047,12.3c-3.782,1.425-3.782,1.178-.165-7.611,3.925-9.52,3.914-12.916-.022-7.119-6.036,8.9-9.557,12.74-17.817,19.433-9.861,8-23.5,15.813-31.2,17.861-7.589,2.038-10.416.5-21.044-11.477-9.307-10.5-19.242-16.932-26.111-16.932-2.438,0-3.348-.577-3.348-2.122,0-1.623,1.568-2.449,6.777-3.558a150.026,150.026,0,0,0,18.559-6.128c6.48-2.566,13.375-4.688,15.317-4.7,5.515-.037,7.552-1.92,3.135-2.9-4.149-.907-9.615-6.7-9.615-10.214,0-1.285-.532-2-1.178-1.6s-1.178,1.979-1.178,3.51c0,6.979-14.436,15.908-27.242,16.874-7.049.532-9.9-1.083-5.8-3.275,2.427-1.3,5.937-6.986,5.937-9.615,0-.8-1.553.037-3.451,1.861-4.005,3.829-7.365,3.572-12.666-.988-3.1-2.665-3.253-3.29-2.948-11.488a60.972,60.972,0,0,0-1.4-15.145,50.389,50.389,0,0,1-1.531-6.656,68.458,68.458,0,0,1,7.269,1c3.888.635,12.74.837,19.668.448l12.585-.72-3.455,3.466c-2.555,2.544-3.462,4.582-3.462,7.717v4.251l4.086-4.086c10.239-10.254,29.944-5.445,47.372,11.558,6.752,6.586,7.457,7.732,7.457,12.079,0,8.011-6.256,13.5-20.042,17.6-4.89,1.45-17.358,10.592-16.132,11.829.261.25,2.816-.859,5.691-2.464a72.353,72.353,0,0,1,14.708-5.184c17.226-4.112,22.116-8.635,22.458-20.773l.2-7.045,9.546-1.487c25.369-3.936,29.775-16.885,11.62-34.063-7.8-7.376-12.127-9.7-20.659-11.088a22.319,22.319,0,0,1-11.983-5.529c-7.916-6.528-8.661-7.024-11.9-7.916l-2.948-.826,2.97,2.144a105.673,105.673,0,0,1,9.087,8.341c3.356,3.407,7.045,6.186,8.213,6.186,3.18,0,15.706,6.245,20.292,10.111,4.934,4.16,10.7,13.023,10.7,16.448a6.938,6.938,0,0,1-2.1,4.431c-2.922,2.64-14.774,5.54-22.671,5.54-5.856,0-7-.415-10.063-3.653-5.206-5.5-15.989-12.5-28.655-18.585l-11.333-5.456-15.321.309a228.359,228.359,0,0,1-26.265-1.039c-10.687-1.318-11.029-1.461-15.023-6.113-4.395-5.151-4.689-6.363-2.923-12.527.848-2.945.7-5.834-.587-10.757-2.016-7.791-2.239-14.458-.591-17.557.639-1.178,4.608-4.9,8.815-8.25C66.5,63.671,68.579,61.2,69.5,57.779c2.027-7.515-.2-15.611-9.156-33.369-.25-.481.529-.8,1.718-.694,2.7.235,5.694.576,8.756,1h2.665c-.459-2.383,2.239-3.58-1.391-7.156L48.9,12.815C37.86,6.7,21.588,6.016,6.906,11.082.977,13.12,0,12.709,0,8.16A6.009,6.009,0,0,1,3.136,2.671M66.765,95.19c2.2,8.958,10.886,13.871,27.631,15.626,25.039,2.64,27.822,3.146,34.126,6.3a53.2,53.2,0,0,1,9.839,6.351l3.44,3.158-2.511-3.653c-6.48-9.424-21.445-16.65-37.834-18.276C83,102.863,76.072,100.165,73.869,93.968c-1.179-3.337,2.1-5.29,13.2-7.9,25.05-5.878,55.9-5.9,74.952-.048,17.017,5.232,24.712,16.2,14.414,20.541l-3.62,1.52,6.3,1.355c12.6,2.7,18.761,9.781,18.819,21.61.011,4.053.481,5.6,1.707,5.6,1.09,0,2.6,2.6,4.009,6.381.628-7.974,1.369-15.813,1.355-17.48-.048-4.453-4.3-11.947-9.109-16.073a19.592,19.592,0,0,1-6.245-9.072c-4.266-14.282-21.518-23.365-50.775-26.746-3.653-.426-7.482-1.4-8.521-2.181-1.153-.863-2.32-4.56-3.014-9.568-1.366-9.759-2.948-11.609-15.156-17.759-7.574-3.829-8.5-4.63-7.75-6.88a19.158,19.158,0,0,0,.613-5.929l-.239-3.381,7.637.5c6.33.4,7.4.213,6.3-1.12-2.768-3.322-8.249-5.195-13.738-4.7-3.066.287-9.252-.433-14.153-1.648-2.651-.661-6.917-1.435-11.477-2.122L79.218,26c7.189,1.237,13.5,2.665,15.732,3.679,1.648.753,2.794,2.144,2.6,3.194-.588,3.179-10.166,7.152-17.381,7.185-9.2.048-5.217,2.074,8,4.053,9.7,1.461,21.962,5.694,28.02,9.663,3.04,1.979,4.384,5.221,4.241,10.181-.2,6.976-6.209,10.074-28.163,14.517-21.9,4.431-27.62,8.18-25.509,16.719" transform="translate(243.278 -0.065)" fill="#fcb071"/>
      </g>
    </g>
  </g>
</svg>
