<svg xmlns="http://www.w3.org/2000/svg" xmlns:xlink="http://www.w3.org/1999/xlink" width="85.082" height="85.232" viewBox="0 0 85.082 85.232">
  <defs>
    <linearGradient id="linear-gradient" x1="0.727" y1="0.552" x2="0" gradientUnits="objectBoundingBox">
      <stop offset="0" stop-color="#fc8775"/>
      <stop offset="1" stop-color="#ffd884"/>
    </linearGradient>
    <clipPath id="clip-path">
      <rect id="Rectángulo_402931" data-name="Rectángulo 402931" width="64" height="64" transform="translate(516.082 2709.232)" fill="#fc8775"/>
    </clipPath>
    <clipPath id="clip-path-2">
      <path id="path2250" d="M0-64H64V0H0Z" fill="#fc8775"/>
    </clipPath>
  </defs>
  <g id="Grupo_1101541" data-name="Grupo 1101541" transform="translate(-495 -2687.999)">
    <path id="Trazado_911369" data-name="Trazado 911369" d="M298.4,99.851a42.5,42.5,0,1,0,42.5-42.5,42.5,42.5,0,0,0-42.5,42.5" transform="translate(196.601 2630.648)" fill="url(#linear-gradient)"/>
    <g id="Enmascarar_grupo_1098684" data-name="Enmascarar grupo 1098684" clip-path="url(#clip-path)">
      <g id="g2244" transform="translate(516.082 2773.232)">
        <g id="g2246">
          <g id="g2248" clip-path="url(#clip-path-2)">
            <g id="g2254" transform="translate(9.221 -28.894)">
              <path id="path2256" d="M0,0H2.071A2.071,2.071,0,0,1,4.141,2.071v14.5a2.071,2.071,0,0,1-2.071,2.071H0" fill="none" stroke="#12263f" stroke-linecap="round" stroke-linejoin="round" stroke-miterlimit="10" stroke-width="1.875"/>
            </g>
            <g id="g2258" transform="translate(0.937 -23.65)">
              <path id="path2260" d="M0,0V15.465A1.036,1.036,0,0,0,1.036,16.5H6.213a2.071,2.071,0,0,0,2.071-2.071V-6.279A2.071,2.071,0,0,0,6.213-8.35H1.036A1.035,1.035,0,0,0,0-7.314V-3.75" fill="none" stroke="#12263f" stroke-linecap="round" stroke-linejoin="round" stroke-miterlimit="10" stroke-width="1.875"/>
            </g>
            <g id="g2262" transform="translate(25.787 -17.656)">
              <path id="path2264" d="M0,0,7.276,8.81A4.659,4.659,0,1,0,14.42,2.826L6.7-6.436a4.65,4.65,0,0,0-3.6-1.7H-12.425" fill="none" stroke="#12263f" stroke-linecap="round" stroke-linejoin="round" stroke-miterlimit="10" stroke-width="1.875"/>
            </g>
            <g id="g2266" transform="translate(41.052 -10.256)">
              <path id="path2268" d="M0,0H15.28a4.659,4.659,0,1,1,0,9.319H-10.606A4.653,4.653,0,0,1-14.371,7.4l-6.444-8.592a4.653,4.653,0,0,0-3.769-1.919H-27.69" fill="none" stroke="#12263f" stroke-linecap="round" stroke-linejoin="round" stroke-miterlimit="10" stroke-width="1.875"/>
            </g>
            <g id="g2270" transform="translate(40.662 -14.915)">
              <path id="path2272" d="M0,0H9.457a4.659,4.659,0,0,1,4.659,4.659" fill="none" stroke="#12263f" stroke-linecap="round" stroke-linejoin="round" stroke-miterlimit="10" stroke-width="1.875"/>
            </g>
            <g id="g2274" transform="translate(44.496 -32)">
              <path id="path2276" d="M0,0H-4.283a2,2,0,0,1-2-2V-4.142H2V-2A2,2,0,0,1,0,0Z" fill="none" stroke="#12263f" stroke-linecap="round" stroke-linejoin="round" stroke-miterlimit="10" stroke-width="1.875"/>
            </g>
            <g id="g2278" transform="translate(46.496 -36.142)">
              <path id="path2280" d="M0,0A2.071,2.071,0,0,0,2.071-2.071,2.071,2.071,0,0,0,0-4.142H-8.283a2.071,2.071,0,0,0-2.071,2.071A2.071,2.071,0,0,0-8.283,0Z" fill="none" stroke="#12263f" stroke-linecap="round" stroke-linejoin="round" stroke-miterlimit="10" stroke-width="1.875"/>
            </g>
            <g id="g2282" transform="translate(32.864 -56.87)">
              <path id="path2284" d="M0,0A10.381,10.381,0,0,0,4.305,13.124a2.065,2.065,0,0,1,1.044,1.782v1.681h8.283V14.922a2.092,2.092,0,0,1,1.054-1.8A10.358,10.358,0,1,0,2.148-3.155" fill="none" stroke="#12263f" stroke-linecap="round" stroke-linejoin="round" stroke-miterlimit="10" stroke-width="1.875"/>
            </g>
            <g id="g2286" transform="translate(40.283 -48.567)">
              <path id="path2288" d="M0,0H4.142" fill="none" stroke="#12263f" stroke-linecap="round" stroke-linejoin="round" stroke-miterlimit="10" stroke-width="1.875"/>
            </g>
            <g id="g2290" transform="translate(42.354 -48.567)">
              <path id="path2292" d="M0,0V8.283" fill="none" stroke="#12263f" stroke-linecap="round" stroke-linejoin="round" stroke-miterlimit="10" stroke-width="1.875"/>
            </g>
            <g id="g2294" transform="translate(21.646 -48.567)">
              <path id="path2296" d="M0,0H4.142" fill="none" stroke="#12263f" stroke-linecap="round" stroke-linejoin="round" stroke-miterlimit="10" stroke-width="1.875"/>
            </g>
            <g id="g2298" transform="translate(25.53 -34.071)">
              <path id="path2300" d="M0,0,3.587-2.071" fill="none" stroke="#12263f" stroke-linecap="round" stroke-linejoin="round" stroke-miterlimit="10" stroke-width="1.875"/>
            </g>
            <g id="g2302" transform="translate(59.178 -34.071)">
              <path id="path2304" d="M0,0-3.587-2.071" fill="none" stroke="#12263f" stroke-linecap="round" stroke-linejoin="round" stroke-miterlimit="10" stroke-width="1.875"/>
            </g>
            <g id="g2306" transform="translate(63.063 -48.567)">
              <path id="path2308" d="M0,0H-4.142" fill="none" stroke="#12263f" stroke-linecap="round" stroke-linejoin="round" stroke-miterlimit="10" stroke-width="1.875"/>
            </g>
            <g id="g2310" transform="translate(59.178 -63.062)">
              <path id="path2312" d="M0,0-3.587,2.071" fill="none" stroke="#12263f" stroke-linecap="round" stroke-linejoin="round" stroke-miterlimit="10" stroke-width="1.875"/>
            </g>
            <g id="g2314" transform="translate(25.53 -63.062)">
              <path id="path2316" d="M0,0,3.587,2.071" fill="none" stroke="#12263f" stroke-linecap="round" stroke-linejoin="round" stroke-miterlimit="10" stroke-width="1.875"/>
            </g>
          </g>
        </g>
      </g>
    </g>
    <path id="Trazado_911407" data-name="Trazado 911407" d="M286.55,226.938c-.894,1.343-1.338,1.89-2.141,1.89s-1.247-.547-2.141-1.89c-.926-1.39-2.192-3.293-4.761-3.293s-3.835,1.9-4.76,3.293c-.894,1.343-1.338,1.89-2.14,1.89s-1.246-.547-2.14-1.89c-.925-1.39-2.193-3.293-4.76-3.293s-3.835,1.9-4.761,3.294c-.894,1.343-1.338,1.89-2.14,1.89s-1.246-.547-2.14-1.89c-.925-1.39-2.192-3.294-4.76-3.294a1.574,1.574,0,1,0,0,3.147c.8,0,1.246.547,2.14,1.89.925,1.39,2.192,3.293,4.76,3.293s3.835-1.9,4.76-3.293c.894-1.343,1.337-1.89,2.14-1.89s1.246.547,2.14,1.89c.925,1.39,2.192,3.294,4.76,3.294s3.835-1.9,4.76-3.294c.894-1.343,1.338-1.89,2.14-1.89s1.247.547,2.141,1.89c.926,1.39,2.193,3.293,4.761,3.293s3.835-1.9,4.761-3.293c.894-1.343,1.338-1.89,2.141-1.89a1.574,1.574,0,1,0,0-3.147c-2.568,0-3.835,1.9-4.761,3.293" transform="translate(246.666 2470.762)" fill="#92e8db"/>
  </g>
</svg>
