<svg xmlns="http://www.w3.org/2000/svg" xmlns:xlink="http://www.w3.org/1999/xlink" width="85" height="84.999" viewBox="0 0 85 84.999">
  <defs>
    <linearGradient id="linear-gradient" x1="0.5" y1="0.852" x2="0.5" gradientUnits="objectBoundingBox">
      <stop offset="0" stop-color="#fcb071"/>
      <stop offset="1" stop-color="#ffd884"/>
    </linearGradient>
  </defs>
  <g id="Grupo_1103250" data-name="Grupo 1103250" transform="translate(-705.348 -8406.157)">
    <g id="Grupo_1103227" data-name="Grupo 1103227">
      <path id="Trazado_913452" data-name="Trazado 913452" d="M298.4,99.851a42.5,42.5,0,1,0,42.5-42.5,42.5,42.5,0,0,0-42.5,42.5" transform="translate(406.948 8348.807)" fill="url(#linear-gradient)"/>
      <g id="gestion-de-proyectos" transform="translate(709.668 8410.477)">
        <path id="Trazado_913453" data-name="Trazado 913453" d="M76.833,98.259h48.019a2.634,2.634,0,0,0,2.634-2.634V47.167H86.051l-9.218,9.218Z" transform="translate(-51.086 -25.326)" fill="#f6f6f6"/>
        <circle id="Elipse_11535" data-name="Elipse 11535" cx="0.988" cy="0.988" r="0.988" transform="translate(68.797 24.409)" fill="#9a99a1"/>
        <circle id="Elipse_11536" data-name="Elipse 11536" cx="0.988" cy="0.988" r="0.988" transform="translate(58.395 24.409)" fill="#9a99a1"/>
        <circle id="Elipse_11537" data-name="Elipse 11537" cx="0.988" cy="0.988" r="0.988" transform="translate(47.992 24.409)" fill="#9a99a1"/>
        <circle id="Elipse_11538" data-name="Elipse 11538" cx="0.988" cy="0.988" r="0.988" transform="translate(37.589 24.409)" fill="#9a99a1"/>
        <path id="Trazado_913454" data-name="Trazado 913454" d="M0,0H6.847V3.95a.658.658,0,0,1-.658.658H.658A.658.658,0,0,1,0,3.95Z" transform="translate(55.385 43.003) rotate(90)" fill="#4ab1a1"/>
        <path id="Trazado_913455" data-name="Trazado 913455" d="M.658,0H16.592a.658.658,0,0,1,.658.658v3.95H.658A.658.658,0,0,1,0,3.95V.658A.658.658,0,0,1,.658,0Z" transform="translate(69.212 32.601) rotate(90)" fill="#fc8775"/>
        <path id="Trazado_913456" data-name="Trazado 913456" d="M0,0H10.271V4.609H.658A.658.658,0,0,1,0,3.95Z" transform="translate(59.994 39.58) rotate(90)" fill="#92e8db"/>
        <path id="Trazado_913457" data-name="Trazado 913457" d="M0,0H13.826V4.609H.658A.658.658,0,0,1,0,3.95Z" transform="translate(64.603 36.024) rotate(90)" fill="#ffd884"/>
        <path id="Trazado_913458" data-name="Trazado 913458" d="M83.414,132.995H76.83V91.12l3.95-3.95v43.191A2.635,2.635,0,0,0,83.414,132.995Z" transform="translate(-51.083 -60.062)" fill="#d2e1f1"/>
        <path id="Trazado_913459" data-name="Trazado 913459" d="M76.833,56.386h6.584a2.634,2.634,0,0,0,2.634-2.634V47.168Z" transform="translate(-51.086 -25.327)" fill="#d2e1f1"/>
        <path id="Trazado_913460" data-name="Trazado 913460" d="M131.006,182.143H116.522a.988.988,0,0,1,0-1.975h14.485a.988.988,0,1,1,0,1.975Z" transform="translate(-84.691 -140.814)" fill="#9a99a1"/>
        <path id="Trazado_913461" data-name="Trazado 913461" d="M162.4,216.144h-5.153a.988.988,0,1,1,0-1.975H162.4a.988.988,0,0,1,0,1.975Z" transform="translate(-120.05 -170.337)" fill="#9a99a1"/>
        <path id="Trazado_913462" data-name="Trazado 913462" d="M118.827,216.144h-2.3a.988.988,0,1,1,0-1.975h2.3a.988.988,0,1,1,0,1.975Z" transform="translate(-84.692 -170.337)" fill="#9a99a1"/>
        <path id="Trazado_913463" data-name="Trazado 913463" d="M155.319,148.139h-10.8a.988.988,0,1,1,0-1.975h10.8a.988.988,0,1,1,0,1.975Z" transform="translate(-109.004 -111.287)" fill="#9a99a1"/>
        <circle id="Elipse_11539" data-name="Elipse 11539" cx="0.988" cy="0.988" r="0.988" transform="translate(31.831 34.877)" fill="#9a99a1"/>
        <circle id="Elipse_11540" data-name="Elipse 11540" cx="0.988" cy="0.988" r="0.988" transform="translate(44.34 43.831)" fill="#9a99a1"/>
        <path id="Trazado_913464" data-name="Trazado 913464" d="M294.882,341.975H280.4a.988.988,0,0,1,0-1.975h14.485a.988.988,0,0,1,0,1.975Z" transform="translate(-226.988 -279.599)" fill="#9a99a1"/>
        <path id="Trazado_913465" data-name="Trazado 913465" d="M326.273,375.975H321.12a.988.988,0,0,1,0-1.975h5.153a.988.988,0,1,1,0,1.975Z" transform="translate(-262.347 -309.122)" fill="#9a99a1"/>
        <path id="Trazado_913466" data-name="Trazado 913466" d="M282.7,375.975h-2.3a.988.988,0,0,1,0-1.975h2.3a.988.988,0,1,1,0,1.975Z" transform="translate(-226.988 -309.122)" fill="#9a99a1"/>
        <path id="Trazado_913467" data-name="Trazado 913467" d="M319.2,307.975H308.4a.988.988,0,0,1,0-1.975h10.8a.988.988,0,0,1,0,1.975Z" transform="translate(-251.301 -250.076)" fill="#9a99a1"/>
        <circle id="Elipse_11541" data-name="Elipse 11541" cx="0.988" cy="0.988" r="0.988" transform="translate(53.41 55.924)" fill="#9a99a1"/>
        <circle id="Elipse_11542" data-name="Elipse 11542" cx="0.988" cy="0.988" r="0.988" transform="translate(65.92 64.878)" fill="#9a99a1"/>
        <path id="Trazado_913468" data-name="Trazado 913468" d="M56.442,268.918v-3.9a1.317,1.317,0,0,0-1.2-1.311l-2.906-.264a11.768,11.768,0,0,0-.841-2.021l1.87-2.244a1.317,1.317,0,0,0-.08-1.774l-2.755-2.755a1.317,1.317,0,0,0-1.774-.08l-2.244,1.87a11.776,11.776,0,0,0-2.021-.841l-.264-2.906a1.317,1.317,0,0,0-1.311-1.2h-3.9a1.317,1.317,0,0,0-1.311,1.2l-.264,2.906a11.773,11.773,0,0,0-2.021.841l-2.244-1.87a1.317,1.317,0,0,0-1.774.08l-2.755,2.755a1.317,1.317,0,0,0-.08,1.774l1.87,2.244a11.768,11.768,0,0,0-.841,2.021l-2.906.264a1.317,1.317,0,0,0-1.2,1.311v3.9a1.317,1.317,0,0,0,1.2,1.311l2.906.264a11.769,11.769,0,0,0,.841,2.021l-1.87,2.244a1.317,1.317,0,0,0,.08,1.774l2.755,2.755a1.317,1.317,0,0,0,1.774.08l2.244-1.87a11.771,11.771,0,0,0,2.021.841l.264,2.906a1.317,1.317,0,0,0,1.311,1.2h3.9a1.317,1.317,0,0,0,1.311-1.2l.264-2.906a11.771,11.771,0,0,0,2.021-.841l2.244,1.87a1.317,1.317,0,0,0,1.774-.08l2.755-2.755a1.317,1.317,0,0,0,.08-1.774l-1.87-2.244a11.77,11.77,0,0,0,.841-2.021l2.906-.264a1.317,1.317,0,0,0,1.2-1.311ZM40.97,272.571a5.6,5.6,0,1,1,5.6-5.6,5.6,5.6,0,0,1-5.6,5.6Z" transform="translate(-6.51 -202.75)" fill="#92e8db"/>
        <path id="Trazado_913469" data-name="Trazado 913469" d="M49.664,272.908l-2.756,2.756a1.317,1.317,0,0,0-.08,1.774l1.87,2.243a11.945,11.945,0,0,1,4.983-4.983l-2.243-1.87A1.317,1.317,0,0,0,49.664,272.908Z" transform="translate(-24.767 -221.007)" fill="#4ab1a1"/>
        <path id="Trazado_913470" data-name="Trazado 913470" d="M48.7,411.12l-1.87,2.242a1.317,1.317,0,0,0,.08,1.774l2.756,2.755a1.316,1.316,0,0,0,1.774.082l2.243-1.87A11.945,11.945,0,0,1,48.7,411.12Z" transform="translate(-24.767 -341.354)" fill="#4ab1a1"/>
        <path id="Trazado_913471" data-name="Trazado 913471" d="M29.069,345.764a11.9,11.9,0,0,1,.532-3.524l-2.9.265a1.316,1.316,0,0,0-1.2,1.312v3.9a1.316,1.316,0,0,0,1.2,1.312l2.9.265a11.9,11.9,0,0,1-.532-3.524Z" transform="translate(-6.513 -281.544)" fill="#4ab1a1"/>
        <path id="Trazado_913472" data-name="Trazado 913472" d="M95.242,314a7.242,7.242,0,1,0,7.242,7.242A7.242,7.242,0,0,0,95.242,314Zm0,10.534a3.292,3.292,0,1,1,3.292-3.292A3.292,3.292,0,0,1,95.242,324.534Z" transform="translate(-60.783 -257.023)" fill="#4ab1a1"/>
        <path id="Trazado_913473" data-name="Trazado 913473" d="M436.5,100.5v27.164l2.7,5.791a.658.658,0,0,0,1.194,0l2.7-5.791V100.5Z" transform="translate(-363.392 -71.636)" fill="#ffd884"/>
        <path id="Trazado_913474" data-name="Trazado 913474" d="M443.084,31.426H436.5V28.792a3.292,3.292,0,1,1,6.584,0Z" transform="translate(-363.392 -6.512)" fill="#fcb071" fill-rule="evenodd"/>
        <path id="Trazado_913475" data-name="Trazado 913475" d="M436.5,70.5h6.584v3.95H436.5Z" transform="translate(-363.392 -45.587)" fill="#e6f0f6"/>
        <path id="Trazado_913476" data-name="Trazado 913476" d="M436.5,70.5h2.634v3.95H436.5Z" transform="translate(-363.392 -45.587)" fill="#aacfe2"/>
        <path id="Trazado_913477" data-name="Trazado 913477" d="M441.109,131.907l-.72,1.547a.658.658,0,0,1-1.193,0l-2.7-5.79V100.5h2.634v27.164Z" transform="translate(-363.392 -71.636)" fill="#fcb071"/>
        <path id="Trazado_913478" data-name="Trazado 913478" d="M439.134,26v5.86H436.5V29.226A3.293,3.293,0,0,1,439.133,26Z" transform="translate(-363.392 -6.947)" fill="#fc8775" fill-rule="evenodd"/>
        <g id="Grupo_1103226" data-name="Grupo 1103226" transform="translate(18 18)">
          <path id="Trazado_913479" data-name="Trazado 913479" d="M88.7,322.96a8.23,8.23,0,1,1,4.68-15,.988.988,0,0,1-1.126,1.623,6.256,6.256,0,1,0,1.771,1.867.988.988,0,1,1,1.68-1.038A8.228,8.228,0,0,1,88.7,322.96Zm0-3.95a4.28,4.28,0,1,1,4.28-4.28,4.28,4.28,0,0,1-4.28,4.28Zm0-6.584a2.3,2.3,0,1,0,2.3,2.3A2.3,2.3,0,0,0,88.7,312.426Z" transform="translate(-72.239 -268.51)" fill="#12263f"/>
          <path id="Trazado_913480" data-name="Trazado 913480" d="M76.4,260.592a.988.988,0,0,0-.988.988v4.96a1.648,1.648,0,0,1-1.646,1.646h-25.8a2.331,2.331,0,0,0-.35-.569l-1.458-1.75q.219-.471.4-.958l2.267-.206a2.293,2.293,0,0,0,2.1-2.295v-3.9a2.293,2.293,0,0,0-2.1-2.295l-2.267-.206q-.179-.486-.4-.958l1.458-1.75a2.293,2.293,0,0,0-.141-3.1l-2.755-2.755a2.293,2.293,0,0,0-3.1-.141l-1.75,1.458q-.471-.219-.958-.4L38.7,246.1a2.293,2.293,0,0,0-2.295-2.1h-3.9a2.293,2.293,0,0,0-2.295,2.1l-.206,2.267q-.486.179-.958.4L27.3,247.3a2.293,2.293,0,0,0-3.1.141L21.443,250.2a2.293,2.293,0,0,0-.141,3.1l1.458,1.75q-.219.471-.4.958l-2.267.206a2.293,2.293,0,0,0-2.1,2.295v3.9a2.293,2.293,0,0,0,2.1,2.3l2.267.206q.179.486.4.958l-1.458,1.75a2.294,2.294,0,0,0,.141,3.1l2.755,2.755a2.294,2.294,0,0,0,3.1.141l1.75-1.458q.471.219.958.4l.206,2.267a2.293,2.293,0,0,0,2.295,2.1h3.9a2.293,2.293,0,0,0,2.295-2.1l.206-2.267q.486-.179.958-.4l1.75,1.458a2.293,2.293,0,0,0,3.1-.141l2.755-2.755a2.324,2.324,0,0,0,.413-.561H73.766a3.625,3.625,0,0,0,3.621-3.621v-4.96A.988.988,0,0,0,76.4,260.592Zm-30.32,8.733-2.755,2.755a.328.328,0,0,1-.443.02l-2.244-1.87a.988.988,0,0,0-1.094-.114,10.828,10.828,0,0,1-1.852.77.988.988,0,0,0-.691.854l-.264,2.906a.327.327,0,0,1-.328.3h-3.9a.327.327,0,0,1-.328-.3l-.264-2.906a.988.988,0,0,0-.691-.854,10.826,10.826,0,0,1-1.852-.77.988.988,0,0,0-1.094.114l-2.244,1.87a.327.327,0,0,1-.443-.02l-2.755-2.754a.328.328,0,0,1-.02-.444l1.87-2.244a.988.988,0,0,0,.114-1.095,10.806,10.806,0,0,1-.77-1.852A.988.988,0,0,0,23.18,263l-2.906-.264a.328.328,0,0,1-.3-.328v-3.9a.328.328,0,0,1,.3-.328l2.906-.264a.988.988,0,0,0,.854-.691,10.812,10.812,0,0,1,.77-1.852.988.988,0,0,0-.114-1.094l-1.87-2.244a.328.328,0,0,1,.02-.444L25.6,248.84a.328.328,0,0,1,.443-.02l2.244,1.87a.988.988,0,0,0,1.094.114,10.808,10.808,0,0,1,1.852-.77.988.988,0,0,0,.691-.854l.264-2.906a.327.327,0,0,1,.328-.3h3.9a.328.328,0,0,1,.328.3L37,249.18a.988.988,0,0,0,.691.854,10.811,10.811,0,0,1,1.852.77.988.988,0,0,0,1.094-.114l2.244-1.87a.327.327,0,0,1,.443.02L46.08,251.6a.327.327,0,0,1,.02.443l-1.87,2.244a.988.988,0,0,0-.114,1.094,10.813,10.813,0,0,1,.77,1.852.988.988,0,0,0,.854.691l2.906.264a.328.328,0,0,1,.3.328v3.9a.328.328,0,0,1-.3.328L45.74,263a.988.988,0,0,0-.854.691,10.806,10.806,0,0,1-.77,1.852.988.988,0,0,0,.114,1.095l1.87,2.244a.328.328,0,0,1-.02.444Z" transform="translate(-18 -214.24)" fill="#12263f"/>
          <path id="Trazado_913481" data-name="Trazado 913481" d="M264.019,130.005v1.778h-2.963a1.648,1.648,0,0,0-1.646,1.646v5.531a1.648,1.648,0,0,0,1.646,1.646h17.118a1.648,1.648,0,0,0,1.646-1.646V123.026a1.648,1.648,0,0,0-1.646-1.646h-3.292a1.648,1.648,0,0,0-1.646,1.646V124.8h-2.963a1.648,1.648,0,0,0-1.646,1.646v1.909h-2.963A1.648,1.648,0,0,0,264.019,130.005Zm0,8.625h-2.634v-4.872h2.634Zm11.193-12.839v-2.436h2.634V138.63h-2.634Zm-4.609,3.555v-2.568h2.634V138.63H270.6Zm-4.609,3.424v-2.436h2.634v8.3h-2.634Z" transform="translate(-227.621 -107.767)" fill="#12263f"/>
          <circle id="Elipse_11543" data-name="Elipse 11543" cx="0.988" cy="0.988" r="0.988" transform="translate(50.798 6.409)" fill="#12263f"/>
          <circle id="Elipse_11544" data-name="Elipse 11544" cx="0.988" cy="0.988" r="0.988" transform="translate(40.395 6.409)" fill="#12263f"/>
          <circle id="Elipse_11545" data-name="Elipse 11545" cx="0.988" cy="0.988" r="0.988" transform="translate(29.992 6.409)" fill="#12263f"/>
          <circle id="Elipse_11546" data-name="Elipse 11546" cx="0.988" cy="0.988" r="0.988" transform="translate(19.589 6.409)" fill="#12263f"/>
          <path id="Trazado_913482" data-name="Trazado 913482" d="M115.534,181.156a.988.988,0,0,0,.988.988h14.485a.988.988,0,1,0,0-1.975H116.522A.988.988,0,0,0,115.534,181.156Z" transform="translate(-102.691 -158.814)" fill="#12263f"/>
          <path id="Trazado_913483" data-name="Trazado 913483" d="M157.243,214.169a.988.988,0,1,0,0,1.975H162.4a.988.988,0,0,0,0-1.975Z" transform="translate(-138.05 -188.337)" fill="#12263f"/>
          <path id="Trazado_913484" data-name="Trazado 913484" d="M116.522,216.144h2.3a.988.988,0,1,0,0-1.975h-2.3a.988.988,0,0,0,0,1.975Z" transform="translate(-102.691 -188.337)" fill="#12263f"/>
          <path id="Trazado_913485" data-name="Trazado 913485" d="M143.534,147.152a.988.988,0,0,0,.988.988h10.8a.988.988,0,1,0,0-1.975h-10.8A.988.988,0,0,0,143.534,147.152Z" transform="translate(-127.004 -129.287)" fill="#12263f"/>
          <circle id="Elipse_11547" data-name="Elipse 11547" cx="0.988" cy="0.988" r="0.988" transform="translate(13.831 16.877)" fill="#12263f"/>
          <circle id="Elipse_11548" data-name="Elipse 11548" cx="0.988" cy="0.988" r="0.988" transform="translate(26.341 25.832)" fill="#12263f"/>
          <path id="Trazado_913486" data-name="Trazado 913486" d="M295.87,340.988a.988.988,0,0,0-.988-.988H280.4a.988.988,0,0,0,0,1.975h14.485A.988.988,0,0,0,295.87,340.988Z" transform="translate(-244.987 -297.599)" fill="#12263f"/>
          <path id="Trazado_913487" data-name="Trazado 913487" d="M321.12,374a.988.988,0,0,0,0,1.975h5.153a.988.988,0,1,0,0-1.975Z" transform="translate(-280.347 -327.122)" fill="#12263f"/>
          <path id="Trazado_913488" data-name="Trazado 913488" d="M280.4,374a.988.988,0,1,0,0,1.975h2.3a.988.988,0,0,0,0-1.975Z" transform="translate(-244.987 -327.122)" fill="#12263f"/>
          <path id="Trazado_913489" data-name="Trazado 913489" d="M319.2,306H308.4a.988.988,0,0,0,0,1.975h10.8a.988.988,0,1,0,0-1.975Z" transform="translate(-269.3 -268.076)" fill="#12263f"/>
          <path id="Trazado_913490" data-name="Trazado 913490" d="M287.9,307.975a.988.988,0,1,0-.988-.988A.988.988,0,0,0,287.9,307.975Z" transform="translate(-251.5 -268.076)" fill="#12263f"/>
          <path id="Trazado_913491" data-name="Trazado 913491" d="M381.91,374.988A.988.988,0,1,0,382.9,374,.988.988,0,0,0,381.91,374.988Z" transform="translate(-333.99 -327.122)" fill="#12263f"/>
          <path id="Trazado_913492" data-name="Trazado 913492" d="M120.974,18a4.286,4.286,0,0,0-4.034,2.853h-37.4a.988.988,0,0,0-.7.29l-9.218,9.218a.988.988,0,0,0-.29.7V48.622a.988.988,0,0,0,1.975,0V32.046h5.6a3.625,3.625,0,0,0,3.621-3.621v-5.6h36.168v33.2a.989.989,0,0,0,.092.417l2.7,5.791a1.646,1.646,0,0,0,2.985,0l2.7-5.791a.989.989,0,0,0,.092-.417V22.28A4.284,4.284,0,0,0,120.974,18ZM76.9,30.071H72.7l5.846-5.846v4.2A1.648,1.648,0,0,1,76.9,30.071Zm46.373,25.738-2.3,4.951-2.3-4.951V29.851h4.609Zm0-27.933h-4.609V25.9h4.609Zm0-3.95h-4.609V22.28a2.3,2.3,0,1,1,4.609,0Z" transform="translate(-62.573 -18)" fill="#12263f"/>
        </g>
      </g>
    </g>
    <path id="Trazado_911407" data-name="Trazado 911407" d="M286.55,226.938c-.894,1.343-1.338,1.89-2.141,1.89s-1.247-.547-2.141-1.89c-.926-1.39-2.192-3.293-4.761-3.293s-3.835,1.9-4.76,3.293c-.894,1.343-1.338,1.89-2.14,1.89s-1.246-.547-2.14-1.89c-.925-1.39-2.193-3.293-4.76-3.293s-3.835,1.9-4.761,3.294c-.894,1.343-1.338,1.89-2.14,1.89s-1.246-.547-2.14-1.89c-.925-1.39-2.192-3.294-4.76-3.294a1.574,1.574,0,1,0,0,3.147c.8,0,1.246.547,2.14,1.89.925,1.39,2.192,3.293,4.76,3.293s3.835-1.9,4.76-3.293c.894-1.343,1.337-1.89,2.14-1.89s1.246.547,2.14,1.89c.925,1.39,2.192,3.294,4.76,3.294s3.835-1.9,4.76-3.294c.894-1.343,1.338-1.89,2.14-1.89s1.247.547,2.141,1.89c.926,1.39,2.193,3.293,4.761,3.293s3.835-1.9,4.761-3.293c.894-1.343,1.338-1.89,2.141-1.89a1.574,1.574,0,1,0,0-3.147c-2.568,0-3.835,1.9-4.761,3.293" transform="translate(457.334 8188.919)" fill="#92e8db"/>
  </g>
</svg>
