<svg xmlns="http://www.w3.org/2000/svg" xmlns:xlink="http://www.w3.org/1999/xlink" width="85" height="84.999" viewBox="0 0 85 84.999">
  <defs>
    <linearGradient id="linear-gradient" x1="0.5" y1="0.852" x2="0.5" gradientUnits="objectBoundingBox">
      <stop offset="0" stop-color="#fcb071"/>
      <stop offset="1" stop-color="#ffd884"/>
    </linearGradient>
  </defs>
  <g id="Grupo_1103694" data-name="Grupo 1103694" transform="translate(-705.949 -1137.198)">
    <path id="Trazado_911369" data-name="Trazado 911369" d="M298.4,99.851a42.5,42.5,0,1,0,42.5-42.5,42.5,42.5,0,0,0-42.5,42.5" transform="translate(407.55 1079.847)" fill="url(#linear-gradient)"/>
    <path id="Trazado_911407" data-name="Trazado 911407" d="M286.55,226.938c-.894,1.343-1.338,1.89-2.141,1.89s-1.247-.547-2.141-1.89c-.926-1.39-2.192-3.293-4.761-3.293s-3.835,1.9-4.76,3.293c-.894,1.343-1.338,1.89-2.14,1.89s-1.246-.547-2.14-1.89c-.925-1.39-2.193-3.293-4.76-3.293s-3.835,1.9-4.761,3.294c-.894,1.343-1.338,1.89-2.14,1.89s-1.246-.547-2.14-1.89c-.925-1.39-2.192-3.294-4.76-3.294a1.574,1.574,0,1,0,0,3.147c.8,0,1.246.547,2.14,1.89.925,1.39,2.192,3.293,4.76,3.293s3.835-1.9,4.76-3.293c.894-1.343,1.337-1.89,2.14-1.89s1.246.547,2.14,1.89c.925,1.39,2.192,3.294,4.76,3.294s3.835-1.9,4.76-3.294c.894-1.343,1.338-1.89,2.14-1.89s1.247.547,2.141,1.89c.926,1.39,2.193,3.293,4.761,3.293s3.835-1.9,4.761-3.293c.894-1.343,1.338-1.89,2.141-1.89a1.574,1.574,0,1,0,0-3.147c-2.568,0-3.835,1.9-4.761,3.293" transform="translate(457.615 919.96)" fill="#92e8db"/>
    <g id="capacitacion" transform="translate(726.051 1157.198)">
      <path id="Trazado_913004" data-name="Trazado 913004" d="M49,48h6.174v5.145H49Z" transform="translate(1.395 1.366)" fill="#eeb8ab"/>
      <path id="Trazado_913005" data-name="Trazado 913005" d="M51.058,50.02A3.329,3.329,0,0,1,49,49.3v3.8h6.174V49.3a3.329,3.329,0,0,1-2.058.717Z" transform="translate(1.395 1.404)" fill="#ffe1d3"/>
      <path id="Trazado_913006" data-name="Trazado 913006" d="M9,48h6.174v5.145H9Z" transform="translate(0.232 1.366)" fill="#eeb8ab"/>
      <path id="Trazado_913007" data-name="Trazado 913007" d="M11.058,50.02A3.329,3.329,0,0,1,9,49.3v3.8h6.174V49.3a3.329,3.329,0,0,1-2.058.717Z" transform="translate(0.232 1.404)" fill="#ffe1d3"/>
      <path id="Trazado_913008" data-name="Trazado 913008" d="M20,40H44.7V63.668H20Z" transform="translate(0.552 1.133)" fill="#893b1b"/>
      <path id="Trazado_913009" data-name="Trazado 913009" d="M44.61,41H23V56.436a4.116,4.116,0,0,0,4.116,4.116H44.61Z" transform="translate(0.639 1.162)" fill="#a44b2f"/>
      <path id="Trazado_913010" data-name="Trazado 913010" d="M39.523,40.465V34.291l2.187,2.187A3.075,3.075,0,0,0,45.357,37l9.17-5a2.8,2.8,0,0,0,1.461-2.463,2.452,2.452,0,0,0-3.643-2.144l-8.707,4.838-1.99-4.978c-.044-.112-.094-.221-.148-.329a4.334,4.334,0,0,0-3.028-2.312L35.407,24H29.232l-4.239,1.06A5.272,5.272,0,0,0,21,30.174V40.465" transform="translate(0.581 0.668)" fill="#b4b4b4"/>
      <path id="Trazado_913011" data-name="Trazado 913011" d="M53.45,27.086a2.451,2.451,0,0,0-1.192.309l-8.707,4.838-1.99-4.978c-.044-.112-.094-.221-.148-.329a4.334,4.334,0,0,0-3.028-2.312L35.32,24H29.145l-4.239,1.06a5.309,5.309,0,0,0-.57.194A5.245,5.245,0,0,0,24,27.087v7.2a3.087,3.087,0,0,0,3.087,3.087H39.436V34.291l2.187,2.187A3.075,3.075,0,0,0,45.27,37l9.17-5A2.8,2.8,0,0,0,55.9,29.538a2.452,2.452,0,0,0-2.451-2.452Z" transform="translate(0.668 0.668)" fill="#c8c8c8"/>
      <path id="Trazado_913012" data-name="Trazado 913012" d="M35.087,28.116l3.4-3.4c-.112-.032-.215-.083-.33-.106L35.087,24,32,25.029Z" transform="translate(0.901 0.668)" fill="#b4b4b4"/>
      <path id="Trazado_913013" data-name="Trazado 913013" d="M32.18,25.029,29.093,24l-3.293.823,3.293,3.293Z" transform="translate(0.721 0.668)" fill="#b4b4b4"/>
      <path id="Trazado_913014" data-name="Trazado 913014" d="M34.328,27.264l-1.235,1.852H31.035L29.8,27.264,32.064,25Z" transform="translate(0.837 0.697)" fill="#fc8775"/>
      <path id="Trazado_913015" data-name="Trazado 913015" d="M29,21.2v2.884l3.087,1.029,3.087-1.029V21.2Z" transform="translate(0.814 0.587)" fill="#eeb8ab"/>
      <path id="Trazado_913016" data-name="Trazado 913016" d="M24,12.342v-5.2A5.146,5.146,0,0,1,29.145,2h5.145a3.087,3.087,0,0,1,3.087,3.087,3.087,3.087,0,0,1,3.087,3.087v4.168" transform="translate(0.668 0.029)" fill="#3f4042"/>
      <path id="Trazado_913017" data-name="Trazado 913017" d="M40.407,8.174A3.087,3.087,0,0,0,37.32,5.087,3.087,3.087,0,0,0,34.232,2H29.087a5.111,5.111,0,0,0-2.96.947A5.138,5.138,0,0,0,26,4.058a5.2,5.2,0,0,0,5.2,5.2h9.21Z" transform="translate(0.727 0.029)" fill="#5a5b5d"/>
      <g id="Grupo_1103109" data-name="Grupo 1103109" transform="translate(22.61 8.203)">
        <path id="Trazado_913018" data-name="Trazado 913018" d="M38.349,11.087v5.145a6.174,6.174,0,1,1-12.349,0V11.087h3.493A6.934,6.934,0,0,0,35.262,8Z" transform="translate(-21.884 -8)" fill="#eeb8ab"/>
        <path id="Trazado_913019" data-name="Trazado 913019" d="M26.116,12H24.573a2.573,2.573,0,0,0,0,5.145H26.2" transform="translate(-22 -7.884)" fill="#eeb8ab"/>
        <path id="Trazado_913020" data-name="Trazado 913020" d="M38,12h1.544a2.573,2.573,0,1,1,0,5.145H37.917" transform="translate(-21.537 -7.884)" fill="#eeb8ab"/>
      </g>
      <path id="Trazado_913021" data-name="Trazado 913021" d="M34.116,40.32,33.087,29H31.029L30,40.32Z" transform="translate(0.843 0.814)" fill="#e66967"/>
      <path id="Trazado_913022" data-name="Trazado 913022" d="M32.66,22.381a6.172,6.172,0,0,0,5.66-6.149V11.087L35.232,8a6.934,6.934,0,0,1-5.769,3.087H27v5.145A6.172,6.172,0,0,0,32.66,22.381Z" transform="translate(0.756 0.203)" fill="#ffe1d3"/>
      <path id="Trazado_913023" data-name="Trazado 913023" d="M35.145,22.191A6.115,6.115,0,0,1,30,22.664v1.388l2.573.857,2.573-.857Z" transform="translate(0.843 0.616)" fill="#ffe1d3"/>
      <path id="Trazado_913024" data-name="Trazado 913024" d="M32.029,29,31,40.32h3.087L33.058,29Z" transform="translate(0.872 0.814)" fill="#fc8775"/>
      <path id="Trazado_913025" data-name="Trazado 913025" d="M24,32h2.058v8.232H24Z" transform="translate(0.668 0.901)" fill="#959595"/>
      <path id="Trazado_913026" data-name="Trazado 913026" d="M11.116,49.349a3.33,3.33,0,0,1-2.978-1.841l-.263-.526A8.286,8.286,0,0,1,7,43.276V40.685A3.686,3.686,0,0,1,10.685,37h2.92a3.686,3.686,0,0,1,3.685,3.685v2.591a8.286,8.286,0,0,1-.875,3.706l-.262.526a3.332,3.332,0,0,1-2.979,1.841Z" transform="translate(0.174 1.046)" fill="#893b1b"/>
      <path id="Trazado_913027" data-name="Trazado 913027" d="M29,48h6.174v5.145H29Z" transform="translate(0.814 1.366)" fill="#eeb8ab"/>
      <path id="Trazado_913028" data-name="Trazado 913028" d="M48.058,7H60.407a2.058,2.058,0,0,1,2.058,2.058v8.232a2.058,2.058,0,0,1-2.058,2.058H54.232l-6.174,5.145,1.029-5.145H48.058A2.058,2.058,0,0,1,46,17.291V9.058A2.058,2.058,0,0,1,48.058,7Z" transform="translate(1.308 0.174)" fill="#92e8db"/>
      <path id="Trazado_913029" data-name="Trazado 913029" d="M60.349,7H48v7.2a3.087,3.087,0,0,0,3.087,3.087h11.32V9.058A2.058,2.058,0,0,0,60.349,7Z" transform="translate(1.366 0.174)" fill="#cbfaf4"/>
      <path id="Trazado_913030" data-name="Trazado 913030" d="M57,14h2.058v2.058H57Z" transform="translate(1.627 0.378)" fill="#fff"/>
      <path id="Trazado_913031" data-name="Trazado 913031" d="M53,14h2.058v2.058H53Z" transform="translate(1.511 0.378)" fill="#fff"/>
      <path id="Trazado_913032" data-name="Trazado 913032" d="M49,14h2.058v2.058H49Z" transform="translate(1.395 0.378)" fill="#fff"/>
      <path id="Trazado_913033" data-name="Trazado 913033" d="M52.715,27a2.451,2.451,0,0,0-1.192.309l-2.234,1.241,2.515,4.4,1.9-1.036a2.8,2.8,0,0,0,1.461-2.463A2.452,2.452,0,0,0,52.715,27Z" transform="translate(1.403 0.756)" fill="#ffe1d3"/>
      <path id="Trazado_913034" data-name="Trazado 913034" d="M14.741,37.189A3.673,3.673,0,0,0,13.576,37h-2.92a3.68,3.68,0,0,0-2.613,1.089A3.582,3.582,0,0,0,8,38.627v2.591a8.286,8.286,0,0,0,.875,3.706l.262.526a3.332,3.332,0,0,0,2.979,1.841h2.058A3.323,3.323,0,0,0,16.794,46a8.3,8.3,0,0,0,.467-2.727V40.685a3.684,3.684,0,0,0-2.52-3.5Z" transform="translate(0.203 1.046)" fill="#a44b2f"/>
      <path id="Trazado_913035" data-name="Trazado 913035" d="M31.116,49.349a3.33,3.33,0,0,1-2.978-1.841l-.263-.526A8.286,8.286,0,0,1,27,43.276V40.685A3.686,3.686,0,0,1,30.685,37h2.92a3.686,3.686,0,0,1,3.685,3.685v2.591a8.286,8.286,0,0,1-.875,3.706l-.262.526a3.332,3.332,0,0,1-2.979,1.841Z" transform="translate(0.756 1.046)" fill="#3f4042"/>
      <path id="Trazado_913036" data-name="Trazado 913036" d="M51.116,49.349a3.33,3.33,0,0,1-2.978-1.841l-.263-.526A8.286,8.286,0,0,1,47,43.276V40.685A3.686,3.686,0,0,1,50.685,37h2.92a3.686,3.686,0,0,1,3.685,3.685v2.591a8.286,8.286,0,0,1-.875,3.706l-.262.526a3.332,3.332,0,0,1-2.979,1.841Z" transform="translate(1.337 1.046)" fill="#c99728"/>
      <path id="Trazado_913037" data-name="Trazado 913037" d="M54.741,37.189A3.673,3.673,0,0,0,53.576,37h-2.92a3.68,3.68,0,0,0-2.613,1.089,3.582,3.582,0,0,0-.043.538v2.591a8.286,8.286,0,0,0,.875,3.706l.262.526a3.332,3.332,0,0,0,2.979,1.841h2.058A3.323,3.323,0,0,0,56.794,46a8.3,8.3,0,0,0,.467-2.727V40.685a3.684,3.684,0,0,0-2.52-3.5Z" transform="translate(1.366 1.046)" fill="#e7b532"/>
      <path id="Trazado_913038" data-name="Trazado 913038" d="M34.741,37.189A3.673,3.673,0,0,0,33.576,37h-2.92a3.68,3.68,0,0,0-2.613,1.089,3.583,3.583,0,0,0-.043.538v2.591a8.286,8.286,0,0,0,.875,3.706l.262.526a3.332,3.332,0,0,0,2.979,1.841h2.058A3.323,3.323,0,0,0,36.794,46a8.3,8.3,0,0,0,.467-2.727V40.685a3.684,3.684,0,0,0-2.52-3.5Z" transform="translate(0.785 1.046)" fill="#5a5b5d"/>
      <path id="Trazado_913039" data-name="Trazado 913039" d="M4,63.291v-7.2A3.087,3.087,0,0,1,7.087,53H17.378a3.087,3.087,0,0,1,3.087,3.087v7.2" transform="translate(0.087 1.511)" fill="#468261"/>
      <path id="Trazado_913040" data-name="Trazado 913040" d="M10.087,60.2H20.378V56.087A3.087,3.087,0,0,0,17.291,53H7v4.116A3.087,3.087,0,0,0,10.087,60.2Z" transform="translate(0.174 1.511)" fill="#89c683"/>
      <path id="Trazado_913041" data-name="Trazado 913041" d="M24,63.291v-7.2A3.087,3.087,0,0,1,27.087,53H37.378a3.087,3.087,0,0,1,3.087,3.087v7.2" transform="translate(0.668 1.511)" fill="#468261"/>
      <path id="Trazado_913042" data-name="Trazado 913042" d="M30.087,60.2H40.378V56.087A3.087,3.087,0,0,0,37.291,53H27v4.116A3.087,3.087,0,0,0,30.087,60.2Z" transform="translate(0.756 1.511)" fill="#89c683"/>
      <path id="Trazado_913043" data-name="Trazado 913043" d="M44,63.291v-7.2A3.087,3.087,0,0,1,47.087,53H57.378a3.087,3.087,0,0,1,3.087,3.087v7.2" transform="translate(1.25 1.511)" fill="#468261"/>
      <path id="Trazado_913044" data-name="Trazado 913044" d="M50.087,60.2H60.378V56.087A3.087,3.087,0,0,0,57.291,53H47v4.116A3.087,3.087,0,0,0,50.087,60.2Z" transform="translate(1.337 1.511)" fill="#89c683"/>
      <path id="Trazado_913045" data-name="Trazado 913045" d="M31.058,50.02A3.329,3.329,0,0,1,29,49.3v3.8h6.174V49.3a3.329,3.329,0,0,1-2.058.717Z" transform="translate(0.814 1.404)" fill="#ffe1d3"/>
      <path id="Trazado_913046" data-name="Trazado 913046" d="M16.407,2H4.058A2.058,2.058,0,0,0,2,4.058v8.232a2.058,2.058,0,0,0,2.058,2.058h6.174l6.174,5.145-1.029-5.145h1.029a2.058,2.058,0,0,0,2.058-2.058V4.058A2.058,2.058,0,0,0,16.407,2Z" transform="translate(0.029 0.029)" fill="#92e8db"/>
      <path id="Trazado_913047" data-name="Trazado 913047" d="M16.349,2H4V9.2a3.087,3.087,0,0,0,3.087,3.087h11.32V4.058A2.058,2.058,0,0,0,16.349,2Z" transform="translate(0.087 0.029)" fill="#cbfaf4"/>
      <path id="Trazado_913048" data-name="Trazado 913048" d="M5,9H7.058v2.058H5Z" transform="translate(0.116 0.232)" fill="#fff"/>
      <path id="Trazado_913049" data-name="Trazado 913049" d="M9,9h2.058v2.058H9Z" transform="translate(0.232 0.232)" fill="#fff"/>
      <path id="Trazado_913050" data-name="Trazado 913050" d="M13,9h2.058v2.058H13Z" transform="translate(0.349 0.232)" fill="#fff"/>
      <path id="Trazado_913051" data-name="Trazado 913051" d="M19.465,54.054a4.074,4.074,0,0,0-2.058-.572H16.378V50.135a4.373,4.373,0,0,0,.812-1.121l.262-.526a9.363,9.363,0,0,0,.984-4.166V41.731a4.715,4.715,0,0,0-4.714-4.714H10.8a4.713,4.713,0,0,0-4.714,4.714v2.591a9.363,9.363,0,0,0,.984,4.166l.262.526a4.355,4.355,0,0,0,.812,1.121v3.348H7.116A4.12,4.12,0,0,0,3,57.6v7.2H5.058V57.6A2.06,2.06,0,0,1,7.116,55.54H17.407A2.06,2.06,0,0,1,19.465,57.6v7.2h2.058V42.162h5.145v2.16a9.363,9.363,0,0,0,.984,4.166l.262.526a4.373,4.373,0,0,0,.812,1.121v3.348H27.7A4.12,4.12,0,0,0,23.581,57.6v7.2h2.058V57.6A2.06,2.06,0,0,1,27.7,55.54H37.988A2.06,2.06,0,0,1,40.046,57.6v7.2H42.1V57.6a4.12,4.12,0,0,0-4.116-4.116H36.959V50.135a4.373,4.373,0,0,0,.812-1.121l.262-.526a9.363,9.363,0,0,0,.984-4.166v-2.16h5.145V64.8h2.058V57.6a2.06,2.06,0,0,1,2.058-2.058H58.569A2.06,2.06,0,0,1,60.627,57.6v7.2h2.058V57.6a4.12,4.12,0,0,0-4.116-4.116H57.54V50.135a4.373,4.373,0,0,0,.812-1.121l.262-.526a9.363,9.363,0,0,0,.984-4.166V41.731a4.715,4.715,0,0,0-4.714-4.714h-2.92a4.713,4.713,0,0,0-4.714,4.714v2.591a9.363,9.363,0,0,0,.984,4.166l.262.526a4.373,4.373,0,0,0,.812,1.121v3.348H48.279a4.074,4.074,0,0,0-2.058.572V41.133A1.029,1.029,0,0,0,45.191,40.1H41.075V37.443l.429.429a4.18,4.18,0,0,0,4.867.7l9.17-5a3.832,3.832,0,0,0,2-3.366,3.481,3.481,0,0,0-5.172-3.043l-7.685,4.27-1.555-3.888c-.056-.139-.116-.276-.184-.412A5.331,5.331,0,0,0,39.2,24.273l-2.239-.449V22.339a7.224,7.224,0,0,0,2.784-3.845h.818A3.593,3.593,0,0,0,42.1,11.652V8.2a4.123,4.123,0,0,0-3.192-4.011A4.123,4.123,0,0,0,34.9,1H29.756a6.181,6.181,0,0,0-6.174,6.174v4.477a3.593,3.593,0,0,0,1.544,6.842h.818a7.22,7.22,0,0,0,2.784,3.845v1.526l-3.46.864a6.294,6.294,0,0,0-4.773,6.114V40.1a1.029,1.029,0,0,0-1.029,1.029ZM8.145,41.731A2.655,2.655,0,0,1,10.8,39.075h2.92a2.655,2.655,0,0,1,2.656,2.656v2.591a7.282,7.282,0,0,1-.767,3.246l-.262.526a2.288,2.288,0,0,1-2.058,1.272H11.232a2.288,2.288,0,0,1-2.058-1.272l-.262-.526a7.282,7.282,0,0,1-.767-3.246ZM10.2,51.293a4.378,4.378,0,0,0,1.029.131h2.058a4.378,4.378,0,0,0,1.029-.131v2.189H10.2Zm39.1-9.562a2.655,2.655,0,0,1,2.656-2.656h2.92a2.655,2.655,0,0,1,2.656,2.656v2.591a7.282,7.282,0,0,1-.767,3.246l-.262.526a2.288,2.288,0,0,1-2.058,1.272H52.395a2.288,2.288,0,0,1-2.058-1.272l-.262-.526a7.282,7.282,0,0,1-.767-3.246Zm2.058,9.562a4.378,4.378,0,0,0,1.029.131h2.058a4.378,4.378,0,0,0,1.029-.131v2.189H51.366ZM34.9,53.482H30.785V51.293a4.378,4.378,0,0,0,1.029.131h2.058a4.378,4.378,0,0,0,1.029-.131Zm2.058-9.16a7.282,7.282,0,0,1-.767,3.246l-.262.526a2.288,2.288,0,0,1-2.058,1.272H31.814a2.288,2.288,0,0,1-2.058-1.272l-.262-.526a7.282,7.282,0,0,1-.767-3.246V41.731a2.655,2.655,0,0,1,2.656-2.656H34.3a2.655,2.655,0,0,1,2.656,2.656ZM29.714,25.74l1.224.408L29.756,27.33l-1.28-1.28ZM36,25.731l1.277.255L35.93,27.33l-1.182-1.182Zm-3.244,5.111h.178l.561,6.174h-1.3Zm.09-3.69.94.94-.461.693h-.957l-.462-.693Zm20.526,1.81a1.423,1.423,0,0,1,2.114,1.244,1.776,1.776,0,0,1-.925,1.559l-1.015.554-1.5-2.621ZM41.1,28.052c.04.082.078.165.113.253l1.99,4.978a1.029,1.029,0,0,0,.611.588,1.041,1.041,0,0,0,.845-.07l5.584-3.1,1.49,2.607-6.347,3.463a2.082,2.082,0,0,1-2.428-.35L40.774,34.23a1.029,1.029,0,0,0-1.757.729V40.1h-.3a4.7,4.7,0,0,0-2.925-2.845c-.071-.024-.144-.033-.216-.054l-.647-7.123.347-.521a1,1,0,0,0,1.381-.049L39.6,26.571a3.283,3.283,0,0,1,1.5,1.481Zm-.541-11.616h-.515V13.349h.515a1.544,1.544,0,1,1,0,3.087ZM25.639,7.174a4.12,4.12,0,0,1,4.116-4.116H34.9a2.06,2.06,0,0,1,2.058,2.058,1.029,1.029,0,0,0,1.029,1.029A2.06,2.06,0,0,1,40.046,8.2v3.087a1.026,1.026,0,0,0-.3-.728L36.657,7.476a1.029,1.029,0,0,0-1.584.156,5.891,5.891,0,0,1-4.912,2.629H26.668a1.029,1.029,0,0,0-1.029,1.029Zm-.515,9.262a1.544,1.544,0,0,1,0-3.087h.515v3.087Zm2.573,0V12.32h2.465a7.942,7.942,0,0,0,5.859-2.571l1.967,1.968v4.719a5.145,5.145,0,1,1-10.291,0Zm5.145,7.2a7.158,7.158,0,0,0,2.058-.3v.591l-2.058.686-2.058-.686v-.591A7.158,7.158,0,0,0,32.843,23.639Zm-10.291,7.2a4.236,4.236,0,0,1,3.214-4.116l.381-.1,2.881,2.881a1,1,0,0,0,1.381.049l.347.521-.647,7.123c-.072.021-.145.03-.216.054A4.7,4.7,0,0,0,26.969,40.1h-.3V32.9H24.61v7.2H22.552Z" transform="translate(0.058 0)" fill="#12263f"/>
      <path id="Trazado_913052" data-name="Trazado 913052" d="M4.087,15.407h5.8l5.888,4.907a1.029,1.029,0,0,0,1.667-.993L16.66,15.4a3.089,3.089,0,0,0,2.863-3.078V4.087A3.091,3.091,0,0,0,16.436,1H4.087A3.091,3.091,0,0,0,1,4.087V12.32a3.091,3.091,0,0,0,3.087,3.087ZM3.058,4.087A1.031,1.031,0,0,1,4.087,3.058H16.436a1.031,1.031,0,0,1,1.029,1.029V12.32a1.031,1.031,0,0,1-1.029,1.029H15.407A1.029,1.029,0,0,0,14.4,14.579l.457,2.287L10.92,13.587a1.028,1.028,0,0,0-.659-.239H4.087A1.031,1.031,0,0,1,3.058,12.32Z" transform="translate(0 0)"/>
      <path id="Trazado_913053" data-name="Trazado 913053" d="M5,9H7.058v2.058H5Z" transform="translate(0.116 0.232)"/>
      <path id="Trazado_913054" data-name="Trazado 913054" d="M9,9h2.058v2.058H9Z" transform="translate(0.232 0.232)"/>
      <path id="Trazado_913055" data-name="Trazado 913055" d="M13,9h2.058v2.058H13Z" transform="translate(0.349 0.232)"/>
      <path id="Trazado_913056" data-name="Trazado 913056" d="M60.436,6H48.087A3.091,3.091,0,0,0,45,9.087V17.32A3.091,3.091,0,0,0,47.863,20.4l-.784,3.923a1.028,1.028,0,0,0,1.667.992l5.888-4.907h5.8a3.091,3.091,0,0,0,3.087-3.087V9.087A3.091,3.091,0,0,0,60.436,6Zm1.029,11.32a1.031,1.031,0,0,1-1.029,1.029H54.262a1.028,1.028,0,0,0-.659.239l-3.935,3.279.457-2.287a1.029,1.029,0,0,0-1.008-1.231H48.087a1.031,1.031,0,0,1-1.029-1.029V9.087a1.031,1.031,0,0,1,1.029-1.029H60.436a1.031,1.031,0,0,1,1.029,1.029Z" transform="translate(1.279 0.145)"/>
      <path id="Trazado_913057" data-name="Trazado 913057" d="M57,14h2.058v2.058H57Z" transform="translate(1.627 0.378)"/>
      <path id="Trazado_913058" data-name="Trazado 913058" d="M53,14h2.058v2.058H53Z" transform="translate(1.511 0.378)"/>
      <path id="Trazado_913059" data-name="Trazado 913059" d="M49,14h2.058v2.058H49Z" transform="translate(1.395 0.378)"/>
    </g>
  </g>
</svg>
