<svg xmlns="http://www.w3.org/2000/svg" xmlns:xlink="http://www.w3.org/1999/xlink" width="85" height="84.999" viewBox="0 0 85 84.999">
  <defs>
    <linearGradient id="linear-gradient" x1="0.5" y1="0.852" x2="0.5" gradientUnits="objectBoundingBox">
      <stop offset="0" stop-color="#fcb071"/>
      <stop offset="1" stop-color="#ffd884"/>
    </linearGradient>
  </defs>
  <g id="Grupo_1103695" data-name="Grupo 1103695" transform="translate(-705.348 -2439.853)">
    <path id="Trazado_911369" data-name="Trazado 911369" d="M298.4,99.851a42.5,42.5,0,1,0,42.5-42.5,42.5,42.5,0,0,0-42.5,42.5" transform="translate(406.948 2382.502)" fill="url(#linear-gradient)"/>
    <path id="Trazado_911407" data-name="Trazado 911407" d="M286.55,226.938c-.894,1.343-1.338,1.89-2.141,1.89s-1.247-.547-2.141-1.89c-.926-1.39-2.192-3.293-4.761-3.293s-3.835,1.9-4.76,3.293c-.894,1.343-1.338,1.89-2.14,1.89s-1.246-.547-2.14-1.89c-.925-1.39-2.193-3.293-4.76-3.293s-3.835,1.9-4.761,3.294c-.894,1.343-1.338,1.89-2.14,1.89s-1.246-.547-2.14-1.89c-.925-1.39-2.192-3.294-4.76-3.294a1.574,1.574,0,1,0,0,3.147c.8,0,1.246.547,2.14,1.89.925,1.39,2.192,3.293,4.76,3.293s3.835-1.9,4.76-3.293c.894-1.343,1.337-1.89,2.14-1.89s1.246.547,2.14,1.89c.925,1.39,2.192,3.294,4.76,3.294s3.835-1.9,4.76-3.294c.894-1.343,1.338-1.89,2.14-1.89s1.247.547,2.141,1.89c.926,1.39,2.193,3.293,4.761,3.293s3.835-1.9,4.761-3.293c.894-1.343,1.338-1.89,2.141-1.89a1.574,1.574,0,1,0,0-3.147c-2.568,0-3.835,1.9-4.761,3.293" transform="translate(457.014 2222.615)" fill="#92e8db"/>
    <g id="alumno" transform="translate(714.489 2459.854)">
      <g id="Grupo_1103146" data-name="Grupo 1103146" transform="translate(28.237 34.367)">
        <path id="Trazado_913387" data-name="Trazado 913387" d="M134.455,267.151v13.791a33.705,33.705,0,0,0-13.176-4.932v4.932h-2.3a2.787,2.787,0,0,0,2.786,2.786H117l2.711-10.6a6.853,6.853,0,0,1,3.664-4.467l3.639-1.757,3.5,3.15Z" transform="translate(-117 -266.9)" fill="#fc8775"/>
      </g>
      <g id="Grupo_1103147" data-name="Grupo 1103147" transform="translate(45.692 34.354)">
        <path id="Trazado_913388" data-name="Trazado 913388" d="M271.56,280.855H270.2v-2.861a38.359,38.359,0,0,0-14.1,2.861V267.064l3.915,2.886,3.5-3.15,3.639,1.757a6.889,6.889,0,0,1,3.664,4.467l2.71,10.6h-4.768A2.772,2.772,0,0,0,271.56,280.855Z" transform="translate(-256.1 -266.8)" fill="#fc8775"/>
      </g>
      <g id="Grupo_1103148" data-name="Grupo 1103148" transform="translate(35.468 16.698)">
        <path id="Trazado_913389" data-name="Trazado 913389" d="M186.553,139.151a10.25,10.25,0,0,1-11.846-8.8c-.151-.866-.05-3.024-.075-3.915.941-.1,2.221-.163,3.15-.339.025.941-.063,3.1.088,4A10.52,10.52,0,0,0,186.553,139.151Z" transform="translate(-174.622 -126.1)" fill="#f5c1a2"/>
      </g>
      <g id="Grupo_1103149" data-name="Grupo 1103149" transform="translate(38.627 12.018)">
        <path id="Trazado_913390" data-name="Trazado 913390" d="M217.064,93.832v2.635a10.248,10.248,0,0,1-8.5,10.064A10.548,10.548,0,0,1,199.8,96.166V93.481a10.853,10.853,0,0,0,7.065-4.681,10.772,10.772,0,0,0,8.019,4.819c.515.038,1.682.163,2.184.213Z" transform="translate(-199.796 -88.8)" fill="#f8d5c0"/>
      </g>
      <g id="Grupo_1103152" data-name="Grupo 1103152" transform="translate(31.744 16.61)">
        <g id="Grupo_1103150" data-name="Grupo 1103150" transform="translate(0 0)">
          <path id="Trazado_913391" data-name="Trazado 913391" d="M148.77,129.742h-1.682a2.171,2.171,0,0,1,.05-4.342c.3.577.991.489,1.556.414C148.708,126.73,148.632,128.889,148.77,129.742Z" transform="translate(-144.949 -125.4)" fill="#f5c1a2"/>
        </g>
        <g id="Grupo_1103151" data-name="Grupo 1103151" transform="translate(24.075)">
          <path id="Trazado_913392" data-name="Trazado 913392" d="M340.64,127.57a2.172,2.172,0,0,1-2.171,2.171H336.8c.138-.853.063-3.024.075-3.915.577.075,1.23.151,1.569-.427A2.169,2.169,0,0,1,340.64,127.57Z" transform="translate(-336.8 -125.399)" fill="#f5c1a2"/>
        </g>
      </g>
      <g id="Grupo_1103153" data-name="Grupo 1103153" transform="translate(41.651 29.297)">
        <path id="Trazado_913393" data-name="Trazado 913393" d="M231.981,230.026l-4.041,1.794-4.041-1.794.59-3.526a10.376,10.376,0,0,0,6.914,0Z" transform="translate(-223.9 -226.5)" fill="#f5c1a2"/>
      </g>
      <g id="Grupo_1103158" data-name="Grupo 1103158" transform="translate(39.868 17.87)">
        <g id="Grupo_1103155" data-name="Grupo 1103155">
          <g id="Grupo_1103154" data-name="Grupo 1103154">
            <path id="Trazado_913394" data-name="Trazado 913394" d="M210.393,137.776a.706.706,0,0,1-.653-.966,2.18,2.18,0,0,1,2.02-1.368c.991-.138,2.924,1.468,1.631,2.259a.705.705,0,0,1-.929-.376.772.772,0,0,0-1.418.013A.68.68,0,0,1,210.393,137.776Z" transform="translate(-209.689 -135.433)" fill="#4c5163"/>
          </g>
        </g>
        <g id="Grupo_1103157" data-name="Grupo 1103157" transform="translate(7.504)">
          <g id="Grupo_1103156" data-name="Grupo 1103156">
            <path id="Trazado_913395" data-name="Trazado 913395" d="M270.193,137.776a.706.706,0,0,1-.653-.966,2.18,2.18,0,0,1,2.02-1.368c.991-.138,2.924,1.468,1.631,2.259a.705.705,0,0,1-.929-.376.772.772,0,0,0-1.418.013A.68.68,0,0,1,270.193,137.776Z" transform="translate(-269.489 -135.433)" fill="#4c5163"/>
          </g>
        </g>
      </g>
      <g id="Grupo_1103160" data-name="Grupo 1103160" transform="translate(42.938 24.475)">
        <g id="Grupo_1103159" data-name="Grupo 1103159">
          <path id="Trazado_913396" data-name="Trazado 913396" d="M236.908,190.634a2.911,2.911,0,0,1-2.685-1.531.7.7,0,0,1,1.28-.577c.4.966,2.51.878,2.823-.025a.706.706,0,0,1,1.305.54A2.9,2.9,0,0,1,236.908,190.634Z" transform="translate(-234.154 -188.07)" fill="#4c5163"/>
        </g>
      </g>
      <g id="Grupo_1103161" data-name="Grupo 1103161" transform="translate(31.233 20.977)">
        <path id="Trazado_913397" data-name="Trazado 913397" d="M151.874,168.52l-.59,3.526-2-.878-2.058,1.807.69.615c-.126.075-4.091,1.958-4.028,1.97h-2.271a.746.746,0,0,1-.7-.991,50.707,50.707,0,0,0,2.61-14.368h1.682A10.2,10.2,0,0,0,151.874,168.52Z" transform="translate(-140.879 -160.2)" fill="#4a4a5e"/>
      </g>
      <g id="Grupo_1103162" data-name="Grupo 1103162" transform="translate(49.143 20.94)">
        <path id="Trazado_913398" data-name="Trazado 913398" d="M294.568,174.293a.746.746,0,0,1-.7.991h-2.271c.05-.025-3.878-1.882-4.028-1.958l.69-.627-2.07-1.807-2,.878-.59-3.526a10.229,10.229,0,0,0,6.676-8.345h1.681A50.715,50.715,0,0,0,294.568,174.293Z" transform="translate(-283.6 -159.9)" fill="#4a4a5e"/>
      </g>
      <g id="Grupo_1103163" data-name="Grupo 1103163" transform="translate(33.783 1.784)">
        <path id="Trazado_913399" data-name="Trazado 913399" d="M185.013,17.734v3.852a1.007,1.007,0,0,1-1.079.991c-.351-.025-1.117-.1-1.468-.138a11.283,11.283,0,0,1-9.361-4.957,11.288,11.288,0,0,1-9.361,4.944c-.351.025-1.117.113-1.468.138a1,1,0,0,1-1.079-.979V17.734c-.138-13.979,23.943-13.979,23.817,0Z" transform="translate(-161.195 -7.25)" fill="#4a4a5e"/>
      </g>
      <g id="Grupo_1103164" data-name="Grupo 1103164" transform="translate(37.598 31.945)">
        <path id="Trazado_913400" data-name="Trazado 913400" d="M199.694,250.273l-3.915,2.886c-.5-.452-3.765-3.4-4.179-3.765l2.058-1.794C194.737,248.077,198.677,249.821,199.694,250.273Z" transform="translate(-191.6 -247.6)" fill="#ffd884"/>
      </g>
      <g id="Grupo_1103165" data-name="Grupo 1103165" transform="translate(45.692 31.945)">
        <path id="Trazado_913401" data-name="Trazado 913401" d="M264.206,249.395c-.389.364-3.7,3.338-4.191,3.765l-3.915-2.886c.991-.452,4.969-2.209,6.036-2.673Z" transform="translate(-256.1 -247.6)" fill="#ffd884"/>
      </g>
      <g id="Grupo_1103166" data-name="Grupo 1103166" transform="translate(30.232 48.409)">
        <path id="Trazado_913402" data-name="Trazado 913402" d="M161.034,381.586H135.686A2.78,2.78,0,0,1,132.9,378.8h30.932A2.806,2.806,0,0,1,161.034,381.586Z" transform="translate(-132.9 -378.8)" fill="#e6965b"/>
      </g>
      <g id="Grupo_1103167" data-name="Grupo 1103167" transform="translate(32.516 43.465)">
        <path id="Trazado_913403" data-name="Trazado 913403" d="M151.1,344.332V339.4a33.511,33.511,0,0,1,13.176,4.932,38.4,38.4,0,0,1,14.1-2.849v2.849Z" transform="translate(-151.1 -339.4)" fill="#cbfaf4"/>
      </g>
      <g id="Grupo_1103168" data-name="Grupo 1103168" transform="translate(16.215 51.195)">
        <path id="Trazado_913404" data-name="Trazado 913404" d="M21.2,401H80.141v4.844H21.2Z" transform="translate(-21.2 -401)" fill="#114e0e"/>
      </g>
      <g id="Grupo_1103169" data-name="Grupo 1103169" transform="translate(20.093 56.038)">
        <path id="Trazado_913405" data-name="Trazado 913405" d="M52.1,439.6h51.2v8.32H52.1Z" transform="translate(-52.1 -439.6)" fill="#468261"/>
      </g>
      <g id="Grupo_1103170" data-name="Grupo 1103170" transform="translate(39.851 17.794)">
        <path id="Trazado_913406" data-name="Trazado 913406" d="M212.348,136.725a.7.7,0,0,0,1.292-.552,2.18,2.18,0,0,0-2.008-1.33c-1.016-.138-2.949,1.506-1.631,2.284a.712.712,0,0,0,.916-.389A.782.782,0,0,1,212.348,136.725Z" transform="translate(-209.557 -134.835)" fill="#231f20"/>
      </g>
      <g id="Grupo_1103171" data-name="Grupo 1103171" transform="translate(47.368 17.806)">
        <path id="Trazado_913407" data-name="Trazado 913407" d="M269.9,137.217a.7.7,0,0,0,.916-.389.767.767,0,0,1,.715-.477.757.757,0,0,1,.7.464.705.705,0,0,0,.929.376c1.293-.791-.627-2.384-1.631-2.259C270.516,134.782,268.584,136.439,269.9,137.217Z" transform="translate(-269.457 -134.923)" fill="#231f20"/>
      </g>
      <g id="Grupo_1103172" data-name="Grupo 1103172" transform="translate(42.931 24.399)">
        <path id="Trazado_913408" data-name="Trazado 913408" d="M234.509,187.573a.7.7,0,0,0-.351.929,3.122,3.122,0,0,0,5.408-.063.7.7,0,0,0-.376-.916.706.706,0,0,0-.916.376,1.751,1.751,0,0,1-2.823.025A.721.721,0,0,0,234.509,187.573Z" transform="translate(-234.094 -187.469)" fill="#231f20"/>
      </g>
      <g id="Grupo_1103173" data-name="Grupo 1103173" transform="translate(15.5 1)">
        <path id="Trazado_913409" data-name="Trazado 913409" d="M61.089,40.34a7.709,7.709,0,0,0-1.907-3.388,1.478,1.478,0,0,0,1.581-1.92,48.543,48.543,0,0,1-2.535-13.553,2.866,2.866,0,0,0,.063-5.509V12.206C58.291,5.618,53.108,1.013,45.68,1c-7.429.013-12.611,4.618-12.611,11.206v3.777a2.868,2.868,0,0,0,.063,5.509,47.9,47.9,0,0,1-1.355,9.487c-.339,1.38-.728,2.748-1.18,4.066a1.478,1.478,0,0,0,1.581,1.92,7.572,7.572,0,0,0-1.907,3.388L27.7,50.429H16.2a.7.7,0,0,0-.7.7v4.844a.7.7,0,0,0,.7.7h3.175V64.3a.7.7,0,0,0,.7.7h51.2a.7.7,0,0,0,.7-.7V56.678h3.175a.7.7,0,0,0,.7-.7V51.132a.7.7,0,0,0-.7-.7H63.674ZM37.849,45.36a30.686,30.686,0,0,1,5.233,2.271H33.206v-3.4A32.122,32.122,0,0,1,37.849,45.36ZM36.243,20.8c-.113-.728-.063-2.422-.075-3.187a12.092,12.092,0,0,0,9.5-4.455,11.53,11.53,0,0,0,8.006,4.317l1.493.151v2A9.5,9.5,0,0,1,36.243,20.8ZM42.5,31.82l.276-1.682a11.3,11.3,0,0,0,5.785,0c.063.376.314,1.845.364,2.183l-3.263,1.443L42.4,32.321Zm10.127,1.958c0,.013-3.074,2.748-3.074,2.761l-2.485-1.832L51.59,32.7l1.129.979ZM38.74,33.752l-.088-.075,1.117-.979,4.518,2L41.8,36.525C41.777,36.5,38.753,33.79,38.74,33.752ZM51.025,47.3a37.183,37.183,0,0,1,8.056-1.1v1.431H49.821C50.222,47.518,50.624,47.4,51.025,47.3Zm-18.02,3.112a2.105,2.105,0,0,1-1.97-1.38H60.311a2.093,2.093,0,0,1-1.97,1.38Zm28.159,0a3.887,3.887,0,0,0,.653-1.556l.4,1.556Zm.364-2.673c-.226-.163-.765-.1-1.042-.113V45.485a.639.639,0,0,0-.326-.577.592.592,0,0,0-.376-.125,38.612,38.612,0,0,0-5.634.452A39.64,39.64,0,0,0,46.382,47.3V35.961l2.8,2.058a.734.734,0,0,0,.891-.038c.59-.527,2.6-2.334,3.15-2.823.264.138,2.874,1.38,3.212,1.556a6.158,6.158,0,0,1,3.288,4ZM60.1,35.27l-.7.289H57.325c0-.013-2.874-1.38-2.974-1.443a.7.7,0,0,0-.088-.966l-2.071-1.807c-.5-.464-1.255.176-1.907.4-.038-.251-.314-1.857-.339-2.058A11.115,11.115,0,0,0,56.434,21.6h.389A50.551,50.551,0,0,0,59.445,35.5ZM58.943,18.719a1.462,1.462,0,0,1-1.468,1.468h-.9c.025-.389,0-2.02.025-2.434a1.911,1.911,0,0,0,1.154-.464A1.453,1.453,0,0,1,58.943,18.719Zm-24.47-6.513C34.4-.832,56.961-.832,56.885,12.206v3.852c0,.151-.088.276-.314.289l-2.685-.264A10.022,10.022,0,0,1,46.52,11.93c.314-.715,1.606-1.82.64-2.472a.7.7,0,0,0-.954.276c-.351.627-.728,1.255-1.129,1.845a10.331,10.331,0,0,1-8.533,4.593l-1.769.163c-.138.013-.213-.063-.289-.176a.26.26,0,0,1-.025-.1V12.206Zm-2.058,6.513a1.442,1.442,0,0,1,1.192-1.431,1.774,1.774,0,0,0,1.154.452c.025.339-.013,2,.013,2.447h-.9a1.467,1.467,0,0,1-1.456-1.468ZM31.926,35.5A50.551,50.551,0,0,0,34.549,21.6h.389a10.987,10.987,0,0,0,6.488,8.081l-.339,2.058c-.653-.226-1.418-.866-1.907-.4L37.121,33.15a.7.7,0,0,0-.088.966c-.389.188-2.635,1.267-2.961,1.443ZM31.638,40.7a6.145,6.145,0,0,1,3.288-4.016l3.212-1.556,3.15,2.836a.717.717,0,0,0,.891.038l2.8-2.058V47.066a33.463,33.463,0,0,0-10.93-4.129c-.653-.038-1.431-.464-2.008-.063a.715.715,0,0,0-.238.527v4.216H30.22a1.067,1.067,0,0,0-.389.113Zm-2.1,8.157a3.813,3.813,0,0,0,.653,1.556H29.14ZM70.576,63.593H20.783V56.678H70.576Zm3.878-8.332H16.905V51.822H74.441V55.26Z" transform="translate(-15.5 -1)" fill="#12263f"/>
      </g>
    </g>
  </g>
</svg>
