<svg xmlns="http://www.w3.org/2000/svg" xmlns:xlink="http://www.w3.org/1999/xlink" width="157.513" height="110.523" viewBox="0 0 157.513 110.523">
  <defs>
    <filter id="Trazado_911352" x="57.679" y="55.164" width="55.358" height="55.359" filterUnits="userSpaceOnUse">
      <feOffset dy="3" input="SourceAlpha"/>
      <feGaussianBlur stdDeviation="3" result="blur"/>
      <feFlood flood-opacity="0.161"/>
      <feComposite operator="in" in2="blur"/>
      <feComposite in="SourceGraphic"/>
    </filter>
  </defs>
  <g id="Grupo_1103692" data-name="Grupo 1103692" transform="translate(-898.399 -366.733)">
    <g transform="matrix(1, 0, 0, 1, 898.4, 366.73)" filter="url(#Trazado_911352)">
      <path id="Trazado_911352-2" data-name="Trazado 911352" d="M266.764,288.45a18.679,18.679,0,1,0,18.678-18.68,18.678,18.678,0,0,0-18.678,18.68" transform="translate(-200.08 -208.61)" fill="#92e8db"/>
    </g>
    <path id="Trazado_911353" data-name="Trazado 911353" d="M383.451,235.289c-3.16,4.749-4.73,6.683-7.568,6.683s-4.408-1.935-7.568-6.683c-3.273-4.914-7.751-11.644-16.833-11.644s-13.559,6.73-16.829,11.644c-3.161,4.749-4.73,6.683-7.566,6.683s-4.406-1.935-7.566-6.683c-3.271-4.914-7.752-11.644-16.83-11.644s-13.56,6.731-16.832,11.645c-3.16,4.747-4.73,6.682-7.565,6.682s-4.405-1.935-7.565-6.682c-3.271-4.914-7.751-11.645-16.83-11.645a5.563,5.563,0,1,0,0,11.127c2.836,0,4.405,1.933,7.565,6.683,3.271,4.914,7.751,11.644,16.83,11.644s13.559-6.73,16.83-11.644c3.16-4.75,4.729-6.683,7.567-6.683s4.405,1.933,7.566,6.682c3.27,4.916,7.749,11.645,16.83,11.645s13.559-6.73,16.829-11.645c3.161-4.749,4.731-6.682,7.566-6.682s4.408,1.935,7.568,6.683c3.273,4.914,7.752,11.644,16.833,11.644s13.56-6.73,16.832-11.644c3.161-4.749,4.73-6.683,7.568-6.683a5.563,5.563,0,1,0,0-11.127c-9.081,0-13.559,6.73-16.832,11.644" transform="translate(650.065 143.088)" fill="#92e8db"/>
  </g>
</svg>
