<svg xmlns="http://www.w3.org/2000/svg" width="66.551" height="12.445" viewBox="0 0 66.551 12.445">
  <path id="Trazado_911359" data-name="Trazado 911359" d="M305.422,228.565c-1.335,2.006-2,2.824-3.2,2.824s-1.862-.817-3.2-2.824c-1.383-2.076-3.275-4.92-7.112-4.92s-5.729,2.843-7.11,4.92c-1.336,2.006-2,2.824-3.2,2.824s-1.862-.817-3.2-2.824c-1.382-2.076-3.275-4.92-7.111-4.92s-5.729,2.844-7.112,4.92c-1.335,2.006-2,2.823-3.2,2.823s-1.861-.817-3.2-2.823c-1.382-2.076-3.275-4.92-7.111-4.92a2.351,2.351,0,1,0,0,4.7c1.2,0,1.861.817,3.2,2.824,1.382,2.076,3.275,4.92,7.111,4.92s5.729-2.843,7.111-4.92c1.335-2.007,2-2.824,3.2-2.824s1.861.817,3.2,2.823c1.382,2.077,3.274,4.92,7.111,4.92s5.729-2.843,7.11-4.92c1.336-2.006,2-2.823,3.2-2.823s1.862.817,3.2,2.824c1.383,2.076,3.275,4.92,7.112,4.92s5.729-2.843,7.112-4.92c1.336-2.006,2-2.824,3.2-2.824a2.351,2.351,0,1,0,0-4.7c-3.837,0-5.729,2.843-7.112,4.92" transform="translate(-248.334 -223.645)" fill="#fc8775"/>
</svg>
