<svg xmlns="http://www.w3.org/2000/svg" xmlns:xlink="http://www.w3.org/1999/xlink" width="103.394" height="103.332" viewBox="0 0 103.394 103.332">
  <defs>
    <linearGradient id="linear-gradient" x1="0.5" y1="0.852" x2="0.5" gradientUnits="objectBoundingBox">
      <stop offset="0" stop-color="#fcb071"/>
      <stop offset="1" stop-color="#ffd884"/>
    </linearGradient>
  </defs>
  <g id="Grupo_1103982" data-name="Grupo 1103982" transform="translate(-326.017 -9853.143)">
    <path id="Trazado_911369" data-name="Trazado 911369" d="M298.4,109.016a51.666,51.666,0,1,0,51.665-51.665A51.666,51.666,0,0,0,298.4,109.016" transform="translate(27.617 9795.792)" fill="url(#linear-gradient)"/>
    <path id="Trazado_911407" data-name="Trazado 911407" d="M294.793,227.649c-1.087,1.633-1.626,2.3-2.6,2.3s-1.516-.665-2.6-2.3c-1.125-1.69-2.665-4-5.788-4s-4.662,2.314-5.786,4c-1.087,1.633-1.626,2.3-2.6,2.3s-1.515-.665-2.6-2.3c-1.125-1.69-2.666-4-5.787-4s-4.663,2.314-5.787,4c-1.087,1.632-1.626,2.3-2.6,2.3s-1.515-.665-2.6-2.3c-1.125-1.69-2.665-4-5.787-4a1.913,1.913,0,1,0,0,3.826c.975,0,1.515.665,2.6,2.3,1.125,1.69,2.665,4,5.787,4s4.662-2.314,5.787-4c1.086-1.633,1.626-2.3,2.6-2.3s1.515.665,2.6,2.3c1.124,1.69,2.665,4,5.787,4s4.662-2.314,5.786-4c1.087-1.633,1.627-2.3,2.6-2.3s1.516.665,2.6,2.3c1.125,1.69,2.665,4,5.788,4s4.662-2.314,5.787-4c1.087-1.633,1.626-2.3,2.6-2.3a1.913,1.913,0,1,0,0-3.826c-3.122,0-4.662,2.314-5.787,4" transform="translate(77.683 9637.287)" fill="#92e8db"/>
    <g id="Document" transform="translate(360.546 9878.673)">
      <path id="Trazado_913854" data-name="Trazado 913854" d="M5,1H53.626V62.593H5Z" transform="translate(0.621 0.621)" fill="#92e8db"/>
      <path id="Trazado_913855" data-name="Trazado 913855" d="M9,5H57.626V66.593H9Z" transform="translate(3.104 3.104)" fill="#ffd884"/>
      <path id="Trazado_913856" data-name="Trazado 913856" d="M61.626,21.967V70.593H13V9H48.659V21.967Z" transform="translate(5.588 5.588)" fill="#fff"/>
      <circle id="Elipse_11559" data-name="Elipse 11559" cx="4.863" cy="4.863" r="4.863" transform="translate(25.071 24.313)" fill="#fcb071"/>
      <path id="Trazado_913857" data-name="Trazado 913857" d="M0,0H22.692V3.242H0Z" transform="translate(60.73 27.555) rotate(180)" fill="#7c6f66"/>
      <path id="Trazado_913858" data-name="Trazado 913858" d="M0,0H17.83V3.242H0Z" transform="translate(55.868 34.038) rotate(180)" fill="#7c6f66"/>
      <circle id="Elipse_11560" data-name="Elipse 11560" cx="4.863" cy="4.863" r="4.863" transform="translate(25.071 40.36)" fill="#fcb071"/>
      <path id="Trazado_913859" data-name="Trazado 913859" d="M0,0H22.692V3.242H0Z" transform="translate(60.73 43.601) rotate(180)" fill="#7c6f66"/>
      <path id="Trazado_913860" data-name="Trazado 913860" d="M0,0H17.83V3.242H0Z" transform="translate(55.868 50.085) rotate(180)" fill="#7c6f66"/>
      <circle id="Elipse_11561" data-name="Elipse 11561" cx="4.863" cy="4.863" r="4.863" transform="translate(25.071 56.73)" fill="#fcb071"/>
      <g id="Grupo_1103881" data-name="Grupo 1103881" transform="translate(38.038 14.588)">
        <path id="Trazado_913861" data-name="Trazado 913861" d="M0,0H22.692V3.242H0Z" transform="translate(22.692 45.384) rotate(180)" fill="#7c6f66"/>
        <path id="Trazado_913862" data-name="Trazado 913862" d="M0,0H17.83V3.242H0Z" transform="translate(17.83 51.868) rotate(180)" fill="#7c6f66"/>
        <path id="Trazado_913863" data-name="Trazado 913863" d="M47.967,21.967H35V9Z" transform="translate(-18.791 -9)" fill="#cbfaf4"/>
      </g>
      <path id="Trazado_913864" data-name="Trazado 913864" d="M68.429,26.485l-6.078-6.078V6.483H55.868V0H4V64.835h6.483v6.483h6.483V77.8H68.835C68.835,22.773,69.029,27.085,68.429,26.485Zm-5.122-.551h-7.44v-7.44ZM7.242,61.593V3.242H52.626V6.483H10.483V61.593Zm6.483,6.483V9.725H59.109v7.44l-3.242-3.242c-1.232-1.232-.535-.956-3.242-.956H16.967V68.076ZM65.593,74.56H20.209V16.209H52.626V29.176H65.593Z"/>
    </g>
  </g>
</svg>
