<svg xmlns="http://www.w3.org/2000/svg" xmlns:xlink="http://www.w3.org/1999/xlink" width="103.332" height="103.331" viewBox="0 0 103.332 103.331">
  <defs>
    <linearGradient id="linear-gradient" x1="0.5" y1="0.852" x2="0.5" gradientUnits="objectBoundingBox">
      <stop offset="0" stop-color="#fcb071"/>
      <stop offset="1" stop-color="#ffd884"/>
    </linearGradient>
  </defs>
  <g id="Grupo_1103984" data-name="Grupo 1103984" transform="translate(-1168.303 -1923.33)">
    <path id="Trazado_911369" data-name="Trazado 911369" d="M298.4,109.016a51.666,51.666,0,1,0,51.665-51.665A51.666,51.666,0,0,0,298.4,109.016" transform="translate(869.904 1865.979)" fill="url(#linear-gradient)"/>
    <path id="Trazado_911407" data-name="Trazado 911407" d="M294.793,227.649c-1.087,1.633-1.626,2.3-2.6,2.3s-1.516-.665-2.6-2.3c-1.125-1.69-2.665-4-5.788-4s-4.662,2.314-5.786,4c-1.087,1.633-1.626,2.3-2.6,2.3s-1.515-.665-2.6-2.3c-1.125-1.69-2.666-4-5.787-4s-4.663,2.314-5.787,4c-1.087,1.632-1.626,2.3-2.6,2.3s-1.515-.665-2.6-2.3c-1.125-1.69-2.665-4-5.787-4a1.913,1.913,0,1,0,0,3.826c.975,0,1.515.665,2.6,2.3,1.125,1.69,2.665,4,5.787,4s4.662-2.314,5.787-4c1.086-1.633,1.626-2.3,2.6-2.3s1.515.665,2.6,2.3c1.124,1.69,2.665,4,5.787,4s4.662-2.314,5.786-4c1.087-1.633,1.627-2.3,2.6-2.3s1.516.665,2.6,2.3c1.125,1.69,2.665,4,5.788,4s4.662-2.314,5.787-4c1.087-1.633,1.626-2.3,2.6-2.3a1.913,1.913,0,1,0,0-3.826c-3.122,0-4.662,2.314-5.787,4" transform="translate(919.969 1707.475)" fill="#92e8db"/>
    <g id="alfabeto-3" transform="translate(1193.894 1949)">
      <g id="Grupo_1103807" data-name="Grupo 1103807" transform="translate(1.135 1.136)">
        <g id="Grupo_1103806" data-name="Grupo 1103806">
          <g id="Grupo_1103805" data-name="Grupo 1103805">
            <g id="Grupo_1103791" data-name="Grupo 1103791" transform="translate(0 0)">
              <path id="Trazado_913781" data-name="Trazado 913781" d="M7.511,7.519H82.6v75.1H7.511Z" transform="translate(-7.511 -7.519)" fill="#fc8775"/>
            </g>
            <g id="Grupo_1103792" data-name="Grupo 1103792" transform="translate(0)">
              <path id="Trazado_913782" data-name="Trazado 913782" d="M11.06,79.068V7.519H7.511v75.1H82.6V79.068Z" transform="translate(-7.511 -7.519)" fill="#ea634e"/>
            </g>
            <g id="Grupo_1103793" data-name="Grupo 1103793" transform="translate(3.554 3.548)">
              <path id="Trazado_913783" data-name="Trazado 913783" d="M31.032,31H33.3v2.266H31.032Z" transform="translate(-31.032 -31)" fill="#fff"/>
            </g>
            <g id="Grupo_1103794" data-name="Grupo 1103794" transform="translate(8.082 3.548)">
              <path id="Trazado_913784" data-name="Trazado 913784" d="M61,31h2.266v2.266H61Z" transform="translate(-61 -31)" fill="#fff"/>
            </g>
            <g id="Grupo_1103795" data-name="Grupo 1103795" transform="translate(14.058 8.05)">
              <path id="Trazado_913785" data-name="Trazado 913785" d="M147.529,72.669V60.8H130.049a29.493,29.493,0,0,0,0,58.987h17.479V107.929h-17.6a17.63,17.63,0,0,1,0-35.26h17.6Z" transform="translate(-100.556 -60.799)" fill="#e5ecf5"/>
            </g>
            <g id="Grupo_1103798" data-name="Grupo 1103798" transform="translate(14.058 16.334)">
              <g id="Grupo_1103796" data-name="Grupo 1103796" transform="translate(13.617)">
                <path id="Trazado_913786" data-name="Trazado 913786" d="M207.695,115.627a17.908,17.908,0,0,0-17.014,13.3,17.629,17.629,0,0,1,15.756-9.714h17.6v-3.586H207.695Z" transform="translate(-190.681 -115.627)" fill="#cad8eb"/>
              </g>
              <g id="Grupo_1103797" data-name="Grupo 1103797" transform="translate(0 9.033)">
                <path id="Trazado_913787" data-name="Trazado 913787" d="M131.307,213.5a29.251,29.251,0,0,1-28.128-38.084,29.507,29.507,0,0,0,26.87,41.67h17.479V213.5Z" transform="translate(-100.556 -175.412)" fill="#cad8eb"/>
              </g>
            </g>
            <g id="Grupo_1103803" data-name="Grupo 1103803" transform="translate(26.954 13.864)">
              <g id="Grupo_1103800" data-name="Grupo 1103800" transform="translate(3.937)">
                <g id="Grupo_1103799" data-name="Grupo 1103799">
                  <path id="Trazado_913788" data-name="Trazado 913788" d="M213.014,102.312l-1.053-2.007c.4-.209.635-.336.8-.423a7.676,7.676,0,0,1,.923-.437l.4-.17.89,2.084-.4.172a5.9,5.9,0,0,0-.733.346C213.667,101.966,213.423,102.1,213.014,102.312Z" transform="translate(-211.961 -99.275)" fill="#fff"/>
                </g>
              </g>
              <g id="Grupo_1103802" data-name="Grupo 1103802" transform="translate(0 2.233)">
                <g id="Grupo_1103801" data-name="Grupo 1103801">
                  <path id="Trazado_913789" data-name="Trazado 913789" d="M187.308,117.216l-1.4-1.78c.27-.213.449-.356.577-.459a6.026,6.026,0,0,1,.785-.56c.129-.082.307-.194.569-.362l1.225,1.907c-.268.173-.451.288-.584.372a4.249,4.249,0,0,0-.578.413C187.769,116.851,187.585,117,187.308,117.216Z" transform="translate(-185.906 -114.055)" fill="#fff"/>
                </g>
              </g>
            </g>
            <g id="Grupo_1103804" data-name="Grupo 1103804" transform="translate(46.657 58.446)">
              <path id="Trazado_913790" data-name="Trazado 913790" d="M316.309,394.343h2.266v2.266h-2.266Z" transform="translate(-316.309 -394.343)" fill="#fff"/>
            </g>
          </g>
        </g>
      </g>
      <g id="Grupo_1103808" data-name="Grupo 1103808">
        <path id="Trazado_913791" data-name="Trazado 913791" d="M0,0V77.359H63.613V75.093H2.267V2.266H75.093V75.093h-4.68v2.266h6.947V0Z"/>
        <path id="Trazado_913792" data-name="Trazado 913792" d="M436.021,497h2.267v2.266h-2.267Z" transform="translate(-370.141 -421.908)"/>
        <path id="Trazado_913793" data-name="Trazado 913793" d="M142.295,53.277H123.681a30.626,30.626,0,0,0-17.7,55.618l1.311-1.848a28.359,28.359,0,0,1,16.392-51.5h16.347v9.6H123.561a18.623,18.623,0,0,0-11.092,3.627L113.81,70.6a16.37,16.37,0,0,1,9.75-3.188h18.734Z" transform="translate(-78.993 -45.227)"/>
        <path id="Trazado_913794" data-name="Trazado 913794" d="M175.21,204.665l-1.157,1.949a30.6,30.6,0,0,0,15.611,4.271h18.614V196.763H189.544a16.5,16.5,0,0,1-11.475-28.349l-1.577-1.628a18.761,18.761,0,0,0,13.051,32.243h16.467v9.59H189.664A28.33,28.33,0,0,1,175.21,204.665Z" transform="translate(-144.976 -141.586)"/>
      </g>
    </g>
  </g>
</svg>
