<svg xmlns="http://www.w3.org/2000/svg" xmlns:xlink="http://www.w3.org/1999/xlink" width="103.394" height="103.333" viewBox="0 0 103.394 103.333">
  <defs>
    <linearGradient id="linear-gradient" x1="0.5" y1="0.852" x2="0.5" gradientUnits="objectBoundingBox">
      <stop offset="0" stop-color="#fcb071"/>
      <stop offset="1" stop-color="#ffd884"/>
    </linearGradient>
  </defs>
  <g id="Grupo_1103984" data-name="Grupo 1103984" transform="translate(-1168.303 -9853.143)">
    <path id="Trazado_911369" data-name="Trazado 911369" d="M298.4,109.016a51.666,51.666,0,1,0,51.665-51.665A51.666,51.666,0,0,0,298.4,109.016" transform="translate(869.904 9795.792)" fill="url(#linear-gradient)"/>
    <path id="Trazado_911407" data-name="Trazado 911407" d="M294.793,227.649c-1.087,1.633-1.626,2.3-2.6,2.3s-1.516-.665-2.6-2.3c-1.125-1.69-2.665-4-5.788-4s-4.662,2.314-5.786,4c-1.087,1.633-1.626,2.3-2.6,2.3s-1.515-.665-2.6-2.3c-1.125-1.69-2.666-4-5.787-4s-4.663,2.314-5.787,4c-1.087,1.632-1.626,2.3-2.6,2.3s-1.515-.665-2.6-2.3c-1.125-1.69-2.665-4-5.787-4a1.913,1.913,0,1,0,0,3.826c.975,0,1.515.665,2.6,2.3,1.125,1.69,2.665,4,5.787,4s4.662-2.314,5.787-4c1.086-1.633,1.626-2.3,2.6-2.3s1.515.665,2.6,2.3c1.124,1.69,2.665,4,5.787,4s4.662-2.314,5.786-4c1.087-1.633,1.627-2.3,2.6-2.3s1.516.665,2.6,2.3c1.125,1.69,2.665,4,5.788,4s4.662-2.314,5.787-4c1.087-1.633,1.626-2.3,2.6-2.3a1.913,1.913,0,1,0,0-3.826c-3.122,0-4.662,2.314-5.787,4" transform="translate(919.969 9637.287)" fill="#92e8db"/>
    <g id="lista-de-verificacion" transform="translate(1193.894 9878.67)">
      <path id="Trazado_913865" data-name="Trazado 913865" d="M13.647,10h51.06a3.647,3.647,0,0,1,3.647,3.647V81.119a3.647,3.647,0,0,1-3.647,3.647H13.647A3.647,3.647,0,0,1,10,81.119V13.647A3.647,3.647,0,0,1,13.647,10Zm0,0" transform="translate(-8.48 -8.48)" fill="#92e8db"/>
      <path id="Trazado_913866" data-name="Trazado 913866" d="M85,50H96.2v62.609H50V50H61.195" transform="translate(-42.402 -42.402)" fill="#fff"/>
      <path id="Trazado_913867" data-name="Trazado 913867" d="M130.061,20.941h16.387a3.229,3.229,0,0,0,3.229-3.229V10H126.832v7.712A3.23,3.23,0,0,0,130.061,20.941Zm0,0" transform="translate(-107.558 -8.48)" fill="#ff6977"/>
      <path id="Trazado_913868" data-name="Trazado 913868" d="M130.061,20.941h16.387a3.229,3.229,0,0,0,3.229-3.229V10H126.832v7.712A3.23,3.23,0,0,0,130.061,20.941Zm0,0" transform="translate(-107.558 -8.48)" fill="#cbfaf4"/>
      <path id="Trazado_913869" data-name="Trazado 913869" d="M314.226,154.627l17.805-17.805a4.019,4.019,0,1,1,5.684,5.684L319.91,160.311l-10.246,4.561Zm0,0" transform="translate(-262.606 -115.031)" fill="#ffd884"/>
      <path id="Trazado_913870" data-name="Trazado 913870" d="M319.91,266.242l-5.684-5.684L309.664,270.8Zm0,0" transform="translate(-262.606 -220.963)" fill="#98a1b3"/>
      <path id="Trazado_913871" data-name="Trazado 913871" d="M449.676,144.46l1.954-1.954a4.019,4.019,0,1,0-5.684-5.684l-1.954,1.954Zm0,0" transform="translate(-376.521 -115.031)" fill="#fc8775"/>
      <path id="Trazado_913872" data-name="Trazado 913872" d="M98,130h9.726v9.726H98Zm0,0" transform="translate(-83.108 -110.245)" fill="#468261"/>
      <path id="Trazado_913873" data-name="Trazado 913873" d="M98,240h9.726v9.726H98Zm0,0" transform="translate(-83.108 -203.529)" fill="#468261"/>
      <path id="Trazado_913874" data-name="Trazado 913874" d="M98,350h9.726v9.726H98Zm0,0" transform="translate(-83.108 -296.813)" fill="#fc8775"/>
      <path id="Trazado_913875" data-name="Trazado 913875" d="M193.52,452a1.52,1.52,0,1,0,1.074.445A1.532,1.532,0,0,0,193.52,452Zm0,0" transform="translate(-162.823 -383.312)"/>
      <path id="Trazado_913876" data-name="Trazado 913876" d="M76.183,20.716a5.545,5.545,0,0,0-7.833,0l-6.957,6.957V5.167A5.173,5.173,0,0,0,56.227,0H5.167A5.173,5.173,0,0,0,0,5.167V72.639a5.173,5.173,0,0,0,5.167,5.167h51.06a5.173,5.173,0,0,0,5.167-5.167v-29.3l14.79-14.79A5.545,5.545,0,0,0,76.183,20.716ZM58.354,5.167V30.712l-3.039,3.039V7.6a1.52,1.52,0,0,0-1.52-1.52H43.639V3.039H56.227A2.13,2.13,0,0,1,58.354,5.167Zm-8.3,41.676,2.052-4.609,2.557,2.557ZM40.6,3.039V9.232a1.712,1.712,0,0,1-1.71,1.71H22.5a1.712,1.712,0,0,1-1.71-1.71V3.039ZM56.227,74.766H5.167a2.13,2.13,0,0,1-2.127-2.127V5.167A2.13,2.13,0,0,1,5.167,3.039H17.754V6.079H7.6A1.52,1.52,0,0,0,6.079,7.6V70.207a1.52,1.52,0,0,0,1.52,1.52h17.02a1.52,1.52,0,0,0,0-3.039H9.118V9.118h8.636v.114A4.754,4.754,0,0,0,22.5,13.981H38.89a4.754,4.754,0,0,0,4.749-4.749V9.118h8.636V36.791l-1.731,1.73a1.538,1.538,0,0,0-.313.456L45.67,49.223a1.52,1.52,0,0,0,2.006,2.007l4.6-2.048V68.688h-15.5a1.52,1.52,0,0,0,0,3.039H53.8a1.52,1.52,0,0,0,1.52-1.52V47.828l2.607-1.161a1.515,1.515,0,0,0,.433-.292V72.639A2.13,2.13,0,0,1,56.227,74.766Zm12.143-42.7L57.3,43.13,53.769,39.6l13.7-13.7,3.535,3.535ZM74.034,26.4l-.88.879L69.62,23.744l.879-.879A2.5,2.5,0,0,1,74.034,26.4Zm0,0"/>
      <path id="Trazado_913877" data-name="Trazado 913877" d="M99.245,120H89.52A1.52,1.52,0,0,0,88,121.52v9.726a1.52,1.52,0,0,0,1.52,1.52h9.726a1.52,1.52,0,0,0,1.52-1.52V121.52A1.52,1.52,0,0,0,99.245,120Zm-1.52,9.726H91.039v-6.686h6.686Zm0,0" transform="translate(-74.627 -101.764)"/>
      <path id="Trazado_913878" data-name="Trazado 913878" d="M99.245,230H89.52A1.52,1.52,0,0,0,88,231.52v9.726a1.52,1.52,0,0,0,1.52,1.52h9.726a1.52,1.52,0,0,0,1.52-1.52V231.52A1.52,1.52,0,0,0,99.245,230Zm-1.52,9.726H91.039v-6.686h6.686Zm0,0" transform="translate(-74.627 -195.048)"/>
      <path id="Trazado_913879" data-name="Trazado 913879" d="M99.245,340H89.52A1.52,1.52,0,0,0,88,341.52v9.726a1.52,1.52,0,0,0,1.52,1.52h9.726a1.52,1.52,0,0,0,1.52-1.52V341.52A1.52,1.52,0,0,0,99.245,340Zm-1.52,9.726H91.039v-6.686h6.686Zm0,0" transform="translate(-74.627 -288.332)"/>
      <path id="Trazado_913880" data-name="Trazado 913880" d="M212.227,138.881a1.519,1.519,0,0,0,2.149,0l6.861-6.861a1.52,1.52,0,1,0-2.149-2.149l-5.786,5.786L211,133.351a1.52,1.52,0,0,0-2.149,2.149Zm0,0" transform="translate(-176.732 -109.758)"/>
      <path id="Trazado_913881" data-name="Trazado 913881" d="M212.227,248.883a1.519,1.519,0,0,0,2.149,0l6.861-6.86a1.52,1.52,0,1,0-2.149-2.149L213.3,245.66,211,243.354a1.52,1.52,0,0,0-2.149,2.149Zm0,0" transform="translate(-176.732 -203.044)"/>
      <path id="Trazado_913882" data-name="Trazado 913882" d="M224.476,356.525l2.356,2.355a1.519,1.519,0,1,0,2.149-2.149l-2.355-2.356,2.355-2.356a1.519,1.519,0,1,0-2.149-2.149l-2.356,2.355-2.355-2.355a1.52,1.52,0,1,0-2.149,2.149l2.356,2.356-2.356,2.356a1.52,1.52,0,0,0,2.149,2.149Zm0,0" transform="translate(-186.166 -296.326)"/>
    </g>
  </g>
</svg>
