<svg xmlns="http://www.w3.org/2000/svg" xmlns:xlink="http://www.w3.org/1999/xlink" width="85" height="85" viewBox="0 0 85 85">
  <defs>
    <linearGradient id="linear-gradient" x1="0.5" y1="0.852" x2="0.5" gradientUnits="objectBoundingBox">
      <stop offset="0" stop-color="#fcb071"/>
      <stop offset="1" stop-color="#ffd884"/>
    </linearGradient>
  </defs>
  <g id="Grupo_1103891" data-name="Grupo 1103891" transform="translate(-704.949 -9300.304)">
    <g id="Grupo_1103880" data-name="Grupo 1103880">
      <path id="Trazado_911369" data-name="Trazado 911369" d="M298.4,99.851a42.5,42.5,0,1,0,42.5-42.5,42.5,42.5,0,0,0-42.5,42.5" transform="translate(406.55 9242.953)" fill="url(#linear-gradient)"/>
      <g id="educacion-en-linea" transform="translate(726 9325.353)">
        <path id="Trazado_913829" data-name="Trazado 913829" d="M288,401.984h21.983a2,2,0,0,0,2-2v-6a2,2,0,0,0-2-2H288Zm0,0" transform="translate(-252.029 -343.033)" fill="#92e8db"/>
        <path id="Trazado_913830" data-name="Trazado 913830" d="M53.964,123.47A22.982,22.982,0,1,0,8,123.47c0,.074.009.145.01.219s-.01.145-.01.219a22.982,22.982,0,1,0,45.964,0c0-.074-.01-.144-.01-.219S53.964,123.544,53.964,123.47Zm0,0" transform="translate(-7.001 -87.938)" fill="#92e8db"/>
        <path id="Trazado_913831" data-name="Trazado 913831" d="M121.562,309.987v5a1,1,0,0,1-1,1H119.1a1,1,0,0,1-.831-.444l-1.405-2.107a1,1,0,0,0-.831-.446h-1.742a1,1,0,0,0-.948.684l-2.974,8.922a22.972,22.972,0,0,0,26.183-4.095v-7.509a1,1,0,0,0-1-1h-3.462a1,1,0,0,1-.831-.444l-3.4-5.1a1,1,0,0,0-.831-.446h-4.461a1,1,0,0,0-1,1v3" transform="translate(-96.582 -266.024)" fill="#fc8775"/>
        <path id="Trazado_913832" data-name="Trazado 913832" d="M162.8,100.978l2.571-.263A22.933,22.933,0,0,0,162.8,100.978Zm0,0" transform="translate(-142.467 -88.136)" fill="#33c0db"/>
        <path id="Trazado_913833" data-name="Trazado 913833" d="M95.855,102.97a22.478,22.478,0,0,0-7.925,3.594,22.846,22.846,0,0,1,9.351-3.74Zm0,0" transform="translate(-76.947 -89.982)" fill="#33c0db"/>
        <path id="Trazado_913834" data-name="Trazado 913834" d="M72.673,114.413a1,1,0,0,0,.893.552h2.38a1,1,0,0,1,1,1v5a1,1,0,0,0,1,1h6.336a1,1,0,0,0,.918-.605l2.479-5.783a1,1,0,0,1,.918-.606h4.337a1,1,0,0,0,1-1V106.5a23.63,23.63,0,0,0-7.994-1.383c-.361,0-.72.01-1.077.026l-2.571.255A22.026,22.026,0,0,0,70.8,110.67Zm0,0" transform="translate(-61.958 -91.985)" fill="#fc8775"/>
        <path id="Trazado_913835" data-name="Trazado 913835" d="M47.962,124.092A23.929,23.929,0,0,0,41.762,108l-1.481,1.342a21.961,21.961,0,0,1,.686,28.686v-4.944a2,2,0,0,0-2-2H35.507l-3.4-5.1a2,2,0,0,0-1.663-.89H25.979a2,2,0,0,0-2,2v3h2v-3h4.461l3.4,5.105a2,2,0,0,0,1.663.89h3.462v7.068l-.128.122c-.4.369-.815.717-1.239,1.052-.128.1-.254.2-.383.3-.414.314-.838.607-1.271.889-.153.1-.306.2-.462.3-.43.265-.868.512-1.314.746-.166.087-.332.173-.5.257q-.685.337-1.392.626c-.161.066-.322.129-.485.191-.5.189-1,.362-1.506.514-.138.042-.278.08-.417.119-.542.151-1.089.283-1.643.393-.106.021-.213.038-.319.057-.592.107-1.187.2-1.79.253-.064.006-.128.009-.192.015-.644.055-1.294.09-1.95.09-.381,0-.761-.01-1.138-.029-.3-.015-.6-.041-.9-.068-.072-.007-.145-.01-.217-.017-.344-.035-.685-.08-1.023-.131l-.073-.01c-.335-.051-.666-.112-1-.178l-.092-.017c-.31-.064-.616-.137-.921-.213l-.16-.039c-.275-.071-.546-.151-.817-.233l-.263-.078c-.24-.076-.477-.158-.713-.242-.119-.042-.238-.083-.356-.127-.211-.079-.42-.163-.627-.248-.141-.058-.281-.115-.421-.176-.085-.037-.168-.076-.252-.114l2.692-8.074h1.742l1.405,2.108a2,2,0,0,0,1.663.89h1.464a2,2,0,0,0,2-2v-5h-2v5H22.517l-1.405-2.107a2,2,0,0,0-1.663-.89H17.707a1.994,1.994,0,0,0-1.894,1.366l-2.6,7.8A21.9,21.9,0,0,1,8.567,108.49L9.821,111a1.985,1.985,0,0,0,1.788,1.105h2.38v5a2,2,0,0,0,2,2h6.336a2,2,0,0,0,1.837-1.211l2.478-5.783h4.337a2,2,0,0,0,2-2v-2h-2v2H26.638a2,2,0,0,0-1.837,1.211L22.323,117.1H15.987v-5a2,2,0,0,0-2-2h-2.38l-1.5-3a22,22,0,0,1,3.624-2.439c.088-.046.175-.093.263-.138.5-.256,1-.5,1.523-.716.052-.022.107-.04.159-.061.45-.185.909-.352,1.374-.506.167-.056.335-.11.5-.161.481-.148.967-.284,1.462-.4.038-.009.076-.021.114-.029L18.982,102l-.294-1.306c-.032.007-.063.018-.1.026-.557.128-1.107.282-1.653.45-.194.06-.386.125-.578.189-.424.142-.846.3-1.262.465-.152.061-.305.117-.456.181q-.856.362-1.682.791l-.074.04c-.57.3-1.127.625-1.673.969l-.028.018a24.09,24.09,0,0,0-3,2.228.921.921,0,0,0-.114.14,23.93,23.93,0,0,0,5.234,39.36c.014.008.023.021.037.028.056.028.113.051.169.078.2.1.4.188.608.281.34.154.682.3,1.025.437.206.082.41.167.618.243.24.088.483.166.725.246.155.051.309.1.465.153.25.077.5.146.755.215.153.041.3.083.459.122.253.063.507.122.762.176q.243.052.487.1c.247.048.494.093.744.133.185.03.372.055.559.08.23.031.459.063.689.088s.478.043.718.061c.185.014.368.033.554.042.433.024.866.037,1.3.037.747,0,1.485-.039,2.215-.106.054,0,.108-.007.161-.012.69-.068,1.371-.171,2.042-.3.1-.018.2-.033.3-.053.633-.127,1.254-.283,1.868-.458.139-.04.279-.077.417-.119.576-.176,1.141-.377,1.7-.594.169-.066.339-.13.505-.2.529-.221,1.047-.464,1.557-.72.181-.091.361-.181.54-.277.5-.267.983-.554,1.46-.854.171-.108.341-.215.508-.326.482-.321.948-.662,1.405-1.015.146-.113.292-.225.435-.342.465-.379.915-.777,1.351-1.189.073-.069.153-.128.225-.2.014-.014.019-.033.033-.048A23.9,23.9,0,0,0,47.962,124.092Zm0,0" transform="translate(0 -88.123)"/>
        <path id="Trazado_913836" data-name="Trazado 913836" d="M58.482,275.48l-1.089-1.089a1,1,0,0,0-.949-.263l-2.765.691A1,1,0,0,1,52.6,274.4l-1.311-1.966a1,1,0,0,0-.83-.446H49a1,1,0,0,0-1,1v2.584a1,1,0,0,0,.293.706l3.411,3.411a1,1,0,0,0,.706.293h3.965a1,1,0,0,0,.893-.552l1.4-2.8A1,1,0,0,0,58.482,275.48Zm0,0" transform="translate(-42.005 -238.021)" fill="#fc8775"/>
        <path id="Trazado_913837" data-name="Trazado 913837" d="M49.374,273.984H45.41A2.01,2.01,0,0,1,44,273.4l-3.411-3.411A1.985,1.985,0,0,1,40,268.575v-2.584a2,2,0,0,1,2-2h1.464a2,2,0,0,1,1.663.89l1.311,1.967,2.766-.692a2.005,2.005,0,0,1,1.9.527l1.088,1.088a2,2,0,0,1,.375,2.307l-1.4,2.8A1.985,1.985,0,0,1,49.374,273.984ZM42,265.991v2.584l3.411,3.411h3.965l1.4-2.8L49.685,268.1l-2.766.691a2,2,0,0,1-2.146-.83l-1.311-1.967Zm0,0" transform="translate(-35.004 -231.02)"/>
        <path id="Trazado_913838" data-name="Trazado 913838" d="M265.829,227.62l-1.537-3.075a1,1,0,0,0-.894-.553H261.32a1,1,0,0,0-.555.168l-2.013,1.341a1,1,0,0,0-.34,1.278l1.474,2.948a1,1,0,0,0,.38.41l4.51,2.706a1,1,0,0,0,.514.142h2.721a1,1,0,0,0,1-1v-2.277a1,1,0,0,0-.684-.948l-1.921-.641A1,1,0,0,1,265.829,227.62Zm0,0" transform="translate(-226.045 -196.016)" fill="#fc8775"/>
        <path id="Trazado_913839" data-name="Trazado 913839" d="M261.01,226.983h-2.721a2,2,0,0,1-1.028-.284l-4.51-2.706a2,2,0,0,1-.759-.82l-1.475-2.947a2,2,0,0,1,.68-2.557l2.012-1.341a1.989,1.989,0,0,1,1.108-.336h2.077a1.985,1.985,0,0,1,1.788,1.106l1.536,3.071,0,0,1.921.641a2,2,0,0,1,1.367,1.9v2.277A2,2,0,0,1,261.01,226.983Zm-4.614-8.993h-2.077l-2.013,1.341,1.475,2.947,4.508,2.706h2.721v-2.277l-1.922-.641a1.988,1.988,0,0,1-1.154-1h0Zm0,0" transform="translate(-219.044 -189.015)"/>
        <path id="Trazado_913840" data-name="Trazado 913840" d="M224,64.31l9.992,3.452,9.992-3.452V57.77l-3.754-1.117a21.977,21.977,0,0,0-12.634.029L224,57.77Zm0,0" transform="translate(-196.022 -48.779)" fill="#9c9792"/>
        <path id="Trazado_913841" data-name="Trazado 913841" d="M156.983,7.992,136,15.986l10.991,5v-5l3.675-1.1a21.985,21.985,0,0,1,12.633,0l3.676,1.1v5l10.991-5Zm0,0" transform="translate(-119.013 -6.995)" fill="#706d69"/>
        <path id="Trazado_913842" data-name="Trazado 913842" d="M456,132.988v-3a2,2,0,0,1,4,0v3" transform="translate(-399.045 -112.007)" fill="#468261"/>
        <path id="Trazado_913843" data-name="Trazado 913843" d="M454,125.987h-2v-3a1,1,0,0,0-2,0v3h-2v-3a3,3,0,0,1,6,0Zm0,0" transform="translate(-392.044 -105.006)"/>
        <path id="Trazado_913844" data-name="Trazado 913844" d="M464,191.992h2v3h-2Zm0,0" transform="translate(-406.046 -168.013)"/>
        <path id="Trazado_913845" data-name="Trazado 913845" d="M483.086,182.582l1.731-1,1.5,2.6-1.731,1Zm0,0" transform="translate(-422.748 -158.903)"/>
        <path id="Trazado_913846" data-name="Trazado 913846" d="M435.07,184.182l1.5-2.6,1.731,1-1.5,2.6Zm0,0" transform="translate(-380.73 -158.907)"/>
        <path id="Trazado_913847" data-name="Trazado 913847" d="M171.956,8.991c0-.011,0-.021,0-.031a1,1,0,0,0-.643-.9L150.334.065a1,1,0,0,0-.712,0L128.639,8.058a1,1,0,0,0-.058,1.842l10.407,4.73v.9a1,1,0,0,0,.673.944l9.992,3.452a1,1,0,0,0,.326.054.981.981,0,0,0,.326-.055l9.992-3.452a1,1,0,0,0,.673-.944v-.9l8.993-4.088v3.445h2v-5Zm-12.985,5.828-8.993,3.107-8.993-3.107V9.735l2.963-.889a20.956,20.956,0,0,1,4.5-.831c.064-.005.128,0,.192-.007.113-.007.226-.007.34-.012l0,6.991h2l0-6.991.169.006c.093,0,.186,0,.279.01a21.046,21.046,0,0,1,4.5.822l3.04.9Zm2-2.384V8.991a1,1,0,0,0-.052-.318,1.084,1.084,0,0,0-.1-.186.938.938,0,0,0-.049-.093.941.941,0,0,0-.144-.141,1.127,1.127,0,0,0-.081-.079.973.973,0,0,0-.132-.064,1.085,1.085,0,0,0-.157-.077l-3.676-1.1a23.052,23.052,0,0,0-5.019-.914l-.046,0c-.512-.034-1.024-.055-1.538-.055l-.05,0c-.358,0-.715.022-1.071.039-.187.009-.375.008-.562.022a22.98,22.98,0,0,0-5,.925l-3.558,1.077-.035.01h0a.977.977,0,0,0-.229.112c-.018.011-.041.016-.058.028a1,1,0,0,0-.423.815v3.445l-7.4-3.363,18.389-7.006,18.389,7.005Zm0,0" transform="translate(-112.009)"/>
        <path id="Trazado_913848" data-name="Trazado 913848" d="M392,247.992h9.992a2,2,0,0,1,2,2v6a2,2,0,0,1-2,2H392Zm0,0" transform="translate(-343.039 -217.019)" fill="#fcb071"/>
        <path id="Trazado_913849" data-name="Trazado 913849" d="M408,391.992h4v9.992h-4Zm0,0" transform="translate(-357.04 -343.033)" fill="#cbfaf4"/>
        <path id="Trazado_913850" data-name="Trazado 913850" d="M392,327.992h11.99a2,2,0,0,1,2,2v4a2,2,0,0,1-2,2H392Zm0,0" transform="translate(-343.039 -287.027)" fill="#468261"/>
        <path id="Trazado_913851" data-name="Trazado 913851" d="M432,327.992h4v7.994h-4Zm0,0" transform="translate(-378.043 -287.027)" fill="#c5d998"/>
        <path id="Trazado_913852" data-name="Trazado 913852" d="M408,247.992h4v9.992h-4Zm0,0" transform="translate(-357.04 -217.019)" fill="#ffd884"/>
        <path id="Trazado_913853" data-name="Trazado 913853" d="M313.759,250.1a2.98,2.98,0,0,0,.22-1.115v-6a3,3,0,0,0-3-3H300.99v2h1v7.994h-1v2h4v6h-6.994v2h4v7.994H288v2h21.983a3,3,0,0,0,3-3v-6a2.96,2.96,0,0,0-.184-1h.184a3,3,0,0,0,3-3v-4A2.992,2.992,0,0,0,313.759,250.1Zm-1.778-7.111v6a1,1,0,0,1-1,1h-3v-7.994h3A1,1,0,0,1,311.981,242.99Zm-7.994-1h2v7.994h-2Zm3,9.992h2v6h-2Zm-3,15.987v-7.994h2v7.994Zm6.994-6.994v6a1,1,0,0,1-1,1h-2v-7.994h2A1,1,0,0,1,310.982,260.976Zm3-4a1,1,0,0,1-1,1h-2v-6h2a1,1,0,0,1,1,1Zm0,0" transform="translate(-252.029 -210.018)"/>
      </g>
    </g>
    <path id="Trazado_911407" data-name="Trazado 911407" d="M286.55,226.938c-.894,1.343-1.338,1.89-2.141,1.89s-1.247-.547-2.141-1.89c-.926-1.39-2.192-3.293-4.761-3.293s-3.835,1.9-4.76,3.293c-.894,1.343-1.338,1.89-2.14,1.89s-1.246-.547-2.14-1.89c-.925-1.39-2.193-3.293-4.76-3.293s-3.835,1.9-4.761,3.294c-.894,1.343-1.338,1.89-2.14,1.89s-1.246-.547-2.14-1.89c-.925-1.39-2.192-3.294-4.76-3.294a1.574,1.574,0,1,0,0,3.147c.8,0,1.246.547,2.14,1.89.925,1.39,2.192,3.293,4.76,3.293s3.835-1.9,4.76-3.293c.894-1.343,1.337-1.89,2.14-1.89s1.246.547,2.14,1.89c.925,1.39,2.192,3.294,4.76,3.294s3.835-1.9,4.76-3.294c.894-1.343,1.338-1.89,2.14-1.89s1.247.547,2.141,1.89c.926,1.39,2.193,3.293,4.761,3.293s3.835-1.9,4.761-3.293c.894-1.343,1.338-1.89,2.141-1.89a1.574,1.574,0,1,0,0-3.147c-2.568,0-3.835,1.9-4.761,3.293" transform="translate(456.615 9083.066)" fill="#92e8db"/>
  </g>
</svg>
