<svg xmlns="http://www.w3.org/2000/svg" xmlns:xlink="http://www.w3.org/1999/xlink" width="103.331" height="103.333" viewBox="0 0 103.331 103.333">
  <defs>
    <linearGradient id="linear-gradient" x1="0.5" y1="0.852" x2="0.5" gradientUnits="objectBoundingBox">
      <stop offset="0" stop-color="#fcb071"/>
      <stop offset="1" stop-color="#ffd884"/>
    </linearGradient>
  </defs>
  <g id="Grupo_1103983" data-name="Grupo 1103983" transform="translate(-748.304 -9853.143)">
    <path id="Trazado_911369" data-name="Trazado 911369" d="M298.4,109.016a51.666,51.666,0,1,0,51.665-51.665A51.666,51.666,0,0,0,298.4,109.016" transform="translate(449.904 9795.792)" fill="url(#linear-gradient)"/>
    <g id="Filled_outline" data-name="Filled outline" transform="translate(757.894 9862.734)">
      <path id="Trazado_913883" data-name="Trazado 913883" d="M184.661,64.211l-.428,3.847-.288,2.591H147.666l-.288-2.591-.428-3.847a19.936,19.936,0,0,1,1.49-10.053,19.955,19.955,0,0,0,1.587-8.848l-.225-4.483a16.023,16.023,0,1,1,32.007,0l-.225,4.483a19.955,19.955,0,0,0,1.587,8.848,19.926,19.926,0,0,1,1.49,10.053Z" transform="translate(-109.639 -6.709)" fill="#8f4d2e"/>
      <path id="Trazado_913884" data-name="Trazado 913884" d="M262.122,64.206l-.428,3.847H247.154V53.8l2.591-5.183V38.252A14.267,14.267,0,0,0,239.26,24.5a16.041,16.041,0,0,1,20.01,16.319l-.225,4.483a19.955,19.955,0,0,0,1.587,8.848A19.925,19.925,0,0,1,262.122,64.206Z" transform="translate(-187.101 -6.703)" fill="#82462a"/>
      <path id="Trazado_913885" data-name="Trazado 913885" d="M224.066,226.365a1.813,1.813,0,0,1-1.814-1.814V216H211.887v8.551a1.813,1.813,0,0,1-1.814,1.814H208v7.774h18.14v-7.774Z" transform="translate(-160.904 -167.608)" fill="#fec9a3"/>
      <path id="Trazado_913886" data-name="Trazado 913886" d="M237.964,222.478a7.109,7.109,0,0,0,4.4-1.588V216H232v4.89a7.109,7.109,0,0,0,4.4,1.589Z" transform="translate(-181.017 -167.608)" fill="#feb784"/>
      <path id="Trazado_913887" data-name="Trazado 913887" d="M215.322,87.774v6.478a11.661,11.661,0,0,1-23.322,0V87.774A17.578,17.578,0,0,0,197.976,81l.5-1,.735.614a32.351,32.351,0,0,0,16.109,7.16Z" transform="translate(-147.495 -53.635)" fill="#fec9a3"/>
      <path id="Trazado_913888" data-name="Trazado 913888" d="M287.189,121.874v6.478a11.666,11.666,0,0,1-9.433,11.449,14.2,14.2,0,0,0,4.251-10.153V120.69A32.311,32.311,0,0,0,287.189,121.874Z" transform="translate(-219.361 -87.734)" fill="#fec093"/>
      <path id="Trazado_913889" data-name="Trazado 913889" d="M224,312h12.957v9.07H224Z" transform="translate(-174.312 -248.06)" fill="#e0e0de"/>
      <path id="Trazado_913890" data-name="Trazado 913890" d="M136.141,313.634a3.933,3.933,0,0,1-4.368-2.609l-8.558-16.055a10.09,10.09,0,0,1-1.807,9.648v10.365H98.085V304.618A10.106,10.106,0,0,1,96.3,294.85l-8.7,16.175a3.931,3.931,0,1,1-7.465-2.468l9.514-23.68A7.772,7.772,0,0,1,96.863,280h5.11l7.774,14.253L117.521,280h5.09a7.781,7.781,0,0,1,7.223,4.9l9.405,23.654a3.934,3.934,0,0,1-3.1,5.077Z" transform="translate(-53.581 -221.242)" fill="#fc8775"/>
      <path id="Trazado_913891" data-name="Trazado 913891" d="M74.163,396.149,75.1,384h7.774v12.483a4.361,4.361,0,1,1-8.709-.334Z" transform="translate(-48.733 -308.398)" fill="#f59898"/>
      <path id="Trazado_913892" data-name="Trazado 913892" d="M36.118,266.908a2.52,2.52,0,0,0-1.643,3.572l1.186,2.372H31.018a7.774,7.774,0,0,1-3.477-.821l-1.291-.646A1.555,1.555,0,0,0,24,272.777v3.657a2.591,2.591,0,0,0,1.433,2.318l2.109,1.055a7.775,7.775,0,0,0,3.477.821h9.826v-7.774l-1.774-4.436a2.52,2.52,0,0,0-2.952-1.508Z" transform="translate(-6.704 -210.208)" fill="#fec9a3"/>
      <path id="Trazado_913893" data-name="Trazado 913893" d="M80,352h7.774v5.183H80Z" transform="translate(-53.635 -281.581)" fill="#e0e0de"/>
      <path id="Trazado_913894" data-name="Trazado 913894" d="M232.26,317.188a3.933,3.933,0,0,1-4.368-2.609l-8.558-16.055a10.09,10.09,0,0,1-1.807,9.648v10.366h-22.9c10.694-6.984,19.717-15.846,27.29-34.3a7.762,7.762,0,0,1,4.033,4.216l9.405,23.654a3.934,3.934,0,0,1-3.1,5.077Z" transform="translate(-149.699 -224.796)" fill="#ea6551"/>
      <path id="Trazado_913895" data-name="Trazado 913895" d="M308.957,356.731,296,354.14V336l12.957,2.591Z" transform="translate(-234.651 -268.173)" fill="#a36548"/>
      <path id="Trazado_913896" data-name="Trazado 913896" d="M408,356.731l12.957-2.591V336L408,338.591Z" transform="translate(-328.512 -268.173)" fill="#8f4d2e"/>
      <path id="Trazado_913897" data-name="Trazado 913897" d="M376,352h5.183v18.14H376Z" transform="translate(-301.694 -281.581)" fill="#95573a"/>
      <path id="Trazado_913898" data-name="Trazado 913898" d="M311.548,318.478a4.589,4.589,0,0,0-3.834-4.526L296,312v3.887l12.957,2.591h2.591a4.589,4.589,0,0,1,3.834-4.526L327.1,312v3.887l-12.957,2.591Z" transform="translate(-234.651 -248.06)" fill="#d4bd81"/>
      <path id="Trazado_913899" data-name="Trazado 913899" d="M438.691,423.652l-5.183.864A1.3,1.3,0,0,1,432,423.238v-4.816a1.687,1.687,0,0,1,1.409-1.664l4.4-.733a1.687,1.687,0,0,1,1.964,1.664v4.685a1.3,1.3,0,0,1-1.083,1.278Z" transform="translate(-348.625 -335.217)" fill="#fec9a3"/>
      <path id="Trazado_913900" data-name="Trazado 913900" d="M217.944,136a1.944,1.944,0,1,0,1.944,1.944A1.944,1.944,0,0,0,217.944,136Z" transform="translate(-167.608 -100.565)"/>
      <path id="Trazado_913901" data-name="Trazado 913901" d="M289.943,136a1.944,1.944,0,1,0,1.944,1.944A1.943,1.943,0,0,0,289.943,136Z" transform="translate(-227.947 -100.565)"/>
      <path id="Trazado_913902" data-name="Trazado 913902" d="M243.887,177.3a1.3,1.3,0,0,1-1.3-1.3H240a3.887,3.887,0,1,0,7.774,0h-2.591A1.3,1.3,0,0,1,243.887,177.3Z" transform="translate(-187.721 -134.086)"/>
      <path id="Trazado_913903" data-name="Trazado 913903" d="M93.283,62.952a1.3,1.3,0,0,0-1.05-.29L80.518,64.615a5.9,5.9,0,0,0-2.17.822l-.893-2.254A8.63,8.63,0,0,0,75.968,60.7l.338-3.064a22.441,22.441,0,0,0,.137-2.351,21.146,21.146,0,0,0-1.724-8.349,18.715,18.715,0,0,1-1.478-8.276l.22-4.485c.013-.283.027-.575.027-.865a17.32,17.32,0,1,0-34.618.866l.22,4.47c.013.334.025.649.025.961a18.471,18.471,0,0,1-1.5,7.329,21.172,21.172,0,0,0-1.587,10.709l.337,3.022a8.8,8.8,0,0,0-1.026,1.484l-1.769-4.422a3.816,3.816,0,1,0-6.957,3.124l.249.5H24.314a6.511,6.511,0,0,1-2.9-.684l-1.291-.646A2.851,2.851,0,0,0,16,62.569v3.657A3.866,3.866,0,0,0,18.149,69.7l2.109,1.055a9.116,9.116,0,0,0,4.056.958h.756v3.837l-.931,12.1a5.656,5.656,0,0,0,5.64,6.09q.144,0,.286-.007c.083,0,.165.007.247.007a5.215,5.215,0,0,0,4.9-3.426l5.914-11a11.333,11.333,0,0,0,2.083,4.511v9.912H45.8V83.376a1.3,1.3,0,0,0-.3-.829,8.834,8.834,0,0,1,1.13-12.428l-1.659-1.991a11.421,11.421,0,0,0-1.61,1.643,1.334,1.334,0,0,0-.134.162l0,0-.023.04c-.006.009-.011.019-.016.028A11.345,11.345,0,0,0,41.5,73.149L35.435,84.428V68.687L37.276,64.1a6.21,6.21,0,0,1,1.364-2.091,6.558,6.558,0,0,1,4.647-1.958h4.336l7.406,13.577a1.3,1.3,0,0,0,2.275,0l2.75-5.041V85.967a1.3,1.3,0,0,0,1.042,1.271l5.437,1.087v5.416h2.591v-4.9l4.957.99c.032.006.183.021.225.021h2.451l.249.464a5.249,5.249,0,0,0,4.919,3.424,4.877,4.877,0,0,0,.854-.071,5.251,5.251,0,0,0,4.056-3.383l3.446-.574a2.581,2.581,0,0,0,2.159-2.423l.259-.052a1.3,1.3,0,0,0,1.043-1.271V63.94a1.3,1.3,0,0,0-.458-.988ZM50.428,59.785a3.112,3.112,0,0,0,1.851-2.842V52.978a12.963,12.963,0,0,0,7.774,0v3.965A3.112,3.112,0,0,0,61.9,59.785l-1.559,2.86H51.988Zm5.738-8.8A10.377,10.377,0,0,1,45.8,40.618v-5.8a18.928,18.928,0,0,0,5.608-6.42,33.562,33.562,0,0,0,15.123,6.847v5.374A10.377,10.377,0,0,1,56.166,50.983Zm17.51,11.05.024.025a6,6,0,0,1,1.344,2.075l.557,1.405a5.893,5.893,0,0,0-2.325-.923L63.143,62.926l1.567-2.873h4.323A6.419,6.419,0,0,1,73.676,62.033Zm.757,7.09-5.9-1.179-5.9-1.179v-1.3l10.205,1.7a3.282,3.282,0,0,1,2.49,1.953Zm6.511-1.952,10.2-1.7v1.3l-6.094,1.219-5.7,1.139h-.9a3.282,3.282,0,0,1,2.489-1.952ZM21.416,68.439l-2.109-1.054a1.289,1.289,0,0,1-.716-1.159V62.569a.259.259,0,0,1,.375-.232l1.291.646a9.116,9.116,0,0,0,4.056.958h4.643a1.3,1.3,0,0,0,1.159-1.875L28.93,59.693a1.225,1.225,0,1,1,2.232-1l1.682,4.2v6.229h-8.53a6.511,6.511,0,0,1-2.9-.684Zm11.427,3.275v2.591H27.661V71.714ZM26.723,87.85,27.565,76.9h5.279V88.085A3.067,3.067,0,0,1,30,91.138a1.323,1.323,0,0,0-.146.007c-.026,0-.05,0-.076,0a3.065,3.065,0,0,1-3.056-3.3ZM43.23,69.934a1.3,1.3,0,0,1,.082-.1l-.079.1ZM38.75,58.686,38.6,57.354a18.577,18.577,0,0,1,1.393-9.4,21.047,21.047,0,0,0,1.712-8.35c0-.362-.014-.717-.028-1.074l-.22-4.484A14.729,14.729,0,1,1,70.9,33.31c0,.228-.012.478-.024.74l-.22,4.48a21.316,21.316,0,0,0,1.683,9.425,18.57,18.57,0,0,1,1.515,7.33,19.849,19.849,0,0,1-.122,2.073l-.147,1.335a9.062,9.062,0,0,0-4.551-1.232H63.163a.525.525,0,0,1-.518-.518V51.832a12.961,12.961,0,0,0,6.478-11.214V34.14a1.3,1.3,0,0,0-1.113-1.283,30.979,30.979,0,0,1-15.462-6.873l-.736-.613a1.3,1.3,0,0,0-1.988.416l-.5,1a16.323,16.323,0,0,1-5.536,6.271,1.3,1.3,0,0,0-.577,1.078v6.478a12.961,12.961,0,0,0,6.478,11.214v5.112a.525.525,0,0,1-.518.518H43.287a9.128,9.128,0,0,0-4.537,1.224ZM56.166,70.3,53.4,65.236h5.529Zm6.478-.9L73.01,71.481v15.5L62.645,84.9ZM75.6,71.714h2.591V87.263H75.6Zm6.732,19.4a2.317,2.317,0,0,1-.409.032,2.655,2.655,0,0,1-2.284-1.306l.073-.011.029,0h0l.009,0,2.663-.533a2.558,2.558,0,0,0,1.3,1.136A2.7,2.7,0,0,1,82.334,91.117Zm7.52-3.961-5.183.864V83.2A.39.39,0,0,1,85,82.819l4.4-.734a.423.423,0,0,1,.066-.006.391.391,0,0,1,.389.391v4.685Zm-.881-7.627-4.4.733A2.973,2.973,0,0,0,82.08,83.2v3.515l-1.3.259v-15.5L91.15,69.408v10.6a2.974,2.974,0,0,0-2.177-.483Z" transform="translate(0)"/>
    </g>
  </g>
</svg>
