<svg xmlns="http://www.w3.org/2000/svg" xmlns:xlink="http://www.w3.org/1999/xlink" width="103.332" height="103.331" viewBox="0 0 103.332 103.331">
  <defs>
    <linearGradient id="linear-gradient" x1="0.5" y1="0.852" x2="0.5" gradientUnits="objectBoundingBox">
      <stop offset="0" stop-color="#fcb071"/>
      <stop offset="1" stop-color="#ffd884"/>
    </linearGradient>
  </defs>
  <g id="Grupo_1103982" data-name="Grupo 1103982" transform="translate(-326.017 -1923.33)">
    <path id="Trazado_911369" data-name="Trazado 911369" d="M298.4,109.016a51.666,51.666,0,1,0,51.665-51.665A51.666,51.666,0,0,0,298.4,109.016" transform="translate(27.617 1865.979)" fill="url(#linear-gradient)"/>
    <path id="Trazado_911407" data-name="Trazado 911407" d="M294.793,227.649c-1.087,1.633-1.626,2.3-2.6,2.3s-1.516-.665-2.6-2.3c-1.125-1.69-2.665-4-5.788-4s-4.662,2.314-5.786,4c-1.087,1.633-1.626,2.3-2.6,2.3s-1.515-.665-2.6-2.3c-1.125-1.69-2.666-4-5.787-4s-4.663,2.314-5.787,4c-1.087,1.632-1.626,2.3-2.6,2.3s-1.515-.665-2.6-2.3c-1.125-1.69-2.665-4-5.787-4a1.913,1.913,0,1,0,0,3.826c.975,0,1.515.665,2.6,2.3,1.125,1.69,2.665,4,5.787,4s4.662-2.314,5.787-4c1.086-1.633,1.626-2.3,2.6-2.3s1.515.665,2.6,2.3c1.124,1.69,2.665,4,5.787,4s4.662-2.314,5.786-4c1.087-1.633,1.627-2.3,2.6-2.3s1.516.665,2.6,2.3c1.125,1.69,2.665,4,5.788,4s4.662-2.314,5.787-4c1.087-1.633,1.626-2.3,2.6-2.3a1.913,1.913,0,1,0,0-3.826c-3.122,0-4.662,2.314-5.787,4" transform="translate(77.683 1707.475)" fill="#92e8db"/>
    <g id="alfabeto" transform="translate(351.607 1949)">
      <g id="Grupo_1103841" data-name="Grupo 1103841" transform="translate(1.136 1.131)">
        <g id="Grupo_1103840" data-name="Grupo 1103840">
          <g id="Grupo_1103835" data-name="Grupo 1103835">
            <g id="Grupo_1103825" data-name="Grupo 1103825" transform="translate(0)">
              <path id="Trazado_913812" data-name="Trazado 913812" d="M7.518,7.483H82.605v75.1H7.518Z" transform="translate(-7.518 -7.483)" fill="#faef93"/>
            </g>
            <g id="Grupo_1103826" data-name="Grupo 1103826" transform="translate(0 0)">
              <path id="Trazado_913813" data-name="Trazado 913813" d="M11.067,79.032V7.483H7.518v75.1H82.605V79.032Z" transform="translate(-7.518 -7.483)" fill="#f6e23d"/>
            </g>
            <g id="Grupo_1103827" data-name="Grupo 1103827" transform="translate(3.554 3.548)">
              <path id="Trazado_913814" data-name="Trazado 913814" d="M31.04,30.964h2.266V33.23H31.04Z" transform="translate(-31.04 -30.964)" fill="#fff"/>
            </g>
            <g id="Grupo_1103828" data-name="Grupo 1103828" transform="translate(14.171 8.191)">
              <path id="Trazado_913815" data-name="Trazado 913815" d="M124.68,61.695a23.374,23.374,0,0,0-23.374,23.374V120.4h11.687V108.589h23.374V120.4h11.687V85.069A23.374,23.374,0,0,0,124.68,61.695Zm11.687,35.2v.012H112.993V85.213c-.043-10.971,13.938-15.841,20.761-7.384a11.64,11.64,0,0,1,2.613,7.384Z" transform="translate(-101.306 -61.695)" fill="#e5ecf5"/>
            </g>
            <g id="Grupo_1103829" data-name="Grupo 1103829" transform="translate(8.082 3.548)">
              <path id="Trazado_913816" data-name="Trazado 913816" d="M61.008,30.964h2.266V33.23H61.008Z" transform="translate(-61.008 -30.964)" fill="#fff"/>
            </g>
            <g id="Grupo_1103833" data-name="Grupo 1103833" transform="translate(23.943 13.064)">
              <g id="Grupo_1103832" data-name="Grupo 1103832">
                <g id="Grupo_1103830" data-name="Grupo 1103830" transform="translate(0 2.244)">
                  <path id="Trazado_913817" data-name="Trazado 913817" d="M167.474,111.962l-1.49-1.708a22.006,22.006,0,0,1,1.892-1.455l1.3,1.858a19.552,19.552,0,0,0-1.7,1.3Z" transform="translate(-165.984 -108.799)" fill="#fff"/>
                </g>
                <g id="Grupo_1103831" data-name="Grupo 1103831" transform="translate(3.955)">
                  <path id="Trazado_913818" data-name="Trazado 913818" d="M193.215,96.956l-1.052-2.007a20.734,20.734,0,0,1,2.179-1l.81,2.117A18.448,18.448,0,0,0,193.215,96.956Z" transform="translate(-192.163 -93.948)" fill="#fff"/>
                </g>
              </g>
            </g>
            <g id="Grupo_1103834" data-name="Grupo 1103834" transform="translate(24.725 46.82)">
              <path id="Trazado_913819" data-name="Trazado 913819" d="M171.157,317.36h2.266v2.266h-2.266Z" transform="translate(-171.157 -317.36)" fill="#fff"/>
            </g>
          </g>
          <g id="Grupo_1103839" data-name="Grupo 1103839" transform="translate(14.171 8.191)">
            <g id="Grupo_1103836" data-name="Grupo 1103836" transform="translate(10.525 43.508)">
              <path id="Trazado_913820" data-name="Trazado 913820" d="M198.863,361.569V349.647h-27.9v3.276H195.5v11.922h12.705v-3.276Z" transform="translate(-170.965 -349.647)" fill="#cad8eb"/>
            </g>
            <g id="Grupo_1103837" data-name="Grupo 1103837">
              <path id="Trazado_913821" data-name="Trazado 913821" d="M104.646,85.068A23.116,23.116,0,0,1,126.2,61.744c-.5-.032-1.008-.05-1.519-.05a23.374,23.374,0,0,0-23.374,23.374V120.51h12.372v-3.276h-9.032Z" transform="translate(-101.306 -61.694)" fill="#cad8eb"/>
            </g>
            <g id="Grupo_1103838" data-name="Grupo 1103838" transform="translate(14.747 10.82)">
              <path id="Trazado_913822" data-name="Trazado 913822" d="M216.609,138.709a11.64,11.64,0,0,1,2.613,7.384v11.694H198.907v1.037h23.677V144.98a11.64,11.64,0,0,0-2.613-7.384A11.982,11.982,0,0,0,205.1,134.7,11.375,11.375,0,0,1,216.609,138.709Z" transform="translate(-198.907 -133.304)" fill="#cad8eb"/>
            </g>
          </g>
        </g>
      </g>
      <g id="Grupo_1103842" data-name="Grupo 1103842">
        <path id="Trazado_913823" data-name="Trazado 913823" d="M0,0V77.359H63.613V75.093H2.267V2.266H75.093V75.093h-4.68v2.266h6.947V0Z"/>
        <path id="Trazado_913824" data-name="Trazado 913824" d="M436.021,497h2.267v2.266h-2.267Z" transform="translate(-370.141 -421.908)"/>
        <path id="Trazado_913825" data-name="Trazado 913825" d="M142.813,115.286V78.714a24.509,24.509,0,0,0-49.019,0v21.842h2.267V78.714a22.243,22.243,0,0,1,44.486,0V113.02h-9.422V101.1H105.482V113.02H96.061v-10.2H93.794v12.464h13.955V103.365h21.109v11.921Z" transform="translate(-79.622 -46.018)"/>
        <path id="Trazado_913826" data-name="Trazado 913826" d="M171.151,158.051l25.643-.012V145.207a12.845,12.845,0,0,0-2.867-8.08l-1.759,1.429a10.574,10.574,0,0,1,2.359,6.651v10.578H173.418V145.207a10.566,10.566,0,0,1,10.555-10.553,10.444,10.444,0,0,1,6.554,2.28l1.409-1.775a12.69,12.69,0,0,0-7.962-2.771,12.835,12.835,0,0,0-12.821,12.819Z" transform="translate(-145.291 -112.385)"/>
      </g>
    </g>
  </g>
</svg>
