<svg xmlns="http://www.w3.org/2000/svg" xmlns:xlink="http://www.w3.org/1999/xlink" width="85" height="84.999" viewBox="0 0 85 84.999">
  <defs>
    <linearGradient id="linear-gradient" x1="0.5" y1="0.852" x2="0.5" gradientUnits="objectBoundingBox">
      <stop offset="0" stop-color="#fcb071"/>
      <stop offset="1" stop-color="#ffd884"/>
    </linearGradient>
  </defs>
  <g id="Grupo_1103986" data-name="Grupo 1103986" transform="translate(-705.831 -3609.5)">
    <g id="Grupo_1103734" data-name="Grupo 1103734" transform="translate(0 -282.188)">
      <path id="Trazado_913719" data-name="Trazado 913719" d="M298.4,99.851a42.5,42.5,0,1,0,42.5-42.5,42.5,42.5,0,0,0-42.5,42.5" transform="translate(407.432 3834.336)" fill="url(#linear-gradient)"/>
      <path id="Trazado_913720" data-name="Trazado 913720" d="M286.55,226.938c-.894,1.343-1.338,1.89-2.141,1.89s-1.247-.547-2.141-1.89c-.926-1.39-2.192-3.293-4.761-3.293s-3.835,1.9-4.76,3.293c-.894,1.343-1.338,1.89-2.14,1.89s-1.246-.547-2.14-1.89c-.925-1.39-2.193-3.293-4.76-3.293s-3.835,1.9-4.761,3.294c-.894,1.343-1.338,1.89-2.14,1.89s-1.246-.547-2.14-1.89c-.925-1.39-2.192-3.294-4.76-3.294a1.574,1.574,0,1,0,0,3.147c.8,0,1.246.547,2.14,1.89.925,1.39,2.192,3.293,4.76,3.293s3.835-1.9,4.76-3.293c.894-1.343,1.337-1.89,2.14-1.89s1.246.547,2.14,1.89c.925,1.39,2.192,3.294,4.76,3.294s3.835-1.9,4.76-3.294c.894-1.343,1.338-1.89,2.14-1.89s1.247.547,2.141,1.89c.926,1.39,2.193,3.293,4.761,3.293s3.835-1.9,4.761-3.293c.894-1.343,1.338-1.89,2.141-1.89a1.574,1.574,0,1,0,0-3.147c-2.568,0-3.835,1.9-4.761,3.293" transform="translate(457.497 3674.45)" fill="#92e8db"/>
      <g id="corporacion" transform="translate(727.519 3912.278)">
        <path id="Trazado_913738" data-name="Trazado 913738" d="M32.8,61.8A20.8,20.8,0,0,0,53.606,41H12A20.8,20.8,0,0,0,32.8,61.8Z" transform="translate(0.363 1.566)" fill="#92e8db"/>
        <path id="Trazado_913739" data-name="Trazado 913739" d="M43.494,57.981a20.775,20.775,0,0,1-22.134,0,35.26,35.26,0,0,1,4.587-.926,51.96,51.96,0,0,1,12.96,0A35.263,35.263,0,0,1,43.494,57.981Z" transform="translate(0.739 2.194)" fill="#cbfaf4"/>
        <ellipse id="Elipse_11554" data-name="Elipse 11554" cx="3.156" cy="3.12" rx="3.156" ry="3.12" transform="translate(19.167 24.883)" fill="#ffd884"/>
        <path id="Trazado_913740" data-name="Trazado 913740" d="M27.4,41.4V33.08A2.08,2.08,0,0,0,25.321,31H19.08A2.08,2.08,0,0,0,17,33.08V41.4Z" transform="translate(0.564 1.164)" fill="#fc8775"/>
        <circle id="Elipse_11555" data-name="Elipse 11555" cx="3.12" cy="3.12" r="3.12" transform="translate(40.447 24.883)" fill="#ffd884"/>
        <path id="Trazado_913741" data-name="Trazado 913741" d="M47.4,41.4V33.08A2.08,2.08,0,0,0,45.321,31H39.08A2.08,2.08,0,0,0,37,33.08V41.4Z" transform="translate(1.367 1.164)" fill="#fc8775"/>
        <circle id="Elipse_11556" data-name="Elipse 11556" cx="3.12" cy="3.12" r="3.12" transform="translate(30.046 24.883)" fill="#ffd884"/>
        <path id="Trazado_913742" data-name="Trazado 913742" d="M37.4,41.4V33.08A2.08,2.08,0,0,0,35.321,31H29.08A2.08,2.08,0,0,0,27,33.08V41.4Z" transform="translate(0.965 1.164)" fill="#fc8775"/>
        <path id="Trazado_913743" data-name="Trazado 913743" d="M39.394,11.321a6.466,6.466,0,0,0-.066-.914.773.773,0,0,1,.411-.778l.485-.267A.78.78,0,0,0,40.53,8.27l-1.344-2.22a.858.858,0,0,0-1.144-.292l-.49.27a.886.886,0,0,1-.952-.078,7.16,7.16,0,0,0-1.558-.871.82.82,0,0,1-.545-.748V3.8a.818.818,0,0,0-.832-.8H30.98a.818.818,0,0,0-.832.8v.536a.82.82,0,0,1-.548.746,7.16,7.16,0,0,0-1.56.869.886.886,0,0,1-.952.078l-.49-.27a.858.858,0,0,0-1.144.292L24.112,8.27a.78.78,0,0,0,.3,1.091l.485.267a.773.773,0,0,1,.416.778,6.411,6.411,0,0,0,0,1.829.773.773,0,0,1-.416.778l-.485.267a.78.78,0,0,0-.306,1.091l1.346,2.22a.858.858,0,0,0,1.144.292l.49-.27a.886.886,0,0,1,.952.078,7.16,7.16,0,0,0,1.56.869.82.82,0,0,1,.545.748v.536a.818.818,0,0,0,.832.8h2.681a.818.818,0,0,0,.832-.8v-.536a.82.82,0,0,1,.549-.746,7.16,7.16,0,0,0,1.56-.869.886.886,0,0,1,.952-.078l.49.27a.858.858,0,0,0,1.144-.292l1.34-2.22a.78.78,0,0,0-.306-1.091l-.485-.267a.773.773,0,0,1-.411-.778,6.467,6.467,0,0,0,.068-.916Z" transform="translate(0.845 0.04)" fill="#fcb071"/>
        <circle id="Elipse_11557" data-name="Elipse 11557" cx="3.12" cy="3.12" r="3.12" transform="translate(30.046 8.241)" fill="#e6eef3"/>
        <path id="Trazado_913744" data-name="Trazado 913744" d="M16.2,33.4v7.281H12.04A1.04,1.04,0,0,0,11,41.724a21.843,21.843,0,1,0,43.686,0,1.04,1.04,0,0,0-1.04-1.04H49.485V33.4a3.12,3.12,0,0,0-3.12-3.12h-.4a4.161,4.161,0,1,0-5.446,0h-.4a3.1,3.1,0,0,0-2.08.811,3.1,3.1,0,0,0-2.08-.811h-.4a4.161,4.161,0,1,0-5.446,0h-.4a3.1,3.1,0,0,0-2.08.811,3.1,3.1,0,0,0-2.08-.811h-.818a4.121,4.121,0,0,0,1.45-3.12,4.2,4.2,0,1,0-8.391,0,4.12,4.12,0,0,0,1.457,3.127A3.12,3.12,0,0,0,16.2,33.4ZM21.968,58.21a19.911,19.911,0,0,1-5.115-4.889,32.728,32.728,0,0,1,5.421-1.482,25.789,25.789,0,0,0,2.369,5.795Q23.232,57.882,21.968,58.21Zm2.37-6.709a60.76,60.76,0,0,1,17.008,0,22.42,22.42,0,0,1-2.538,5.8,53.421,53.421,0,0,0-11.934,0,22.4,22.4,0,0,1-2.537-5.8Zm8.5,9.985a19.608,19.608,0,0,1-8.1-1.759c.567-.1,1.144-.2,1.748-.285a51.157,51.157,0,0,1,12.69,0c.6.084,1.186.182,1.755.286a19.612,19.612,0,0,1-8.1,1.758ZM43.718,58.21q-1.262-.328-2.675-.578a25.818,25.818,0,0,0,2.369-5.795,32.728,32.728,0,0,1,5.421,1.482A19.911,19.911,0,0,1,43.718,58.21Zm8.861-15.446a19.612,19.612,0,0,1-2.594,8.769A33.711,33.711,0,0,0,43.9,49.812a38.337,38.337,0,0,0,.81-7.048ZM43.244,25.082a2.08,2.08,0,1,1-2.08,2.08A2.08,2.08,0,0,1,43.244,25.082ZM39.084,33.4a1.04,1.04,0,0,1,1.04-1.04h6.241A1.04,1.04,0,0,1,47.4,33.4v7.281H39.084Zm-6.241-8.321a2.08,2.08,0,1,1-2.08,2.08A2.08,2.08,0,0,1,32.843,25.082ZM28.682,33.4a1.04,1.04,0,0,1,1.04-1.04h6.241A1.04,1.04,0,0,1,37,33.4v7.281H28.682Zm13.944,9.361a36.069,36.069,0,0,1-.784,6.709,62.714,62.714,0,0,0-17.994,0,36.08,36.08,0,0,1-.788-6.709ZM22,25.082a2.08,2.08,0,1,1-2.116,2.08A2.08,2.08,0,0,1,22,25.082ZM18.281,33.4a1.04,1.04,0,0,1,1.04-1.04h6.241A1.04,1.04,0,0,1,26.6,33.4v7.281H18.281Zm2.7,9.361a38.325,38.325,0,0,0,.81,7.047A33.818,33.818,0,0,0,15.7,51.534a19.612,19.612,0,0,1-2.594-8.769Z" transform="translate(0.323 0.842)" fill="#12263f"/>
        <path id="Trazado_913745" data-name="Trazado 913745" d="M23.061,13.546a1.789,1.789,0,0,0,.2,1.4L24.6,17.166a1.909,1.909,0,0,0,2.535.667l.391-.216a8.1,8.1,0,0,0,1.616.9v.363a1.86,1.86,0,0,0,1.875,1.841H33.7a1.86,1.86,0,0,0,1.872-1.839v-.363a8.13,8.13,0,0,0,1.616-.9l.392.216a1.907,1.907,0,0,0,2.534-.666l1.341-2.219a1.792,1.792,0,0,0,.2-1.4,1.858,1.858,0,0,0-.895-1.138l-.343-.188a7.281,7.281,0,0,0,0-1.72l.344-.189a1.855,1.855,0,0,0,.9-1.135,1.789,1.789,0,0,0-.2-1.4L40.12,5.554a1.908,1.908,0,0,0-2.535-.667l-.391.216a8.1,8.1,0,0,0-1.616-.9V3.839A1.86,1.86,0,0,0,33.7,2H31.021a1.86,1.86,0,0,0-1.872,1.839V4.2a8.13,8.13,0,0,0-1.616.9l-.392-.216a1.908,1.908,0,0,0-2.534.666L23.262,7.772a1.792,1.792,0,0,0-.2,1.405,1.858,1.858,0,0,0,.895,1.138l.343.188a7.281,7.281,0,0,0,0,1.72l-.344.189a1.855,1.855,0,0,0-.893,1.133Zm3.267-2.184a5.484,5.484,0,0,1,.055-.767,1.824,1.824,0,0,0-.936-1.836l-.263-.145,1.1-1.821.337.186a1.931,1.931,0,0,0,2.07-.149,6.13,6.13,0,0,1,1.336-.742,1.858,1.858,0,0,0,1.2-1.714V4.08H33.5v.294a1.858,1.858,0,0,0,1.2,1.714,6.1,6.1,0,0,1,1.334.742,1.933,1.933,0,0,0,2.071.149l.337-.186,1.1,1.821-.262.145A1.825,1.825,0,0,0,38.34,10.6a5.35,5.35,0,0,1,0,1.532,1.824,1.824,0,0,0,.936,1.836l.261.145-1.1,1.821-.337-.186a1.936,1.936,0,0,0-2.07.149,6.129,6.129,0,0,1-1.336.742,1.858,1.858,0,0,0-1.2,1.714v.294H31.226v-.294a1.858,1.858,0,0,0-1.2-1.714,6.1,6.1,0,0,1-1.335-.742,1.939,1.939,0,0,0-2.071-.149l-.337.186-1.1-1.821.262-.145a1.825,1.825,0,0,0,.936-1.837,5.457,5.457,0,0,1-.054-.766Z" transform="translate(0.805 0)" fill="#12263f"/>
        <path id="Trazado_913746" data-name="Trazado 913746" d="M32.161,15.321A4.161,4.161,0,1,0,28,11.161,4.161,4.161,0,0,0,32.161,15.321Zm0-6.241a2.08,2.08,0,1,1-2.08,2.08A2.08,2.08,0,0,1,32.161,9.08Z" transform="translate(1.005 0.201)" fill="#12263f"/>
        <path id="Trazado_913747" data-name="Trazado 913747" d="M42.8,7l.167,2.08c6.5-.528,11.619,1.209,14.408,4.9,4.341,5.744,2.359,15.407-5.048,24.618l1.622,1.3c8.024-9.978,10.021-20.645,5.086-27.175C55.8,8.446,50.037,6.413,42.8,7Z" transform="translate(1.6 0.197)" fill="#12263f"/>
        <path id="Trazado_913748" data-name="Trazado 913748" d="M14.205,58.247l.476-2.025a12.394,12.394,0,0,1-7.325-4.463,12.864,12.864,0,0,1-2.089-9.812c1.157-8,7.58-17.182,16.768-23.966q.659-.488,1.327-.951l-1.188-1.709c-.461.321-.921.649-1.376.987C11.036,23.516,4.458,32.993,3.21,41.649A14.883,14.883,0,0,0,5.7,53.013,14.419,14.419,0,0,0,14.205,58.247Z" transform="translate(0 0.535)" fill="#12263f"/>
      </g>
    </g>
  </g>
</svg>
