<svg xmlns="http://www.w3.org/2000/svg" xmlns:xlink="http://www.w3.org/1999/xlink" width="85" height="84.998" viewBox="0 0 85 84.998">
  <defs>
    <linearGradient id="linear-gradient" x1="0.5" y1="0.852" x2="0.5" gradientUnits="objectBoundingBox">
      <stop offset="0" stop-color="#fcb071"/>
      <stop offset="1" stop-color="#ffd884"/>
    </linearGradient>
  </defs>
  <g id="Grupo_1103995" data-name="Grupo 1103995" transform="translate(-705.27 -24545.648)">
    <path id="Trazado_911369" data-name="Trazado 911369" d="M298.4,99.851a42.5,42.5,0,1,0,42.5-42.5,42.5,42.5,0,0,0-42.5,42.5" transform="translate(406.87 24488.297)" fill="url(#linear-gradient)"/>
    <path id="Trazado_911407" data-name="Trazado 911407" d="M286.55,226.938c-.894,1.343-1.338,1.89-2.141,1.89s-1.247-.547-2.141-1.89c-.926-1.39-2.192-3.293-4.761-3.293s-3.835,1.9-4.76,3.293c-.894,1.343-1.338,1.89-2.14,1.89s-1.246-.547-2.14-1.89c-.925-1.39-2.193-3.293-4.76-3.293s-3.835,1.9-4.761,3.294c-.894,1.343-1.338,1.89-2.14,1.89s-1.246-.547-2.14-1.89c-.925-1.39-2.192-3.294-4.76-3.294a1.574,1.574,0,1,0,0,3.147c.8,0,1.246.547,2.14,1.89.925,1.39,2.192,3.293,4.76,3.293s3.835-1.9,4.76-3.293c.894-1.343,1.337-1.89,2.14-1.89s1.246.547,2.14,1.89c.925,1.39,2.192,3.294,4.76,3.294s3.835-1.9,4.76-3.294c.894-1.343,1.338-1.89,2.14-1.89s1.247.547,2.141,1.89c.926,1.39,2.193,3.293,4.761,3.293s3.835-1.9,4.761-3.293c.894-1.343,1.338-1.89,2.141-1.89a1.574,1.574,0,1,0,0-3.147c-2.568,0-3.835,1.9-4.761,3.293" transform="translate(456.936 24328.41)" fill="#92e8db"/>
    <g id="Filled_outline" data-name="Filled outline" transform="translate(710.32 24550.697)">
      <path id="Trazado_914073" data-name="Trazado 914073" d="M157.329,352h-4.263L152,371.149h6.395Z" transform="translate(-117.881 -291.236)" fill="#fc8775"/>
      <path id="Trazado_914080" data-name="Trazado 914080" d="M32.527,403.2H24v4.38a4.146,4.146,0,0,0,4.147,4.146h7.577l15.987-4.263V400Z" transform="translate(-6.934 -332.841)" fill="#92e8db"/>
      <path id="Trazado_914081" data-name="Trazado 914081" d="M232,379.2l6.395-3.2h6.395v7.461h-5.329l-.183.183A10.292,10.292,0,0,1,232,386.658Z" transform="translate(-187.223 -312.038)" fill="#fdc8a2"/>
      <path id="Trazado_914082" data-name="Trazado 914082" d="M139.185,403.2,120,400v7.461l15.987,4.263h7.578a4.146,4.146,0,0,0,4.146-4.147V403.2Z" transform="translate(-90.144 -332.841)" fill="#92e8db"/>
      <path id="Trazado_914083" data-name="Trazado 914083" d="M36.79,379.2,30.395,376H24v7.461h5.329l.183.183a10.292,10.292,0,0,0,7.278,3.015Z" transform="translate(-6.934 -312.038)" fill="#fdc8a2"/>
      <path id="Trazado_914084" data-name="Trazado 914084" d="M324.251,424H304a3.015,3.015,0,0,1,0,4.263h20.251a2.132,2.132,0,1,0,0-4.263Z" transform="translate(-249.63 -353.643)" fill="#ffd884"/>
      <path id="Trazado_914085" data-name="Trazado 914085" d="M340.251,392H320a3.015,3.015,0,0,1,0,4.263h20.251a2.132,2.132,0,1,0,0-4.263Z" transform="translate(-263.499 -325.907)" fill="#fcb071"/>
      <path id="Trazado_914086" data-name="Trazado 914086" d="M329.592,392H320a3.015,3.015,0,0,1,0,4.263h9.592a2.132,2.132,0,1,0,0-4.263Z" transform="translate(-263.499 -325.907)" fill="#f1ddc1"/>
      <path id="Trazado_914087" data-name="Trazado 914087" d="M324.251,360H304a3.015,3.015,0,0,1,0,4.263h20.251a2.132,2.132,0,1,0,0-4.263Z" transform="translate(-249.63 -298.17)" fill="#de5540"/>
      <path id="Trazado_914088" data-name="Trazado 914088" d="M313.592,360H304a3.015,3.015,0,0,1,0,4.263h9.592a2.132,2.132,0,1,0,0-4.263Z" transform="translate(-249.63 -298.17)" fill="#e9d6bb"/>
      <path id="Trazado_914089" data-name="Trazado 914089" d="M340.251,456H320a3.015,3.015,0,0,1,0,4.263h20.251a2.132,2.132,0,0,0,0-4.263Z" transform="translate(-263.499 -381.38)" fill="#92e8db"/>
      <path id="Trazado_914090" data-name="Trazado 914090" d="M313.592,424H304a3.015,3.015,0,0,1,0,4.263h9.592a2.132,2.132,0,1,0,0-4.263Z" transform="translate(-249.63 -353.643)" fill="#e9d6bb"/>
      <path id="Trazado_914091" data-name="Trazado 914091" d="M329.592,456H320a3.015,3.015,0,0,1,0,4.263h9.592a2.132,2.132,0,0,0,0-4.263Z" transform="translate(-263.499 -381.38)" fill="#f1ddc1"/>
      <g id="Grupo_1103979" data-name="Grupo 1103979">
        <path id="Trazado_914061" data-name="Trazado 914061" d="M24,24H85.818V68.764H24Z" transform="translate(-6.934 -6.934)" fill="#cececc"/>
        <path id="Trazado_914062" data-name="Trazado 914062" d="M64,64h51.159V98.106H64Z" transform="translate(-41.605 -41.605)" fill="#426887"/>
        <path id="Trazado_914063" data-name="Trazado 914063" d="M30.837,29.329H29.329v1.508L24,25.508V24h1.508Z" transform="translate(-6.934 -6.934)" fill="#bebebc"/>
        <path id="Trazado_914064" data-name="Trazado 914064" d="M443.517,24v1.508l-5.329,5.329V29.329H436.68L442.009,24Z" transform="translate(-364.634 -6.934)" fill="#bebebc"/>
        <path id="Trazado_914065" data-name="Trazado 914065" d="M408,288h10.658v4.263H408Z" transform="translate(-339.775 -235.762)" fill="#de5540"/>
        <path id="Trazado_914066" data-name="Trazado 914066" d="M408,304h10.658v2.132H408Z" transform="translate(-339.775 -249.631)" fill="#cececc"/>
        <path id="Trazado_914067" data-name="Trazado 914067" d="M24,320H85.818v5.329H24Z" transform="translate(-6.934 -263.498)" fill="#dfdfdd"/>
        <path id="Trazado_914068" data-name="Trazado 914068" d="M146.658,200v8.527l-5.329,6.395L136,208.527V200Z" transform="translate(-104.013 -159.486)" fill="#fdc8a2"/>
        <path id="Trazado_914069" data-name="Trazado 914069" d="M64.5,271.43v18.15a4.263,4.263,0,0,1-4.263,4.263H28.263A4.263,4.263,0,0,1,24,289.58V271.43a4.144,4.144,0,0,1,3.055-4l5.472-1.492,3.2-.873,3.2-1.066,5.329,6.395L49.58,264l3.2,1.066,3.2.873,5.472,1.492a4.144,4.144,0,0,1,3.055,4Z" transform="translate(-6.934 -214.959)" fill="#92e8db"/>
        <path id="Trazado_914070" data-name="Trazado 914070" d="M152,314.132l1.066,3.2h4.263l1.066-3.2L155.2,312Z" transform="translate(-117.881 -256.564)" fill="#fc8775"/>
        <path id="Trazado_914071" data-name="Trazado 914071" d="M112,265.066l3.2,8.527,5.329-3.2L115.2,264Z" transform="translate(-83.21 -214.959)" fill="#29a794"/>
        <path id="Trazado_914072" data-name="Trazado 914072" d="M181.329,264,176,270.395l5.329,3.2,3.2-8.527Z" transform="translate(-138.684 -214.959)" fill="#29a794"/>
        <path id="Trazado_914074" data-name="Trazado 914074" d="M146.658,200v5.845a9.6,9.6,0,0,1-10.658,0V200Z" transform="translate(-104.013 -159.486)" fill="#fdbf92"/>
        <path id="Trazado_914075" data-name="Trazado 914075" d="M108.263,48h10.658a4.263,4.263,0,0,1,4.263,4.263V63.987a9.592,9.592,0,1,1-19.185,0V52.263A4.263,4.263,0,0,1,108.263,48Z" transform="translate(-76.276 -27.736)" fill="#fdc8a2"/>
        <path id="Trazado_914076" data-name="Trazado 914076" d="M110.921,26.132v4.263a18.2,18.2,0,0,1-12.866,5.329H96v-3.2A8.519,8.519,0,0,1,104.527,24h1.248a7.279,7.279,0,0,1,5.146,2.132Z" transform="translate(-69.342 -6.934)" fill="#844e3a"/>
        <path id="Trazado_914077" data-name="Trazado 914077" d="M208,40v4.263a7.324,7.324,0,0,0,5.329,5.329V45.329A5.329,5.329,0,0,0,208,40Z" transform="translate(-166.42 -20.803)" fill="#844e3a"/>
        <path id="Trazado_914078" data-name="Trazado 914078" d="M83.2,112v6.395a3.2,3.2,0,1,1,0-6.395Z" transform="translate(-55.473 -83.211)" fill="#fdb683"/>
        <path id="Trazado_914079" data-name="Trazado 914079" d="M3.2,0V6.395A3.2,3.2,0,1,1,3.2,0Z" transform="translate(50.106 35.184) rotate(180)" fill="#fdb683"/>
        <path id="Trazado_914092" data-name="Trazado 914092" d="M273.04,16H240v2.132h30.467l-3.2,3.2H244.263v2.132h22.382V51.172h-3.188l.916-1.6-1.851-1.058-3.956,6.924h-3.645v2.132h17.053V59.7h2.132V17.066A1.066,1.066,0,0,0,273.04,16Zm-1.066,39.435h-8.527V53.3h8.527Zm0-4.263h-3.2V22.836l3.2-3.2Z" transform="translate(-194.157)"/>
        <path id="Trazado_914093" data-name="Trazado 914093" d="M24.527,23.461V21.329h-1.69l-3.2-3.2h7.019V16H17.066A1.066,1.066,0,0,0,16,17.066v33.04h2.132V19.639l3.2,3.2v26.2h2.132V23.461Z"/>
        <circle id="Elipse_11562" data-name="Elipse 11562" cx="2.588" cy="2.588" r="2.588" transform="translate(30.495 30.494)"/>
        <ellipse id="Elipse_11563" data-name="Elipse 11563" cx="2.071" cy="2.588" rx="2.071" ry="2.588" transform="translate(39.813 30.494)"/>
        <path id="Trazado_914094" data-name="Trazado 914094" d="M160,179.93h.814a11.219,11.219,0,0,0,4.992-1.178l-.953-1.906a9.078,9.078,0,0,1-4.038.953H160Z" transform="translate(-124.815 -139.416)"/>
        <path id="Trazado_914095" data-name="Trazado 914095" d="M30.921,73.8V68.418l17.944,2.991a1.07,1.07,0,0,0,.175.014h2.132V69.291H49.129l-3.286-.548v-.925l3.449-1.725h1.88V63.962H49.04a1.065,1.065,0,0,0-.477.113l-4.12,2.06-3.6.6-.324-5.827.635-1.923.938.563a1.107,1.107,0,0,0,.9.092,1.066,1.066,0,0,0,.647-.632L46.5,51.39,54.232,53.5A3.078,3.078,0,0,1,56.5,56.47v2.162h2.132V56.47a5.211,5.211,0,0,0-3.841-5.028L43.711,48.272v-3.5a10.648,10.648,0,0,0,4.263-8.521v-.135a4.263,4.263,0,0,0,0-8.257V24.526c0-.05,0-.1,0-.149a6.4,6.4,0,0,0-5.948-6.229A8.283,8.283,0,0,0,36.433,16H35.185a9.6,9.6,0,0,0-9.592,9.592V28.3a4.262,4.262,0,0,0,1.066,7.818v.135a10.648,10.648,0,0,0,4.263,8.52v3.5L19.841,51.443A5.223,5.223,0,0,0,16,56.47v2.162h2.132V56.47A3.086,3.086,0,0,1,20.4,53.5l7.732-2.109,2.856,7.617a1.066,1.066,0,0,0,.647.632,1.1,1.1,0,0,0,.9-.092l.928-.557.646,1.92-.323,5.824-3.6-.6-3.531-1.766v-3.6H24.527V63.3l-.589-.295a1.065,1.065,0,0,0-.477-.113H18.132V60.764H16V74.737a5.218,5.218,0,0,0,5.212,5.212s7.763-.012,7.853-.036l4.049-1.08-.059,1.08h2.128l.1-1.658,2.036-.543,2.037.543.1,1.658h2.128l-.059-1.079,4.049,1.079c.09.024,7.853.036,7.853.036V77.817H45.983Zm17.053-43.66a2.131,2.131,0,0,1,0,3.691ZM37.315,67.322,35.9,67.086l.292-5.256H38.44l.292,5.256ZM38.678,59.7H35.951l-.616-1.831,1.982-1.189,1.969,1.181ZM33.053,48.654V46.016a10.627,10.627,0,0,0,8.527,0v2.638L37.316,53.77Zm11.4,2.113L42.1,57.061l-3.165-1.9L43,50.282ZM42.645,20.4a4.27,4.27,0,0,1,3.2,4.128v2.735a6.245,6.245,0,0,1-3.2-3.937ZM26.658,33.833a2.131,2.131,0,0,1,0-3.691Zm1.066-6.109V25.592c0-.111,0-.222.008-.332a63.766,63.766,0,0,1,10.825-2.88l-.35-2.1a64.9,64.9,0,0,0-9.943,2.533,7.471,7.471,0,0,1,6.921-4.679h1.249a6.167,6.167,0,0,1,4.08,1.528v3.352a17.011,17.011,0,0,1-11.8,4.712ZM28.79,36.25v-6.4a19.113,19.113,0,0,0,12.335-4.531,8.368,8.368,0,0,0,4.718,4.254V36.25a8.527,8.527,0,1,1-17.053,0Zm3.746,20.81-2.36-6.293,1.458-.486,4.067,4.88Zm-14.4,7.967h5.077l5.581,2.79v5.675a9.158,9.158,0,0,1-5.458-2.642l-.183-.183a1.066,1.066,0,0,0-.754-.312H18.132ZM28.65,77.817H21.212a3.084,3.084,0,0,1-3.08-3.08V72.488h3.824A11.277,11.277,0,0,0,29.7,75.682l3.477.927Z"/>
      </g>
      <path id="Trazado_914096" data-name="Trazado 914096" d="M144,432h2.132v2.132H144Z" transform="translate(-110.947 -360.577)"/>
      <path id="Trazado_914097" data-name="Trazado 914097" d="M322.646,359.461a3.2,3.2,0,0,0-2.358-3.085A3.2,3.2,0,0,0,317.317,352H297.066a1.066,1.066,0,0,0-.754,1.819,1.951,1.951,0,0,1,0,2.756,1.066,1.066,0,0,0,.754,1.819H298.7a1.954,1.954,0,0,1,0,2.132h-1.631a1.066,1.066,0,0,0-.754,1.819,1.951,1.951,0,0,1,0,2.756,1.066,1.066,0,0,0,.754,1.819H298.7a1.952,1.952,0,0,1-.253,2.444,1.066,1.066,0,0,0,.754,1.819h20.251a3.2,3.2,0,0,0,.839-6.282,3.184,3.184,0,0,0,0-2.357A3.2,3.2,0,0,0,322.646,359.461Zm-23.773-3.2a4.111,4.111,0,0,0,0-2.132h18.444a1.066,1.066,0,0,1,0,2.132Zm0,8.527a4.111,4.111,0,0,0,0-2.132h18.444a1.066,1.066,0,1,1,0,2.132Zm21.642,3.2a1.067,1.067,0,0,1-1.066,1.066H301a4.111,4.111,0,0,0,0-2.132h18.444A1.067,1.067,0,0,1,320.514,367.987Zm-1.066-7.461H301a4.111,4.111,0,0,0,0-2.132h18.444a1.066,1.066,0,0,1,0,2.132Z" transform="translate(-242.697 -291.236)"/>
    </g>
  </g>
</svg>
