<svg xmlns="http://www.w3.org/2000/svg" xmlns:xlink="http://www.w3.org/1999/xlink" width="103.331" height="103.33" viewBox="0 0 103.331 103.33">
  <defs>
    <linearGradient id="linear-gradient" x1="0.5" y1="0.852" x2="0.5" gradientUnits="objectBoundingBox">
      <stop offset="0" stop-color="#fcb071"/>
      <stop offset="1" stop-color="#ffd884"/>
    </linearGradient>
  </defs>
  <g id="Grupo_1103993" data-name="Grupo 1103993" transform="translate(-274.337 -22569.084)">
    <path id="Trazado_911369" data-name="Trazado 911369" d="M298.4,109.016a51.666,51.666,0,1,0,51.665-51.665A51.666,51.666,0,0,0,298.4,109.016" transform="translate(-24.063 22511.732)" fill="url(#linear-gradient)"/>
    <path id="Trazado_911407" data-name="Trazado 911407" d="M294.793,227.649c-1.087,1.633-1.626,2.3-2.6,2.3s-1.516-.665-2.6-2.3c-1.125-1.69-2.665-4-5.788-4s-4.662,2.314-5.786,4c-1.087,1.633-1.626,2.3-2.6,2.3s-1.515-.665-2.6-2.3c-1.125-1.69-2.666-4-5.787-4s-4.663,2.314-5.787,4c-1.087,1.632-1.626,2.3-2.6,2.3s-1.515-.665-2.6-2.3c-1.125-1.69-2.665-4-5.787-4a1.913,1.913,0,1,0,0,3.826c.975,0,1.515.665,2.6,2.3,1.125,1.69,2.665,4,5.787,4s4.662-2.314,5.787-4c1.086-1.633,1.626-2.3,2.6-2.3s1.515.665,2.6,2.3c1.124,1.69,2.665,4,5.787,4s4.662-2.314,5.786-4c1.087-1.633,1.627-2.3,2.6-2.3s1.516.665,2.6,2.3c1.125,1.69,2.665,4,5.788,4s4.662-2.314,5.787-4c1.087-1.633,1.626-2.3,2.6-2.3a1.913,1.913,0,1,0,0-3.826c-3.122,0-4.662,2.314-5.787,4" transform="translate(33.351 22353.227)" fill="#92e8db"/>
    <g id="imparcialidad" transform="translate(299.726 22586.604)">
      <g id="Grupo_1103948" data-name="Grupo 1103948" transform="translate(8.045 26.928)">
        <g id="Grupo_1103942" data-name="Grupo 1103942" transform="translate(0.002 35.391)">
          <path id="Trazado_913954" data-name="Trazado 913954" d="M178.824,324.327l11.461,19.851H167.363Z" transform="translate(-147.438 -321.734)" fill="#685e68" fill-rule="evenodd"/>
          <path id="Trazado_913955" data-name="Trazado 913955" d="M250,325.46l.654-1.133,11.461,19.851h-1.308Z" transform="translate(-219.268 -321.734)" fill="#544854" fill-rule="evenodd"/>
          <path id="Trazado_913956" data-name="Trazado 913956" d="M77.772,306.415a1.912,1.912,0,0,0-1.912-1.912H16.912A1.911,1.911,0,0,0,15,306.415v1.362a1.912,1.912,0,0,0,1.912,1.912H75.861a1.912,1.912,0,0,0,1.912-1.912Z" transform="translate(-15 -304.503)" fill="#ecba78" fill-rule="evenodd"/>
          <path id="Trazado_913957" data-name="Trazado 913957" d="M16.521,310.752a1.913,1.913,0,0,0,1.059.32H76.529a1.911,1.911,0,0,0,1.912-1.912V307.8a1.912,1.912,0,0,0-.2-.849,1.912,1.912,0,0,1,.853,1.592V309.9a1.912,1.912,0,0,1-1.912,1.912H18.234a1.912,1.912,0,0,1-1.713-1.062Z" transform="translate(-16.322 -306.629)" fill="#e3a76f" fill-rule="evenodd"/>
        </g>
        <path id="Trazado_913980" data-name="Trazado 913980" d="M7.328,0A7.328,7.328,0,1,1,0,7.328,7.328,7.328,0,0,1,7.328,0Z" transform="translate(24.06 0)" fill="#ffe177"/>
        <path id="Trazado_913958" data-name="Trazado 913958" d="M250,33.911q.323-.029.654-.029a7.328,7.328,0,0,1,0,14.657q-.331,0-.654-.029a7.329,7.329,0,0,0,0-14.6Z" transform="translate(-219.266 -33.882)" fill="#ffd064" fill-rule="evenodd"/>
        <g id="Grupo_1103943" data-name="Grupo 1103943" transform="translate(35.143 20.699)">
          <path id="Trazado_913959" data-name="Trazado 913959" d="M283.716,243.97a.248.248,0,0,0,.245.284H295.4a.248.248,0,0,0,.246-.284,6.04,6.04,0,0,0-11.935,0Z" transform="translate(-283.713 -232.758)" fill="#92e8db" fill-rule="evenodd"/>
          <path id="Trazado_913960" data-name="Trazado 913960" d="M331.571,244.254a.248.248,0,0,0,.246-.284,6.042,6.042,0,0,0-5.562-5.091q.2-.013.406-.013a6.041,6.041,0,0,1,5.968,5.1.248.248,0,0,1-.246.284Z" transform="translate(-320.692 -232.758)" fill="#92e8db" fill-rule="evenodd"/>
          <path id="Trazado_913961" data-name="Trazado 913961" d="M309.074,198.271a3.054,3.054,0,1,0-3.052-3.054A3.059,3.059,0,0,0,309.074,198.271Z" transform="translate(-303.104 -192.164)" fill="#fc8775" fill-rule="evenodd"/>
          <path id="Trazado_913962" data-name="Trazado 913962" d="M327.808,198.265a3.054,3.054,0,0,0,0-6.094c.067,0,.135-.007.2-.007a3.054,3.054,0,0,1,0,6.107Q327.909,198.271,327.808,198.265Z" transform="translate(-322.042 -192.164)" fill="#92e8db" fill-rule="evenodd"/>
        </g>
        <g id="Grupo_1103944" data-name="Grupo 1103944" transform="translate(0 20.699)">
          <path id="Trazado_913963" data-name="Trazado 913963" d="M14.99,243.97a.248.248,0,0,0,.245.284H26.678a.248.248,0,0,0,.246-.284,6.04,6.04,0,0,0-11.935,0Z" transform="translate(-14.987 -232.758)" fill="#92e8db" fill-rule="evenodd"/>
          <path id="Trazado_913964" data-name="Trazado 913964" d="M62.845,244.254a.248.248,0,0,0,.246-.284,6.042,6.042,0,0,0-5.561-5.091q.2-.013.406-.013a6.041,6.041,0,0,1,5.968,5.1.248.248,0,0,1-.246.284Z" transform="translate(-51.966 -232.758)" fill="#92e8db" fill-rule="evenodd"/>
          <path id="Trazado_913965" data-name="Trazado 913965" d="M40.348,198.271a3.054,3.054,0,1,0-3.052-3.054A3.059,3.059,0,0,0,40.348,198.271Z" transform="translate(-34.379 -192.164)" fill="#fc8775" fill-rule="evenodd"/>
          <path id="Trazado_913966" data-name="Trazado 913966" d="M59.082,198.265a3.054,3.054,0,0,0,0-6.094c.067,0,.135-.007.2-.007a3.054,3.054,0,0,1,0,6.107Q59.183,198.271,59.082,198.265Z" transform="translate(-53.315 -192.164)" fill="#92e8db" fill-rule="evenodd"/>
        </g>
        <g id="Grupo_1103945" data-name="Grupo 1103945" transform="translate(15.693 20.699)">
          <path id="Trazado_913967" data-name="Trazado 913967" d="M134.99,243.97a.248.248,0,0,0,.245.284h11.444a.248.248,0,0,0,.246-.284,6.04,6.04,0,0,0-11.935,0Z" transform="translate(-134.987 -232.758)" fill="#92e8db" fill-rule="evenodd"/>
          <path id="Trazado_913968" data-name="Trazado 913968" d="M182.845,244.254a.248.248,0,0,0,.246-.284,6.042,6.042,0,0,0-5.561-5.091q.2-.013.406-.013a6.041,6.041,0,0,1,5.968,5.1.248.248,0,0,1-.246.284Z" transform="translate(-171.966 -232.758)" fill="#92e8db" fill-rule="evenodd"/>
          <path id="Trazado_913969" data-name="Trazado 913969" d="M160.348,198.271a3.054,3.054,0,1,0-3.052-3.054A3.059,3.059,0,0,0,160.348,198.271Z" transform="translate(-154.379 -192.164)" fill="#fc8775" fill-rule="evenodd"/>
          <path id="Trazado_913970" data-name="Trazado 913970" d="M179.082,198.265a3.054,3.054,0,0,0,0-6.094c.067,0,.135-.007.2-.007a3.054,3.054,0,0,1,0,6.107Q179.183,198.271,179.082,198.265Z" transform="translate(-173.315 -192.164)" fill="#92e8db" fill-rule="evenodd"/>
        </g>
        <g id="Grupo_1103946" data-name="Grupo 1103946" transform="translate(7.619 6.043)">
          <path id="Trazado_913971" data-name="Trazado 913971" d="M73.246,131.895a.248.248,0,0,0,.245.284H84.935a.248.248,0,0,0,.246-.284,6.04,6.04,0,0,0-11.934,0Z" transform="translate(-73.244 -120.683)" fill="#92e8db" fill-rule="evenodd"/>
          <path id="Trazado_913972" data-name="Trazado 913972" d="M121.1,132.179a.248.248,0,0,0,.246-.284,6.041,6.041,0,0,0-5.561-5.091q.2-.014.406-.013a6.041,6.041,0,0,1,5.968,5.1.248.248,0,0,1-.246.284Z" transform="translate(-110.222 -120.683)" fill="#60b7ff" fill-rule="evenodd"/>
          <path id="Trazado_913973" data-name="Trazado 913973" d="M98.6,86.2a3.054,3.054,0,1,0-3.052-3.054A3.059,3.059,0,0,0,98.6,86.2Z" transform="translate(-92.635 -80.089)" fill="#fc8775" fill-rule="evenodd"/>
          <path id="Trazado_913974" data-name="Trazado 913974" d="M117.338,86.19a3.054,3.054,0,0,0,0-6.094q.1-.007.2-.007a3.054,3.054,0,0,1,0,6.107Q117.439,86.2,117.338,86.19Z" transform="translate(-111.572 -80.089)" fill="#f1cbbc" fill-rule="evenodd"/>
        </g>
        <g id="Grupo_1103947" data-name="Grupo 1103947" transform="translate(50.836 20.699)">
          <path id="Trazado_913975" data-name="Trazado 913975" d="M403.715,243.97a.248.248,0,0,0,.245.284H415.4a.248.248,0,0,0,.246-.284,6.04,6.04,0,0,0-11.935,0Z" transform="translate(-403.713 -232.758)" fill="#92e8db" fill-rule="evenodd"/>
          <path id="Trazado_913976" data-name="Trazado 913976" d="M451.571,244.254a.248.248,0,0,0,.246-.284,6.042,6.042,0,0,0-5.561-5.091q.2-.013.406-.013a6.041,6.041,0,0,1,5.968,5.1.248.248,0,0,1-.246.284Z" transform="translate(-440.692 -232.758)" fill="#92e8db" fill-rule="evenodd"/>
          <path id="Trazado_913977" data-name="Trazado 913977" d="M429.074,198.271a3.054,3.054,0,1,0-3.052-3.054A3.059,3.059,0,0,0,429.074,198.271Z" transform="translate(-423.104 -192.164)" fill="#fc8775" fill-rule="evenodd"/>
          <path id="Trazado_913978" data-name="Trazado 913978" d="M447.808,198.265a3.054,3.054,0,0,0,0-6.094c.067,0,.135-.007.2-.007a3.054,3.054,0,0,1,0,6.107Q447.909,198.271,447.808,198.265Z" transform="translate(-442.041 -192.164)" fill="#92e8db" fill-rule="evenodd"/>
        </g>
      </g>
      <path id="Trazado_913979" data-name="Trazado 913979" d="M17.081,53.387a7.054,7.054,0,0,1,3.942,5.592,1.046,1.046,0,0,1-1.04,1.157H8.046a1.046,1.046,0,0,1-1.04-1.158,7.059,7.059,0,0,1,3.943-5.591,4.081,4.081,0,1,1,6.132,0Zm-3.066,1.392a4.959,4.959,0,0,0-4.66,3.264h9.321a4.958,4.958,0,0,0-4.661-3.264Zm0-2.092A1.989,1.989,0,1,0,12.027,50.7,1.993,1.993,0,0,0,14.014,52.687Zm38.209.7a7.054,7.054,0,0,1,3.942,5.592,1.046,1.046,0,0,1-1.04,1.157H43.189a1.046,1.046,0,0,1-1.04-1.158,7.059,7.059,0,0,1,3.943-5.591,4.081,4.081,0,1,1,6.132,0Zm-3.066,1.392a4.959,4.959,0,0,0-4.66,3.264h9.32A4.958,4.958,0,0,0,49.157,54.779Zm0-2.092A1.989,1.989,0,1,0,47.17,50.7,1.993,1.993,0,0,0,49.157,52.687Zm-16.383.7a7.054,7.054,0,0,1,3.942,5.592,1.046,1.046,0,0,1-1.04,1.157H23.739a1.046,1.046,0,0,1-1.04-1.158,7.059,7.059,0,0,1,3.943-5.591,4.081,4.081,0,1,1,6.132,0Zm-3.066,1.392a4.959,4.959,0,0,0-4.66,3.264h9.321a4.958,4.958,0,0,0-4.661-3.264Zm0-2.092A1.989,1.989,0,1,0,27.72,50.7,1.993,1.993,0,0,0,29.708,52.687Zm38.209.7a7.054,7.054,0,0,1,3.942,5.592,1.046,1.046,0,0,1-1.04,1.157H58.882a1.046,1.046,0,0,1-1.04-1.158,7.059,7.059,0,0,1,3.943-5.591,4.081,4.081,0,1,1,6.132,0ZM64.85,54.779a4.959,4.959,0,0,0-4.66,3.264h9.32A4.958,4.958,0,0,0,64.85,54.779Zm0-2.092A1.989,1.989,0,1,0,62.863,50.7,1.993,1.993,0,0,0,64.85,52.687ZM24.7,38.73a7.054,7.054,0,0,1,3.942,5.592,1.046,1.046,0,0,1-1.04,1.157H15.665a1.046,1.046,0,0,1-1.04-1.158,7.059,7.059,0,0,1,3.943-5.591,4.081,4.081,0,1,1,6.132,0Zm-3.067,1.392a4.959,4.959,0,0,0-4.66,3.264h9.32A4.958,4.958,0,0,0,21.633,40.122Zm0-2.092a1.989,1.989,0,1,0-1.988-1.989,1.993,1.993,0,0,0,1.988,1.989ZM36.123,68.55H9.958A2.958,2.958,0,0,1,7,65.592V64.23a2.958,2.958,0,0,1,2.958-2.958H68.907a2.958,2.958,0,0,1,2.958,2.958v1.362a2.958,2.958,0,0,1-2.958,2.958H42.741L51.8,84.239a1.046,1.046,0,0,1-.906,1.569H27.972a1.046,1.046,0,0,1-.906-1.569Zm4.2,0H38.54L29.784,83.716h19.3Zm29.447-4.32a.865.865,0,0,0-.865-.865H9.958a.865.865,0,0,0-.865.865v1.362a.865.865,0,0,0,.865.865H68.907a.865.865,0,0,0,.865-.865ZM39.432,25.882a8.375,8.375,0,1,1-8.374,8.374A8.378,8.378,0,0,1,39.432,25.882Zm0,2.092a6.282,6.282,0,1,0,6.282,6.282,6.285,6.285,0,0,0-6.282-6.282Zm-2.371,8.988a1.046,1.046,0,0,1,0-2.092H41.8a1.046,1.046,0,0,1,0,2.092Zm0-3.319a1.046,1.046,0,0,1,0-2.092H41.8a1.046,1.046,0,0,1,0,2.092Z" fill-rule="evenodd"/>
    </g>
  </g>
</svg>
