<svg xmlns="http://www.w3.org/2000/svg" xmlns:xlink="http://www.w3.org/1999/xlink" width="84.999" height="84.998" viewBox="0 0 84.999 84.998">
  <defs>
    <linearGradient id="linear-gradient" x1="0.5" y1="0.852" x2="0.5" gradientUnits="objectBoundingBox">
      <stop offset="0" stop-color="#fcb071"/>
      <stop offset="1" stop-color="#ffd884"/>
    </linearGradient>
  </defs>
  <g id="Grupo_1103993" data-name="Grupo 1103993" transform="translate(-809.95 -23234.213)">
    <path id="Trazado_911369" data-name="Trazado 911369" d="M298.4,99.851a42.5,42.5,0,1,0,42.5-42.5,42.5,42.5,0,0,0-42.5,42.5" transform="translate(511.55 23176.861)" fill="url(#linear-gradient)"/>
    <g id="pdca" transform="translate(814.697 23245.768)">
      <g id="Grupo_1103978" data-name="Grupo 1103978" transform="translate(17.375 8.072)">
        <g id="Grupo_1103974" data-name="Grupo 1103974" transform="translate(37.719 0.945)">
          <path id="Trazado_914037" data-name="Trazado 914037" d="M320.322,24.047a10.268,10.268,0,0,1,3.01,1.247l1.956-.868,2.3,2.3-.868,1.956a10.267,10.267,0,0,1,1.247,3.01l2,.768v3.26l-2,.768a10.274,10.274,0,0,1-1.247,3.008l.868,1.956-2.3,2.306-1.956-.869a10.271,10.271,0,0,1-3.01,1.249l-.768,1.994h-3.26l-.768-2a10.274,10.274,0,0,1-3.008-1.247l-1.956.869-2.306-2.306.869-1.954a10.3,10.3,0,0,1-1.249-3.01l-1.994-.768v-3.26l1.994-.768a10.269,10.269,0,0,1,1.249-3.01l-.869-1.956,2.306-2.3,1.954.868a10.3,10.3,0,0,1,3.01-1.247l.768-2h3.26Z" transform="translate(-305.882 -22.051)" fill="#ffd884" fill-rule="evenodd"/>
          <path id="Trazado_914038" data-name="Trazado 914038" d="M353,24.718l.657-.292,2.3,2.3-.868,1.956a10.266,10.266,0,0,1,1.247,3.01l2,.768v3.26l-2,.768a10.273,10.273,0,0,1-1.247,3.008l.868,1.956-2.3,2.306L353,43.47l2.014-2.014-.869-1.956a10.275,10.275,0,0,0,1.247-3.008l2-.768v-3.26l-2-.768a10.268,10.268,0,0,0-1.247-3.01l.869-1.956Zm-14.36,0,.292-.292,1.954.868c-.138.077-.274.156-.408.24Zm10.052-.671a10.268,10.268,0,0,1,3.01,1.247l-.539.24a13.433,13.433,0,0,0-3.419-1.488l-.768-2h.949Zm-7.8,18.846-1.956.869-.292-.292,1.838-.816Q340.678,42.778,340.887,42.893Zm10.814,0a10.272,10.272,0,0,1-3.01,1.249l-.768,1.994h-.949l.768-1.994a13.462,13.462,0,0,0,3.421-1.488Z" transform="translate(-334.252 -22.051)" fill="#ffd064" fill-rule="evenodd"/>
          <path id="Trazado_914039" data-name="Trazado 914039" d="M359.018,69.5a5.686,5.686,0,1,1-5.686,5.687A5.687,5.687,0,0,1,359.018,69.5Z" transform="translate(-346.976 -63.145)" fill="#eceff1" fill-rule="evenodd"/>
          <path id="Trazado_914040" data-name="Trazado 914040" d="M359.018,69.5c.129,0,.258,0,.386.014a5.686,5.686,0,0,0,0,11.346c-.128.008-.256.013-.386.013a5.686,5.686,0,0,1,0-11.373Z" transform="translate(-346.976 -63.145)" fill="#d1d1d6" fill-rule="evenodd"/>
        </g>
        <g id="Grupo_1103975" data-name="Grupo 1103975" transform="translate(1.629 0)">
          <path id="Trazado_914041" data-name="Trazado 914041" d="M54.461,43.094a1.1,1.1,0,0,1,1.1,1.1V64.386a1.1,1.1,0,0,1-1.1,1.1H37.56a1.1,1.1,0,0,1-1.1-1.1V44.191a1.1,1.1,0,0,1,1.1-1.1Z" transform="translate(-36.461 -39.331)" fill="#eceff1" fill-rule="evenodd"/>
          <path id="Trazado_914042" data-name="Trazado 914042" d="M160.834,43.094h1.34a1.1,1.1,0,0,1,1.1,1.1V64.386a1.1,1.1,0,0,1-1.1,1.1h-1.34a1.1,1.1,0,0,0,1.1-1.1V44.191A1.1,1.1,0,0,0,160.834,43.094Z" transform="translate(-144.174 -39.331)" fill="#d1d1d6" fill-rule="evenodd"/>
          <path id="Trazado_914043" data-name="Trazado 914043" d="M69.793,17.386a.67.67,0,0,1,.67-.67H72.7a2.245,2.245,0,0,1,4.364,0H79.29a.67.67,0,0,1,.67.67V20.15h-9.5a.67.67,0,0,1-.67-.67V17.386Z" transform="translate(-65.328 -15)" fill="#a79ba7" fill-rule="evenodd"/>
          <path id="Trazado_914044" data-name="Trazado 914044" d="M135.927,27.815h.638a.67.67,0,0,1,.67.67v2.763H136.6V28.485A.67.67,0,0,0,135.927,27.815Z" transform="translate(-122.603 -26.098)" fill="#837683" fill-rule="evenodd"/>
          <path id="Trazado_914045" data-name="Trazado 914045" d="M73.575,84.738a.347.347,0,0,0-.347-.347H70.14a.347.347,0,0,0-.347.347v3.088a.347.347,0,0,0,.347.347h3.088a.347.347,0,0,0,.347-.347Z" transform="translate(-65.328 -75.096)" fill="#92e8db" fill-rule="evenodd"/>
          <path id="Trazado_914046" data-name="Trazado 914046" d="M91.512,88.173a.347.347,0,0,0,.347-.347V84.738a.347.347,0,0,0-.347-.347h.525a.347.347,0,0,1,.347.347v3.088a.347.347,0,0,1-.347.347Z" transform="translate(-84.138 -75.096)" fill="#60b7ff" fill-rule="evenodd"/>
          <path id="Trazado_914047" data-name="Trazado 914047" d="M73.575,150.653a.347.347,0,0,0-.347-.347H70.14a.347.347,0,0,0-.347.347v3.088a.347.347,0,0,0,.347.347h3.088a.347.347,0,0,0,.347-.347Z" transform="translate(-65.328 -132.181)" fill="#ffd884" fill-rule="evenodd"/>
          <path id="Trazado_914048" data-name="Trazado 914048" d="M92.178,154.088a.347.347,0,0,0,.347-.347v-3.088a.347.347,0,0,0-.347-.347h.436a.347.347,0,0,1,.347.347v3.088a.347.347,0,0,1-.347.347Z" transform="translate(-84.714 -132.181)" fill="#ffd064" fill-rule="evenodd"/>
        </g>
        <g id="Grupo_1103976" data-name="Grupo 1103976" transform="translate(37.717 40.209)">
          <path id="Trazado_914049" data-name="Trazado 914049" d="M317.914,339.261a12.044,12.044,0,1,0-12.046-12.043A12.064,12.064,0,0,0,317.914,339.261Z" transform="translate(-305.868 -315.172)" fill="#92e8db" fill-rule="evenodd"/>
          <path id="Trazado_914050" data-name="Trazado 914050" d="M390.8,339.242a12.045,12.045,0,0,0,0-24.052q.333-.018.67-.018a12.044,12.044,0,0,1,0,24.089Q391.129,339.261,390.8,339.242Z" transform="translate(-379.419 -315.172)" fill="#92e8db" fill-rule="evenodd"/>
          <path id="Trazado_914051" data-name="Trazado 914051" d="M346.874,371.375l5.854-5.915a1.784,1.784,0,1,1,2.53,2.516c-2.375,2.4-4.733,4.808-7.119,7.195a1.787,1.787,0,0,1-2.526,0l-3.957-3.96a1.786,1.786,0,0,1,2.526-2.526Z" transform="translate(-336.409 -358.268)" fill="#fc8775" fill-rule="evenodd"/>
        </g>
        <g id="Grupo_1103977" data-name="Grupo 1103977" transform="translate(0 37.832)">
          <path id="Trazado_914052" data-name="Trazado 914052" d="M36.118,340.593A11.815,11.815,0,1,0,24.3,328.779a11.838,11.838,0,0,0,11.815,11.815Z" transform="translate(-24.303 -314.346)" fill="#fc8775" fill-rule="evenodd"/>
          <path id="Trazado_914053" data-name="Trazado 914053" d="M107.5,340.575a11.815,11.815,0,0,0,0-23.592q.333-.019.67-.019a11.815,11.815,0,1,1,0,23.629Q107.837,340.593,107.5,340.575Z" transform="translate(-96.359 -314.346)" fill="#fd4755" fill-rule="evenodd"/>
          <path id="Trazado_914054" data-name="Trazado 914054" d="M63.416,363.669a7.593,7.593,0,1,0-7.593-7.593A7.609,7.609,0,0,0,63.416,363.669Z" transform="translate(-51.601 -341.644)" fill="#eceff1" fill-rule="evenodd"/>
          <path id="Trazado_914055" data-name="Trazado 914055" d="M64.086,348.513a7.593,7.593,0,0,0,0,15.126q-.331.029-.67.029a7.593,7.593,0,1,1,0-15.185Q63.754,348.484,64.086,348.513Z" transform="translate(-51.601 -341.644)" fill="#d1d1d6" fill-rule="evenodd"/>
          <path id="Trazado_914056" data-name="Trazado 914056" d="M90.731,380a3.369,3.369,0,1,1-3.368,3.37A3.37,3.37,0,0,1,90.731,380Z" transform="translate(-78.916 -368.941)" fill="#fc8775" fill-rule="evenodd"/>
          <path id="Trazado_914057" data-name="Trazado 914057" d="M91.065,386.725q-.165.016-.334.016a3.369,3.369,0,0,1,0-6.738q.169,0,.334.016a3.369,3.369,0,0,0,0,6.705Z" transform="translate(-78.916 -368.941)" fill="#fd4755" fill-rule="evenodd"/>
          <path id="Trazado_914058" data-name="Trazado 914058" d="M162.884,301.533a.228.228,0,0,1,.113.384l-4.314,4.314a.228.228,0,0,1-.209.062l-3.377-.728a.228.228,0,0,1-.175-.175l-.728-3.375a.228.228,0,0,1,.062-.209l4.314-4.316a.228.228,0,0,1,.384.113l.666,3.09a.228.228,0,0,0,.175.175Z" transform="translate(-136.79 -297.423)" fill="#ffd884" fill-rule="evenodd"/>
          <path id="Trazado_914059" data-name="Trazado 914059" d="M166.9,327.562l.339.073a.228.228,0,0,1,.113.384l-4.314,4.314a.228.228,0,0,1-.209.062l-3.377-.728a.228.228,0,0,1-.175-.175l-.06-.277,3.194.689a.228.228,0,0,0,.209-.062Z" transform="translate(-141.143 -323.525)" fill="#c48958" fill-rule="evenodd"/>
        </g>
      </g>
      <path id="Trazado_914060" data-name="Trazado 914060" d="M40.781,54.714a12.9,12.9,0,1,1-5.933-5.952l3.843-3.845a1.072,1.072,0,0,1,1.805.532l.64,2.967,2.967.639a1.072,1.072,0,0,1,.532,1.805ZM33.7,50.59a10.751,10.751,0,1,0,5.244,5.256L36.2,55.253a8.679,8.679,0,1,1-1.9-1.91L33.7,50.6Zm-.71,4.454a6.532,6.532,0,1,0,1.511,1.52l-1.5,1.5A4.44,4.44,0,1,1,31.5,56.54Zm-3.1,3.1a2.3,2.3,0,1,0,1.5,1.53l-1.431,1.431a1.072,1.072,0,0,1-1.516-1.516Zm11.839-7.411-1.72-.371a1.071,1.071,0,0,1-.822-.822l-.371-1.719-2.894,2.9.516,2.394,2.4.516ZM34.707,10.763H37a2.173,2.173,0,0,1,2.169,2.169V33.127A2.173,2.173,0,0,1,37,35.3H20.1a2.173,2.173,0,0,1-2.17-2.17V12.932a2.173,2.173,0,0,1,2.17-2.169H22.4V9.788a1.072,1.072,0,0,1,1.072-1.072h2.179a3.316,3.316,0,0,1,5.809,0h2.178a1.072,1.072,0,0,1,1.072,1.072ZM22.4,12.907H20.1a.026.026,0,0,0-.027.026V33.127a.027.027,0,0,0,.027.027H37a.026.026,0,0,0,.026-.027V12.932A.026.026,0,0,0,37,12.907h-2.3v.315a1.072,1.072,0,0,1-1.072,1.072H23.468A1.072,1.072,0,0,1,22.4,13.221Zm5.925,4.46v3.782A1.072,1.072,0,0,1,27.25,22.22H23.468A1.072,1.072,0,0,1,22.4,21.148V17.367A1.072,1.072,0,0,1,23.468,16.3H27.25A1.072,1.072,0,0,1,28.321,17.367Zm-2.143,1.072H24.54v1.638h1.638Zm4.11.226a1.072,1.072,0,1,1,0-2.143h4.195a1.072,1.072,0,0,1,0,2.143Zm0,8.829a1.072,1.072,0,1,1,0-2.143h4.195a1.072,1.072,0,0,1,0,2.143Zm-1.966-1.3v3.782A1.072,1.072,0,0,1,27.25,31.05H23.468A1.072,1.072,0,0,1,22.4,29.978V26.2a1.072,1.072,0,0,1,1.072-1.072H27.25A1.072,1.072,0,0,1,28.321,26.2Zm-2.143,1.072H24.54v1.638h1.638Zm4.11-5.274a1.072,1.072,0,1,1,0-2.143h4.195a1.072,1.072,0,0,1,0,2.143Zm0,8.829a1.072,1.072,0,1,1,0-2.143h4.195a1.072,1.072,0,0,1,0,2.143ZM32.564,12.15V10.86H30.734a1.072,1.072,0,0,1-1.041-.82,1.173,1.173,0,0,0-2.28,0,1.072,1.072,0,0,1-1.042.821H24.54v1.29Zm14.083,7.39a1.072,1.072,0,0,1,1.539-1.306l2.51,1.449a1.072,1.072,0,0,1,0,1.856l-2.51,1.449a1.071,1.071,0,0,1-1.539-1.305h-4.47a1.072,1.072,0,1,1,0-2.143Zm.865,41.09h4.47a1.072,1.072,0,1,1,0,2.143h-4.47a1.071,1.071,0,0,1-1.539,1.305l-2.51-1.449a1.072,1.072,0,0,1,0-1.856l2.51-1.449a1.071,1.071,0,0,1,1.539,1.305ZM66.064,41.053V37.092a1.072,1.072,0,1,1,2.143,0v3.961a1.072,1.072,0,0,1,1.181,1.577l-1.324,2.294a1.072,1.072,0,0,1-1.856,0L64.883,42.63a1.072,1.072,0,0,1,1.181-1.577ZM28.98,41.1v3.961a1.072,1.072,0,0,1-2.143,0V41.1a1.071,1.071,0,0,1-1.181-1.577l1.325-2.294a1.072,1.072,0,0,1,1.856,0l1.325,2.294A1.071,1.071,0,0,1,28.98,41.1ZM70.339,10.117a11.318,11.318,0,0,1,2.271.941l1.456-.647a1.072,1.072,0,0,1,1.193.221l2.3,2.3a1.072,1.072,0,0,1,.222,1.192l-.645,1.456a11.3,11.3,0,0,1,.942,2.275l1.484.571a1.071,1.071,0,0,1,.687,1V22.69a1.072,1.072,0,0,1-.687,1l-1.485.571a11.4,11.4,0,0,1-.942,2.271l.646,1.457a1.072,1.072,0,0,1-.222,1.192l-2.3,2.3a1.071,1.071,0,0,1-1.192.222l-1.456-.645A11.291,11.291,0,0,1,70.339,32l-.571,1.485a1.072,1.072,0,0,1-1,.687H65.508a1.072,1.072,0,0,1-1-.687L63.937,32a11.381,11.381,0,0,1-2.274-.942l-1.457.646a1.071,1.071,0,0,1-1.192-.222l-2.3-2.3a1.072,1.072,0,0,1-.221-1.193l.647-1.455a11.386,11.386,0,0,1-.943-2.271l-1.486-.572a1.072,1.072,0,0,1-.687-1V19.431a1.071,1.071,0,0,1,.687-1l1.486-.572a11.4,11.4,0,0,1,.943-2.274l-.647-1.456a1.072,1.072,0,0,1,.221-1.193l2.3-2.3a1.072,1.072,0,0,1,1.193-.221l1.456.647a11.326,11.326,0,0,1,2.271-.941l.575-1.489a1.072,1.072,0,0,1,1-.686h3.259a1.071,1.071,0,0,1,1,.687Zm-1.8,1.28-.5-1.311H66.243L65.737,11.4a1.072,1.072,0,0,1-.752.657,9.179,9.179,0,0,0-2.7,1.117,1.072,1.072,0,0,1-1,.067l-1.283-.571-1.263,1.263.571,1.283a1.072,1.072,0,0,1-.067,1,9.257,9.257,0,0,0-1.121,2.7,1.072,1.072,0,0,1-.657.75l-1.309.5v1.787l1.309.5a1.072,1.072,0,0,1,.657.749,9.235,9.235,0,0,0,1.12,2.7,1.071,1.071,0,0,1,.068,1l-.571,1.283L60.01,29.45l1.284-.569a1.072,1.072,0,0,1,.994.066,9.245,9.245,0,0,0,2.7,1.118,1.072,1.072,0,0,1,.753.658l.5,1.309h1.787l.5-1.309a1.071,1.071,0,0,1,.752-.658,9.141,9.141,0,0,0,2.694-1.116,1.072,1.072,0,0,1,1-.068l1.284.569,1.264-1.264L74.958,26.9a1.072,1.072,0,0,1,.066-.994,9.267,9.267,0,0,0,1.118-2.7,1.072,1.072,0,0,1,.658-.752l1.309-.5V20.167l-1.309-.5a1.072,1.072,0,0,1-.658-.753,9.159,9.159,0,0,0-1.117-2.7,1.072,1.072,0,0,1-.068-1l.569-1.284-1.264-1.264-1.283.571a1.072,1.072,0,0,1-1-.067,9.177,9.177,0,0,0-2.7-1.117,1.072,1.072,0,0,1-.753-.658Zm-1.4,2.906a6.757,6.757,0,1,1-6.756,6.756A6.757,6.757,0,0,1,67.136,14.3Zm0,2.143a4.614,4.614,0,1,0,4.616,4.613A4.611,4.611,0,0,0,67.136,16.446Zm0,57A13.116,13.116,0,1,1,80.252,60.327,13.141,13.141,0,0,1,67.138,73.442Zm0-2.143A10.973,10.973,0,1,0,56.163,60.327,10.991,10.991,0,0,0,67.138,71.3Zm-1.585-11.43,5.1-5.15,0,0A2.856,2.856,0,0,1,74.7,58.742h0c-2.377,2.4-4.735,4.811-7.123,7.2a2.859,2.859,0,0,1-4.042,0l-3.957-3.96a2.858,2.858,0,0,1,0-4.04l0,0a2.86,2.86,0,0,1,4.042,0ZM64.8,62.145l-2.692-2.692A.715.715,0,1,0,61.1,60.464l3.957,3.96a.715.715,0,0,0,1.011,0c2.385-2.385,4.741-4.8,7.115-7.191a.712.712,0,1,0-1.008-1.006l-5.853,5.914a1.072,1.072,0,0,1-1.519,0Z" transform="translate(0 0)" fill-rule="evenodd"/>
    </g>
  </g>
</svg>
