<svg xmlns="http://www.w3.org/2000/svg" xmlns:xlink="http://www.w3.org/1999/xlink" width="103.331" height="103.332" viewBox="0 0 103.331 103.332">
  <defs>
    <linearGradient id="linear-gradient" x1="0.5" y1="0.852" x2="0.5" gradientUnits="objectBoundingBox">
      <stop offset="0" stop-color="#fcb071"/>
      <stop offset="1" stop-color="#ffd884"/>
    </linearGradient>
  </defs>
  <g id="Grupo_1103996" data-name="Grupo 1103996" transform="translate(-1220.197 -22569.084)">
    <g id="Grupo_1103971" data-name="Grupo 1103971" transform="translate(0 29)">
      <path id="Trazado_911369" data-name="Trazado 911369" d="M298.4,109.016a51.666,51.666,0,1,0,51.665-51.665A51.666,51.666,0,0,0,298.4,109.016" transform="translate(921.797 22482.732)" fill="url(#linear-gradient)"/>
      <path id="Trazado_911407" data-name="Trazado 911407" d="M294.793,227.649c-1.087,1.633-1.626,2.3-2.6,2.3s-1.516-.665-2.6-2.3c-1.125-1.69-2.665-4-5.788-4s-4.662,2.314-5.786,4c-1.087,1.633-1.626,2.3-2.6,2.3s-1.515-.665-2.6-2.3c-1.125-1.69-2.666-4-5.787-4s-4.663,2.314-5.787,4c-1.087,1.632-1.626,2.3-2.6,2.3s-1.515-.665-2.6-2.3c-1.125-1.69-2.665-4-5.787-4a1.913,1.913,0,1,0,0,3.826c.975,0,1.515.665,2.6,2.3,1.125,1.69,2.665,4,5.787,4s4.662-2.314,5.787-4c1.086-1.633,1.626-2.3,2.6-2.3s1.515.665,2.6,2.3c1.124,1.69,2.665,4,5.787,4s4.662-2.314,5.786-4c1.087-1.633,1.627-2.3,2.6-2.3s1.516.665,2.6,2.3c1.125,1.69,2.665,4,5.788,4s4.662-2.314,5.787-4c1.087-1.633,1.626-2.3,2.6-2.3a1.913,1.913,0,1,0,0-3.826c-3.122,0-4.662,2.314-5.787,4" transform="translate(979.277 22324.227)" fill="#92e8db"/>
      <g id="rompecabezas" transform="translate(1241.579 22562.131)">
        <g id="Grupo_1103967" data-name="Grupo 1103967" transform="translate(1.52 6.52)">
          <g id="Grupo_1103964" data-name="Grupo 1103964" transform="translate(0 0)">
            <g id="Grupo_1103963" data-name="Grupo 1103963">
              <path id="Trazado_913999" data-name="Trazado 913999" d="M41.453,25.617H38.74v-8.18A2.438,2.438,0,0,0,36.3,15H12.423A2.439,2.439,0,0,0,10,17.154V41.568a2.441,2.441,0,0,0,2.423,2.157h8.19v2.706a3.749,3.749,0,0,0,7.5,0V43.725H36.3a2.441,2.441,0,0,0,2.439-2.44V33.1h2.713a3.744,3.744,0,1,0,0-7.488Z" transform="translate(-10 -15)" fill="#f3f9ff"/>
            </g>
          </g>
          <g id="Grupo_1103966" data-name="Grupo 1103966" transform="translate(10.806 15.74)">
            <g id="Grupo_1103965" data-name="Grupo 1103965" transform="translate(28.74 28.725)">
              <path id="Trazado_914000" data-name="Trazado 914000" d="M299,310.056a2.444,2.444,0,0,0-2.439-2.443h-8.19v2.706a3.749,3.749,0,0,1-7.5,0v-2.706h-8.19a2.444,2.444,0,0,0-2.439,2.443v.008c0,.014,0,.029,0,.043v8.18h2.713a3.744,3.744,0,1,1,0,7.488h-2.713v8.173a2.438,2.438,0,0,0,2.439,2.393h23.877A2.438,2.438,0,0,0,299,333.9Z" transform="translate(-270.239 -307.613)" fill="#fcb071"/>
            </g>
            <path id="Trazado_914001" data-name="Trazado 914001" d="M112.565,318.571h-2.713v-8.18a2.444,2.444,0,0,0-2.439-2.443H99.222v2.706a3.749,3.749,0,0,1-7.5,0v-2.706H83.534a2.444,2.444,0,0,0-2.422,2.16v24.415a2.439,2.439,0,0,0,2.423,2.153h23.877a2.438,2.438,0,0,0,2.439-2.437v-8.18h2.713a3.744,3.744,0,1,0,0-7.488Z" transform="translate(-81.112 -279.172)" fill="#ffd884"/>
            <path id="Trazado_914002" data-name="Trazado 914002" d="M301.709,129.2H299v-8.18a2.438,2.438,0,0,0-2.439-2.437H272.679a2.438,2.438,0,0,0-2.439,2.437v.008c0,.014,0,.029,0,.043v8.18h2.713a3.744,3.744,0,1,1,0,7.488H270.24v8.173a2.441,2.441,0,0,0,2.439,2.4h8.19v2.706a3.749,3.749,0,0,0,7.5,0v-2.706h8.19a2.441,2.441,0,0,0,2.439-2.44v-8.18h2.713a3.744,3.744,0,1,0,0-7.488Z" transform="translate(-241.5 -118.583)" fill="#92e8db"/>
          </g>
        </g>
        <g id="Grupo_1103970" data-name="Grupo 1103970" transform="translate(0 5)">
          <path id="Trazado_914003" data-name="Trazado 914003" d="M132.841,119.2h-1.193v-6.661a3.962,3.962,0,0,0-3.959-3.956H103.811a3.964,3.964,0,0,0-3.959,3.964c0,.008,0,.016,0,.023v8.2a1.52,1.52,0,0,0,1.52,1.52h2.713a2.225,2.225,0,1,1,0,4.449h-2.713a1.52,1.52,0,0,0-1.52,1.52v8.172c0,.009,0,.018,0,.026a3.907,3.907,0,0,0,.163,1.052,3.95,3.95,0,0,0-1.083-.151h-8.19a1.52,1.52,0,0,0-1.52,1.52v2.707a2.229,2.229,0,0,1-4.458,0v-2.707a1.52,1.52,0,0,0-1.52-1.52H75.054a3.959,3.959,0,0,0-3.931,3.505,1.527,1.527,0,0,0-.01.175v24.414a1.524,1.524,0,0,0,.01.175,3.956,3.956,0,0,0,3.933,3.5H98.932a3.942,3.942,0,0,0,2.476-.871,3.935,3.935,0,0,0,2.4.82h23.877a3.962,3.962,0,0,0,3.959-3.956v-4.6a1.52,1.52,0,0,0-3.039,0v4.6a.92.92,0,0,1-.92.917H103.811a.922.922,0,0,1-.919-.89v-6.637h1.193a5.264,5.264,0,1,0,0-10.527h-1.193v-6.661c0-.018,0-.037,0-.055a.923.923,0,0,1,.92-.92h6.67v1.187a5.268,5.268,0,0,0,10.537,0v-1.187h6.67a.923.923,0,0,1,.92.924v5.512a1.52,1.52,0,1,0,3.039,0v-5.512a3.946,3.946,0,0,0-.844-2.443,3.94,3.94,0,0,0,.844-2.441v-6.661h1.193a5.264,5.264,0,1,0,0-10.527Zm-28.756,31.822a2.225,2.225,0,1,1,0,4.449h-2.713a1.52,1.52,0,0,0-1.52,1.52v8.18a.92.92,0,0,1-.92.917H75.055a.918.918,0,0,1-.9-.743v-24.2a.92.92,0,0,1,.9-.749h6.671v1.187a5.268,5.268,0,0,0,10.536,0V140.4h6.671a.923.923,0,0,1,.92.906v8.2a1.52,1.52,0,0,0,1.52,1.52Zm28.756-24.333h-2.713a1.52,1.52,0,0,0-1.52,1.52v8.18a.921.921,0,0,1-.92.92H119.5a1.52,1.52,0,0,0-1.52,1.52v2.706a2.229,2.229,0,0,1-4.458,0v-2.706a1.52,1.52,0,0,0-1.52-1.52h-8.19a.924.924,0,0,1-.919-.894v-6.636h1.193a5.264,5.264,0,1,0,0-10.527h-1.193v-6.711a.919.919,0,0,1,.92-.917h23.877a.92.92,0,0,1,.92.917v8.18a1.52,1.52,0,0,0,1.52,1.52h2.713a2.225,2.225,0,1,1,0,4.449Z" transform="translate(-60.306 -92.843)"/>
          <g id="Grupo_1103968" data-name="Grupo 1103968" transform="translate(68.304 59.322)">
            <path id="Trazado_914004" data-name="Trazado 914004" d="M451.009,398.415a1.52,1.52,0,1,1,1.489-1.223A1.536,1.536,0,0,1,451.009,398.415Z" transform="translate(-449.491 -395.379)"/>
          </g>
          <g id="Grupo_1103969" data-name="Grupo 1103969" transform="translate(10.968 10.739)">
            <path id="Trazado_914005" data-name="Trazado 914005" d="M76.839,85.359a1.52,1.52,0,0,1-1.006-.381L72.692,82.2A1.52,1.52,0,1,1,74.7,79.926l1.922,1.7,4.123-5.36a1.52,1.52,0,0,1,2.409,1.853l-5.115,6.649a1.519,1.519,0,0,1-1.059.586C76.936,85.356,76.887,85.359,76.839,85.359Z" transform="translate(-72.178 -75.67)"/>
          </g>
          <path id="Trazado_914006" data-name="Trazado 914006" d="M15.882,43.215a5.272,5.272,0,0,1-5.268-5.264V36.764H3.943a3.957,3.957,0,0,1-3.933-3.5A1.518,1.518,0,0,1,0,33.088V8.673A1.523,1.523,0,0,1,.01,8.5,3.956,3.956,0,0,1,3.943,5H27.82a3.962,3.962,0,0,1,3.959,3.956v6.661h1.193a5.264,5.264,0,1,1,0,10.527H31.779V32.8a3.964,3.964,0,0,1-3.959,3.96H21.15v1.187a5.272,5.272,0,0,1-5.268,5.264ZM3.039,32.979a.919.919,0,0,0,.9.746h8.19a1.52,1.52,0,0,1,1.52,1.52v2.706a2.229,2.229,0,0,0,4.458,0V35.244a1.52,1.52,0,0,1,1.52-1.52h8.19a.921.921,0,0,0,.92-.92v-8.18a1.52,1.52,0,0,1,1.52-1.52h2.713a2.225,2.225,0,1,0,0-4.449H30.26a1.52,1.52,0,0,1-1.52-1.52V8.956a.919.919,0,0,0-.92-.917H3.943a.918.918,0,0,0-.9.743Z" transform="translate(0 -5)"/>
        </g>
      </g>
    </g>
  </g>
</svg>
