<svg xmlns="http://www.w3.org/2000/svg" xmlns:xlink="http://www.w3.org/1999/xlink" width="103.331" height="103.33" viewBox="0 0 103.331 103.33">
  <defs>
    <linearGradient id="linear-gradient" x1="0.5" y1="0.852" x2="0.5" gradientUnits="objectBoundingBox">
      <stop offset="0" stop-color="#fcb071"/>
      <stop offset="1" stop-color="#ffd884"/>
    </linearGradient>
  </defs>
  <g id="Grupo_1103995" data-name="Grupo 1103995" transform="translate(-905.197 -22569.084)">
    <path id="Trazado_911369" data-name="Trazado 911369" d="M298.4,109.016a51.666,51.666,0,1,0,51.665-51.665A51.666,51.666,0,0,0,298.4,109.016" transform="translate(606.797 22511.732)" fill="url(#linear-gradient)"/>
    <g id="blindaje" transform="translate(927.051 22595)">
      <path id="Trazado_914007" data-name="Trazado 914007" d="M53.6,76.03l.151.151c-1.1,1.5-3.426.894-3.426.894s-34.334.35-41.13,0-6.446-4.888-6.446-4.888.224-59.333,0-64.312a5.818,5.818,0,0,1,4.38-6.041s39.644-.157,43.124,0,5.359,3.546,5.359,3.546l.423,37.089a24.2,24.2,0,0,1-5.02,1.722,38.442,38.442,0,0,1-6.18.894,5.416,5.416,0,0,0-5,6.319A43.012,43.012,0,0,0,51.771,74.211c.272.284.538.556.8.828.175.175.344.344.52.507s.338.332.5.483Z" transform="translate(-1.083 -0.698)" fill="#e1ebf4"/>
      <path id="Trazado_914008" data-name="Trazado 914008" d="M67.917,65.208A1.208,1.208,0,0,0,66.708,64h-14.5a1.208,1.208,0,0,0,0,2.417h14.5a1.208,1.208,0,0,0,1.208-1.208Z" transform="translate(-20.189 -25.335)" fill="#2d4356"/>
      <path id="Trazado_914009" data-name="Trazado 914009" d="M51.666,54H14.208a1.208,1.208,0,1,0,0,2.417H51.666a1.208,1.208,0,1,0,0-2.417Z" transform="translate(-5.146 -21.376)" fill="#2d4356"/>
      <path id="Trazado_914010" data-name="Trazado 914010" d="M24,45.208a1.208,1.208,0,0,0,1.208,1.208H49.375a1.208,1.208,0,0,0,0-2.417H25.209A1.208,1.208,0,0,0,24,45.208Z" transform="translate(-9.501 -17.417)" fill="#2d4356"/>
      <path id="Trazado_914011" data-name="Trazado 914011" d="M47.292,36.417a1.208,1.208,0,1,0,0-2.417H35.209a1.208,1.208,0,1,0,0,2.417Z" transform="translate(-13.459 -13.459)" fill="#2d4356"/>
      <path id="Trazado_914012" data-name="Trazado 914012" d="M48.624,10h-29A3.628,3.628,0,0,0,16,13.625V17.25a3.628,3.628,0,0,0,3.625,3.625h29a3.628,3.628,0,0,0,3.625-3.625V13.625A3.628,3.628,0,0,0,48.624,10Zm1.208,7.25a1.212,1.212,0,0,1-1.208,1.208h-29a1.212,1.212,0,0,1-1.208-1.208V13.625a1.212,1.212,0,0,1,1.208-1.208h29a1.212,1.212,0,0,1,1.208,1.208Z" transform="translate(-6.334 -3.959)" fill="#12263f"/>
      <rect id="Rectángulo_403323" data-name="Rectángulo 403323" width="31" height="6" rx="2" transform="translate(12 8)" fill="#81d9e3"/>
      <path id="Trazado_914013" data-name="Trazado 914013" d="M20.271,66A10.271,10.271,0,1,0,30.541,76.271,10.271,10.271,0,0,0,20.271,66Zm0,18.124a7.854,7.854,0,1,1,7.854-7.854A7.854,7.854,0,0,1,20.271,84.124Z" transform="translate(-3.959 -26.126)" fill="#12263f"/>
      <path id="Trazado_914014" data-name="Trazado 914014" d="M21.854,70a7.854,7.854,0,1,0,7.854,7.854A7.854,7.854,0,0,0,21.854,70Zm3.329,10.162a4.136,4.136,0,0,0-.683.344,4.333,4.333,0,0,0-.338.677c-.375.84-.942,2.108-2.308,2.108s-1.933-1.269-2.308-2.108A4.136,4.136,0,0,0,19.2,80.5a4.333,4.333,0,0,0-.677-.338c-.84-.375-2.108-.942-2.108-2.308s1.269-1.933,2.108-2.308a4.136,4.136,0,0,0,.683-.344,4.334,4.334,0,0,0,.338-.677c.375-.84.942-2.108,2.308-2.108s1.933,1.269,2.308,2.108a4.138,4.138,0,0,0,.344.683,4.334,4.334,0,0,0,.677.338c.84.375,2.108.942,2.108,2.308S26.023,79.787,25.183,80.162Z" transform="translate(-5.542 -27.71)" fill="#fc785e"/>
      <path id="Trazado_914015" data-name="Trazado 914015" d="M26.766,77.129a4.332,4.332,0,0,1-.677-.338,4.137,4.137,0,0,1-.344-.683C25.371,75.269,24.8,74,23.437,74s-1.933,1.269-2.308,2.108a4.335,4.335,0,0,1-.338.677,4.135,4.135,0,0,1-.683.344c-.84.375-2.108.942-2.108,2.308s1.269,1.933,2.108,2.308a4.332,4.332,0,0,1,.677.338,4.136,4.136,0,0,1,.344.683c.375.84.942,2.108,2.308,2.108s1.933-1.269,2.308-2.108a4.333,4.333,0,0,1,.338-.677,4.136,4.136,0,0,1,.683-.344c.84-.375,2.108-.942,2.108-2.308S27.606,77.5,26.766,77.129Zm-.985,2.4a4.481,4.481,0,0,0-1.4.846,4.482,4.482,0,0,0-.846,1.4c-.024.066-.06.145-.1.224-.036-.079-.072-.157-.1-.224a4.482,4.482,0,0,0-.846-1.4,4.481,4.481,0,0,0-1.4-.846,2.2,2.2,0,0,1-.217-.1,2.206,2.206,0,0,1,.217-.1,4.482,4.482,0,0,0,1.4-.846,4.482,4.482,0,0,0,.846-1.4c.024-.066.06-.145.1-.224.036.079.072.157.1.224a4.482,4.482,0,0,0,.846,1.4,4.482,4.482,0,0,0,1.4.846c.066.024.145.06.224.1C25.926,79.474,25.848,79.51,25.781,79.534Z" transform="translate(-7.125 -29.293)" fill="#2d4356"/>
      <path id="Trazado_914016" data-name="Trazado 914016" d="M27.889,81.318c-.079.036-.157.073-.224.1a4.482,4.482,0,0,0-1.4.846,4.482,4.482,0,0,0-.846,1.4c-.024.066-.06.145-.1.224-.036-.079-.072-.157-.1-.224a4.482,4.482,0,0,0-.846-1.4,4.482,4.482,0,0,0-1.4-.846,2.2,2.2,0,0,1-.217-.1,2.206,2.206,0,0,1,.217-.1,4.482,4.482,0,0,0,1.4-.846,4.482,4.482,0,0,0,.846-1.4c.024-.066.06-.145.1-.224.036.079.072.157.1.224a4.482,4.482,0,0,0,.846,1.4,4.482,4.482,0,0,0,1.4.846C27.732,81.245,27.811,81.281,27.889,81.318Z" transform="translate(-9.01 -31.173)" fill="#ffdb80"/>
      <g id="Grupo_1103972" data-name="Grupo 1103972" transform="translate(0 0)">
        <path id="Trazado_914017" data-name="Trazado 914017" d="M52.209,104a1.208,1.208,0,0,0,0,2.417H64.427c-.476-.775-.938-1.579-1.38-2.417Z" transform="translate(-20.189 -41.169)" fill="#12263f"/>
        <path id="Trazado_914018" data-name="Trazado 914018" d="M51,115.208a1.208,1.208,0,0,0,1.208,1.208h14.5a1.2,1.2,0,0,0,1.2-1.131q-.5-.613-.989-1.264a1.207,1.207,0,0,0-.212-.021h-14.5A1.208,1.208,0,0,0,51,115.208Z" transform="translate(-20.189 -45.127)" fill="#12263f"/>
        <path id="Trazado_914019" data-name="Trazado 914019" d="M52.209,74a1.208,1.208,0,0,0,0,2.417h7.359A5.249,5.249,0,0,1,62.425,74Z" transform="translate(-20.189 -29.293)" fill="#12263f"/>
        <path id="Trazado_914020" data-name="Trazado 914020" d="M52.209,86.417h7.221c-.184-.787-.35-1.591-.49-2.417h-6.73a1.208,1.208,0,0,0,0,2.417Z" transform="translate(-20.189 -33.252)" fill="#12263f"/>
        <path id="Trazado_914021" data-name="Trazado 914021" d="M52.209,94a1.208,1.208,0,0,0,0,2.417h9.148q-.479-1.173-.9-2.417Z" transform="translate(-20.189 -37.21)" fill="#12263f"/>
        <path id="Trazado_914022" data-name="Trazado 914022" d="M49.541,74.914H6.042a3.629,3.629,0,0,1-3.625-3.625V6.041A3.629,3.629,0,0,1,6.042,2.417h43.5a3.629,3.629,0,0,1,3.625,3.625V42.527a20.094,20.094,0,0,0,2.417-1.075V6.041A6.049,6.049,0,0,0,49.541,0H6.042A6.049,6.049,0,0,0,0,6.041V71.289a6.049,6.049,0,0,0,6.042,6.041h43.5a6.005,6.005,0,0,0,3.717-1.289c-.566-.527-1.156-1.094-1.764-1.7a3.6,3.6,0,0,1-1.953.576Z" transform="translate(0 0)" fill="#12263f"/>
        <path id="Trazado_914023" data-name="Trazado 914023" d="M103.6,75.636a3,3,0,0,0-2.163-1.13,40.126,40.126,0,0,1-6.579-.955A23.559,23.559,0,0,1,86.8,70.2a1.214,1.214,0,0,0-1.353,0,23.679,23.679,0,0,1-8.053,3.347,40.127,40.127,0,0,1-6.579.955,3.006,3.006,0,0,0-2.773,3.5c2.38,14.071,11.92,22.4,16.505,26.407a2.371,2.371,0,0,0,3.154,0c4.585-4.006,14.125-12.337,16.505-26.407a3,3,0,0,0-.61-2.374ZM86.124,102.593c-4.38-3.83-13.466-11.781-15.7-24.988a.59.59,0,0,1,.544-.689,42.308,42.308,0,0,0,6.972-1.009,26.628,26.628,0,0,0,8.18-3.256,26.629,26.629,0,0,0,8.18,3.256,42.4,42.4,0,0,0,6.972,1.009.6.6,0,0,1,.55.695c-2.235,13.2-11.322,21.151-15.7,24.982Z" transform="translate(-26.918 -27.709)" fill="#12263f"/>
      </g>
      <path id="Trazado_914024" data-name="Trazado 914024" d="M103.412,79.35c-2.235,13.2-11.322,21.151-15.7,24.982-4.38-3.83-13.466-11.781-15.7-24.988a.59.59,0,0,1,.544-.689,42.308,42.308,0,0,0,6.972-1.009,26.628,26.628,0,0,0,8.18-3.256,26.629,26.629,0,0,0,8.18,3.256,42.4,42.4,0,0,0,6.972,1.009.6.6,0,0,1,.55.695Z" transform="translate(-28.504 -29.447)" fill="#81d9e3"/>
      <path id="Trazado_914025" data-name="Trazado 914025" d="M100.861,88.347l-8.974,8.833-3.83-3.769a1.209,1.209,0,0,0-1.7,1.723l4.677,4.6a1.242,1.242,0,0,0,1.7,0l9.822-9.666a1.209,1.209,0,1,0-1.7-1.723Z" transform="translate(-34.043 -34.835)" fill="#12263f"/>
      <path id="Trazado_914026" data-name="Trazado 914026" d="M23.635,103.282a12.6,12.6,0,0,1-5.135-1.1v7.477l5.286-3.965,5.1,3.965-.2-7.434a12.606,12.606,0,0,1-5.045,1.052Z" transform="translate(-7.323 -40.451)" fill="#ffdb80"/>
      <path id="Trazado_914027" data-name="Trazado 914027" d="M16,100.854V110a1.219,1.219,0,0,0,2.011.9l4.634-4.12,4.634,4.12a1.221,1.221,0,0,0,2.011-.9v-9.15a12.623,12.623,0,0,1-2.417,1.16v5.3l-3.426-3.046a1.226,1.226,0,0,0-1.606,0l-3.426,3.046v-5.3A12.623,12.623,0,0,1,16,100.854Z" transform="translate(-6.334 -39.923)" fill="#12263f"/>
      <path id="Trazado_914028" data-name="Trazado 914028" d="M53.075,120.259a3.59,3.59,0,0,1-1.951.574H7.625A3.628,3.628,0,0,1,4,117.208V116a3.628,3.628,0,0,0,3.625,3.625h43.5a3.416,3.416,0,0,0,1.148-.193C52.543,119.716,52.809,119.987,53.075,120.259Z" transform="translate(-1.583 -45.919)" fill="#9fa5aa" opacity="0.5"/>
      <path id="Trazado_914029" data-name="Trazado 914029" d="M28.458,107.356v1.208s-3.426-3.045-3.426-3.051a1.236,1.236,0,0,0-1.607,0L20,108.565v-1.208l3.426-3.051a1.236,1.236,0,0,1,1.607,0C25.033,104.312,28.458,107.356,28.458,107.356Z" transform="translate(-7.917 -41.172)" fill="#ad9359" opacity="0.45"/>
      <path id="Trazado_914030" data-name="Trazado 914030" d="M51.416,20v1.208a1.212,1.212,0,0,1-1.208,1.208h-29A1.212,1.212,0,0,1,20,21.208V20a1.212,1.212,0,0,0,1.208,1.208h29A1.212,1.212,0,0,0,51.416,20Z" transform="translate(-7.917 -7.917)" fill="#0f423c" opacity="0.3"/>
      <path id="Trazado_914031" data-name="Trazado 914031" d="M51.416,15.208v1.208a1.212,1.212,0,0,0-1.208-1.208h-29A1.212,1.212,0,0,0,20,16.417V15.208A1.212,1.212,0,0,1,21.208,14h29a1.212,1.212,0,0,1,1.208,1.208Z" transform="translate(-7.917 -5.542)" fill="#e8fbfc" opacity="0.4"/>
      <path id="Trazado_914032" data-name="Trazado 914032" d="M29.708,77.854c0,.205-.006.4-.024.6a7.85,7.85,0,0,0-15.653,0,5,5,0,0,1-.03-.6,7.854,7.854,0,1,1,15.708,0Z" transform="translate(-5.542 -27.71)" fill="#f9dbd7" opacity="0.3"/>
      <path id="Trazado_914033" data-name="Trazado 914033" d="M29.708,82.6A7.854,7.854,0,1,1,14,82.6a5,5,0,0,1,.03-.6,7.85,7.85,0,0,0,15.653,0C29.7,82.2,29.708,82.4,29.708,82.6Z" transform="translate(-5.542 -32.46)" fill="#a54b3f" opacity="0.5"/>
      <path id="Trazado_914034" data-name="Trazado 914034" d="M54.748,7.625V8.833a3.628,3.628,0,0,0-3.625-3.625H7.625A3.628,3.628,0,0,0,4,8.833V7.625A3.628,3.628,0,0,1,7.625,4h43.5a3.628,3.628,0,0,1,3.625,3.625Z" transform="translate(-1.583 -1.583)" fill="#fff" opacity="0.5"/>
      <path id="Trazado_914035" data-name="Trazado 914035" d="M103.412,79.35c-.042.242-.085.483-.139.725a.6.6,0,0,0-.411-.211,42.4,42.4,0,0,1-6.972-1.009A26.629,26.629,0,0,1,87.71,75.6a26.629,26.629,0,0,1-8.18,3.256,42.306,42.306,0,0,1-6.972,1.009.587.587,0,0,0-.4.205c-.054-.242-.1-.483-.139-.725a.59.59,0,0,1,.544-.689,42.308,42.308,0,0,0,6.972-1.009,26.629,26.629,0,0,0,8.18-3.256,26.629,26.629,0,0,0,8.18,3.256,42.4,42.4,0,0,0,6.972,1.009.6.6,0,0,1,.55.695Z" transform="translate(-28.504 -29.447)" fill="#e8fbfc" opacity="0.4"/>
      <path id="Trazado_914036" data-name="Trazado 914036" d="M103.412,82.279c-2.235,13.2-11.322,21.151-15.7,24.982-4.38-3.83-13.466-11.781-15.7-24.988a.575.575,0,0,1,.139-.483c2.423,12.772,11.255,20.5,15.557,24.263,4.3-3.758,13.134-11.491,15.563-24.257a.6.6,0,0,1,.139.483Z" transform="translate(-28.504 -32.377)" fill="#0f423c" opacity="0.3"/>
    </g>
  </g>
</svg>
