<svg xmlns="http://www.w3.org/2000/svg" xmlns:xlink="http://www.w3.org/1999/xlink" width="85" height="85" viewBox="0 0 85 85">
  <defs>
    <linearGradient id="linear-gradient" x1="0.5" y1="0.852" x2="0.5" gradientUnits="objectBoundingBox">
      <stop offset="0" stop-color="#fcb071"/>
      <stop offset="1" stop-color="#ffd884"/>
    </linearGradient>
  </defs>
  <g id="Grupo_1103984" data-name="Grupo 1103984" transform="translate(-705.831 -2207.553)">
    <path id="Trazado_911369" data-name="Trazado 911369" d="M298.4,99.851a42.5,42.5,0,1,0,42.5-42.5,42.5,42.5,0,0,0-42.5,42.5" transform="translate(407.432 2150.202)" fill="url(#linear-gradient)"/>
    <path id="Trazado_911407" data-name="Trazado 911407" d="M286.55,226.938c-.894,1.343-1.338,1.89-2.141,1.89s-1.247-.547-2.141-1.89c-.926-1.39-2.192-3.293-4.761-3.293s-3.835,1.9-4.76,3.293c-.894,1.343-1.338,1.89-2.14,1.89s-1.246-.547-2.14-1.89c-.925-1.39-2.193-3.293-4.76-3.293s-3.835,1.9-4.761,3.294c-.894,1.343-1.338,1.89-2.14,1.89s-1.246-.547-2.14-1.89c-.925-1.39-2.192-3.294-4.76-3.294a1.574,1.574,0,1,0,0,3.147c.8,0,1.246.547,2.14,1.89.925,1.39,2.192,3.293,4.76,3.293s3.835-1.9,4.76-3.293c.894-1.343,1.337-1.89,2.14-1.89s1.246.547,2.14,1.89c.925,1.39,2.192,3.294,4.76,3.294s3.835-1.9,4.76-3.294c.894-1.343,1.338-1.89,2.14-1.89s1.247.547,2.141,1.89c.926,1.39,2.193,3.293,4.761,3.293s3.835-1.9,4.761-3.293c.894-1.343,1.338-1.89,2.141-1.89a1.574,1.574,0,1,0,0-3.147c-2.568,0-3.835,1.9-4.761,3.293" transform="translate(457.497 1990.315)" fill="#92e8db"/>
    <g id="obrero-2" transform="translate(726.25 2231.182)">
      <g id="Grupo_1103707" data-name="Grupo 1103707" transform="translate(23.899 5.504)">
        <circle id="Elipse_11550" data-name="Elipse 11550" cx="2.531" cy="2.531" r="2.531" transform="translate(28.345 13.666)" fill="#fee7be"/>
        <circle id="Elipse_11551" data-name="Elipse 11551" cx="2.531" cy="2.531" r="2.531" transform="translate(0 13.666)" fill="#fee7be"/>
        <circle id="Elipse_11552" data-name="Elipse 11552" cx="13.16" cy="13.16" r="13.16" transform="translate(3.543)" fill="#fee7be"/>
      </g>
      <path id="Trazado_913699" data-name="Trazado 913699" d="M211.1,45.922a13.16,13.16,0,0,0-10.629,20.919V57.311L211.1,59.841l10.629-2.531v9.531A13.16,13.16,0,0,0,211.1,45.922Z" transform="translate(-170.496 -40.418)" fill="#666"/>
      <path id="Trazado_913700" data-name="Trazado 913700" d="M211.1,24.808a13.16,13.16,0,0,0-13.16,13.16h26.32A13.16,13.16,0,0,0,211.1,24.808Z" transform="translate(-170.496 -21.834)" fill="#ffd884"/>
      <g id="Grupo_1103708" data-name="Grupo 1103708" transform="translate(26.663 2.974)">
        <path id="Trazado_913701" data-name="Trazado 913701" d="M213.376,25.005a13.168,13.168,0,0,0-15.438,12.963h4.555A13.163,13.163,0,0,1,213.376,25.005Z" transform="translate(-197.159 -24.808)" fill="#fcb071"/>
        <path id="Trazado_913702" data-name="Trazado 913702" d="M205.378,142.111a31,31,0,0,0,13.939-3.29H191.439A31,31,0,0,0,205.378,142.111Z" transform="translate(-191.439 -125.155)" fill="#fcb071"/>
      </g>
      <g id="Grupo_1103709" data-name="Grupo 1103709" transform="translate(24.911 0.949)">
        <rect id="Rectángulo_403213" data-name="Rectángulo 403213" width="31.382" height="2.531" transform="translate(0 13.666)" fill="#ffd884"/>
        <rect id="Rectángulo_403214" data-name="Rectángulo 403214" width="5.062" height="13.666" transform="translate(13.16)" fill="#ffd884"/>
      </g>
      <path id="Trazado_913703" data-name="Trazado 913703" d="M211.416,303.39H181.047V279.854a3.8,3.8,0,0,1,3.8-3.8H207.62a3.8,3.8,0,0,1,3.8,3.8Z" transform="translate(-155.63 -242.968)" fill="#fc8775"/>
      <path id="Trazado_913704" data-name="Trazado 913704" d="M269.724,276.058h9.111l-4.555,6.074Z" transform="translate(-233.677 -242.968)" fill="#f2f2f2"/>
      <path id="Trazado_913705" data-name="Trazado 913705" d="M184.844,276.058a3.8,3.8,0,0,0-3.8,3.8V303.39h19.73l-13.772-27.332Z" transform="translate(-155.631 -242.968)" fill="#eb5e48"/>
      <g id="Grupo_1103710" data-name="Grupo 1103710" transform="translate(25.417 39.164)">
        <rect id="Rectángulo_403215" data-name="Rectángulo 403215" width="30.369" height="5.315" fill="#f2f2f2"/>
        <rect id="Rectángulo_403216" data-name="Rectángulo 403216" width="30.369" height="5.315" transform="translate(0 10.376)" fill="#f2f2f2"/>
      </g>
      <g id="Grupo_1103711" data-name="Grupo 1103711" transform="translate(25.417 27.342)">
        <path id="Trazado_913706" data-name="Trazado 913706" d="M181.047,326.73v5.315h11.7l-2.678-5.315Z" transform="translate(-181.047 -314.908)" fill="#e5e5e5"/>
        <path id="Trazado_913707" data-name="Trazado 913707" d="M181.047,413.3v5.315h16.925l-2.678-5.315Z" transform="translate(-181.047 -391.097)" fill="#e5e5e5"/>
        <path id="Trazado_913708" data-name="Trazado 913708" d="M414.174,253.087V238.7a5.568,5.568,0,0,0,.127-10.6v6.037h-3.543v-6.037a5.568,5.568,0,0,0,.127,10.6v14.383Z" transform="translate(-379.882 -228.105)" fill="#e5e5e5"/>
      </g>
      <path id="Trazado_913709" data-name="Trazado 913709" d="M413.3,354.716V347.63a1.9,1.9,0,0,1,1.9-1.9h6.58a1.9,1.9,0,0,1,1.9,1.9v7.086a1.9,1.9,0,0,1-1.9,1.9h-6.58A1.9,1.9,0,0,1,413.3,354.716Z" transform="translate(-360.039 -304.291)" fill="#ffd884"/>
      <path id="Trazado_913710" data-name="Trazado 913710" d="M415.193,345.732a1.9,1.9,0,0,0-1.9,1.9v7.086a1.9,1.9,0,0,0,1.9,1.9h2.657V345.732Z" transform="translate(-360.039 -304.291)" fill="#fcb071"/>
      <rect id="Rectángulo_403217" data-name="Rectángulo 403217" width="26.32" height="21.765" transform="translate(5.171 33.09)" fill="#f2f2f2"/>
      <path id="Trazado_913711" data-name="Trazado 913711" d="M12.14,276.058v21.765H28.047l-12.9-21.765Z" transform="translate(-6.969 -242.968)" fill="#e5e5e5"/>
      <path id="Trazado_913712" data-name="Trazado 913712" d="M66.515,189.233c0,3.355-6.074,10.629-6.074,10.629s-6.074-7.275-6.074-10.629a6.074,6.074,0,0,1,12.148,0Z" transform="translate(-44.134 -161.205)" fill="#92e8db"/>
      <path id="Trazado_913713" data-name="Trazado 913713" d="M56.9,189.739a6.073,6.073,0,0,1,5.977-6.071,6.074,6.074,0,0,0-8.507,5.565c0,3.355,6.074,10.629,6.074,10.629s.435-.521,1.073-1.349C59.715,196.129,56.9,192.024,56.9,189.739Z" transform="translate(-44.133 -161.205)" fill="#50a9a9"/>
      <circle id="Elipse_11553" data-name="Elipse 11553" cx="2.784" cy="2.784" r="2.784" transform="translate(13.523 25.244)" fill="#ffd884"/>
      <path id="Trazado_913714" data-name="Trazado 913714" d="M287.711,210.71a.949.949,0,0,0-1.191-1.478,2.478,2.478,0,0,1-3.111,0,.949.949,0,0,0-1.191,1.477,4.376,4.376,0,0,0,5.494,0Z" transform="translate(-244.363 -183.967)"/>
      <path id="Trazado_913715" data-name="Trazado 913715" d="M344.041,177.138h.633a.949.949,0,0,0,0-1.9h-.633a.949.949,0,0,0,0,1.9Z" transform="translate(-298.251 -154.235)"/>
      <path id="Trazado_913716" data-name="Trazado 913716" d="M252.831,175.241H252.2a.949.949,0,0,0,0,1.9h.633a.949.949,0,0,0,0-1.9Z" transform="translate(-217.417 -154.236)"/>
      <path id="Trazado_913717" data-name="Trazado 913717" d="M61.734,40.492H60.658V38.6a6.518,6.518,0,0,0-.521-12.159.958.958,0,0,0-1.251.9V32.43H57.242V27.342a.958.958,0,0,0-1.251-.9,6.509,6.509,0,0,0-4.425,5.7H44.784a14.163,14.163,0,0,0,7.152-5.083.959.959,0,0,0,.116-.16,14.124,14.124,0,0,0,1.232-2.054,3.479,3.479,0,1,0,1.491-6.623l-.071,0q0-.064,0-.128h1.594a.949.949,0,0,0,.949-.949V14.615a.949.949,0,0,0-.949-.949h-1.8A14.177,14.177,0,0,0,44.082,2.458V.949A.949.949,0,0,0,43.133,0H38.071a.949.949,0,0,0-.949.949V2.458A14.177,14.177,0,0,0,26.711,13.666h-1.8a.949.949,0,0,0-.949.949v2.531a.949.949,0,0,0,.949.949h1.594q0,.064,0,.128l-.071,0a3.48,3.48,0,1,0,1.491,6.623A14.124,14.124,0,0,0,29.152,26.9a.961.961,0,0,0,.116.16,14.163,14.163,0,0,0,7.152,5.083H21.963a9.754,9.754,0,0,0,1.367-4.112,7.023,7.023,0,0,0-14.046,0,9.754,9.754,0,0,0,1.367,4.112H5.171a.949.949,0,0,0-.949.949V54.855a.949.949,0,0,0,.949.949H8.208a.949.949,0,0,0,0-1.9H6.12V34.039h5.639c.959,1.52,2.009,2.937,2.774,3.923H8.461a.949.949,0,0,0-.949.949v4.3a.949.949,0,0,0,.949.949H23.456v2.91H16.307a.949.949,0,0,0-.949.949v3.543a.949.949,0,1,0,1.9,0V48.971h7.149a.949.949,0,0,0,.949-.949V43.213a.949.949,0,0,0-.949-.949H9.41v-2.4H28.2a.949.949,0,1,0,0-1.9H18.081c.765-.986,1.814-2.4,2.774-3.923h9.688V53.905H13.27a.949.949,0,1,0,0,1.9H24.6l-.009,4.617a.959.959,0,0,0,.949.951H47.688a.949.949,0,1,0,0-1.9H26.495L26.5,55.8H54.837v3.67H52.749a.949.949,0,1,0,0,1.9h3.037a.949.949,0,0,0,.949-.949V53.273h5a2.85,2.85,0,0,0,2.847-2.847V43.339A2.851,2.851,0,0,0,61.734,40.492ZM28.391,18.664c0-.064,0-.129,0-.194q.313.129.628.251v3.825A12.163,12.163,0,0,1,28.391,18.664Zm24.417-.194c0,.065,0,.129,0,.194a12.163,12.163,0,0,1-.633,3.882V18.721Q52.5,18.6,52.808,18.47ZM56.356,21.7A1.581,1.581,0,0,1,54,23.081a14.007,14.007,0,0,0,.633-2.955c.046,0,.092-.007.139-.007A1.584,1.584,0,0,1,56.356,21.7ZM39.02,1.9h3.163V5.758a.949.949,0,1,0,1.9,0V4.426a12.277,12.277,0,0,1,8.48,9.24h-8.48V9.807a.949.949,0,1,0-1.9,0v3.859H39.02Zm-1.9,2.528v9.24h-8.48A12.277,12.277,0,0,1,37.122,4.426ZM25.86,15.564H55.344V16.2H25.86ZM47.885,18.1a30.162,30.162,0,0,1-7.283.886,30.157,30.157,0,0,1-7.283-.886ZM26.43,23.283a1.582,1.582,0,1,1,0-3.163c.046,0,.093,0,.139.007a13.989,13.989,0,0,0,.633,2.955A1.564,1.564,0,0,1,26.43,23.283ZM30.922,26.1V19.392a31.926,31.926,0,0,0,9.68,1.487,31.928,31.928,0,0,0,9.68-1.487V26.1a12.2,12.2,0,0,1-19.36,0ZM16.306,22.9a5.131,5.131,0,0,1,5.125,5.125c0,1.967-2.9,6.3-5.125,9.122-2.229-2.826-5.125-7.155-5.125-9.122A5.131,5.131,0,0,1,16.306,22.9Zm39.037,5.983v4.493a.949.949,0,0,0,.949.949h3.543a.949.949,0,0,0,.949-.949V28.887a4.621,4.621,0,0,1-1.356,8.147.949.949,0,0,0-.669.907v2.552H57.368V37.941a.949.949,0,0,0-.669-.907,4.621,4.621,0,0,1-1.356-8.147Zm-22.9,19.7V45.427H52.307v3.163Zm2.906-14.552,3.287,4.176H32.44V34.039Zm2.416,0h5.68L40.6,37.646Zm14.545,9.3v.19H32.44V40.113H55.47v.38h-.316A2.85,2.85,0,0,0,52.307,43.339Zm2.409-5.125H42.57l3.287-4.176H51.7A6.465,6.465,0,0,0,54.715,38.215ZM32.44,53.905V50.489H52.308a2.85,2.85,0,0,0,2.529,2.766v.651H32.44Zm30.243-3.48a.95.95,0,0,1-.949.949h-6.58a.949.949,0,0,1-.946-.886h2.085a.949.949,0,1,0,0-1.9H54.2v-.633h2.088a.949.949,0,1,0,0-1.9H54.2v-.633h2.088a.949.949,0,1,0,0-1.9H54.2v-.19a.95.95,0,0,1,.949-.949h6.58a.95.95,0,0,1,.949.949v7.086Z" fill="#12263f"/>
      <path id="Trazado_913718" data-name="Trazado 913718" d="M81.363,206.422a3.733,3.733,0,1,0-3.733,3.733A3.737,3.737,0,0,0,81.363,206.422Zm-5.568,0a1.835,1.835,0,1,1,1.835,1.835A1.837,1.837,0,0,1,75.8,206.422Z" transform="translate(-61.323 -178.394)"/>
    </g>
  </g>
</svg>
